%TF.GenerationSoftware,KiCad,Pcbnew,10.0.3*%
%TF.CreationDate,2026-06-26T08:43:05-05:00*%
%TF.ProjectId,digital-name-tag,64696769-7461-46c2-9d6e-616d652d7461,rev?*%
%TF.SameCoordinates,Original*%
%TF.FileFunction,Legend,Top*%
%TF.FilePolarity,Positive*%
%FSLAX46Y46*%
G04 Gerber Fmt 4.6, Leading zero omitted, Abs format (unit mm)*
G04 Created by KiCad (PCBNEW 10.0.3) date 2026-06-26 08:43:05*
%MOMM*%
%LPD*%
G01*
G04 APERTURE LIST*
%ADD10C,0.100000*%
%ADD11C,0.150000*%
%ADD12C,0.120000*%
%ADD13C,0.200000*%
%ADD14C,0.060000*%
%ADD15C,0.000000*%
G04 APERTURE END LIST*
D10*
X164235789Y-70015808D02*
X163473884Y-70301522D01*
X163473884Y-70301522D02*
X164235789Y-70587236D01*
X164711979Y-70301522D02*
X165473884Y-70301522D01*
X166711979Y-70015808D02*
X166711979Y-71015808D01*
X166711979Y-70063427D02*
X166807217Y-70015808D01*
X166807217Y-70015808D02*
X166997693Y-70015808D01*
X166997693Y-70015808D02*
X167092931Y-70063427D01*
X167092931Y-70063427D02*
X167140550Y-70111046D01*
X167140550Y-70111046D02*
X167188169Y-70206284D01*
X167188169Y-70206284D02*
X167188169Y-70491998D01*
X167188169Y-70491998D02*
X167140550Y-70587236D01*
X167140550Y-70587236D02*
X167092931Y-70634856D01*
X167092931Y-70634856D02*
X166997693Y-70682475D01*
X166997693Y-70682475D02*
X166807217Y-70682475D01*
X166807217Y-70682475D02*
X166711979Y-70634856D01*
X167616741Y-70682475D02*
X167616741Y-70015808D01*
X167616741Y-70206284D02*
X167664360Y-70111046D01*
X167664360Y-70111046D02*
X167711979Y-70063427D01*
X167711979Y-70063427D02*
X167807217Y-70015808D01*
X167807217Y-70015808D02*
X167902455Y-70015808D01*
X168616741Y-70634856D02*
X168521503Y-70682475D01*
X168521503Y-70682475D02*
X168331027Y-70682475D01*
X168331027Y-70682475D02*
X168235789Y-70634856D01*
X168235789Y-70634856D02*
X168188170Y-70539617D01*
X168188170Y-70539617D02*
X168188170Y-70158665D01*
X168188170Y-70158665D02*
X168235789Y-70063427D01*
X168235789Y-70063427D02*
X168331027Y-70015808D01*
X168331027Y-70015808D02*
X168521503Y-70015808D01*
X168521503Y-70015808D02*
X168616741Y-70063427D01*
X168616741Y-70063427D02*
X168664360Y-70158665D01*
X168664360Y-70158665D02*
X168664360Y-70253903D01*
X168664360Y-70253903D02*
X168188170Y-70349141D01*
X169045313Y-70634856D02*
X169140551Y-70682475D01*
X169140551Y-70682475D02*
X169331027Y-70682475D01*
X169331027Y-70682475D02*
X169426265Y-70634856D01*
X169426265Y-70634856D02*
X169473884Y-70539617D01*
X169473884Y-70539617D02*
X169473884Y-70491998D01*
X169473884Y-70491998D02*
X169426265Y-70396760D01*
X169426265Y-70396760D02*
X169331027Y-70349141D01*
X169331027Y-70349141D02*
X169188170Y-70349141D01*
X169188170Y-70349141D02*
X169092932Y-70301522D01*
X169092932Y-70301522D02*
X169045313Y-70206284D01*
X169045313Y-70206284D02*
X169045313Y-70158665D01*
X169045313Y-70158665D02*
X169092932Y-70063427D01*
X169092932Y-70063427D02*
X169188170Y-70015808D01*
X169188170Y-70015808D02*
X169331027Y-70015808D01*
X169331027Y-70015808D02*
X169426265Y-70063427D01*
X169854837Y-70634856D02*
X169950075Y-70682475D01*
X169950075Y-70682475D02*
X170140551Y-70682475D01*
X170140551Y-70682475D02*
X170235789Y-70634856D01*
X170235789Y-70634856D02*
X170283408Y-70539617D01*
X170283408Y-70539617D02*
X170283408Y-70491998D01*
X170283408Y-70491998D02*
X170235789Y-70396760D01*
X170235789Y-70396760D02*
X170140551Y-70349141D01*
X170140551Y-70349141D02*
X169997694Y-70349141D01*
X169997694Y-70349141D02*
X169902456Y-70301522D01*
X169902456Y-70301522D02*
X169854837Y-70206284D01*
X169854837Y-70206284D02*
X169854837Y-70158665D01*
X169854837Y-70158665D02*
X169902456Y-70063427D01*
X169902456Y-70063427D02*
X169997694Y-70015808D01*
X169997694Y-70015808D02*
X170140551Y-70015808D01*
X170140551Y-70015808D02*
X170235789Y-70063427D01*
X163331027Y-71625752D02*
X163711979Y-71625752D01*
X163473884Y-72292419D02*
X163473884Y-71435276D01*
X163473884Y-71435276D02*
X163521503Y-71340038D01*
X163521503Y-71340038D02*
X163616741Y-71292419D01*
X163616741Y-71292419D02*
X163711979Y-71292419D01*
X164188170Y-72292419D02*
X164092932Y-72244800D01*
X164092932Y-72244800D02*
X164045313Y-72197180D01*
X164045313Y-72197180D02*
X163997694Y-72101942D01*
X163997694Y-72101942D02*
X163997694Y-71816228D01*
X163997694Y-71816228D02*
X164045313Y-71720990D01*
X164045313Y-71720990D02*
X164092932Y-71673371D01*
X164092932Y-71673371D02*
X164188170Y-71625752D01*
X164188170Y-71625752D02*
X164331027Y-71625752D01*
X164331027Y-71625752D02*
X164426265Y-71673371D01*
X164426265Y-71673371D02*
X164473884Y-71720990D01*
X164473884Y-71720990D02*
X164521503Y-71816228D01*
X164521503Y-71816228D02*
X164521503Y-72101942D01*
X164521503Y-72101942D02*
X164473884Y-72197180D01*
X164473884Y-72197180D02*
X164426265Y-72244800D01*
X164426265Y-72244800D02*
X164331027Y-72292419D01*
X164331027Y-72292419D02*
X164188170Y-72292419D01*
X164950075Y-72292419D02*
X164950075Y-71625752D01*
X164950075Y-71816228D02*
X164997694Y-71720990D01*
X164997694Y-71720990D02*
X165045313Y-71673371D01*
X165045313Y-71673371D02*
X165140551Y-71625752D01*
X165140551Y-71625752D02*
X165235789Y-71625752D01*
X166283409Y-72244800D02*
X166378647Y-72292419D01*
X166378647Y-72292419D02*
X166569123Y-72292419D01*
X166569123Y-72292419D02*
X166664361Y-72244800D01*
X166664361Y-72244800D02*
X166711980Y-72149561D01*
X166711980Y-72149561D02*
X166711980Y-72101942D01*
X166711980Y-72101942D02*
X166664361Y-72006704D01*
X166664361Y-72006704D02*
X166569123Y-71959085D01*
X166569123Y-71959085D02*
X166426266Y-71959085D01*
X166426266Y-71959085D02*
X166331028Y-71911466D01*
X166331028Y-71911466D02*
X166283409Y-71816228D01*
X166283409Y-71816228D02*
X166283409Y-71768609D01*
X166283409Y-71768609D02*
X166331028Y-71673371D01*
X166331028Y-71673371D02*
X166426266Y-71625752D01*
X166426266Y-71625752D02*
X166569123Y-71625752D01*
X166569123Y-71625752D02*
X166664361Y-71673371D01*
X166997695Y-71625752D02*
X167378647Y-71625752D01*
X167140552Y-71292419D02*
X167140552Y-72149561D01*
X167140552Y-72149561D02*
X167188171Y-72244800D01*
X167188171Y-72244800D02*
X167283409Y-72292419D01*
X167283409Y-72292419D02*
X167378647Y-72292419D01*
X168140552Y-71625752D02*
X168140552Y-72292419D01*
X167711981Y-71625752D02*
X167711981Y-72149561D01*
X167711981Y-72149561D02*
X167759600Y-72244800D01*
X167759600Y-72244800D02*
X167854838Y-72292419D01*
X167854838Y-72292419D02*
X167997695Y-72292419D01*
X167997695Y-72292419D02*
X168092933Y-72244800D01*
X168092933Y-72244800D02*
X168140552Y-72197180D01*
X168473886Y-71625752D02*
X168854838Y-71625752D01*
X168616743Y-72292419D02*
X168616743Y-71435276D01*
X168616743Y-71435276D02*
X168664362Y-71340038D01*
X168664362Y-71340038D02*
X168759600Y-71292419D01*
X168759600Y-71292419D02*
X168854838Y-71292419D01*
X169045315Y-71625752D02*
X169426267Y-71625752D01*
X169188172Y-72292419D02*
X169188172Y-71435276D01*
X169188172Y-71435276D02*
X169235791Y-71340038D01*
X169235791Y-71340038D02*
X169331029Y-71292419D01*
X169331029Y-71292419D02*
X169426267Y-71292419D01*
X158372419Y-88546115D02*
X157372419Y-88546115D01*
X157372419Y-88546115D02*
X158086704Y-88212782D01*
X158086704Y-88212782D02*
X157372419Y-87879449D01*
X157372419Y-87879449D02*
X158372419Y-87879449D01*
X158372419Y-86974687D02*
X157848609Y-86974687D01*
X157848609Y-86974687D02*
X157753371Y-87022306D01*
X157753371Y-87022306D02*
X157705752Y-87117544D01*
X157705752Y-87117544D02*
X157705752Y-87308020D01*
X157705752Y-87308020D02*
X157753371Y-87403258D01*
X158324800Y-86974687D02*
X158372419Y-87069925D01*
X158372419Y-87069925D02*
X158372419Y-87308020D01*
X158372419Y-87308020D02*
X158324800Y-87403258D01*
X158324800Y-87403258D02*
X158229561Y-87450877D01*
X158229561Y-87450877D02*
X158134323Y-87450877D01*
X158134323Y-87450877D02*
X158039085Y-87403258D01*
X158039085Y-87403258D02*
X157991466Y-87308020D01*
X157991466Y-87308020D02*
X157991466Y-87069925D01*
X157991466Y-87069925D02*
X157943847Y-86974687D01*
X157705752Y-86069925D02*
X158515276Y-86069925D01*
X158515276Y-86069925D02*
X158610514Y-86117544D01*
X158610514Y-86117544D02*
X158658133Y-86165163D01*
X158658133Y-86165163D02*
X158705752Y-86260401D01*
X158705752Y-86260401D02*
X158705752Y-86403258D01*
X158705752Y-86403258D02*
X158658133Y-86498496D01*
X158324800Y-86069925D02*
X158372419Y-86165163D01*
X158372419Y-86165163D02*
X158372419Y-86355639D01*
X158372419Y-86355639D02*
X158324800Y-86450877D01*
X158324800Y-86450877D02*
X158277180Y-86498496D01*
X158277180Y-86498496D02*
X158181942Y-86546115D01*
X158181942Y-86546115D02*
X157896228Y-86546115D01*
X157896228Y-86546115D02*
X157800990Y-86498496D01*
X157800990Y-86498496D02*
X157753371Y-86450877D01*
X157753371Y-86450877D02*
X157705752Y-86355639D01*
X157705752Y-86355639D02*
X157705752Y-86165163D01*
X157705752Y-86165163D02*
X157753371Y-86069925D01*
X158372419Y-85593734D02*
X157705752Y-85593734D01*
X157372419Y-85593734D02*
X157420038Y-85641353D01*
X157420038Y-85641353D02*
X157467657Y-85593734D01*
X157467657Y-85593734D02*
X157420038Y-85546115D01*
X157420038Y-85546115D02*
X157372419Y-85593734D01*
X157372419Y-85593734D02*
X157467657Y-85593734D01*
X158324800Y-84688973D02*
X158372419Y-84784211D01*
X158372419Y-84784211D02*
X158372419Y-84974687D01*
X158372419Y-84974687D02*
X158324800Y-85069925D01*
X158324800Y-85069925D02*
X158277180Y-85117544D01*
X158277180Y-85117544D02*
X158181942Y-85165163D01*
X158181942Y-85165163D02*
X157896228Y-85165163D01*
X157896228Y-85165163D02*
X157800990Y-85117544D01*
X157800990Y-85117544D02*
X157753371Y-85069925D01*
X157753371Y-85069925D02*
X157705752Y-84974687D01*
X157705752Y-84974687D02*
X157705752Y-84784211D01*
X157705752Y-84784211D02*
X157753371Y-84688973D01*
X158324800Y-83546115D02*
X158372419Y-83450877D01*
X158372419Y-83450877D02*
X158372419Y-83260401D01*
X158372419Y-83260401D02*
X158324800Y-83165163D01*
X158324800Y-83165163D02*
X158229561Y-83117544D01*
X158229561Y-83117544D02*
X158181942Y-83117544D01*
X158181942Y-83117544D02*
X158086704Y-83165163D01*
X158086704Y-83165163D02*
X158039085Y-83260401D01*
X158039085Y-83260401D02*
X158039085Y-83403258D01*
X158039085Y-83403258D02*
X157991466Y-83498496D01*
X157991466Y-83498496D02*
X157896228Y-83546115D01*
X157896228Y-83546115D02*
X157848609Y-83546115D01*
X157848609Y-83546115D02*
X157753371Y-83498496D01*
X157753371Y-83498496D02*
X157705752Y-83403258D01*
X157705752Y-83403258D02*
X157705752Y-83260401D01*
X157705752Y-83260401D02*
X157753371Y-83165163D01*
X158372419Y-82688972D02*
X157705752Y-82688972D01*
X157800990Y-82688972D02*
X157753371Y-82641353D01*
X157753371Y-82641353D02*
X157705752Y-82546115D01*
X157705752Y-82546115D02*
X157705752Y-82403258D01*
X157705752Y-82403258D02*
X157753371Y-82308020D01*
X157753371Y-82308020D02*
X157848609Y-82260401D01*
X157848609Y-82260401D02*
X158372419Y-82260401D01*
X157848609Y-82260401D02*
X157753371Y-82212782D01*
X157753371Y-82212782D02*
X157705752Y-82117544D01*
X157705752Y-82117544D02*
X157705752Y-81974687D01*
X157705752Y-81974687D02*
X157753371Y-81879448D01*
X157753371Y-81879448D02*
X157848609Y-81831829D01*
X157848609Y-81831829D02*
X158372419Y-81831829D01*
X158372419Y-81212782D02*
X158324800Y-81308020D01*
X158324800Y-81308020D02*
X158277180Y-81355639D01*
X158277180Y-81355639D02*
X158181942Y-81403258D01*
X158181942Y-81403258D02*
X157896228Y-81403258D01*
X157896228Y-81403258D02*
X157800990Y-81355639D01*
X157800990Y-81355639D02*
X157753371Y-81308020D01*
X157753371Y-81308020D02*
X157705752Y-81212782D01*
X157705752Y-81212782D02*
X157705752Y-81069925D01*
X157705752Y-81069925D02*
X157753371Y-80974687D01*
X157753371Y-80974687D02*
X157800990Y-80927068D01*
X157800990Y-80927068D02*
X157896228Y-80879449D01*
X157896228Y-80879449D02*
X158181942Y-80879449D01*
X158181942Y-80879449D02*
X158277180Y-80927068D01*
X158277180Y-80927068D02*
X158324800Y-80974687D01*
X158324800Y-80974687D02*
X158372419Y-81069925D01*
X158372419Y-81069925D02*
X158372419Y-81212782D01*
X158372419Y-80450877D02*
X157372419Y-80450877D01*
X157991466Y-80355639D02*
X158372419Y-80069925D01*
X157705752Y-80069925D02*
X158086704Y-80450877D01*
X158324800Y-79260401D02*
X158372419Y-79355639D01*
X158372419Y-79355639D02*
X158372419Y-79546115D01*
X158372419Y-79546115D02*
X158324800Y-79641353D01*
X158324800Y-79641353D02*
X158229561Y-79688972D01*
X158229561Y-79688972D02*
X157848609Y-79688972D01*
X157848609Y-79688972D02*
X157753371Y-79641353D01*
X157753371Y-79641353D02*
X157705752Y-79546115D01*
X157705752Y-79546115D02*
X157705752Y-79355639D01*
X157705752Y-79355639D02*
X157753371Y-79260401D01*
X157753371Y-79260401D02*
X157848609Y-79212782D01*
X157848609Y-79212782D02*
X157943847Y-79212782D01*
X157943847Y-79212782D02*
X158039085Y-79688972D01*
G36*
X166077860Y-97705529D02*
G01*
X166148949Y-97720544D01*
X166205332Y-97743431D01*
X166249708Y-97773314D01*
X166286042Y-97812737D01*
X166312713Y-97861311D01*
X166329697Y-97920994D01*
X166335804Y-97994476D01*
X166330424Y-98057464D01*
X166315250Y-98110228D01*
X166291046Y-98154699D01*
X166257399Y-98192208D01*
X166214595Y-98221601D01*
X166160926Y-98243054D01*
X166202923Y-98265274D01*
X166247327Y-98307168D01*
X166287230Y-98361915D01*
X166331713Y-98442051D01*
X166471786Y-98720000D01*
X166323531Y-98720000D01*
X166193044Y-98459087D01*
X166155646Y-98392253D01*
X166123199Y-98349113D01*
X166094980Y-98323532D01*
X166061713Y-98305822D01*
X166019358Y-98294330D01*
X165965593Y-98290132D01*
X165815322Y-98290132D01*
X165815322Y-98720000D01*
X165677325Y-98720000D01*
X165677325Y-98176803D01*
X165815322Y-98176803D01*
X165988796Y-98176803D01*
X166053782Y-98170908D01*
X166102758Y-98154979D01*
X166139433Y-98130519D01*
X166166806Y-98096446D01*
X166184077Y-98052130D01*
X166190357Y-97994415D01*
X166184061Y-97936716D01*
X166166780Y-97892650D01*
X166139433Y-97858982D01*
X166102813Y-97834904D01*
X166053840Y-97819191D01*
X165988796Y-97813370D01*
X165815322Y-97813370D01*
X165815322Y-98176803D01*
X165677325Y-98176803D01*
X165677325Y-97700041D01*
X165988796Y-97700041D01*
X166077860Y-97705529D01*
G37*
G36*
X166649412Y-97700041D02*
G01*
X167294274Y-97700041D01*
X167294274Y-97817278D01*
X166787409Y-97817278D01*
X166787409Y-98118185D01*
X167273086Y-98118185D01*
X167273086Y-98235422D01*
X166787409Y-98235422D01*
X166787409Y-98602763D01*
X167306547Y-98602763D01*
X167306547Y-98720000D01*
X166649412Y-98720000D01*
X166649412Y-97700041D01*
G37*
G36*
X167796559Y-98720000D02*
G01*
X167407175Y-97700041D01*
X167551339Y-97700041D01*
X167874412Y-98558799D01*
X168198217Y-97700041D01*
X168341709Y-97700041D01*
X167952997Y-98720000D01*
X167796559Y-98720000D01*
G37*
G36*
X169743663Y-98720000D02*
G01*
X169600170Y-98720000D01*
X169507297Y-98458171D01*
X169047510Y-98458171D01*
X168954637Y-98720000D01*
X168809129Y-98720000D01*
X168952351Y-98344842D01*
X169089214Y-98344842D01*
X169464249Y-98344842D01*
X169276366Y-97836268D01*
X169089214Y-98344842D01*
X168952351Y-98344842D01*
X169198513Y-97700041D01*
X169354951Y-97700041D01*
X169743663Y-98720000D01*
G37*
G36*
X165808483Y-100282763D02*
G01*
X166290069Y-100282763D01*
X166290069Y-100400000D01*
X165642459Y-100400000D01*
X165642459Y-100282763D01*
X165856599Y-100064776D01*
X166027020Y-99888433D01*
X166086552Y-99815349D01*
X166119588Y-99762587D01*
X166139571Y-99710543D01*
X166145905Y-99661287D01*
X166139355Y-99609692D01*
X166120470Y-99566216D01*
X166088874Y-99528907D01*
X166048180Y-99501062D01*
X165999389Y-99483835D01*
X165940314Y-99477739D01*
X165874899Y-99483102D01*
X165803293Y-99500026D01*
X165730955Y-99527112D01*
X165649298Y-99567620D01*
X165649298Y-99426936D01*
X165731829Y-99397456D01*
X165805003Y-99377294D01*
X165876183Y-99364471D01*
X165937566Y-99360502D01*
X166016790Y-99366031D01*
X166084077Y-99381629D01*
X166141389Y-99406304D01*
X166190296Y-99439759D01*
X166231464Y-99482613D01*
X166260549Y-99531310D01*
X166278366Y-99587024D01*
X166284574Y-99651517D01*
X166278643Y-99712943D01*
X166261004Y-99770769D01*
X166230457Y-99827988D01*
X166175275Y-99903637D01*
X166066648Y-100018065D01*
X165808483Y-100282763D01*
G37*
G36*
X166941965Y-99366268D02*
G01*
X167000392Y-99382792D01*
X167051625Y-99409565D01*
X167096841Y-99446968D01*
X167136676Y-99496240D01*
X167173361Y-99564726D01*
X167201747Y-99650718D01*
X167220420Y-99757866D01*
X167227229Y-99890387D01*
X167220428Y-100022492D01*
X167201768Y-100129416D01*
X167173384Y-100215336D01*
X167136676Y-100283862D01*
X167096844Y-100333109D01*
X167051630Y-100370495D01*
X167000397Y-100397256D01*
X166941968Y-100413775D01*
X166874726Y-100419539D01*
X166807484Y-100413775D01*
X166749048Y-100397258D01*
X166697802Y-100370497D01*
X166652570Y-100333110D01*
X166612714Y-100283862D01*
X166576033Y-100215340D01*
X166547667Y-100129422D01*
X166529019Y-100022496D01*
X166522222Y-99890387D01*
X166660891Y-99890387D01*
X166665084Y-99999571D01*
X166676433Y-100085970D01*
X166693323Y-100153386D01*
X166714502Y-100205216D01*
X166746012Y-100252703D01*
X166782523Y-100284625D01*
X166824794Y-100303573D01*
X166874726Y-100310118D01*
X166925011Y-100303555D01*
X166967486Y-100284578D01*
X167004077Y-100252651D01*
X167035560Y-100205216D01*
X167056764Y-100153383D01*
X167073673Y-100085965D01*
X167085034Y-99999568D01*
X167089232Y-99890387D01*
X167085028Y-99780786D01*
X167073658Y-99694169D01*
X167056748Y-99626680D01*
X167035560Y-99574886D01*
X167004073Y-99527419D01*
X166967480Y-99495475D01*
X166925007Y-99476489D01*
X166874726Y-99469923D01*
X166824798Y-99476471D01*
X166782529Y-99495427D01*
X166746016Y-99527367D01*
X166714502Y-99574886D01*
X166693339Y-99626677D01*
X166676448Y-99694164D01*
X166665090Y-99780783D01*
X166660891Y-99890387D01*
X166522222Y-99890387D01*
X166529027Y-99757861D01*
X166547688Y-99650713D01*
X166576056Y-99564722D01*
X166612714Y-99496240D01*
X166652573Y-99446967D01*
X166697807Y-99409563D01*
X166749053Y-99382791D01*
X166807487Y-99366268D01*
X166874726Y-99360502D01*
X166941965Y-99366268D01*
G37*
G36*
X167588525Y-100282763D02*
G01*
X168070111Y-100282763D01*
X168070111Y-100400000D01*
X167422501Y-100400000D01*
X167422501Y-100282763D01*
X167636641Y-100064776D01*
X167807062Y-99888433D01*
X167866594Y-99815349D01*
X167899630Y-99762587D01*
X167919612Y-99710543D01*
X167925947Y-99661287D01*
X167919396Y-99609692D01*
X167900512Y-99566216D01*
X167868916Y-99528907D01*
X167828222Y-99501062D01*
X167779431Y-99483835D01*
X167720355Y-99477739D01*
X167654941Y-99483102D01*
X167583335Y-99500026D01*
X167510997Y-99527112D01*
X167429340Y-99567620D01*
X167429340Y-99426936D01*
X167511871Y-99397456D01*
X167585045Y-99377294D01*
X167656225Y-99364471D01*
X167717608Y-99360502D01*
X167796831Y-99366031D01*
X167864119Y-99381629D01*
X167921431Y-99406304D01*
X167970338Y-99439759D01*
X168011506Y-99482613D01*
X168040591Y-99531310D01*
X168058408Y-99587024D01*
X168064616Y-99651517D01*
X168058684Y-99712943D01*
X168041046Y-99770769D01*
X168010499Y-99827988D01*
X167955317Y-99903637D01*
X167846690Y-100018065D01*
X167588525Y-100282763D01*
G37*
G36*
X168782536Y-99362923D02*
G01*
X168835446Y-99370272D01*
X168888655Y-99382260D01*
X168945783Y-99399581D01*
X168945783Y-99524633D01*
X168893347Y-99504407D01*
X168840942Y-99489767D01*
X168787978Y-99480713D01*
X168736100Y-99477739D01*
X168669145Y-99483999D01*
X168613414Y-99501671D01*
X168566666Y-99530018D01*
X168527395Y-99569574D01*
X168497692Y-99616421D01*
X168473394Y-99676343D01*
X168455380Y-99752125D01*
X168445085Y-99847034D01*
X168474532Y-99810131D01*
X168508104Y-99779882D01*
X168546140Y-99755748D01*
X168587694Y-99738190D01*
X168632114Y-99727558D01*
X168680047Y-99723935D01*
X168755891Y-99730306D01*
X168820348Y-99748379D01*
X168875505Y-99777342D01*
X168922885Y-99817419D01*
X168960767Y-99866514D01*
X168988453Y-99924086D01*
X169005868Y-99991780D01*
X169012034Y-100071737D01*
X169005726Y-100149561D01*
X168987773Y-100216398D01*
X168958950Y-100274194D01*
X168919099Y-100324406D01*
X168869838Y-100365353D01*
X168813249Y-100394823D01*
X168747907Y-100413120D01*
X168671864Y-100419539D01*
X168602219Y-100413733D01*
X168541767Y-100397117D01*
X168488856Y-100370265D01*
X168442267Y-100332889D01*
X168401304Y-100283862D01*
X168370232Y-100230163D01*
X168344600Y-100165830D01*
X168324986Y-100089126D01*
X168322564Y-100071737D01*
X168470303Y-100071737D01*
X168476976Y-100143381D01*
X168495461Y-100200462D01*
X168524586Y-100246065D01*
X168553920Y-100273901D01*
X168587600Y-100293676D01*
X168626489Y-100305856D01*
X168671864Y-100310118D01*
X168717208Y-100305857D01*
X168756066Y-100293677D01*
X168789715Y-100273902D01*
X168819021Y-100246065D01*
X168848180Y-100200457D01*
X168866686Y-100143377D01*
X168873365Y-100071737D01*
X168866663Y-99999644D01*
X168848140Y-99942497D01*
X168819021Y-99897103D01*
X168789735Y-99869414D01*
X168756092Y-99849731D01*
X168717227Y-99837601D01*
X168671864Y-99833356D01*
X168626469Y-99837601D01*
X168587573Y-99849731D01*
X168553901Y-99869415D01*
X168524586Y-99897103D01*
X168495502Y-99942492D01*
X168476998Y-99999639D01*
X168470303Y-100071737D01*
X168322564Y-100071737D01*
X168312302Y-99998052D01*
X168307759Y-99890387D01*
X168312971Y-99791670D01*
X168327800Y-99705207D01*
X168351305Y-99629399D01*
X168382922Y-99562854D01*
X168422493Y-99504422D01*
X168471875Y-99452326D01*
X168526468Y-99412564D01*
X168586976Y-99384080D01*
X168654529Y-99366569D01*
X168730605Y-99360502D01*
X168782536Y-99362923D01*
G37*
D11*
X169957142Y-80159580D02*
X169909523Y-80207200D01*
X169909523Y-80207200D02*
X169766666Y-80254819D01*
X169766666Y-80254819D02*
X169671428Y-80254819D01*
X169671428Y-80254819D02*
X169528571Y-80207200D01*
X169528571Y-80207200D02*
X169433333Y-80111961D01*
X169433333Y-80111961D02*
X169385714Y-80016723D01*
X169385714Y-80016723D02*
X169338095Y-79826247D01*
X169338095Y-79826247D02*
X169338095Y-79683390D01*
X169338095Y-79683390D02*
X169385714Y-79492914D01*
X169385714Y-79492914D02*
X169433333Y-79397676D01*
X169433333Y-79397676D02*
X169528571Y-79302438D01*
X169528571Y-79302438D02*
X169671428Y-79254819D01*
X169671428Y-79254819D02*
X169766666Y-79254819D01*
X169766666Y-79254819D02*
X169909523Y-79302438D01*
X169909523Y-79302438D02*
X169957142Y-79350057D01*
X170909523Y-80254819D02*
X170338095Y-80254819D01*
X170623809Y-80254819D02*
X170623809Y-79254819D01*
X170623809Y-79254819D02*
X170528571Y-79397676D01*
X170528571Y-79397676D02*
X170433333Y-79492914D01*
X170433333Y-79492914D02*
X170338095Y-79540533D01*
X171528571Y-79254819D02*
X171623809Y-79254819D01*
X171623809Y-79254819D02*
X171719047Y-79302438D01*
X171719047Y-79302438D02*
X171766666Y-79350057D01*
X171766666Y-79350057D02*
X171814285Y-79445295D01*
X171814285Y-79445295D02*
X171861904Y-79635771D01*
X171861904Y-79635771D02*
X171861904Y-79873866D01*
X171861904Y-79873866D02*
X171814285Y-80064342D01*
X171814285Y-80064342D02*
X171766666Y-80159580D01*
X171766666Y-80159580D02*
X171719047Y-80207200D01*
X171719047Y-80207200D02*
X171623809Y-80254819D01*
X171623809Y-80254819D02*
X171528571Y-80254819D01*
X171528571Y-80254819D02*
X171433333Y-80207200D01*
X171433333Y-80207200D02*
X171385714Y-80159580D01*
X171385714Y-80159580D02*
X171338095Y-80064342D01*
X171338095Y-80064342D02*
X171290476Y-79873866D01*
X171290476Y-79873866D02*
X171290476Y-79635771D01*
X171290476Y-79635771D02*
X171338095Y-79445295D01*
X171338095Y-79445295D02*
X171385714Y-79350057D01*
X171385714Y-79350057D02*
X171433333Y-79302438D01*
X171433333Y-79302438D02*
X171528571Y-79254819D01*
X169359580Y-89966666D02*
X169407200Y-90014285D01*
X169407200Y-90014285D02*
X169454819Y-90157142D01*
X169454819Y-90157142D02*
X169454819Y-90252380D01*
X169454819Y-90252380D02*
X169407200Y-90395237D01*
X169407200Y-90395237D02*
X169311961Y-90490475D01*
X169311961Y-90490475D02*
X169216723Y-90538094D01*
X169216723Y-90538094D02*
X169026247Y-90585713D01*
X169026247Y-90585713D02*
X168883390Y-90585713D01*
X168883390Y-90585713D02*
X168692914Y-90538094D01*
X168692914Y-90538094D02*
X168597676Y-90490475D01*
X168597676Y-90490475D02*
X168502438Y-90395237D01*
X168502438Y-90395237D02*
X168454819Y-90252380D01*
X168454819Y-90252380D02*
X168454819Y-90157142D01*
X168454819Y-90157142D02*
X168502438Y-90014285D01*
X168502438Y-90014285D02*
X168550057Y-89966666D01*
X168454819Y-89633332D02*
X168454819Y-88966666D01*
X168454819Y-88966666D02*
X169454819Y-89395237D01*
X160723809Y-94028628D02*
X160723809Y-94504819D01*
X160390476Y-93504819D02*
X160723809Y-94028628D01*
X160723809Y-94028628D02*
X161057142Y-93504819D01*
X161914285Y-94504819D02*
X161342857Y-94504819D01*
X161628571Y-94504819D02*
X161628571Y-93504819D01*
X161628571Y-93504819D02*
X161533333Y-93647676D01*
X161533333Y-93647676D02*
X161438095Y-93742914D01*
X161438095Y-93742914D02*
X161342857Y-93790533D01*
X157454819Y-75766666D02*
X156978628Y-76099999D01*
X157454819Y-76338094D02*
X156454819Y-76338094D01*
X156454819Y-76338094D02*
X156454819Y-75957142D01*
X156454819Y-75957142D02*
X156502438Y-75861904D01*
X156502438Y-75861904D02*
X156550057Y-75814285D01*
X156550057Y-75814285D02*
X156645295Y-75766666D01*
X156645295Y-75766666D02*
X156788152Y-75766666D01*
X156788152Y-75766666D02*
X156883390Y-75814285D01*
X156883390Y-75814285D02*
X156931009Y-75861904D01*
X156931009Y-75861904D02*
X156978628Y-75957142D01*
X156978628Y-75957142D02*
X156978628Y-76338094D01*
X156454819Y-75433332D02*
X156454819Y-74766666D01*
X156454819Y-74766666D02*
X157454819Y-75195237D01*
X170024819Y-66166666D02*
X169548628Y-66499999D01*
X170024819Y-66738094D02*
X169024819Y-66738094D01*
X169024819Y-66738094D02*
X169024819Y-66357142D01*
X169024819Y-66357142D02*
X169072438Y-66261904D01*
X169072438Y-66261904D02*
X169120057Y-66214285D01*
X169120057Y-66214285D02*
X169215295Y-66166666D01*
X169215295Y-66166666D02*
X169358152Y-66166666D01*
X169358152Y-66166666D02*
X169453390Y-66214285D01*
X169453390Y-66214285D02*
X169501009Y-66261904D01*
X169501009Y-66261904D02*
X169548628Y-66357142D01*
X169548628Y-66357142D02*
X169548628Y-66738094D01*
X170024819Y-65690475D02*
X170024819Y-65499999D01*
X170024819Y-65499999D02*
X169977200Y-65404761D01*
X169977200Y-65404761D02*
X169929580Y-65357142D01*
X169929580Y-65357142D02*
X169786723Y-65261904D01*
X169786723Y-65261904D02*
X169596247Y-65214285D01*
X169596247Y-65214285D02*
X169215295Y-65214285D01*
X169215295Y-65214285D02*
X169120057Y-65261904D01*
X169120057Y-65261904D02*
X169072438Y-65309523D01*
X169072438Y-65309523D02*
X169024819Y-65404761D01*
X169024819Y-65404761D02*
X169024819Y-65595237D01*
X169024819Y-65595237D02*
X169072438Y-65690475D01*
X169072438Y-65690475D02*
X169120057Y-65738094D01*
X169120057Y-65738094D02*
X169215295Y-65785713D01*
X169215295Y-65785713D02*
X169453390Y-65785713D01*
X169453390Y-65785713D02*
X169548628Y-65738094D01*
X169548628Y-65738094D02*
X169596247Y-65690475D01*
X169596247Y-65690475D02*
X169643866Y-65595237D01*
X169643866Y-65595237D02*
X169643866Y-65404761D01*
X169643866Y-65404761D02*
X169596247Y-65309523D01*
X169596247Y-65309523D02*
X169548628Y-65261904D01*
X169548628Y-65261904D02*
X169453390Y-65214285D01*
X167759580Y-91766666D02*
X167807200Y-91814285D01*
X167807200Y-91814285D02*
X167854819Y-91957142D01*
X167854819Y-91957142D02*
X167854819Y-92052380D01*
X167854819Y-92052380D02*
X167807200Y-92195237D01*
X167807200Y-92195237D02*
X167711961Y-92290475D01*
X167711961Y-92290475D02*
X167616723Y-92338094D01*
X167616723Y-92338094D02*
X167426247Y-92385713D01*
X167426247Y-92385713D02*
X167283390Y-92385713D01*
X167283390Y-92385713D02*
X167092914Y-92338094D01*
X167092914Y-92338094D02*
X166997676Y-92290475D01*
X166997676Y-92290475D02*
X166902438Y-92195237D01*
X166902438Y-92195237D02*
X166854819Y-92052380D01*
X166854819Y-92052380D02*
X166854819Y-91957142D01*
X166854819Y-91957142D02*
X166902438Y-91814285D01*
X166902438Y-91814285D02*
X166950057Y-91766666D01*
X167283390Y-91195237D02*
X167235771Y-91290475D01*
X167235771Y-91290475D02*
X167188152Y-91338094D01*
X167188152Y-91338094D02*
X167092914Y-91385713D01*
X167092914Y-91385713D02*
X167045295Y-91385713D01*
X167045295Y-91385713D02*
X166950057Y-91338094D01*
X166950057Y-91338094D02*
X166902438Y-91290475D01*
X166902438Y-91290475D02*
X166854819Y-91195237D01*
X166854819Y-91195237D02*
X166854819Y-91004761D01*
X166854819Y-91004761D02*
X166902438Y-90909523D01*
X166902438Y-90909523D02*
X166950057Y-90861904D01*
X166950057Y-90861904D02*
X167045295Y-90814285D01*
X167045295Y-90814285D02*
X167092914Y-90814285D01*
X167092914Y-90814285D02*
X167188152Y-90861904D01*
X167188152Y-90861904D02*
X167235771Y-90909523D01*
X167235771Y-90909523D02*
X167283390Y-91004761D01*
X167283390Y-91004761D02*
X167283390Y-91195237D01*
X167283390Y-91195237D02*
X167331009Y-91290475D01*
X167331009Y-91290475D02*
X167378628Y-91338094D01*
X167378628Y-91338094D02*
X167473866Y-91385713D01*
X167473866Y-91385713D02*
X167664342Y-91385713D01*
X167664342Y-91385713D02*
X167759580Y-91338094D01*
X167759580Y-91338094D02*
X167807200Y-91290475D01*
X167807200Y-91290475D02*
X167854819Y-91195237D01*
X167854819Y-91195237D02*
X167854819Y-91004761D01*
X167854819Y-91004761D02*
X167807200Y-90909523D01*
X167807200Y-90909523D02*
X167759580Y-90861904D01*
X167759580Y-90861904D02*
X167664342Y-90814285D01*
X167664342Y-90814285D02*
X167473866Y-90814285D01*
X167473866Y-90814285D02*
X167378628Y-90861904D01*
X167378628Y-90861904D02*
X167331009Y-90909523D01*
X167331009Y-90909523D02*
X167283390Y-91004761D01*
X163854819Y-76566666D02*
X163378628Y-76899999D01*
X163854819Y-77138094D02*
X162854819Y-77138094D01*
X162854819Y-77138094D02*
X162854819Y-76757142D01*
X162854819Y-76757142D02*
X162902438Y-76661904D01*
X162902438Y-76661904D02*
X162950057Y-76614285D01*
X162950057Y-76614285D02*
X163045295Y-76566666D01*
X163045295Y-76566666D02*
X163188152Y-76566666D01*
X163188152Y-76566666D02*
X163283390Y-76614285D01*
X163283390Y-76614285D02*
X163331009Y-76661904D01*
X163331009Y-76661904D02*
X163378628Y-76757142D01*
X163378628Y-76757142D02*
X163378628Y-77138094D01*
X163188152Y-75709523D02*
X163854819Y-75709523D01*
X162807200Y-75947618D02*
X163521485Y-76185713D01*
X163521485Y-76185713D02*
X163521485Y-75566666D01*
X158866667Y-72207200D02*
X159009524Y-72254819D01*
X159009524Y-72254819D02*
X159247619Y-72254819D01*
X159247619Y-72254819D02*
X159342857Y-72207200D01*
X159342857Y-72207200D02*
X159390476Y-72159580D01*
X159390476Y-72159580D02*
X159438095Y-72064342D01*
X159438095Y-72064342D02*
X159438095Y-71969104D01*
X159438095Y-71969104D02*
X159390476Y-71873866D01*
X159390476Y-71873866D02*
X159342857Y-71826247D01*
X159342857Y-71826247D02*
X159247619Y-71778628D01*
X159247619Y-71778628D02*
X159057143Y-71731009D01*
X159057143Y-71731009D02*
X158961905Y-71683390D01*
X158961905Y-71683390D02*
X158914286Y-71635771D01*
X158914286Y-71635771D02*
X158866667Y-71540533D01*
X158866667Y-71540533D02*
X158866667Y-71445295D01*
X158866667Y-71445295D02*
X158914286Y-71350057D01*
X158914286Y-71350057D02*
X158961905Y-71302438D01*
X158961905Y-71302438D02*
X159057143Y-71254819D01*
X159057143Y-71254819D02*
X159295238Y-71254819D01*
X159295238Y-71254819D02*
X159438095Y-71302438D01*
X159771429Y-71254819D02*
X160009524Y-72254819D01*
X160009524Y-72254819D02*
X160200000Y-71540533D01*
X160200000Y-71540533D02*
X160390476Y-72254819D01*
X160390476Y-72254819D02*
X160628572Y-71254819D01*
X161533333Y-72254819D02*
X160961905Y-72254819D01*
X161247619Y-72254819D02*
X161247619Y-71254819D01*
X161247619Y-71254819D02*
X161152381Y-71397676D01*
X161152381Y-71397676D02*
X161057143Y-71492914D01*
X161057143Y-71492914D02*
X160961905Y-71540533D01*
X164033333Y-88759580D02*
X163985714Y-88807200D01*
X163985714Y-88807200D02*
X163842857Y-88854819D01*
X163842857Y-88854819D02*
X163747619Y-88854819D01*
X163747619Y-88854819D02*
X163604762Y-88807200D01*
X163604762Y-88807200D02*
X163509524Y-88711961D01*
X163509524Y-88711961D02*
X163461905Y-88616723D01*
X163461905Y-88616723D02*
X163414286Y-88426247D01*
X163414286Y-88426247D02*
X163414286Y-88283390D01*
X163414286Y-88283390D02*
X163461905Y-88092914D01*
X163461905Y-88092914D02*
X163509524Y-87997676D01*
X163509524Y-87997676D02*
X163604762Y-87902438D01*
X163604762Y-87902438D02*
X163747619Y-87854819D01*
X163747619Y-87854819D02*
X163842857Y-87854819D01*
X163842857Y-87854819D02*
X163985714Y-87902438D01*
X163985714Y-87902438D02*
X164033333Y-87950057D01*
X164366667Y-87854819D02*
X164985714Y-87854819D01*
X164985714Y-87854819D02*
X164652381Y-88235771D01*
X164652381Y-88235771D02*
X164795238Y-88235771D01*
X164795238Y-88235771D02*
X164890476Y-88283390D01*
X164890476Y-88283390D02*
X164938095Y-88331009D01*
X164938095Y-88331009D02*
X164985714Y-88426247D01*
X164985714Y-88426247D02*
X164985714Y-88664342D01*
X164985714Y-88664342D02*
X164938095Y-88759580D01*
X164938095Y-88759580D02*
X164890476Y-88807200D01*
X164890476Y-88807200D02*
X164795238Y-88854819D01*
X164795238Y-88854819D02*
X164509524Y-88854819D01*
X164509524Y-88854819D02*
X164414286Y-88807200D01*
X164414286Y-88807200D02*
X164366667Y-88759580D01*
X158654819Y-75766666D02*
X158178628Y-76099999D01*
X158654819Y-76338094D02*
X157654819Y-76338094D01*
X157654819Y-76338094D02*
X157654819Y-75957142D01*
X157654819Y-75957142D02*
X157702438Y-75861904D01*
X157702438Y-75861904D02*
X157750057Y-75814285D01*
X157750057Y-75814285D02*
X157845295Y-75766666D01*
X157845295Y-75766666D02*
X157988152Y-75766666D01*
X157988152Y-75766666D02*
X158083390Y-75814285D01*
X158083390Y-75814285D02*
X158131009Y-75861904D01*
X158131009Y-75861904D02*
X158178628Y-75957142D01*
X158178628Y-75957142D02*
X158178628Y-76338094D01*
X157654819Y-74909523D02*
X157654819Y-75099999D01*
X157654819Y-75099999D02*
X157702438Y-75195237D01*
X157702438Y-75195237D02*
X157750057Y-75242856D01*
X157750057Y-75242856D02*
X157892914Y-75338094D01*
X157892914Y-75338094D02*
X158083390Y-75385713D01*
X158083390Y-75385713D02*
X158464342Y-75385713D01*
X158464342Y-75385713D02*
X158559580Y-75338094D01*
X158559580Y-75338094D02*
X158607200Y-75290475D01*
X158607200Y-75290475D02*
X158654819Y-75195237D01*
X158654819Y-75195237D02*
X158654819Y-75004761D01*
X158654819Y-75004761D02*
X158607200Y-74909523D01*
X158607200Y-74909523D02*
X158559580Y-74861904D01*
X158559580Y-74861904D02*
X158464342Y-74814285D01*
X158464342Y-74814285D02*
X158226247Y-74814285D01*
X158226247Y-74814285D02*
X158131009Y-74861904D01*
X158131009Y-74861904D02*
X158083390Y-74909523D01*
X158083390Y-74909523D02*
X158035771Y-75004761D01*
X158035771Y-75004761D02*
X158035771Y-75195237D01*
X158035771Y-75195237D02*
X158083390Y-75290475D01*
X158083390Y-75290475D02*
X158131009Y-75338094D01*
X158131009Y-75338094D02*
X158226247Y-75385713D01*
X157759580Y-92242857D02*
X157807200Y-92290476D01*
X157807200Y-92290476D02*
X157854819Y-92433333D01*
X157854819Y-92433333D02*
X157854819Y-92528571D01*
X157854819Y-92528571D02*
X157807200Y-92671428D01*
X157807200Y-92671428D02*
X157711961Y-92766666D01*
X157711961Y-92766666D02*
X157616723Y-92814285D01*
X157616723Y-92814285D02*
X157426247Y-92861904D01*
X157426247Y-92861904D02*
X157283390Y-92861904D01*
X157283390Y-92861904D02*
X157092914Y-92814285D01*
X157092914Y-92814285D02*
X156997676Y-92766666D01*
X156997676Y-92766666D02*
X156902438Y-92671428D01*
X156902438Y-92671428D02*
X156854819Y-92528571D01*
X156854819Y-92528571D02*
X156854819Y-92433333D01*
X156854819Y-92433333D02*
X156902438Y-92290476D01*
X156902438Y-92290476D02*
X156950057Y-92242857D01*
X157854819Y-91290476D02*
X157854819Y-91861904D01*
X157854819Y-91576190D02*
X156854819Y-91576190D01*
X156854819Y-91576190D02*
X156997676Y-91671428D01*
X156997676Y-91671428D02*
X157092914Y-91766666D01*
X157092914Y-91766666D02*
X157140533Y-91861904D01*
X156854819Y-90385714D02*
X156854819Y-90861904D01*
X156854819Y-90861904D02*
X157331009Y-90909523D01*
X157331009Y-90909523D02*
X157283390Y-90861904D01*
X157283390Y-90861904D02*
X157235771Y-90766666D01*
X157235771Y-90766666D02*
X157235771Y-90528571D01*
X157235771Y-90528571D02*
X157283390Y-90433333D01*
X157283390Y-90433333D02*
X157331009Y-90385714D01*
X157331009Y-90385714D02*
X157426247Y-90338095D01*
X157426247Y-90338095D02*
X157664342Y-90338095D01*
X157664342Y-90338095D02*
X157759580Y-90385714D01*
X157759580Y-90385714D02*
X157807200Y-90433333D01*
X157807200Y-90433333D02*
X157854819Y-90528571D01*
X157854819Y-90528571D02*
X157854819Y-90766666D01*
X157854819Y-90766666D02*
X157807200Y-90861904D01*
X157807200Y-90861904D02*
X157759580Y-90909523D01*
X170757142Y-77654819D02*
X170423809Y-77178628D01*
X170185714Y-77654819D02*
X170185714Y-76654819D01*
X170185714Y-76654819D02*
X170566666Y-76654819D01*
X170566666Y-76654819D02*
X170661904Y-76702438D01*
X170661904Y-76702438D02*
X170709523Y-76750057D01*
X170709523Y-76750057D02*
X170757142Y-76845295D01*
X170757142Y-76845295D02*
X170757142Y-76988152D01*
X170757142Y-76988152D02*
X170709523Y-77083390D01*
X170709523Y-77083390D02*
X170661904Y-77131009D01*
X170661904Y-77131009D02*
X170566666Y-77178628D01*
X170566666Y-77178628D02*
X170185714Y-77178628D01*
X171709523Y-77654819D02*
X171138095Y-77654819D01*
X171423809Y-77654819D02*
X171423809Y-76654819D01*
X171423809Y-76654819D02*
X171328571Y-76797676D01*
X171328571Y-76797676D02*
X171233333Y-76892914D01*
X171233333Y-76892914D02*
X171138095Y-76940533D01*
X172328571Y-76654819D02*
X172423809Y-76654819D01*
X172423809Y-76654819D02*
X172519047Y-76702438D01*
X172519047Y-76702438D02*
X172566666Y-76750057D01*
X172566666Y-76750057D02*
X172614285Y-76845295D01*
X172614285Y-76845295D02*
X172661904Y-77035771D01*
X172661904Y-77035771D02*
X172661904Y-77273866D01*
X172661904Y-77273866D02*
X172614285Y-77464342D01*
X172614285Y-77464342D02*
X172566666Y-77559580D01*
X172566666Y-77559580D02*
X172519047Y-77607200D01*
X172519047Y-77607200D02*
X172423809Y-77654819D01*
X172423809Y-77654819D02*
X172328571Y-77654819D01*
X172328571Y-77654819D02*
X172233333Y-77607200D01*
X172233333Y-77607200D02*
X172185714Y-77559580D01*
X172185714Y-77559580D02*
X172138095Y-77464342D01*
X172138095Y-77464342D02*
X172090476Y-77273866D01*
X172090476Y-77273866D02*
X172090476Y-77035771D01*
X172090476Y-77035771D02*
X172138095Y-76845295D01*
X172138095Y-76845295D02*
X172185714Y-76750057D01*
X172185714Y-76750057D02*
X172233333Y-76702438D01*
X172233333Y-76702438D02*
X172328571Y-76654819D01*
X162173333Y-88604819D02*
X161840000Y-88128628D01*
X161601905Y-88604819D02*
X161601905Y-87604819D01*
X161601905Y-87604819D02*
X161982857Y-87604819D01*
X161982857Y-87604819D02*
X162078095Y-87652438D01*
X162078095Y-87652438D02*
X162125714Y-87700057D01*
X162125714Y-87700057D02*
X162173333Y-87795295D01*
X162173333Y-87795295D02*
X162173333Y-87938152D01*
X162173333Y-87938152D02*
X162125714Y-88033390D01*
X162125714Y-88033390D02*
X162078095Y-88081009D01*
X162078095Y-88081009D02*
X161982857Y-88128628D01*
X161982857Y-88128628D02*
X161601905Y-88128628D01*
X163078095Y-87604819D02*
X162601905Y-87604819D01*
X162601905Y-87604819D02*
X162554286Y-88081009D01*
X162554286Y-88081009D02*
X162601905Y-88033390D01*
X162601905Y-88033390D02*
X162697143Y-87985771D01*
X162697143Y-87985771D02*
X162935238Y-87985771D01*
X162935238Y-87985771D02*
X163030476Y-88033390D01*
X163030476Y-88033390D02*
X163078095Y-88081009D01*
X163078095Y-88081009D02*
X163125714Y-88176247D01*
X163125714Y-88176247D02*
X163125714Y-88414342D01*
X163125714Y-88414342D02*
X163078095Y-88509580D01*
X163078095Y-88509580D02*
X163030476Y-88557200D01*
X163030476Y-88557200D02*
X162935238Y-88604819D01*
X162935238Y-88604819D02*
X162697143Y-88604819D01*
X162697143Y-88604819D02*
X162601905Y-88557200D01*
X162601905Y-88557200D02*
X162554286Y-88509580D01*
X156054819Y-66961904D02*
X156864342Y-66961904D01*
X156864342Y-66961904D02*
X156959580Y-66914285D01*
X156959580Y-66914285D02*
X157007200Y-66866666D01*
X157007200Y-66866666D02*
X157054819Y-66771428D01*
X157054819Y-66771428D02*
X157054819Y-66580952D01*
X157054819Y-66580952D02*
X157007200Y-66485714D01*
X157007200Y-66485714D02*
X156959580Y-66438095D01*
X156959580Y-66438095D02*
X156864342Y-66390476D01*
X156864342Y-66390476D02*
X156054819Y-66390476D01*
X156150057Y-65961904D02*
X156102438Y-65914285D01*
X156102438Y-65914285D02*
X156054819Y-65819047D01*
X156054819Y-65819047D02*
X156054819Y-65580952D01*
X156054819Y-65580952D02*
X156102438Y-65485714D01*
X156102438Y-65485714D02*
X156150057Y-65438095D01*
X156150057Y-65438095D02*
X156245295Y-65390476D01*
X156245295Y-65390476D02*
X156340533Y-65390476D01*
X156340533Y-65390476D02*
X156483390Y-65438095D01*
X156483390Y-65438095D02*
X157054819Y-66009523D01*
X157054819Y-66009523D02*
X157054819Y-65390476D01*
X166304761Y-66750057D02*
X166209523Y-66702438D01*
X166209523Y-66702438D02*
X166114285Y-66607200D01*
X166114285Y-66607200D02*
X165971428Y-66464342D01*
X165971428Y-66464342D02*
X165876190Y-66416723D01*
X165876190Y-66416723D02*
X165780952Y-66416723D01*
X165828571Y-66654819D02*
X165733333Y-66607200D01*
X165733333Y-66607200D02*
X165638095Y-66511961D01*
X165638095Y-66511961D02*
X165590476Y-66321485D01*
X165590476Y-66321485D02*
X165590476Y-65988152D01*
X165590476Y-65988152D02*
X165638095Y-65797676D01*
X165638095Y-65797676D02*
X165733333Y-65702438D01*
X165733333Y-65702438D02*
X165828571Y-65654819D01*
X165828571Y-65654819D02*
X166019047Y-65654819D01*
X166019047Y-65654819D02*
X166114285Y-65702438D01*
X166114285Y-65702438D02*
X166209523Y-65797676D01*
X166209523Y-65797676D02*
X166257142Y-65988152D01*
X166257142Y-65988152D02*
X166257142Y-66321485D01*
X166257142Y-66321485D02*
X166209523Y-66511961D01*
X166209523Y-66511961D02*
X166114285Y-66607200D01*
X166114285Y-66607200D02*
X166019047Y-66654819D01*
X166019047Y-66654819D02*
X165828571Y-66654819D01*
X167209523Y-66654819D02*
X166638095Y-66654819D01*
X166923809Y-66654819D02*
X166923809Y-65654819D01*
X166923809Y-65654819D02*
X166828571Y-65797676D01*
X166828571Y-65797676D02*
X166733333Y-65892914D01*
X166733333Y-65892914D02*
X166638095Y-65940533D01*
X165359580Y-91566666D02*
X165407200Y-91614285D01*
X165407200Y-91614285D02*
X165454819Y-91757142D01*
X165454819Y-91757142D02*
X165454819Y-91852380D01*
X165454819Y-91852380D02*
X165407200Y-91995237D01*
X165407200Y-91995237D02*
X165311961Y-92090475D01*
X165311961Y-92090475D02*
X165216723Y-92138094D01*
X165216723Y-92138094D02*
X165026247Y-92185713D01*
X165026247Y-92185713D02*
X164883390Y-92185713D01*
X164883390Y-92185713D02*
X164692914Y-92138094D01*
X164692914Y-92138094D02*
X164597676Y-92090475D01*
X164597676Y-92090475D02*
X164502438Y-91995237D01*
X164502438Y-91995237D02*
X164454819Y-91852380D01*
X164454819Y-91852380D02*
X164454819Y-91757142D01*
X164454819Y-91757142D02*
X164502438Y-91614285D01*
X164502438Y-91614285D02*
X164550057Y-91566666D01*
X164454819Y-90709523D02*
X164454819Y-90899999D01*
X164454819Y-90899999D02*
X164502438Y-90995237D01*
X164502438Y-90995237D02*
X164550057Y-91042856D01*
X164550057Y-91042856D02*
X164692914Y-91138094D01*
X164692914Y-91138094D02*
X164883390Y-91185713D01*
X164883390Y-91185713D02*
X165264342Y-91185713D01*
X165264342Y-91185713D02*
X165359580Y-91138094D01*
X165359580Y-91138094D02*
X165407200Y-91090475D01*
X165407200Y-91090475D02*
X165454819Y-90995237D01*
X165454819Y-90995237D02*
X165454819Y-90804761D01*
X165454819Y-90804761D02*
X165407200Y-90709523D01*
X165407200Y-90709523D02*
X165359580Y-90661904D01*
X165359580Y-90661904D02*
X165264342Y-90614285D01*
X165264342Y-90614285D02*
X165026247Y-90614285D01*
X165026247Y-90614285D02*
X164931009Y-90661904D01*
X164931009Y-90661904D02*
X164883390Y-90709523D01*
X164883390Y-90709523D02*
X164835771Y-90804761D01*
X164835771Y-90804761D02*
X164835771Y-90995237D01*
X164835771Y-90995237D02*
X164883390Y-91090475D01*
X164883390Y-91090475D02*
X164931009Y-91138094D01*
X164931009Y-91138094D02*
X165026247Y-91185713D01*
X166633333Y-62854819D02*
X166300000Y-62378628D01*
X166061905Y-62854819D02*
X166061905Y-61854819D01*
X166061905Y-61854819D02*
X166442857Y-61854819D01*
X166442857Y-61854819D02*
X166538095Y-61902438D01*
X166538095Y-61902438D02*
X166585714Y-61950057D01*
X166585714Y-61950057D02*
X166633333Y-62045295D01*
X166633333Y-62045295D02*
X166633333Y-62188152D01*
X166633333Y-62188152D02*
X166585714Y-62283390D01*
X166585714Y-62283390D02*
X166538095Y-62331009D01*
X166538095Y-62331009D02*
X166442857Y-62378628D01*
X166442857Y-62378628D02*
X166061905Y-62378628D01*
X167014286Y-61950057D02*
X167061905Y-61902438D01*
X167061905Y-61902438D02*
X167157143Y-61854819D01*
X167157143Y-61854819D02*
X167395238Y-61854819D01*
X167395238Y-61854819D02*
X167490476Y-61902438D01*
X167490476Y-61902438D02*
X167538095Y-61950057D01*
X167538095Y-61950057D02*
X167585714Y-62045295D01*
X167585714Y-62045295D02*
X167585714Y-62140533D01*
X167585714Y-62140533D02*
X167538095Y-62283390D01*
X167538095Y-62283390D02*
X166966667Y-62854819D01*
X166966667Y-62854819D02*
X167585714Y-62854819D01*
X169884819Y-75138094D02*
X168884819Y-75138094D01*
X168884819Y-75138094D02*
X168884819Y-74899999D01*
X168884819Y-74899999D02*
X168932438Y-74757142D01*
X168932438Y-74757142D02*
X169027676Y-74661904D01*
X169027676Y-74661904D02*
X169122914Y-74614285D01*
X169122914Y-74614285D02*
X169313390Y-74566666D01*
X169313390Y-74566666D02*
X169456247Y-74566666D01*
X169456247Y-74566666D02*
X169646723Y-74614285D01*
X169646723Y-74614285D02*
X169741961Y-74661904D01*
X169741961Y-74661904D02*
X169837200Y-74757142D01*
X169837200Y-74757142D02*
X169884819Y-74899999D01*
X169884819Y-74899999D02*
X169884819Y-75138094D01*
X169884819Y-73614285D02*
X169884819Y-74185713D01*
X169884819Y-73899999D02*
X168884819Y-73899999D01*
X168884819Y-73899999D02*
X169027676Y-73995237D01*
X169027676Y-73995237D02*
X169122914Y-74090475D01*
X169122914Y-74090475D02*
X169170533Y-74185713D01*
X170557142Y-64959580D02*
X170509523Y-65007200D01*
X170509523Y-65007200D02*
X170366666Y-65054819D01*
X170366666Y-65054819D02*
X170271428Y-65054819D01*
X170271428Y-65054819D02*
X170128571Y-65007200D01*
X170128571Y-65007200D02*
X170033333Y-64911961D01*
X170033333Y-64911961D02*
X169985714Y-64816723D01*
X169985714Y-64816723D02*
X169938095Y-64626247D01*
X169938095Y-64626247D02*
X169938095Y-64483390D01*
X169938095Y-64483390D02*
X169985714Y-64292914D01*
X169985714Y-64292914D02*
X170033333Y-64197676D01*
X170033333Y-64197676D02*
X170128571Y-64102438D01*
X170128571Y-64102438D02*
X170271428Y-64054819D01*
X170271428Y-64054819D02*
X170366666Y-64054819D01*
X170366666Y-64054819D02*
X170509523Y-64102438D01*
X170509523Y-64102438D02*
X170557142Y-64150057D01*
X171509523Y-65054819D02*
X170938095Y-65054819D01*
X171223809Y-65054819D02*
X171223809Y-64054819D01*
X171223809Y-64054819D02*
X171128571Y-64197676D01*
X171128571Y-64197676D02*
X171033333Y-64292914D01*
X171033333Y-64292914D02*
X170938095Y-64340533D01*
X172080952Y-64483390D02*
X171985714Y-64435771D01*
X171985714Y-64435771D02*
X171938095Y-64388152D01*
X171938095Y-64388152D02*
X171890476Y-64292914D01*
X171890476Y-64292914D02*
X171890476Y-64245295D01*
X171890476Y-64245295D02*
X171938095Y-64150057D01*
X171938095Y-64150057D02*
X171985714Y-64102438D01*
X171985714Y-64102438D02*
X172080952Y-64054819D01*
X172080952Y-64054819D02*
X172271428Y-64054819D01*
X172271428Y-64054819D02*
X172366666Y-64102438D01*
X172366666Y-64102438D02*
X172414285Y-64150057D01*
X172414285Y-64150057D02*
X172461904Y-64245295D01*
X172461904Y-64245295D02*
X172461904Y-64292914D01*
X172461904Y-64292914D02*
X172414285Y-64388152D01*
X172414285Y-64388152D02*
X172366666Y-64435771D01*
X172366666Y-64435771D02*
X172271428Y-64483390D01*
X172271428Y-64483390D02*
X172080952Y-64483390D01*
X172080952Y-64483390D02*
X171985714Y-64531009D01*
X171985714Y-64531009D02*
X171938095Y-64578628D01*
X171938095Y-64578628D02*
X171890476Y-64673866D01*
X171890476Y-64673866D02*
X171890476Y-64864342D01*
X171890476Y-64864342D02*
X171938095Y-64959580D01*
X171938095Y-64959580D02*
X171985714Y-65007200D01*
X171985714Y-65007200D02*
X172080952Y-65054819D01*
X172080952Y-65054819D02*
X172271428Y-65054819D01*
X172271428Y-65054819D02*
X172366666Y-65007200D01*
X172366666Y-65007200D02*
X172414285Y-64959580D01*
X172414285Y-64959580D02*
X172461904Y-64864342D01*
X172461904Y-64864342D02*
X172461904Y-64673866D01*
X172461904Y-64673866D02*
X172414285Y-64578628D01*
X172414285Y-64578628D02*
X172366666Y-64531009D01*
X172366666Y-64531009D02*
X172271428Y-64483390D01*
X164999580Y-78366666D02*
X165047200Y-78414285D01*
X165047200Y-78414285D02*
X165094819Y-78557142D01*
X165094819Y-78557142D02*
X165094819Y-78652380D01*
X165094819Y-78652380D02*
X165047200Y-78795237D01*
X165047200Y-78795237D02*
X164951961Y-78890475D01*
X164951961Y-78890475D02*
X164856723Y-78938094D01*
X164856723Y-78938094D02*
X164666247Y-78985713D01*
X164666247Y-78985713D02*
X164523390Y-78985713D01*
X164523390Y-78985713D02*
X164332914Y-78938094D01*
X164332914Y-78938094D02*
X164237676Y-78890475D01*
X164237676Y-78890475D02*
X164142438Y-78795237D01*
X164142438Y-78795237D02*
X164094819Y-78652380D01*
X164094819Y-78652380D02*
X164094819Y-78557142D01*
X164094819Y-78557142D02*
X164142438Y-78414285D01*
X164142438Y-78414285D02*
X164190057Y-78366666D01*
X164094819Y-77461904D02*
X164094819Y-77938094D01*
X164094819Y-77938094D02*
X164571009Y-77985713D01*
X164571009Y-77985713D02*
X164523390Y-77938094D01*
X164523390Y-77938094D02*
X164475771Y-77842856D01*
X164475771Y-77842856D02*
X164475771Y-77604761D01*
X164475771Y-77604761D02*
X164523390Y-77509523D01*
X164523390Y-77509523D02*
X164571009Y-77461904D01*
X164571009Y-77461904D02*
X164666247Y-77414285D01*
X164666247Y-77414285D02*
X164904342Y-77414285D01*
X164904342Y-77414285D02*
X164999580Y-77461904D01*
X164999580Y-77461904D02*
X165047200Y-77509523D01*
X165047200Y-77509523D02*
X165094819Y-77604761D01*
X165094819Y-77604761D02*
X165094819Y-77842856D01*
X165094819Y-77842856D02*
X165047200Y-77938094D01*
X165047200Y-77938094D02*
X164999580Y-77985713D01*
X163559580Y-67242857D02*
X163607200Y-67290476D01*
X163607200Y-67290476D02*
X163654819Y-67433333D01*
X163654819Y-67433333D02*
X163654819Y-67528571D01*
X163654819Y-67528571D02*
X163607200Y-67671428D01*
X163607200Y-67671428D02*
X163511961Y-67766666D01*
X163511961Y-67766666D02*
X163416723Y-67814285D01*
X163416723Y-67814285D02*
X163226247Y-67861904D01*
X163226247Y-67861904D02*
X163083390Y-67861904D01*
X163083390Y-67861904D02*
X162892914Y-67814285D01*
X162892914Y-67814285D02*
X162797676Y-67766666D01*
X162797676Y-67766666D02*
X162702438Y-67671428D01*
X162702438Y-67671428D02*
X162654819Y-67528571D01*
X162654819Y-67528571D02*
X162654819Y-67433333D01*
X162654819Y-67433333D02*
X162702438Y-67290476D01*
X162702438Y-67290476D02*
X162750057Y-67242857D01*
X163654819Y-66290476D02*
X163654819Y-66861904D01*
X163654819Y-66576190D02*
X162654819Y-66576190D01*
X162654819Y-66576190D02*
X162797676Y-66671428D01*
X162797676Y-66671428D02*
X162892914Y-66766666D01*
X162892914Y-66766666D02*
X162940533Y-66861904D01*
X162988152Y-65433333D02*
X163654819Y-65433333D01*
X162607200Y-65671428D02*
X163321485Y-65909523D01*
X163321485Y-65909523D02*
X163321485Y-65290476D01*
X167957142Y-82359580D02*
X167909523Y-82407200D01*
X167909523Y-82407200D02*
X167766666Y-82454819D01*
X167766666Y-82454819D02*
X167671428Y-82454819D01*
X167671428Y-82454819D02*
X167528571Y-82407200D01*
X167528571Y-82407200D02*
X167433333Y-82311961D01*
X167433333Y-82311961D02*
X167385714Y-82216723D01*
X167385714Y-82216723D02*
X167338095Y-82026247D01*
X167338095Y-82026247D02*
X167338095Y-81883390D01*
X167338095Y-81883390D02*
X167385714Y-81692914D01*
X167385714Y-81692914D02*
X167433333Y-81597676D01*
X167433333Y-81597676D02*
X167528571Y-81502438D01*
X167528571Y-81502438D02*
X167671428Y-81454819D01*
X167671428Y-81454819D02*
X167766666Y-81454819D01*
X167766666Y-81454819D02*
X167909523Y-81502438D01*
X167909523Y-81502438D02*
X167957142Y-81550057D01*
X168909523Y-82454819D02*
X168338095Y-82454819D01*
X168623809Y-82454819D02*
X168623809Y-81454819D01*
X168623809Y-81454819D02*
X168528571Y-81597676D01*
X168528571Y-81597676D02*
X168433333Y-81692914D01*
X168433333Y-81692914D02*
X168338095Y-81740533D01*
X169861904Y-82454819D02*
X169290476Y-82454819D01*
X169576190Y-82454819D02*
X169576190Y-81454819D01*
X169576190Y-81454819D02*
X169480952Y-81597676D01*
X169480952Y-81597676D02*
X169385714Y-81692914D01*
X169385714Y-81692914D02*
X169290476Y-81740533D01*
X167797142Y-83579580D02*
X167749523Y-83627200D01*
X167749523Y-83627200D02*
X167606666Y-83674819D01*
X167606666Y-83674819D02*
X167511428Y-83674819D01*
X167511428Y-83674819D02*
X167368571Y-83627200D01*
X167368571Y-83627200D02*
X167273333Y-83531961D01*
X167273333Y-83531961D02*
X167225714Y-83436723D01*
X167225714Y-83436723D02*
X167178095Y-83246247D01*
X167178095Y-83246247D02*
X167178095Y-83103390D01*
X167178095Y-83103390D02*
X167225714Y-82912914D01*
X167225714Y-82912914D02*
X167273333Y-82817676D01*
X167273333Y-82817676D02*
X167368571Y-82722438D01*
X167368571Y-82722438D02*
X167511428Y-82674819D01*
X167511428Y-82674819D02*
X167606666Y-82674819D01*
X167606666Y-82674819D02*
X167749523Y-82722438D01*
X167749523Y-82722438D02*
X167797142Y-82770057D01*
X168749523Y-83674819D02*
X168178095Y-83674819D01*
X168463809Y-83674819D02*
X168463809Y-82674819D01*
X168463809Y-82674819D02*
X168368571Y-82817676D01*
X168368571Y-82817676D02*
X168273333Y-82912914D01*
X168273333Y-82912914D02*
X168178095Y-82960533D01*
X169130476Y-82770057D02*
X169178095Y-82722438D01*
X169178095Y-82722438D02*
X169273333Y-82674819D01*
X169273333Y-82674819D02*
X169511428Y-82674819D01*
X169511428Y-82674819D02*
X169606666Y-82722438D01*
X169606666Y-82722438D02*
X169654285Y-82770057D01*
X169654285Y-82770057D02*
X169701904Y-82865295D01*
X169701904Y-82865295D02*
X169701904Y-82960533D01*
X169701904Y-82960533D02*
X169654285Y-83103390D01*
X169654285Y-83103390D02*
X169082857Y-83674819D01*
X169082857Y-83674819D02*
X169701904Y-83674819D01*
X162766666Y-61599819D02*
X162766666Y-62314104D01*
X162766666Y-62314104D02*
X162719047Y-62456961D01*
X162719047Y-62456961D02*
X162623809Y-62552200D01*
X162623809Y-62552200D02*
X162480952Y-62599819D01*
X162480952Y-62599819D02*
X162385714Y-62599819D01*
X163766666Y-62599819D02*
X163195238Y-62599819D01*
X163480952Y-62599819D02*
X163480952Y-61599819D01*
X163480952Y-61599819D02*
X163385714Y-61742676D01*
X163385714Y-61742676D02*
X163290476Y-61837914D01*
X163290476Y-61837914D02*
X163195238Y-61885533D01*
X165054819Y-76566666D02*
X164578628Y-76899999D01*
X165054819Y-77138094D02*
X164054819Y-77138094D01*
X164054819Y-77138094D02*
X164054819Y-76757142D01*
X164054819Y-76757142D02*
X164102438Y-76661904D01*
X164102438Y-76661904D02*
X164150057Y-76614285D01*
X164150057Y-76614285D02*
X164245295Y-76566666D01*
X164245295Y-76566666D02*
X164388152Y-76566666D01*
X164388152Y-76566666D02*
X164483390Y-76614285D01*
X164483390Y-76614285D02*
X164531009Y-76661904D01*
X164531009Y-76661904D02*
X164578628Y-76757142D01*
X164578628Y-76757142D02*
X164578628Y-77138094D01*
X164054819Y-76233332D02*
X164054819Y-75614285D01*
X164054819Y-75614285D02*
X164435771Y-75947618D01*
X164435771Y-75947618D02*
X164435771Y-75804761D01*
X164435771Y-75804761D02*
X164483390Y-75709523D01*
X164483390Y-75709523D02*
X164531009Y-75661904D01*
X164531009Y-75661904D02*
X164626247Y-75614285D01*
X164626247Y-75614285D02*
X164864342Y-75614285D01*
X164864342Y-75614285D02*
X164959580Y-75661904D01*
X164959580Y-75661904D02*
X165007200Y-75709523D01*
X165007200Y-75709523D02*
X165054819Y-75804761D01*
X165054819Y-75804761D02*
X165054819Y-76090475D01*
X165054819Y-76090475D02*
X165007200Y-76185713D01*
X165007200Y-76185713D02*
X164959580Y-76233332D01*
X166999580Y-78966666D02*
X167047200Y-79014285D01*
X167047200Y-79014285D02*
X167094819Y-79157142D01*
X167094819Y-79157142D02*
X167094819Y-79252380D01*
X167094819Y-79252380D02*
X167047200Y-79395237D01*
X167047200Y-79395237D02*
X166951961Y-79490475D01*
X166951961Y-79490475D02*
X166856723Y-79538094D01*
X166856723Y-79538094D02*
X166666247Y-79585713D01*
X166666247Y-79585713D02*
X166523390Y-79585713D01*
X166523390Y-79585713D02*
X166332914Y-79538094D01*
X166332914Y-79538094D02*
X166237676Y-79490475D01*
X166237676Y-79490475D02*
X166142438Y-79395237D01*
X166142438Y-79395237D02*
X166094819Y-79252380D01*
X166094819Y-79252380D02*
X166094819Y-79157142D01*
X166094819Y-79157142D02*
X166142438Y-79014285D01*
X166142438Y-79014285D02*
X166190057Y-78966666D01*
X166190057Y-78585713D02*
X166142438Y-78538094D01*
X166142438Y-78538094D02*
X166094819Y-78442856D01*
X166094819Y-78442856D02*
X166094819Y-78204761D01*
X166094819Y-78204761D02*
X166142438Y-78109523D01*
X166142438Y-78109523D02*
X166190057Y-78061904D01*
X166190057Y-78061904D02*
X166285295Y-78014285D01*
X166285295Y-78014285D02*
X166380533Y-78014285D01*
X166380533Y-78014285D02*
X166523390Y-78061904D01*
X166523390Y-78061904D02*
X167094819Y-78633332D01*
X167094819Y-78633332D02*
X167094819Y-78014285D01*
X159033333Y-63054819D02*
X158700000Y-62578628D01*
X158461905Y-63054819D02*
X158461905Y-62054819D01*
X158461905Y-62054819D02*
X158842857Y-62054819D01*
X158842857Y-62054819D02*
X158938095Y-62102438D01*
X158938095Y-62102438D02*
X158985714Y-62150057D01*
X158985714Y-62150057D02*
X159033333Y-62245295D01*
X159033333Y-62245295D02*
X159033333Y-62388152D01*
X159033333Y-62388152D02*
X158985714Y-62483390D01*
X158985714Y-62483390D02*
X158938095Y-62531009D01*
X158938095Y-62531009D02*
X158842857Y-62578628D01*
X158842857Y-62578628D02*
X158461905Y-62578628D01*
X159985714Y-63054819D02*
X159414286Y-63054819D01*
X159700000Y-63054819D02*
X159700000Y-62054819D01*
X159700000Y-62054819D02*
X159604762Y-62197676D01*
X159604762Y-62197676D02*
X159509524Y-62292914D01*
X159509524Y-62292914D02*
X159414286Y-62340533D01*
X159838095Y-76454819D02*
X159838095Y-77264342D01*
X159838095Y-77264342D02*
X159885714Y-77359580D01*
X159885714Y-77359580D02*
X159933333Y-77407200D01*
X159933333Y-77407200D02*
X160028571Y-77454819D01*
X160028571Y-77454819D02*
X160219047Y-77454819D01*
X160219047Y-77454819D02*
X160314285Y-77407200D01*
X160314285Y-77407200D02*
X160361904Y-77359580D01*
X160361904Y-77359580D02*
X160409523Y-77264342D01*
X160409523Y-77264342D02*
X160409523Y-76454819D01*
X160790476Y-76454819D02*
X161409523Y-76454819D01*
X161409523Y-76454819D02*
X161076190Y-76835771D01*
X161076190Y-76835771D02*
X161219047Y-76835771D01*
X161219047Y-76835771D02*
X161314285Y-76883390D01*
X161314285Y-76883390D02*
X161361904Y-76931009D01*
X161361904Y-76931009D02*
X161409523Y-77026247D01*
X161409523Y-77026247D02*
X161409523Y-77264342D01*
X161409523Y-77264342D02*
X161361904Y-77359580D01*
X161361904Y-77359580D02*
X161314285Y-77407200D01*
X161314285Y-77407200D02*
X161219047Y-77454819D01*
X161219047Y-77454819D02*
X160933333Y-77454819D01*
X160933333Y-77454819D02*
X160838095Y-77407200D01*
X160838095Y-77407200D02*
X160790476Y-77359580D01*
X167359580Y-76566666D02*
X167407200Y-76614285D01*
X167407200Y-76614285D02*
X167454819Y-76757142D01*
X167454819Y-76757142D02*
X167454819Y-76852380D01*
X167454819Y-76852380D02*
X167407200Y-76995237D01*
X167407200Y-76995237D02*
X167311961Y-77090475D01*
X167311961Y-77090475D02*
X167216723Y-77138094D01*
X167216723Y-77138094D02*
X167026247Y-77185713D01*
X167026247Y-77185713D02*
X166883390Y-77185713D01*
X166883390Y-77185713D02*
X166692914Y-77138094D01*
X166692914Y-77138094D02*
X166597676Y-77090475D01*
X166597676Y-77090475D02*
X166502438Y-76995237D01*
X166502438Y-76995237D02*
X166454819Y-76852380D01*
X166454819Y-76852380D02*
X166454819Y-76757142D01*
X166454819Y-76757142D02*
X166502438Y-76614285D01*
X166502438Y-76614285D02*
X166550057Y-76566666D01*
X167454819Y-75614285D02*
X167454819Y-76185713D01*
X167454819Y-75899999D02*
X166454819Y-75899999D01*
X166454819Y-75899999D02*
X166597676Y-75995237D01*
X166597676Y-75995237D02*
X166692914Y-76090475D01*
X166692914Y-76090475D02*
X166740533Y-76185713D01*
X166559580Y-91566666D02*
X166607200Y-91614285D01*
X166607200Y-91614285D02*
X166654819Y-91757142D01*
X166654819Y-91757142D02*
X166654819Y-91852380D01*
X166654819Y-91852380D02*
X166607200Y-91995237D01*
X166607200Y-91995237D02*
X166511961Y-92090475D01*
X166511961Y-92090475D02*
X166416723Y-92138094D01*
X166416723Y-92138094D02*
X166226247Y-92185713D01*
X166226247Y-92185713D02*
X166083390Y-92185713D01*
X166083390Y-92185713D02*
X165892914Y-92138094D01*
X165892914Y-92138094D02*
X165797676Y-92090475D01*
X165797676Y-92090475D02*
X165702438Y-91995237D01*
X165702438Y-91995237D02*
X165654819Y-91852380D01*
X165654819Y-91852380D02*
X165654819Y-91757142D01*
X165654819Y-91757142D02*
X165702438Y-91614285D01*
X165702438Y-91614285D02*
X165750057Y-91566666D01*
X166654819Y-91090475D02*
X166654819Y-90899999D01*
X166654819Y-90899999D02*
X166607200Y-90804761D01*
X166607200Y-90804761D02*
X166559580Y-90757142D01*
X166559580Y-90757142D02*
X166416723Y-90661904D01*
X166416723Y-90661904D02*
X166226247Y-90614285D01*
X166226247Y-90614285D02*
X165845295Y-90614285D01*
X165845295Y-90614285D02*
X165750057Y-90661904D01*
X165750057Y-90661904D02*
X165702438Y-90709523D01*
X165702438Y-90709523D02*
X165654819Y-90804761D01*
X165654819Y-90804761D02*
X165654819Y-90995237D01*
X165654819Y-90995237D02*
X165702438Y-91090475D01*
X165702438Y-91090475D02*
X165750057Y-91138094D01*
X165750057Y-91138094D02*
X165845295Y-91185713D01*
X165845295Y-91185713D02*
X166083390Y-91185713D01*
X166083390Y-91185713D02*
X166178628Y-91138094D01*
X166178628Y-91138094D02*
X166226247Y-91090475D01*
X166226247Y-91090475D02*
X166273866Y-90995237D01*
X166273866Y-90995237D02*
X166273866Y-90804761D01*
X166273866Y-90804761D02*
X166226247Y-90709523D01*
X166226247Y-90709523D02*
X166178628Y-90661904D01*
X166178628Y-90661904D02*
X166083390Y-90614285D01*
X164359580Y-94642857D02*
X164407200Y-94690476D01*
X164407200Y-94690476D02*
X164454819Y-94833333D01*
X164454819Y-94833333D02*
X164454819Y-94928571D01*
X164454819Y-94928571D02*
X164407200Y-95071428D01*
X164407200Y-95071428D02*
X164311961Y-95166666D01*
X164311961Y-95166666D02*
X164216723Y-95214285D01*
X164216723Y-95214285D02*
X164026247Y-95261904D01*
X164026247Y-95261904D02*
X163883390Y-95261904D01*
X163883390Y-95261904D02*
X163692914Y-95214285D01*
X163692914Y-95214285D02*
X163597676Y-95166666D01*
X163597676Y-95166666D02*
X163502438Y-95071428D01*
X163502438Y-95071428D02*
X163454819Y-94928571D01*
X163454819Y-94928571D02*
X163454819Y-94833333D01*
X163454819Y-94833333D02*
X163502438Y-94690476D01*
X163502438Y-94690476D02*
X163550057Y-94642857D01*
X164454819Y-93690476D02*
X164454819Y-94261904D01*
X164454819Y-93976190D02*
X163454819Y-93976190D01*
X163454819Y-93976190D02*
X163597676Y-94071428D01*
X163597676Y-94071428D02*
X163692914Y-94166666D01*
X163692914Y-94166666D02*
X163740533Y-94261904D01*
X163454819Y-92833333D02*
X163454819Y-93023809D01*
X163454819Y-93023809D02*
X163502438Y-93119047D01*
X163502438Y-93119047D02*
X163550057Y-93166666D01*
X163550057Y-93166666D02*
X163692914Y-93261904D01*
X163692914Y-93261904D02*
X163883390Y-93309523D01*
X163883390Y-93309523D02*
X164264342Y-93309523D01*
X164264342Y-93309523D02*
X164359580Y-93261904D01*
X164359580Y-93261904D02*
X164407200Y-93214285D01*
X164407200Y-93214285D02*
X164454819Y-93119047D01*
X164454819Y-93119047D02*
X164454819Y-92928571D01*
X164454819Y-92928571D02*
X164407200Y-92833333D01*
X164407200Y-92833333D02*
X164359580Y-92785714D01*
X164359580Y-92785714D02*
X164264342Y-92738095D01*
X164264342Y-92738095D02*
X164026247Y-92738095D01*
X164026247Y-92738095D02*
X163931009Y-92785714D01*
X163931009Y-92785714D02*
X163883390Y-92833333D01*
X163883390Y-92833333D02*
X163835771Y-92928571D01*
X163835771Y-92928571D02*
X163835771Y-93119047D01*
X163835771Y-93119047D02*
X163883390Y-93214285D01*
X163883390Y-93214285D02*
X163931009Y-93261904D01*
X163931009Y-93261904D02*
X164026247Y-93309523D01*
X163357142Y-73959580D02*
X163309523Y-74007200D01*
X163309523Y-74007200D02*
X163166666Y-74054819D01*
X163166666Y-74054819D02*
X163071428Y-74054819D01*
X163071428Y-74054819D02*
X162928571Y-74007200D01*
X162928571Y-74007200D02*
X162833333Y-73911961D01*
X162833333Y-73911961D02*
X162785714Y-73816723D01*
X162785714Y-73816723D02*
X162738095Y-73626247D01*
X162738095Y-73626247D02*
X162738095Y-73483390D01*
X162738095Y-73483390D02*
X162785714Y-73292914D01*
X162785714Y-73292914D02*
X162833333Y-73197676D01*
X162833333Y-73197676D02*
X162928571Y-73102438D01*
X162928571Y-73102438D02*
X163071428Y-73054819D01*
X163071428Y-73054819D02*
X163166666Y-73054819D01*
X163166666Y-73054819D02*
X163309523Y-73102438D01*
X163309523Y-73102438D02*
X163357142Y-73150057D01*
X164309523Y-74054819D02*
X163738095Y-74054819D01*
X164023809Y-74054819D02*
X164023809Y-73054819D01*
X164023809Y-73054819D02*
X163928571Y-73197676D01*
X163928571Y-73197676D02*
X163833333Y-73292914D01*
X163833333Y-73292914D02*
X163738095Y-73340533D01*
X164642857Y-73054819D02*
X165309523Y-73054819D01*
X165309523Y-73054819D02*
X164880952Y-74054819D01*
X170224819Y-63166666D02*
X169748628Y-63499999D01*
X170224819Y-63738094D02*
X169224819Y-63738094D01*
X169224819Y-63738094D02*
X169224819Y-63357142D01*
X169224819Y-63357142D02*
X169272438Y-63261904D01*
X169272438Y-63261904D02*
X169320057Y-63214285D01*
X169320057Y-63214285D02*
X169415295Y-63166666D01*
X169415295Y-63166666D02*
X169558152Y-63166666D01*
X169558152Y-63166666D02*
X169653390Y-63214285D01*
X169653390Y-63214285D02*
X169701009Y-63261904D01*
X169701009Y-63261904D02*
X169748628Y-63357142D01*
X169748628Y-63357142D02*
X169748628Y-63738094D01*
X169653390Y-62595237D02*
X169605771Y-62690475D01*
X169605771Y-62690475D02*
X169558152Y-62738094D01*
X169558152Y-62738094D02*
X169462914Y-62785713D01*
X169462914Y-62785713D02*
X169415295Y-62785713D01*
X169415295Y-62785713D02*
X169320057Y-62738094D01*
X169320057Y-62738094D02*
X169272438Y-62690475D01*
X169272438Y-62690475D02*
X169224819Y-62595237D01*
X169224819Y-62595237D02*
X169224819Y-62404761D01*
X169224819Y-62404761D02*
X169272438Y-62309523D01*
X169272438Y-62309523D02*
X169320057Y-62261904D01*
X169320057Y-62261904D02*
X169415295Y-62214285D01*
X169415295Y-62214285D02*
X169462914Y-62214285D01*
X169462914Y-62214285D02*
X169558152Y-62261904D01*
X169558152Y-62261904D02*
X169605771Y-62309523D01*
X169605771Y-62309523D02*
X169653390Y-62404761D01*
X169653390Y-62404761D02*
X169653390Y-62595237D01*
X169653390Y-62595237D02*
X169701009Y-62690475D01*
X169701009Y-62690475D02*
X169748628Y-62738094D01*
X169748628Y-62738094D02*
X169843866Y-62785713D01*
X169843866Y-62785713D02*
X170034342Y-62785713D01*
X170034342Y-62785713D02*
X170129580Y-62738094D01*
X170129580Y-62738094D02*
X170177200Y-62690475D01*
X170177200Y-62690475D02*
X170224819Y-62595237D01*
X170224819Y-62595237D02*
X170224819Y-62404761D01*
X170224819Y-62404761D02*
X170177200Y-62309523D01*
X170177200Y-62309523D02*
X170129580Y-62261904D01*
X170129580Y-62261904D02*
X170034342Y-62214285D01*
X170034342Y-62214285D02*
X169843866Y-62214285D01*
X169843866Y-62214285D02*
X169748628Y-62261904D01*
X169748628Y-62261904D02*
X169701009Y-62309523D01*
X169701009Y-62309523D02*
X169653390Y-62404761D01*
X167969580Y-78926666D02*
X168017200Y-78974285D01*
X168017200Y-78974285D02*
X168064819Y-79117142D01*
X168064819Y-79117142D02*
X168064819Y-79212380D01*
X168064819Y-79212380D02*
X168017200Y-79355237D01*
X168017200Y-79355237D02*
X167921961Y-79450475D01*
X167921961Y-79450475D02*
X167826723Y-79498094D01*
X167826723Y-79498094D02*
X167636247Y-79545713D01*
X167636247Y-79545713D02*
X167493390Y-79545713D01*
X167493390Y-79545713D02*
X167302914Y-79498094D01*
X167302914Y-79498094D02*
X167207676Y-79450475D01*
X167207676Y-79450475D02*
X167112438Y-79355237D01*
X167112438Y-79355237D02*
X167064819Y-79212380D01*
X167064819Y-79212380D02*
X167064819Y-79117142D01*
X167064819Y-79117142D02*
X167112438Y-78974285D01*
X167112438Y-78974285D02*
X167160057Y-78926666D01*
X167398152Y-78069523D02*
X168064819Y-78069523D01*
X167017200Y-78307618D02*
X167731485Y-78545713D01*
X167731485Y-78545713D02*
X167731485Y-77926666D01*
X162957142Y-63959580D02*
X162909523Y-64007200D01*
X162909523Y-64007200D02*
X162766666Y-64054819D01*
X162766666Y-64054819D02*
X162671428Y-64054819D01*
X162671428Y-64054819D02*
X162528571Y-64007200D01*
X162528571Y-64007200D02*
X162433333Y-63911961D01*
X162433333Y-63911961D02*
X162385714Y-63816723D01*
X162385714Y-63816723D02*
X162338095Y-63626247D01*
X162338095Y-63626247D02*
X162338095Y-63483390D01*
X162338095Y-63483390D02*
X162385714Y-63292914D01*
X162385714Y-63292914D02*
X162433333Y-63197676D01*
X162433333Y-63197676D02*
X162528571Y-63102438D01*
X162528571Y-63102438D02*
X162671428Y-63054819D01*
X162671428Y-63054819D02*
X162766666Y-63054819D01*
X162766666Y-63054819D02*
X162909523Y-63102438D01*
X162909523Y-63102438D02*
X162957142Y-63150057D01*
X163909523Y-64054819D02*
X163338095Y-64054819D01*
X163623809Y-64054819D02*
X163623809Y-63054819D01*
X163623809Y-63054819D02*
X163528571Y-63197676D01*
X163528571Y-63197676D02*
X163433333Y-63292914D01*
X163433333Y-63292914D02*
X163338095Y-63340533D01*
X164242857Y-63054819D02*
X164861904Y-63054819D01*
X164861904Y-63054819D02*
X164528571Y-63435771D01*
X164528571Y-63435771D02*
X164671428Y-63435771D01*
X164671428Y-63435771D02*
X164766666Y-63483390D01*
X164766666Y-63483390D02*
X164814285Y-63531009D01*
X164814285Y-63531009D02*
X164861904Y-63626247D01*
X164861904Y-63626247D02*
X164861904Y-63864342D01*
X164861904Y-63864342D02*
X164814285Y-63959580D01*
X164814285Y-63959580D02*
X164766666Y-64007200D01*
X164766666Y-64007200D02*
X164671428Y-64054819D01*
X164671428Y-64054819D02*
X164385714Y-64054819D01*
X164385714Y-64054819D02*
X164290476Y-64007200D01*
X164290476Y-64007200D02*
X164242857Y-63959580D01*
X157634819Y-103923333D02*
X158349104Y-103923333D01*
X158349104Y-103923333D02*
X158491961Y-103970952D01*
X158491961Y-103970952D02*
X158587200Y-104066190D01*
X158587200Y-104066190D02*
X158634819Y-104209047D01*
X158634819Y-104209047D02*
X158634819Y-104304285D01*
X157968152Y-103018571D02*
X158634819Y-103018571D01*
X157587200Y-103256666D02*
X158301485Y-103494761D01*
X158301485Y-103494761D02*
X158301485Y-102875714D01*
X156486666Y-55054819D02*
X156486666Y-55769104D01*
X156486666Y-55769104D02*
X156439047Y-55911961D01*
X156439047Y-55911961D02*
X156343809Y-56007200D01*
X156343809Y-56007200D02*
X156200952Y-56054819D01*
X156200952Y-56054819D02*
X156105714Y-56054819D01*
X156915238Y-55150057D02*
X156962857Y-55102438D01*
X156962857Y-55102438D02*
X157058095Y-55054819D01*
X157058095Y-55054819D02*
X157296190Y-55054819D01*
X157296190Y-55054819D02*
X157391428Y-55102438D01*
X157391428Y-55102438D02*
X157439047Y-55150057D01*
X157439047Y-55150057D02*
X157486666Y-55245295D01*
X157486666Y-55245295D02*
X157486666Y-55340533D01*
X157486666Y-55340533D02*
X157439047Y-55483390D01*
X157439047Y-55483390D02*
X156867619Y-56054819D01*
X156867619Y-56054819D02*
X157486666Y-56054819D01*
X168916666Y-54954819D02*
X168916666Y-55669104D01*
X168916666Y-55669104D02*
X168869047Y-55811961D01*
X168869047Y-55811961D02*
X168773809Y-55907200D01*
X168773809Y-55907200D02*
X168630952Y-55954819D01*
X168630952Y-55954819D02*
X168535714Y-55954819D01*
X169297619Y-54954819D02*
X169916666Y-54954819D01*
X169916666Y-54954819D02*
X169583333Y-55335771D01*
X169583333Y-55335771D02*
X169726190Y-55335771D01*
X169726190Y-55335771D02*
X169821428Y-55383390D01*
X169821428Y-55383390D02*
X169869047Y-55431009D01*
X169869047Y-55431009D02*
X169916666Y-55526247D01*
X169916666Y-55526247D02*
X169916666Y-55764342D01*
X169916666Y-55764342D02*
X169869047Y-55859580D01*
X169869047Y-55859580D02*
X169821428Y-55907200D01*
X169821428Y-55907200D02*
X169726190Y-55954819D01*
X169726190Y-55954819D02*
X169440476Y-55954819D01*
X169440476Y-55954819D02*
X169345238Y-55907200D01*
X169345238Y-55907200D02*
X169297619Y-55859580D01*
%TO.C,C10*%
D12*
X168292164Y-79840000D02*
X168507836Y-79840000D01*
X168292164Y-80560000D02*
X168507836Y-80560000D01*
%TO.C,C7*%
X167440000Y-89492164D02*
X167440000Y-89707836D01*
X168160000Y-89492164D02*
X168160000Y-89707836D01*
%TO.C,Y1*%
X163260000Y-89890000D02*
X159140000Y-89890000D01*
X163260000Y-93310000D02*
X163260000Y-89890000D01*
%TO.C,R7*%
X156910000Y-73646359D02*
X156910000Y-73953641D01*
X157670000Y-73646359D02*
X157670000Y-73953641D01*
%TO.C,R9*%
X168020000Y-65846359D02*
X168020000Y-66153641D01*
X168780000Y-65846359D02*
X168780000Y-66153641D01*
%TO.C,U1*%
X159490000Y-80090000D02*
X160140000Y-80090000D01*
X159490000Y-80740000D02*
X159490000Y-80090000D01*
X159490000Y-87310000D02*
X159490000Y-86660000D01*
X160140000Y-87310000D02*
X159490000Y-87310000D01*
X166060000Y-80090000D02*
X166710000Y-80090000D01*
X166710000Y-80090000D02*
X166710000Y-80740000D01*
X166710000Y-86660000D02*
X166710000Y-87310000D01*
X166710000Y-87310000D02*
X166060000Y-87310000D01*
X158960000Y-81100000D02*
X158630000Y-81340000D01*
X158630000Y-80860000D01*
X158960000Y-81100000D01*
G36*
X158960000Y-81100000D02*
G01*
X158630000Y-81340000D01*
X158630000Y-80860000D01*
X158960000Y-81100000D01*
G37*
%TO.C,C8*%
X166430000Y-89502164D02*
X166430000Y-89717836D01*
X167150000Y-89502164D02*
X167150000Y-89717836D01*
%TO.C,R4*%
X163420000Y-78046359D02*
X163420000Y-78353641D01*
X164180000Y-78046359D02*
X164180000Y-78353641D01*
%TO.C,SW1*%
X158130000Y-69580000D02*
X162270000Y-69580000D01*
X158130000Y-69880000D02*
X158130000Y-69580000D01*
X158130000Y-72720000D02*
X158130000Y-72420000D01*
X162270000Y-69580000D02*
X162270000Y-69880000D01*
X162270000Y-72420000D02*
X162270000Y-72720000D01*
X162270000Y-72720000D02*
X158130000Y-72720000D01*
%TO.C,C3*%
X163460000Y-89492164D02*
X163460000Y-89707836D01*
X164180000Y-89492164D02*
X164180000Y-89707836D01*
%TO.C,R6*%
X157910000Y-73646359D02*
X157910000Y-73953641D01*
X158670000Y-73646359D02*
X158670000Y-73953641D01*
%TO.C,C15*%
X158220000Y-91472164D02*
X158220000Y-91687836D01*
X158940000Y-91472164D02*
X158940000Y-91687836D01*
%TO.C,R10*%
X169153641Y-76620000D02*
X168846359Y-76620000D01*
X169153641Y-77380000D02*
X168846359Y-77380000D01*
%TO.C,R5*%
X162186359Y-88940000D02*
X162493641Y-88940000D01*
X162186359Y-89700000D02*
X162493641Y-89700000D01*
%TO.C,U2*%
X157440000Y-65440000D02*
X158440000Y-65440000D01*
X157440000Y-66960000D02*
X157440000Y-65440000D01*
X157490000Y-66960000D02*
X157440000Y-66960000D01*
X159390000Y-66960000D02*
X158610000Y-66960000D01*
X159560000Y-65440000D02*
X160560000Y-65440000D01*
X160560000Y-65440000D02*
X160560000Y-66960000D01*
X160560000Y-66960000D02*
X160510000Y-66960000D01*
X158620000Y-67500000D02*
X158950000Y-67260000D01*
X158950000Y-67740000D01*
X158620000Y-67500000D01*
G36*
X158950000Y-67740000D02*
G01*
X158620000Y-67500000D01*
X158950000Y-67260000D01*
X158950000Y-67740000D01*
G37*
%TO.C,Q1*%
X167050000Y-63700000D02*
X165750000Y-63700000D01*
X167050000Y-65500000D02*
X165750000Y-65500000D01*
D11*
X165225000Y-64090000D02*
G75*
G02*
X165075000Y-64090000I-75000J0D01*
G01*
X165075000Y-64090000D02*
G75*
G02*
X165225000Y-64090000I75000J0D01*
G01*
%TO.C,C6*%
D12*
X164440000Y-89492164D02*
X164440000Y-89707836D01*
X165160000Y-89492164D02*
X165160000Y-89707836D01*
%TO.C,R2*%
X164846359Y-62020000D02*
X165153641Y-62020000D01*
X164846359Y-62780000D02*
X165153641Y-62780000D01*
%TO.C,D1*%
X167265000Y-72915000D02*
X167265000Y-75200000D01*
X168735000Y-72915000D02*
X167265000Y-72915000D01*
X168735000Y-75200000D02*
X168735000Y-72915000D01*
%TO.C,C18*%
X168892164Y-64240000D02*
X169107836Y-64240000D01*
X168892164Y-64960000D02*
X169107836Y-64960000D01*
%TO.C,C5*%
X165440000Y-78307836D02*
X165440000Y-78092164D01*
X166160000Y-78307836D02*
X166160000Y-78092164D01*
%TO.C,C14*%
X161090000Y-66740580D02*
X161090000Y-66459420D01*
X162110000Y-66740580D02*
X162110000Y-66459420D01*
%TO.C,C11*%
X168292164Y-80760000D02*
X168507836Y-80760000D01*
X168292164Y-81480000D02*
X168507836Y-81480000D01*
%TO.C,C12*%
X168332164Y-84020000D02*
X168547836Y-84020000D01*
X168332164Y-84740000D02*
X168547836Y-84740000D01*
%TO.C,J1*%
X158400000Y-54500000D02*
X158400000Y-52600000D01*
X158400000Y-58400000D02*
X158400000Y-56400000D01*
X167800000Y-52600000D02*
X158400000Y-52600000D01*
X167800000Y-54500000D02*
X167800000Y-52600000D01*
X167800000Y-58400000D02*
X167800000Y-56400000D01*
%TO.C,R3*%
X164420000Y-78046359D02*
X164420000Y-78353641D01*
X165180000Y-78046359D02*
X165180000Y-78353641D01*
%TO.C,C2*%
X167440000Y-78907836D02*
X167440000Y-78692164D01*
X168160000Y-78907836D02*
X168160000Y-78692164D01*
%TO.C,R1*%
X160933641Y-61930000D02*
X160626359Y-61930000D01*
X160933641Y-62690000D02*
X160626359Y-62690000D01*
%TO.C,U3*%
D11*
X159020000Y-76230000D02*
X162180000Y-76230000D01*
X162180000Y-74070000D02*
X159020000Y-74070000D01*
D13*
X158670000Y-74390000D02*
G75*
G02*
X158470000Y-74390000I-100000J0D01*
G01*
X158470000Y-74390000D02*
G75*
G02*
X158670000Y-74390000I100000J0D01*
G01*
D14*
X159130000Y-74150000D02*
G75*
G02*
X159070000Y-74150000I-30000J0D01*
G01*
X159070000Y-74150000D02*
G75*
G02*
X159130000Y-74150000I30000J0D01*
G01*
%TO.C,C1*%
D12*
X166440000Y-78307836D02*
X166440000Y-78092164D01*
X167160000Y-78307836D02*
X167160000Y-78092164D01*
%TO.C,C9*%
X165440000Y-89492164D02*
X165440000Y-89707836D01*
X166160000Y-89492164D02*
X166160000Y-89707836D01*
%TO.C,C16*%
X163480000Y-91697836D02*
X163480000Y-91482164D01*
X164200000Y-91697836D02*
X164200000Y-91482164D01*
%TO.C,C17*%
X161707836Y-73240000D02*
X161492164Y-73240000D01*
X161707836Y-73960000D02*
X161492164Y-73960000D01*
D15*
%TO.C,G\u002A\u002A\u002A*%
G36*
X159757935Y-96529147D02*
G01*
X159826139Y-96795401D01*
X159995285Y-96880060D01*
X160215039Y-97005260D01*
X160416189Y-97153984D01*
X160613298Y-97337142D01*
X160634213Y-97358669D01*
X160760831Y-97495770D01*
X160860633Y-97619324D01*
X160944674Y-97745306D01*
X161024005Y-97889688D01*
X161077428Y-97999163D01*
X161155958Y-98176812D01*
X161213468Y-98337723D01*
X161253153Y-98496196D01*
X161278208Y-98666530D01*
X161291825Y-98863022D01*
X161295323Y-98974617D01*
X161303597Y-99345603D01*
X161484250Y-99527322D01*
X161558189Y-99603094D01*
X161617493Y-99666527D01*
X161655124Y-99709923D01*
X161664903Y-99724892D01*
X161653417Y-99748883D01*
X161621323Y-99808184D01*
X161572169Y-99896605D01*
X161509501Y-100007959D01*
X161436867Y-100136059D01*
X161357815Y-100274715D01*
X161275890Y-100417741D01*
X161194641Y-100558949D01*
X161117614Y-100692150D01*
X161048357Y-100811157D01*
X160990417Y-100909781D01*
X160947341Y-100981835D01*
X160922676Y-101021130D01*
X160919068Y-101025980D01*
X160887960Y-101029563D01*
X160819072Y-101020703D01*
X160720626Y-101000723D01*
X160639149Y-100980986D01*
X160379208Y-100914399D01*
X160201862Y-101029124D01*
X159958808Y-101164054D01*
X159690120Y-101274057D01*
X159415017Y-101351339D01*
X159399237Y-101354660D01*
X159227336Y-101380622D01*
X159031261Y-101394834D01*
X158828587Y-101397106D01*
X158636890Y-101387248D01*
X158473745Y-101365069D01*
X158471898Y-101364700D01*
X158225689Y-101300164D01*
X157975056Y-101207064D01*
X157738270Y-101093007D01*
X157563008Y-100986274D01*
X157458373Y-100914471D01*
X157214899Y-100977618D01*
X157111384Y-101003825D01*
X157024290Y-101024682D01*
X156964646Y-101037617D01*
X156944915Y-101040582D01*
X156926697Y-101020499D01*
X156888005Y-100963776D01*
X156832021Y-100875556D01*
X156761924Y-100760984D01*
X156680896Y-100625204D01*
X156592115Y-100473359D01*
X156562581Y-100422204D01*
X156471534Y-100264100D01*
X156387378Y-100118113D01*
X156313340Y-99989826D01*
X156252643Y-99884821D01*
X156208515Y-99808683D01*
X156184179Y-99766995D01*
X156181319Y-99762203D01*
X156175432Y-99739859D01*
X156376624Y-99739859D01*
X156695644Y-100294894D01*
X156781204Y-100441728D01*
X156860057Y-100573208D01*
X156928837Y-100684029D01*
X156984180Y-100768884D01*
X157022719Y-100822469D01*
X157041060Y-100839489D01*
X157074885Y-100829439D01*
X157143376Y-100811266D01*
X157234526Y-100788115D01*
X157283523Y-100775981D01*
X157499591Y-100722912D01*
X157667644Y-100837203D01*
X157950486Y-101001877D01*
X158248012Y-101122301D01*
X158556359Y-101197550D01*
X158871664Y-101226698D01*
X159190063Y-101208817D01*
X159207403Y-101206477D01*
X159435506Y-101161138D01*
X159667233Y-101090401D01*
X159889174Y-100999631D01*
X160087916Y-100894190D01*
X160225952Y-100799133D01*
X160276204Y-100761849D01*
X160320335Y-100740131D01*
X160369533Y-100733644D01*
X160434985Y-100742054D01*
X160527879Y-100765026D01*
X160608571Y-100787693D01*
X160701213Y-100811891D01*
X160775622Y-100827148D01*
X160820454Y-100831321D01*
X160827861Y-100829121D01*
X160843495Y-100804510D01*
X160879601Y-100743951D01*
X160932827Y-100653182D01*
X160999821Y-100537943D01*
X161077233Y-100403973D01*
X161150233Y-100277022D01*
X161457380Y-99741718D01*
X161282592Y-99565756D01*
X161107805Y-99389794D01*
X161124458Y-99164765D01*
X161124351Y-98850136D01*
X161078872Y-98542482D01*
X160990588Y-98246114D01*
X160862070Y-97965347D01*
X160695885Y-97704491D01*
X160494602Y-97467862D01*
X160260790Y-97259770D01*
X159997018Y-97084528D01*
X159836244Y-97001918D01*
X159752972Y-96961661D01*
X159702650Y-96929474D01*
X159674152Y-96894377D01*
X159656352Y-96845391D01*
X159649227Y-96817365D01*
X159625800Y-96725389D01*
X159597931Y-96621546D01*
X159586621Y-96580994D01*
X159550897Y-96454954D01*
X158916037Y-96454954D01*
X158281178Y-96454954D01*
X158245454Y-96580994D01*
X158218558Y-96679008D01*
X158192174Y-96779970D01*
X158183032Y-96816632D01*
X158169070Y-96867583D01*
X158150696Y-96904647D01*
X158118916Y-96935823D01*
X158064741Y-96969109D01*
X157979178Y-97012502D01*
X157942923Y-97030207D01*
X157667931Y-97190401D01*
X157420635Y-97387921D01*
X157204293Y-97618763D01*
X157022159Y-97878923D01*
X156877491Y-98164397D01*
X156774772Y-98466497D01*
X156748604Y-98573974D01*
X156730655Y-98671959D01*
X156719351Y-98774805D01*
X156713115Y-98896870D01*
X156710370Y-99052507D01*
X156710365Y-99053113D01*
X156707342Y-99406565D01*
X156541983Y-99573212D01*
X156376624Y-99739859D01*
X156175432Y-99739859D01*
X156175097Y-99738587D01*
X156186434Y-99707434D01*
X156220050Y-99662075D01*
X156280667Y-99595845D01*
X156347141Y-99528010D01*
X156538401Y-99335621D01*
X156531541Y-99077660D01*
X156545688Y-98739767D01*
X156605013Y-98414013D01*
X156707488Y-98103758D01*
X156851085Y-97812363D01*
X157033775Y-97543189D01*
X157253531Y-97299595D01*
X157508324Y-97084942D01*
X157796128Y-96902590D01*
X157866459Y-96865732D01*
X158005958Y-96795314D01*
X158074151Y-96529104D01*
X158142344Y-96262894D01*
X158916037Y-96262894D01*
X159689731Y-96262894D01*
X159757935Y-96529147D01*
G37*
G36*
X159048079Y-97304497D02*
G01*
X159048079Y-97409805D01*
X159160644Y-97426685D01*
X159399938Y-97485233D01*
X159634486Y-97585395D01*
X159853864Y-97721107D01*
X160047651Y-97886305D01*
X160152965Y-98004118D01*
X160301838Y-98226777D01*
X160411824Y-98468212D01*
X160481660Y-98721600D01*
X160510083Y-98980118D01*
X160495829Y-99236944D01*
X160437634Y-99485254D01*
X160430881Y-99505010D01*
X160400212Y-99595031D01*
X160385117Y-99650835D01*
X160384528Y-99683244D01*
X160397375Y-99703080D01*
X160410339Y-99712935D01*
X160482884Y-99762912D01*
X160522020Y-99796295D01*
X160532632Y-99825456D01*
X160519603Y-99862770D01*
X160490430Y-99915854D01*
X160456137Y-99977492D01*
X160432490Y-100018873D01*
X160426843Y-100027995D01*
X160404502Y-100021951D01*
X160354994Y-99997566D01*
X160325889Y-99981360D01*
X160231100Y-99926806D01*
X160149750Y-100021032D01*
X159945734Y-100223523D01*
X159720666Y-100384662D01*
X159478070Y-100503225D01*
X159221467Y-100577986D01*
X158954380Y-100607721D01*
X158680334Y-100591205D01*
X158567928Y-100571026D01*
X158475587Y-100544777D01*
X158360277Y-100502761D01*
X158241165Y-100452231D01*
X158190623Y-100428249D01*
X158069544Y-100363881D01*
X157969255Y-100298011D01*
X157872387Y-100217955D01*
X157775916Y-100125439D01*
X157582465Y-99931988D01*
X157495288Y-99983423D01*
X157446084Y-100010963D01*
X157412942Y-100018068D01*
X157385435Y-99998924D01*
X157353139Y-99947719D01*
X157319980Y-99885682D01*
X157274267Y-99799303D01*
X157367252Y-99747042D01*
X157460238Y-99694781D01*
X157398351Y-99521323D01*
X157354258Y-99353913D01*
X157328232Y-99159922D01*
X157324771Y-99060306D01*
X157589330Y-99060306D01*
X157603089Y-99224020D01*
X157630097Y-99368954D01*
X157645240Y-99419888D01*
X157669574Y-99488631D01*
X157687455Y-99535715D01*
X157693059Y-99547858D01*
X157714148Y-99539208D01*
X157766695Y-99512087D01*
X157840629Y-99472124D01*
X157925879Y-99424950D01*
X158012374Y-99376193D01*
X158090043Y-99331483D01*
X158148816Y-99296449D01*
X158178622Y-99276722D01*
X158179480Y-99275948D01*
X158174199Y-99252257D01*
X158152039Y-99200751D01*
X158136979Y-99170135D01*
X158086801Y-99071778D01*
X158435398Y-99071778D01*
X158558568Y-99072761D01*
X158662634Y-99075463D01*
X158739162Y-99079519D01*
X158779717Y-99084561D01*
X158783996Y-99086928D01*
X158772685Y-99112106D01*
X158741597Y-99171008D01*
X158694998Y-99255800D01*
X158637154Y-99358645D01*
X158612891Y-99401217D01*
X158441785Y-99700355D01*
X158390821Y-99609498D01*
X158356412Y-99553739D01*
X158330099Y-99520870D01*
X158324139Y-99517280D01*
X158293514Y-99527893D01*
X158234197Y-99557891D01*
X158156401Y-99601164D01*
X158070343Y-99651600D01*
X157986238Y-99703091D01*
X157914301Y-99749525D01*
X157864746Y-99784792D01*
X157847701Y-99802261D01*
X157864028Y-99829068D01*
X157907613Y-99879304D01*
X157970367Y-99943908D01*
X157998888Y-99971613D01*
X158195147Y-100127072D01*
X158412779Y-100241091D01*
X158646550Y-100312196D01*
X158891225Y-100338916D01*
X159141569Y-100319778D01*
X159198301Y-100308968D01*
X159388353Y-100249542D01*
X159580011Y-100155275D01*
X159756094Y-100035515D01*
X159845572Y-99956828D01*
X159910145Y-99891233D01*
X159958628Y-99837389D01*
X159982767Y-99804617D01*
X159984039Y-99800506D01*
X159964752Y-99783255D01*
X159913756Y-99748287D01*
X159841034Y-99701698D01*
X159756570Y-99649583D01*
X159670350Y-99598040D01*
X159592358Y-99553163D01*
X159532577Y-99521048D01*
X159507837Y-99509763D01*
X159487279Y-99524750D01*
X159456197Y-99569668D01*
X159445965Y-99587788D01*
X159413770Y-99640996D01*
X159389270Y-99670107D01*
X159385003Y-99671967D01*
X159367670Y-99652382D01*
X159332100Y-99599083D01*
X159283509Y-99520253D01*
X159228154Y-99425890D01*
X159169091Y-99323435D01*
X159115771Y-99231779D01*
X159074436Y-99161604D01*
X159052741Y-99125795D01*
X159018549Y-99071778D01*
X159382141Y-99071778D01*
X159745732Y-99071778D01*
X159691390Y-99166200D01*
X159661309Y-99224882D01*
X159647801Y-99264582D01*
X159648834Y-99272407D01*
X159683614Y-99298165D01*
X159746250Y-99336889D01*
X159826466Y-99383031D01*
X159913984Y-99431042D01*
X159998526Y-99475373D01*
X160069816Y-99510475D01*
X160117576Y-99530801D01*
X160131698Y-99533097D01*
X160156757Y-99487065D01*
X160183848Y-99407066D01*
X160209361Y-99306814D01*
X160229685Y-99200025D01*
X160239323Y-99124204D01*
X160237839Y-98888739D01*
X160192363Y-98655433D01*
X160106594Y-98432000D01*
X159984234Y-98226155D01*
X159828983Y-98045614D01*
X159654320Y-97904512D01*
X159505311Y-97820474D01*
X159336848Y-97749222D01*
X159172671Y-97700464D01*
X159138107Y-97693469D01*
X159048079Y-97677164D01*
X159048079Y-97966343D01*
X159048079Y-98255521D01*
X159156113Y-98255521D01*
X159220569Y-98257612D01*
X159259210Y-98262900D01*
X159264147Y-98266037D01*
X159252952Y-98288043D01*
X159222818Y-98342526D01*
X159178920Y-98420445D01*
X159126435Y-98512757D01*
X159070539Y-98610421D01*
X159016407Y-98704393D01*
X158969216Y-98785631D01*
X158934141Y-98845093D01*
X158916359Y-98873738D01*
X158916046Y-98874160D01*
X158903164Y-98857345D01*
X158871982Y-98807430D01*
X158827589Y-98733248D01*
X158775076Y-98643632D01*
X158719531Y-98547416D01*
X158666044Y-98453432D01*
X158619705Y-98370514D01*
X158585603Y-98307495D01*
X158568827Y-98273208D01*
X158567928Y-98269975D01*
X158589401Y-98261352D01*
X158643727Y-98256182D01*
X158675962Y-98255521D01*
X158783996Y-98255521D01*
X158783996Y-97966343D01*
X158783996Y-97677164D01*
X158693968Y-97693143D01*
X158460087Y-97757971D01*
X158243158Y-97863666D01*
X158048367Y-98005167D01*
X157880901Y-98177411D01*
X157745947Y-98375337D01*
X157648690Y-98593885D01*
X157606154Y-98754684D01*
X157589969Y-98897347D01*
X157589330Y-99060306D01*
X157324771Y-99060306D01*
X157321204Y-98957624D01*
X157334103Y-98765290D01*
X157354074Y-98652309D01*
X157438265Y-98395123D01*
X157563074Y-98158487D01*
X157724080Y-97946716D01*
X157916863Y-97764125D01*
X158137001Y-97615028D01*
X158380073Y-97503739D01*
X158592282Y-97443953D01*
X158783996Y-97404311D01*
X158783996Y-97301750D01*
X158783996Y-97199189D01*
X158916037Y-97199189D01*
X159048079Y-97199189D01*
X159048079Y-97304497D01*
G37*
%TO.C,R8*%
D12*
X168220000Y-62846359D02*
X168220000Y-63153641D01*
X168980000Y-62846359D02*
X168980000Y-63153641D01*
%TO.C,C4*%
X168410000Y-78867836D02*
X168410000Y-78652164D01*
X169130000Y-78867836D02*
X169130000Y-78652164D01*
%TO.C,C13*%
X161059420Y-63690000D02*
X161340580Y-63690000D01*
X161059420Y-64710000D02*
X161340580Y-64710000D01*
%TD*%
M02*
