%TF.GenerationSoftware,KiCad,Pcbnew,9.0.7*%
%TF.CreationDate,2026-05-15T08:56:20-05:00*%
%TF.ProjectId,digital-name-tag,64696769-7461-46c2-9d6e-616d652d7461,rev?*%
%TF.SameCoordinates,Original*%
%TF.FileFunction,Legend,Top*%
%TF.FilePolarity,Positive*%
%FSLAX46Y46*%
G04 Gerber Fmt 4.6, Leading zero omitted, Abs format (unit mm)*
G04 Created by KiCad (PCBNEW 9.0.7) date 2026-05-15 08:56:20*
%MOMM*%
%LPD*%
G01*
G04 APERTURE LIST*
%ADD10C,0.150000*%
%ADD11C,0.120000*%
%ADD12C,0.200000*%
%ADD13C,0.060000*%
G04 APERTURE END LIST*
D10*
X169957142Y-80159580D02*
X169909523Y-80207200D01*
X169909523Y-80207200D02*
X169766666Y-80254819D01*
X169766666Y-80254819D02*
X169671428Y-80254819D01*
X169671428Y-80254819D02*
X169528571Y-80207200D01*
X169528571Y-80207200D02*
X169433333Y-80111961D01*
X169433333Y-80111961D02*
X169385714Y-80016723D01*
X169385714Y-80016723D02*
X169338095Y-79826247D01*
X169338095Y-79826247D02*
X169338095Y-79683390D01*
X169338095Y-79683390D02*
X169385714Y-79492914D01*
X169385714Y-79492914D02*
X169433333Y-79397676D01*
X169433333Y-79397676D02*
X169528571Y-79302438D01*
X169528571Y-79302438D02*
X169671428Y-79254819D01*
X169671428Y-79254819D02*
X169766666Y-79254819D01*
X169766666Y-79254819D02*
X169909523Y-79302438D01*
X169909523Y-79302438D02*
X169957142Y-79350057D01*
X170909523Y-80254819D02*
X170338095Y-80254819D01*
X170623809Y-80254819D02*
X170623809Y-79254819D01*
X170623809Y-79254819D02*
X170528571Y-79397676D01*
X170528571Y-79397676D02*
X170433333Y-79492914D01*
X170433333Y-79492914D02*
X170338095Y-79540533D01*
X171528571Y-79254819D02*
X171623809Y-79254819D01*
X171623809Y-79254819D02*
X171719047Y-79302438D01*
X171719047Y-79302438D02*
X171766666Y-79350057D01*
X171766666Y-79350057D02*
X171814285Y-79445295D01*
X171814285Y-79445295D02*
X171861904Y-79635771D01*
X171861904Y-79635771D02*
X171861904Y-79873866D01*
X171861904Y-79873866D02*
X171814285Y-80064342D01*
X171814285Y-80064342D02*
X171766666Y-80159580D01*
X171766666Y-80159580D02*
X171719047Y-80207200D01*
X171719047Y-80207200D02*
X171623809Y-80254819D01*
X171623809Y-80254819D02*
X171528571Y-80254819D01*
X171528571Y-80254819D02*
X171433333Y-80207200D01*
X171433333Y-80207200D02*
X171385714Y-80159580D01*
X171385714Y-80159580D02*
X171338095Y-80064342D01*
X171338095Y-80064342D02*
X171290476Y-79873866D01*
X171290476Y-79873866D02*
X171290476Y-79635771D01*
X171290476Y-79635771D02*
X171338095Y-79445295D01*
X171338095Y-79445295D02*
X171385714Y-79350057D01*
X171385714Y-79350057D02*
X171433333Y-79302438D01*
X171433333Y-79302438D02*
X171528571Y-79254819D01*
X169359580Y-89966666D02*
X169407200Y-90014285D01*
X169407200Y-90014285D02*
X169454819Y-90157142D01*
X169454819Y-90157142D02*
X169454819Y-90252380D01*
X169454819Y-90252380D02*
X169407200Y-90395237D01*
X169407200Y-90395237D02*
X169311961Y-90490475D01*
X169311961Y-90490475D02*
X169216723Y-90538094D01*
X169216723Y-90538094D02*
X169026247Y-90585713D01*
X169026247Y-90585713D02*
X168883390Y-90585713D01*
X168883390Y-90585713D02*
X168692914Y-90538094D01*
X168692914Y-90538094D02*
X168597676Y-90490475D01*
X168597676Y-90490475D02*
X168502438Y-90395237D01*
X168502438Y-90395237D02*
X168454819Y-90252380D01*
X168454819Y-90252380D02*
X168454819Y-90157142D01*
X168454819Y-90157142D02*
X168502438Y-90014285D01*
X168502438Y-90014285D02*
X168550057Y-89966666D01*
X168454819Y-89633332D02*
X168454819Y-88966666D01*
X168454819Y-88966666D02*
X169454819Y-89395237D01*
X160723809Y-94028628D02*
X160723809Y-94504819D01*
X160390476Y-93504819D02*
X160723809Y-94028628D01*
X160723809Y-94028628D02*
X161057142Y-93504819D01*
X161914285Y-94504819D02*
X161342857Y-94504819D01*
X161628571Y-94504819D02*
X161628571Y-93504819D01*
X161628571Y-93504819D02*
X161533333Y-93647676D01*
X161533333Y-93647676D02*
X161438095Y-93742914D01*
X161438095Y-93742914D02*
X161342857Y-93790533D01*
X157454819Y-75766666D02*
X156978628Y-76099999D01*
X157454819Y-76338094D02*
X156454819Y-76338094D01*
X156454819Y-76338094D02*
X156454819Y-75957142D01*
X156454819Y-75957142D02*
X156502438Y-75861904D01*
X156502438Y-75861904D02*
X156550057Y-75814285D01*
X156550057Y-75814285D02*
X156645295Y-75766666D01*
X156645295Y-75766666D02*
X156788152Y-75766666D01*
X156788152Y-75766666D02*
X156883390Y-75814285D01*
X156883390Y-75814285D02*
X156931009Y-75861904D01*
X156931009Y-75861904D02*
X156978628Y-75957142D01*
X156978628Y-75957142D02*
X156978628Y-76338094D01*
X156454819Y-75433332D02*
X156454819Y-74766666D01*
X156454819Y-74766666D02*
X157454819Y-75195237D01*
X170024819Y-66166666D02*
X169548628Y-66499999D01*
X170024819Y-66738094D02*
X169024819Y-66738094D01*
X169024819Y-66738094D02*
X169024819Y-66357142D01*
X169024819Y-66357142D02*
X169072438Y-66261904D01*
X169072438Y-66261904D02*
X169120057Y-66214285D01*
X169120057Y-66214285D02*
X169215295Y-66166666D01*
X169215295Y-66166666D02*
X169358152Y-66166666D01*
X169358152Y-66166666D02*
X169453390Y-66214285D01*
X169453390Y-66214285D02*
X169501009Y-66261904D01*
X169501009Y-66261904D02*
X169548628Y-66357142D01*
X169548628Y-66357142D02*
X169548628Y-66738094D01*
X170024819Y-65690475D02*
X170024819Y-65499999D01*
X170024819Y-65499999D02*
X169977200Y-65404761D01*
X169977200Y-65404761D02*
X169929580Y-65357142D01*
X169929580Y-65357142D02*
X169786723Y-65261904D01*
X169786723Y-65261904D02*
X169596247Y-65214285D01*
X169596247Y-65214285D02*
X169215295Y-65214285D01*
X169215295Y-65214285D02*
X169120057Y-65261904D01*
X169120057Y-65261904D02*
X169072438Y-65309523D01*
X169072438Y-65309523D02*
X169024819Y-65404761D01*
X169024819Y-65404761D02*
X169024819Y-65595237D01*
X169024819Y-65595237D02*
X169072438Y-65690475D01*
X169072438Y-65690475D02*
X169120057Y-65738094D01*
X169120057Y-65738094D02*
X169215295Y-65785713D01*
X169215295Y-65785713D02*
X169453390Y-65785713D01*
X169453390Y-65785713D02*
X169548628Y-65738094D01*
X169548628Y-65738094D02*
X169596247Y-65690475D01*
X169596247Y-65690475D02*
X169643866Y-65595237D01*
X169643866Y-65595237D02*
X169643866Y-65404761D01*
X169643866Y-65404761D02*
X169596247Y-65309523D01*
X169596247Y-65309523D02*
X169548628Y-65261904D01*
X169548628Y-65261904D02*
X169453390Y-65214285D01*
X167759580Y-91766666D02*
X167807200Y-91814285D01*
X167807200Y-91814285D02*
X167854819Y-91957142D01*
X167854819Y-91957142D02*
X167854819Y-92052380D01*
X167854819Y-92052380D02*
X167807200Y-92195237D01*
X167807200Y-92195237D02*
X167711961Y-92290475D01*
X167711961Y-92290475D02*
X167616723Y-92338094D01*
X167616723Y-92338094D02*
X167426247Y-92385713D01*
X167426247Y-92385713D02*
X167283390Y-92385713D01*
X167283390Y-92385713D02*
X167092914Y-92338094D01*
X167092914Y-92338094D02*
X166997676Y-92290475D01*
X166997676Y-92290475D02*
X166902438Y-92195237D01*
X166902438Y-92195237D02*
X166854819Y-92052380D01*
X166854819Y-92052380D02*
X166854819Y-91957142D01*
X166854819Y-91957142D02*
X166902438Y-91814285D01*
X166902438Y-91814285D02*
X166950057Y-91766666D01*
X167283390Y-91195237D02*
X167235771Y-91290475D01*
X167235771Y-91290475D02*
X167188152Y-91338094D01*
X167188152Y-91338094D02*
X167092914Y-91385713D01*
X167092914Y-91385713D02*
X167045295Y-91385713D01*
X167045295Y-91385713D02*
X166950057Y-91338094D01*
X166950057Y-91338094D02*
X166902438Y-91290475D01*
X166902438Y-91290475D02*
X166854819Y-91195237D01*
X166854819Y-91195237D02*
X166854819Y-91004761D01*
X166854819Y-91004761D02*
X166902438Y-90909523D01*
X166902438Y-90909523D02*
X166950057Y-90861904D01*
X166950057Y-90861904D02*
X167045295Y-90814285D01*
X167045295Y-90814285D02*
X167092914Y-90814285D01*
X167092914Y-90814285D02*
X167188152Y-90861904D01*
X167188152Y-90861904D02*
X167235771Y-90909523D01*
X167235771Y-90909523D02*
X167283390Y-91004761D01*
X167283390Y-91004761D02*
X167283390Y-91195237D01*
X167283390Y-91195237D02*
X167331009Y-91290475D01*
X167331009Y-91290475D02*
X167378628Y-91338094D01*
X167378628Y-91338094D02*
X167473866Y-91385713D01*
X167473866Y-91385713D02*
X167664342Y-91385713D01*
X167664342Y-91385713D02*
X167759580Y-91338094D01*
X167759580Y-91338094D02*
X167807200Y-91290475D01*
X167807200Y-91290475D02*
X167854819Y-91195237D01*
X167854819Y-91195237D02*
X167854819Y-91004761D01*
X167854819Y-91004761D02*
X167807200Y-90909523D01*
X167807200Y-90909523D02*
X167759580Y-90861904D01*
X167759580Y-90861904D02*
X167664342Y-90814285D01*
X167664342Y-90814285D02*
X167473866Y-90814285D01*
X167473866Y-90814285D02*
X167378628Y-90861904D01*
X167378628Y-90861904D02*
X167331009Y-90909523D01*
X167331009Y-90909523D02*
X167283390Y-91004761D01*
X163854819Y-76566666D02*
X163378628Y-76899999D01*
X163854819Y-77138094D02*
X162854819Y-77138094D01*
X162854819Y-77138094D02*
X162854819Y-76757142D01*
X162854819Y-76757142D02*
X162902438Y-76661904D01*
X162902438Y-76661904D02*
X162950057Y-76614285D01*
X162950057Y-76614285D02*
X163045295Y-76566666D01*
X163045295Y-76566666D02*
X163188152Y-76566666D01*
X163188152Y-76566666D02*
X163283390Y-76614285D01*
X163283390Y-76614285D02*
X163331009Y-76661904D01*
X163331009Y-76661904D02*
X163378628Y-76757142D01*
X163378628Y-76757142D02*
X163378628Y-77138094D01*
X163188152Y-75709523D02*
X163854819Y-75709523D01*
X162807200Y-75947618D02*
X163521485Y-76185713D01*
X163521485Y-76185713D02*
X163521485Y-75566666D01*
X158866667Y-72207200D02*
X159009524Y-72254819D01*
X159009524Y-72254819D02*
X159247619Y-72254819D01*
X159247619Y-72254819D02*
X159342857Y-72207200D01*
X159342857Y-72207200D02*
X159390476Y-72159580D01*
X159390476Y-72159580D02*
X159438095Y-72064342D01*
X159438095Y-72064342D02*
X159438095Y-71969104D01*
X159438095Y-71969104D02*
X159390476Y-71873866D01*
X159390476Y-71873866D02*
X159342857Y-71826247D01*
X159342857Y-71826247D02*
X159247619Y-71778628D01*
X159247619Y-71778628D02*
X159057143Y-71731009D01*
X159057143Y-71731009D02*
X158961905Y-71683390D01*
X158961905Y-71683390D02*
X158914286Y-71635771D01*
X158914286Y-71635771D02*
X158866667Y-71540533D01*
X158866667Y-71540533D02*
X158866667Y-71445295D01*
X158866667Y-71445295D02*
X158914286Y-71350057D01*
X158914286Y-71350057D02*
X158961905Y-71302438D01*
X158961905Y-71302438D02*
X159057143Y-71254819D01*
X159057143Y-71254819D02*
X159295238Y-71254819D01*
X159295238Y-71254819D02*
X159438095Y-71302438D01*
X159771429Y-71254819D02*
X160009524Y-72254819D01*
X160009524Y-72254819D02*
X160200000Y-71540533D01*
X160200000Y-71540533D02*
X160390476Y-72254819D01*
X160390476Y-72254819D02*
X160628572Y-71254819D01*
X161533333Y-72254819D02*
X160961905Y-72254819D01*
X161247619Y-72254819D02*
X161247619Y-71254819D01*
X161247619Y-71254819D02*
X161152381Y-71397676D01*
X161152381Y-71397676D02*
X161057143Y-71492914D01*
X161057143Y-71492914D02*
X160961905Y-71540533D01*
X164033333Y-88759580D02*
X163985714Y-88807200D01*
X163985714Y-88807200D02*
X163842857Y-88854819D01*
X163842857Y-88854819D02*
X163747619Y-88854819D01*
X163747619Y-88854819D02*
X163604762Y-88807200D01*
X163604762Y-88807200D02*
X163509524Y-88711961D01*
X163509524Y-88711961D02*
X163461905Y-88616723D01*
X163461905Y-88616723D02*
X163414286Y-88426247D01*
X163414286Y-88426247D02*
X163414286Y-88283390D01*
X163414286Y-88283390D02*
X163461905Y-88092914D01*
X163461905Y-88092914D02*
X163509524Y-87997676D01*
X163509524Y-87997676D02*
X163604762Y-87902438D01*
X163604762Y-87902438D02*
X163747619Y-87854819D01*
X163747619Y-87854819D02*
X163842857Y-87854819D01*
X163842857Y-87854819D02*
X163985714Y-87902438D01*
X163985714Y-87902438D02*
X164033333Y-87950057D01*
X164366667Y-87854819D02*
X164985714Y-87854819D01*
X164985714Y-87854819D02*
X164652381Y-88235771D01*
X164652381Y-88235771D02*
X164795238Y-88235771D01*
X164795238Y-88235771D02*
X164890476Y-88283390D01*
X164890476Y-88283390D02*
X164938095Y-88331009D01*
X164938095Y-88331009D02*
X164985714Y-88426247D01*
X164985714Y-88426247D02*
X164985714Y-88664342D01*
X164985714Y-88664342D02*
X164938095Y-88759580D01*
X164938095Y-88759580D02*
X164890476Y-88807200D01*
X164890476Y-88807200D02*
X164795238Y-88854819D01*
X164795238Y-88854819D02*
X164509524Y-88854819D01*
X164509524Y-88854819D02*
X164414286Y-88807200D01*
X164414286Y-88807200D02*
X164366667Y-88759580D01*
X158654819Y-75766666D02*
X158178628Y-76099999D01*
X158654819Y-76338094D02*
X157654819Y-76338094D01*
X157654819Y-76338094D02*
X157654819Y-75957142D01*
X157654819Y-75957142D02*
X157702438Y-75861904D01*
X157702438Y-75861904D02*
X157750057Y-75814285D01*
X157750057Y-75814285D02*
X157845295Y-75766666D01*
X157845295Y-75766666D02*
X157988152Y-75766666D01*
X157988152Y-75766666D02*
X158083390Y-75814285D01*
X158083390Y-75814285D02*
X158131009Y-75861904D01*
X158131009Y-75861904D02*
X158178628Y-75957142D01*
X158178628Y-75957142D02*
X158178628Y-76338094D01*
X157654819Y-74909523D02*
X157654819Y-75099999D01*
X157654819Y-75099999D02*
X157702438Y-75195237D01*
X157702438Y-75195237D02*
X157750057Y-75242856D01*
X157750057Y-75242856D02*
X157892914Y-75338094D01*
X157892914Y-75338094D02*
X158083390Y-75385713D01*
X158083390Y-75385713D02*
X158464342Y-75385713D01*
X158464342Y-75385713D02*
X158559580Y-75338094D01*
X158559580Y-75338094D02*
X158607200Y-75290475D01*
X158607200Y-75290475D02*
X158654819Y-75195237D01*
X158654819Y-75195237D02*
X158654819Y-75004761D01*
X158654819Y-75004761D02*
X158607200Y-74909523D01*
X158607200Y-74909523D02*
X158559580Y-74861904D01*
X158559580Y-74861904D02*
X158464342Y-74814285D01*
X158464342Y-74814285D02*
X158226247Y-74814285D01*
X158226247Y-74814285D02*
X158131009Y-74861904D01*
X158131009Y-74861904D02*
X158083390Y-74909523D01*
X158083390Y-74909523D02*
X158035771Y-75004761D01*
X158035771Y-75004761D02*
X158035771Y-75195237D01*
X158035771Y-75195237D02*
X158083390Y-75290475D01*
X158083390Y-75290475D02*
X158131009Y-75338094D01*
X158131009Y-75338094D02*
X158226247Y-75385713D01*
X157759580Y-92242857D02*
X157807200Y-92290476D01*
X157807200Y-92290476D02*
X157854819Y-92433333D01*
X157854819Y-92433333D02*
X157854819Y-92528571D01*
X157854819Y-92528571D02*
X157807200Y-92671428D01*
X157807200Y-92671428D02*
X157711961Y-92766666D01*
X157711961Y-92766666D02*
X157616723Y-92814285D01*
X157616723Y-92814285D02*
X157426247Y-92861904D01*
X157426247Y-92861904D02*
X157283390Y-92861904D01*
X157283390Y-92861904D02*
X157092914Y-92814285D01*
X157092914Y-92814285D02*
X156997676Y-92766666D01*
X156997676Y-92766666D02*
X156902438Y-92671428D01*
X156902438Y-92671428D02*
X156854819Y-92528571D01*
X156854819Y-92528571D02*
X156854819Y-92433333D01*
X156854819Y-92433333D02*
X156902438Y-92290476D01*
X156902438Y-92290476D02*
X156950057Y-92242857D01*
X157854819Y-91290476D02*
X157854819Y-91861904D01*
X157854819Y-91576190D02*
X156854819Y-91576190D01*
X156854819Y-91576190D02*
X156997676Y-91671428D01*
X156997676Y-91671428D02*
X157092914Y-91766666D01*
X157092914Y-91766666D02*
X157140533Y-91861904D01*
X156854819Y-90385714D02*
X156854819Y-90861904D01*
X156854819Y-90861904D02*
X157331009Y-90909523D01*
X157331009Y-90909523D02*
X157283390Y-90861904D01*
X157283390Y-90861904D02*
X157235771Y-90766666D01*
X157235771Y-90766666D02*
X157235771Y-90528571D01*
X157235771Y-90528571D02*
X157283390Y-90433333D01*
X157283390Y-90433333D02*
X157331009Y-90385714D01*
X157331009Y-90385714D02*
X157426247Y-90338095D01*
X157426247Y-90338095D02*
X157664342Y-90338095D01*
X157664342Y-90338095D02*
X157759580Y-90385714D01*
X157759580Y-90385714D02*
X157807200Y-90433333D01*
X157807200Y-90433333D02*
X157854819Y-90528571D01*
X157854819Y-90528571D02*
X157854819Y-90766666D01*
X157854819Y-90766666D02*
X157807200Y-90861904D01*
X157807200Y-90861904D02*
X157759580Y-90909523D01*
X170757142Y-77654819D02*
X170423809Y-77178628D01*
X170185714Y-77654819D02*
X170185714Y-76654819D01*
X170185714Y-76654819D02*
X170566666Y-76654819D01*
X170566666Y-76654819D02*
X170661904Y-76702438D01*
X170661904Y-76702438D02*
X170709523Y-76750057D01*
X170709523Y-76750057D02*
X170757142Y-76845295D01*
X170757142Y-76845295D02*
X170757142Y-76988152D01*
X170757142Y-76988152D02*
X170709523Y-77083390D01*
X170709523Y-77083390D02*
X170661904Y-77131009D01*
X170661904Y-77131009D02*
X170566666Y-77178628D01*
X170566666Y-77178628D02*
X170185714Y-77178628D01*
X171709523Y-77654819D02*
X171138095Y-77654819D01*
X171423809Y-77654819D02*
X171423809Y-76654819D01*
X171423809Y-76654819D02*
X171328571Y-76797676D01*
X171328571Y-76797676D02*
X171233333Y-76892914D01*
X171233333Y-76892914D02*
X171138095Y-76940533D01*
X172328571Y-76654819D02*
X172423809Y-76654819D01*
X172423809Y-76654819D02*
X172519047Y-76702438D01*
X172519047Y-76702438D02*
X172566666Y-76750057D01*
X172566666Y-76750057D02*
X172614285Y-76845295D01*
X172614285Y-76845295D02*
X172661904Y-77035771D01*
X172661904Y-77035771D02*
X172661904Y-77273866D01*
X172661904Y-77273866D02*
X172614285Y-77464342D01*
X172614285Y-77464342D02*
X172566666Y-77559580D01*
X172566666Y-77559580D02*
X172519047Y-77607200D01*
X172519047Y-77607200D02*
X172423809Y-77654819D01*
X172423809Y-77654819D02*
X172328571Y-77654819D01*
X172328571Y-77654819D02*
X172233333Y-77607200D01*
X172233333Y-77607200D02*
X172185714Y-77559580D01*
X172185714Y-77559580D02*
X172138095Y-77464342D01*
X172138095Y-77464342D02*
X172090476Y-77273866D01*
X172090476Y-77273866D02*
X172090476Y-77035771D01*
X172090476Y-77035771D02*
X172138095Y-76845295D01*
X172138095Y-76845295D02*
X172185714Y-76750057D01*
X172185714Y-76750057D02*
X172233333Y-76702438D01*
X172233333Y-76702438D02*
X172328571Y-76654819D01*
X162173333Y-88604819D02*
X161840000Y-88128628D01*
X161601905Y-88604819D02*
X161601905Y-87604819D01*
X161601905Y-87604819D02*
X161982857Y-87604819D01*
X161982857Y-87604819D02*
X162078095Y-87652438D01*
X162078095Y-87652438D02*
X162125714Y-87700057D01*
X162125714Y-87700057D02*
X162173333Y-87795295D01*
X162173333Y-87795295D02*
X162173333Y-87938152D01*
X162173333Y-87938152D02*
X162125714Y-88033390D01*
X162125714Y-88033390D02*
X162078095Y-88081009D01*
X162078095Y-88081009D02*
X161982857Y-88128628D01*
X161982857Y-88128628D02*
X161601905Y-88128628D01*
X163078095Y-87604819D02*
X162601905Y-87604819D01*
X162601905Y-87604819D02*
X162554286Y-88081009D01*
X162554286Y-88081009D02*
X162601905Y-88033390D01*
X162601905Y-88033390D02*
X162697143Y-87985771D01*
X162697143Y-87985771D02*
X162935238Y-87985771D01*
X162935238Y-87985771D02*
X163030476Y-88033390D01*
X163030476Y-88033390D02*
X163078095Y-88081009D01*
X163078095Y-88081009D02*
X163125714Y-88176247D01*
X163125714Y-88176247D02*
X163125714Y-88414342D01*
X163125714Y-88414342D02*
X163078095Y-88509580D01*
X163078095Y-88509580D02*
X163030476Y-88557200D01*
X163030476Y-88557200D02*
X162935238Y-88604819D01*
X162935238Y-88604819D02*
X162697143Y-88604819D01*
X162697143Y-88604819D02*
X162601905Y-88557200D01*
X162601905Y-88557200D02*
X162554286Y-88509580D01*
X156054819Y-66961904D02*
X156864342Y-66961904D01*
X156864342Y-66961904D02*
X156959580Y-66914285D01*
X156959580Y-66914285D02*
X157007200Y-66866666D01*
X157007200Y-66866666D02*
X157054819Y-66771428D01*
X157054819Y-66771428D02*
X157054819Y-66580952D01*
X157054819Y-66580952D02*
X157007200Y-66485714D01*
X157007200Y-66485714D02*
X156959580Y-66438095D01*
X156959580Y-66438095D02*
X156864342Y-66390476D01*
X156864342Y-66390476D02*
X156054819Y-66390476D01*
X156150057Y-65961904D02*
X156102438Y-65914285D01*
X156102438Y-65914285D02*
X156054819Y-65819047D01*
X156054819Y-65819047D02*
X156054819Y-65580952D01*
X156054819Y-65580952D02*
X156102438Y-65485714D01*
X156102438Y-65485714D02*
X156150057Y-65438095D01*
X156150057Y-65438095D02*
X156245295Y-65390476D01*
X156245295Y-65390476D02*
X156340533Y-65390476D01*
X156340533Y-65390476D02*
X156483390Y-65438095D01*
X156483390Y-65438095D02*
X157054819Y-66009523D01*
X157054819Y-66009523D02*
X157054819Y-65390476D01*
X157634819Y-103923333D02*
X158349104Y-103923333D01*
X158349104Y-103923333D02*
X158491961Y-103970952D01*
X158491961Y-103970952D02*
X158587200Y-104066190D01*
X158587200Y-104066190D02*
X158634819Y-104209047D01*
X158634819Y-104209047D02*
X158634819Y-104304285D01*
X157968152Y-103018571D02*
X158634819Y-103018571D01*
X157587200Y-103256666D02*
X158301485Y-103494761D01*
X158301485Y-103494761D02*
X158301485Y-102875714D01*
X166304761Y-66750057D02*
X166209523Y-66702438D01*
X166209523Y-66702438D02*
X166114285Y-66607200D01*
X166114285Y-66607200D02*
X165971428Y-66464342D01*
X165971428Y-66464342D02*
X165876190Y-66416723D01*
X165876190Y-66416723D02*
X165780952Y-66416723D01*
X165828571Y-66654819D02*
X165733333Y-66607200D01*
X165733333Y-66607200D02*
X165638095Y-66511961D01*
X165638095Y-66511961D02*
X165590476Y-66321485D01*
X165590476Y-66321485D02*
X165590476Y-65988152D01*
X165590476Y-65988152D02*
X165638095Y-65797676D01*
X165638095Y-65797676D02*
X165733333Y-65702438D01*
X165733333Y-65702438D02*
X165828571Y-65654819D01*
X165828571Y-65654819D02*
X166019047Y-65654819D01*
X166019047Y-65654819D02*
X166114285Y-65702438D01*
X166114285Y-65702438D02*
X166209523Y-65797676D01*
X166209523Y-65797676D02*
X166257142Y-65988152D01*
X166257142Y-65988152D02*
X166257142Y-66321485D01*
X166257142Y-66321485D02*
X166209523Y-66511961D01*
X166209523Y-66511961D02*
X166114285Y-66607200D01*
X166114285Y-66607200D02*
X166019047Y-66654819D01*
X166019047Y-66654819D02*
X165828571Y-66654819D01*
X167209523Y-66654819D02*
X166638095Y-66654819D01*
X166923809Y-66654819D02*
X166923809Y-65654819D01*
X166923809Y-65654819D02*
X166828571Y-65797676D01*
X166828571Y-65797676D02*
X166733333Y-65892914D01*
X166733333Y-65892914D02*
X166638095Y-65940533D01*
X165359580Y-91566666D02*
X165407200Y-91614285D01*
X165407200Y-91614285D02*
X165454819Y-91757142D01*
X165454819Y-91757142D02*
X165454819Y-91852380D01*
X165454819Y-91852380D02*
X165407200Y-91995237D01*
X165407200Y-91995237D02*
X165311961Y-92090475D01*
X165311961Y-92090475D02*
X165216723Y-92138094D01*
X165216723Y-92138094D02*
X165026247Y-92185713D01*
X165026247Y-92185713D02*
X164883390Y-92185713D01*
X164883390Y-92185713D02*
X164692914Y-92138094D01*
X164692914Y-92138094D02*
X164597676Y-92090475D01*
X164597676Y-92090475D02*
X164502438Y-91995237D01*
X164502438Y-91995237D02*
X164454819Y-91852380D01*
X164454819Y-91852380D02*
X164454819Y-91757142D01*
X164454819Y-91757142D02*
X164502438Y-91614285D01*
X164502438Y-91614285D02*
X164550057Y-91566666D01*
X164454819Y-90709523D02*
X164454819Y-90899999D01*
X164454819Y-90899999D02*
X164502438Y-90995237D01*
X164502438Y-90995237D02*
X164550057Y-91042856D01*
X164550057Y-91042856D02*
X164692914Y-91138094D01*
X164692914Y-91138094D02*
X164883390Y-91185713D01*
X164883390Y-91185713D02*
X165264342Y-91185713D01*
X165264342Y-91185713D02*
X165359580Y-91138094D01*
X165359580Y-91138094D02*
X165407200Y-91090475D01*
X165407200Y-91090475D02*
X165454819Y-90995237D01*
X165454819Y-90995237D02*
X165454819Y-90804761D01*
X165454819Y-90804761D02*
X165407200Y-90709523D01*
X165407200Y-90709523D02*
X165359580Y-90661904D01*
X165359580Y-90661904D02*
X165264342Y-90614285D01*
X165264342Y-90614285D02*
X165026247Y-90614285D01*
X165026247Y-90614285D02*
X164931009Y-90661904D01*
X164931009Y-90661904D02*
X164883390Y-90709523D01*
X164883390Y-90709523D02*
X164835771Y-90804761D01*
X164835771Y-90804761D02*
X164835771Y-90995237D01*
X164835771Y-90995237D02*
X164883390Y-91090475D01*
X164883390Y-91090475D02*
X164931009Y-91138094D01*
X164931009Y-91138094D02*
X165026247Y-91185713D01*
X166633333Y-62854819D02*
X166300000Y-62378628D01*
X166061905Y-62854819D02*
X166061905Y-61854819D01*
X166061905Y-61854819D02*
X166442857Y-61854819D01*
X166442857Y-61854819D02*
X166538095Y-61902438D01*
X166538095Y-61902438D02*
X166585714Y-61950057D01*
X166585714Y-61950057D02*
X166633333Y-62045295D01*
X166633333Y-62045295D02*
X166633333Y-62188152D01*
X166633333Y-62188152D02*
X166585714Y-62283390D01*
X166585714Y-62283390D02*
X166538095Y-62331009D01*
X166538095Y-62331009D02*
X166442857Y-62378628D01*
X166442857Y-62378628D02*
X166061905Y-62378628D01*
X167014286Y-61950057D02*
X167061905Y-61902438D01*
X167061905Y-61902438D02*
X167157143Y-61854819D01*
X167157143Y-61854819D02*
X167395238Y-61854819D01*
X167395238Y-61854819D02*
X167490476Y-61902438D01*
X167490476Y-61902438D02*
X167538095Y-61950057D01*
X167538095Y-61950057D02*
X167585714Y-62045295D01*
X167585714Y-62045295D02*
X167585714Y-62140533D01*
X167585714Y-62140533D02*
X167538095Y-62283390D01*
X167538095Y-62283390D02*
X166966667Y-62854819D01*
X166966667Y-62854819D02*
X167585714Y-62854819D01*
X169884819Y-75138094D02*
X168884819Y-75138094D01*
X168884819Y-75138094D02*
X168884819Y-74899999D01*
X168884819Y-74899999D02*
X168932438Y-74757142D01*
X168932438Y-74757142D02*
X169027676Y-74661904D01*
X169027676Y-74661904D02*
X169122914Y-74614285D01*
X169122914Y-74614285D02*
X169313390Y-74566666D01*
X169313390Y-74566666D02*
X169456247Y-74566666D01*
X169456247Y-74566666D02*
X169646723Y-74614285D01*
X169646723Y-74614285D02*
X169741961Y-74661904D01*
X169741961Y-74661904D02*
X169837200Y-74757142D01*
X169837200Y-74757142D02*
X169884819Y-74899999D01*
X169884819Y-74899999D02*
X169884819Y-75138094D01*
X169884819Y-73614285D02*
X169884819Y-74185713D01*
X169884819Y-73899999D02*
X168884819Y-73899999D01*
X168884819Y-73899999D02*
X169027676Y-73995237D01*
X169027676Y-73995237D02*
X169122914Y-74090475D01*
X169122914Y-74090475D02*
X169170533Y-74185713D01*
X170557142Y-64959580D02*
X170509523Y-65007200D01*
X170509523Y-65007200D02*
X170366666Y-65054819D01*
X170366666Y-65054819D02*
X170271428Y-65054819D01*
X170271428Y-65054819D02*
X170128571Y-65007200D01*
X170128571Y-65007200D02*
X170033333Y-64911961D01*
X170033333Y-64911961D02*
X169985714Y-64816723D01*
X169985714Y-64816723D02*
X169938095Y-64626247D01*
X169938095Y-64626247D02*
X169938095Y-64483390D01*
X169938095Y-64483390D02*
X169985714Y-64292914D01*
X169985714Y-64292914D02*
X170033333Y-64197676D01*
X170033333Y-64197676D02*
X170128571Y-64102438D01*
X170128571Y-64102438D02*
X170271428Y-64054819D01*
X170271428Y-64054819D02*
X170366666Y-64054819D01*
X170366666Y-64054819D02*
X170509523Y-64102438D01*
X170509523Y-64102438D02*
X170557142Y-64150057D01*
X171509523Y-65054819D02*
X170938095Y-65054819D01*
X171223809Y-65054819D02*
X171223809Y-64054819D01*
X171223809Y-64054819D02*
X171128571Y-64197676D01*
X171128571Y-64197676D02*
X171033333Y-64292914D01*
X171033333Y-64292914D02*
X170938095Y-64340533D01*
X172080952Y-64483390D02*
X171985714Y-64435771D01*
X171985714Y-64435771D02*
X171938095Y-64388152D01*
X171938095Y-64388152D02*
X171890476Y-64292914D01*
X171890476Y-64292914D02*
X171890476Y-64245295D01*
X171890476Y-64245295D02*
X171938095Y-64150057D01*
X171938095Y-64150057D02*
X171985714Y-64102438D01*
X171985714Y-64102438D02*
X172080952Y-64054819D01*
X172080952Y-64054819D02*
X172271428Y-64054819D01*
X172271428Y-64054819D02*
X172366666Y-64102438D01*
X172366666Y-64102438D02*
X172414285Y-64150057D01*
X172414285Y-64150057D02*
X172461904Y-64245295D01*
X172461904Y-64245295D02*
X172461904Y-64292914D01*
X172461904Y-64292914D02*
X172414285Y-64388152D01*
X172414285Y-64388152D02*
X172366666Y-64435771D01*
X172366666Y-64435771D02*
X172271428Y-64483390D01*
X172271428Y-64483390D02*
X172080952Y-64483390D01*
X172080952Y-64483390D02*
X171985714Y-64531009D01*
X171985714Y-64531009D02*
X171938095Y-64578628D01*
X171938095Y-64578628D02*
X171890476Y-64673866D01*
X171890476Y-64673866D02*
X171890476Y-64864342D01*
X171890476Y-64864342D02*
X171938095Y-64959580D01*
X171938095Y-64959580D02*
X171985714Y-65007200D01*
X171985714Y-65007200D02*
X172080952Y-65054819D01*
X172080952Y-65054819D02*
X172271428Y-65054819D01*
X172271428Y-65054819D02*
X172366666Y-65007200D01*
X172366666Y-65007200D02*
X172414285Y-64959580D01*
X172414285Y-64959580D02*
X172461904Y-64864342D01*
X172461904Y-64864342D02*
X172461904Y-64673866D01*
X172461904Y-64673866D02*
X172414285Y-64578628D01*
X172414285Y-64578628D02*
X172366666Y-64531009D01*
X172366666Y-64531009D02*
X172271428Y-64483390D01*
X164999580Y-78366666D02*
X165047200Y-78414285D01*
X165047200Y-78414285D02*
X165094819Y-78557142D01*
X165094819Y-78557142D02*
X165094819Y-78652380D01*
X165094819Y-78652380D02*
X165047200Y-78795237D01*
X165047200Y-78795237D02*
X164951961Y-78890475D01*
X164951961Y-78890475D02*
X164856723Y-78938094D01*
X164856723Y-78938094D02*
X164666247Y-78985713D01*
X164666247Y-78985713D02*
X164523390Y-78985713D01*
X164523390Y-78985713D02*
X164332914Y-78938094D01*
X164332914Y-78938094D02*
X164237676Y-78890475D01*
X164237676Y-78890475D02*
X164142438Y-78795237D01*
X164142438Y-78795237D02*
X164094819Y-78652380D01*
X164094819Y-78652380D02*
X164094819Y-78557142D01*
X164094819Y-78557142D02*
X164142438Y-78414285D01*
X164142438Y-78414285D02*
X164190057Y-78366666D01*
X164094819Y-77461904D02*
X164094819Y-77938094D01*
X164094819Y-77938094D02*
X164571009Y-77985713D01*
X164571009Y-77985713D02*
X164523390Y-77938094D01*
X164523390Y-77938094D02*
X164475771Y-77842856D01*
X164475771Y-77842856D02*
X164475771Y-77604761D01*
X164475771Y-77604761D02*
X164523390Y-77509523D01*
X164523390Y-77509523D02*
X164571009Y-77461904D01*
X164571009Y-77461904D02*
X164666247Y-77414285D01*
X164666247Y-77414285D02*
X164904342Y-77414285D01*
X164904342Y-77414285D02*
X164999580Y-77461904D01*
X164999580Y-77461904D02*
X165047200Y-77509523D01*
X165047200Y-77509523D02*
X165094819Y-77604761D01*
X165094819Y-77604761D02*
X165094819Y-77842856D01*
X165094819Y-77842856D02*
X165047200Y-77938094D01*
X165047200Y-77938094D02*
X164999580Y-77985713D01*
X163559580Y-67242857D02*
X163607200Y-67290476D01*
X163607200Y-67290476D02*
X163654819Y-67433333D01*
X163654819Y-67433333D02*
X163654819Y-67528571D01*
X163654819Y-67528571D02*
X163607200Y-67671428D01*
X163607200Y-67671428D02*
X163511961Y-67766666D01*
X163511961Y-67766666D02*
X163416723Y-67814285D01*
X163416723Y-67814285D02*
X163226247Y-67861904D01*
X163226247Y-67861904D02*
X163083390Y-67861904D01*
X163083390Y-67861904D02*
X162892914Y-67814285D01*
X162892914Y-67814285D02*
X162797676Y-67766666D01*
X162797676Y-67766666D02*
X162702438Y-67671428D01*
X162702438Y-67671428D02*
X162654819Y-67528571D01*
X162654819Y-67528571D02*
X162654819Y-67433333D01*
X162654819Y-67433333D02*
X162702438Y-67290476D01*
X162702438Y-67290476D02*
X162750057Y-67242857D01*
X163654819Y-66290476D02*
X163654819Y-66861904D01*
X163654819Y-66576190D02*
X162654819Y-66576190D01*
X162654819Y-66576190D02*
X162797676Y-66671428D01*
X162797676Y-66671428D02*
X162892914Y-66766666D01*
X162892914Y-66766666D02*
X162940533Y-66861904D01*
X162988152Y-65433333D02*
X163654819Y-65433333D01*
X162607200Y-65671428D02*
X163321485Y-65909523D01*
X163321485Y-65909523D02*
X163321485Y-65290476D01*
X167957142Y-82359580D02*
X167909523Y-82407200D01*
X167909523Y-82407200D02*
X167766666Y-82454819D01*
X167766666Y-82454819D02*
X167671428Y-82454819D01*
X167671428Y-82454819D02*
X167528571Y-82407200D01*
X167528571Y-82407200D02*
X167433333Y-82311961D01*
X167433333Y-82311961D02*
X167385714Y-82216723D01*
X167385714Y-82216723D02*
X167338095Y-82026247D01*
X167338095Y-82026247D02*
X167338095Y-81883390D01*
X167338095Y-81883390D02*
X167385714Y-81692914D01*
X167385714Y-81692914D02*
X167433333Y-81597676D01*
X167433333Y-81597676D02*
X167528571Y-81502438D01*
X167528571Y-81502438D02*
X167671428Y-81454819D01*
X167671428Y-81454819D02*
X167766666Y-81454819D01*
X167766666Y-81454819D02*
X167909523Y-81502438D01*
X167909523Y-81502438D02*
X167957142Y-81550057D01*
X168909523Y-82454819D02*
X168338095Y-82454819D01*
X168623809Y-82454819D02*
X168623809Y-81454819D01*
X168623809Y-81454819D02*
X168528571Y-81597676D01*
X168528571Y-81597676D02*
X168433333Y-81692914D01*
X168433333Y-81692914D02*
X168338095Y-81740533D01*
X169861904Y-82454819D02*
X169290476Y-82454819D01*
X169576190Y-82454819D02*
X169576190Y-81454819D01*
X169576190Y-81454819D02*
X169480952Y-81597676D01*
X169480952Y-81597676D02*
X169385714Y-81692914D01*
X169385714Y-81692914D02*
X169290476Y-81740533D01*
X167797142Y-83579580D02*
X167749523Y-83627200D01*
X167749523Y-83627200D02*
X167606666Y-83674819D01*
X167606666Y-83674819D02*
X167511428Y-83674819D01*
X167511428Y-83674819D02*
X167368571Y-83627200D01*
X167368571Y-83627200D02*
X167273333Y-83531961D01*
X167273333Y-83531961D02*
X167225714Y-83436723D01*
X167225714Y-83436723D02*
X167178095Y-83246247D01*
X167178095Y-83246247D02*
X167178095Y-83103390D01*
X167178095Y-83103390D02*
X167225714Y-82912914D01*
X167225714Y-82912914D02*
X167273333Y-82817676D01*
X167273333Y-82817676D02*
X167368571Y-82722438D01*
X167368571Y-82722438D02*
X167511428Y-82674819D01*
X167511428Y-82674819D02*
X167606666Y-82674819D01*
X167606666Y-82674819D02*
X167749523Y-82722438D01*
X167749523Y-82722438D02*
X167797142Y-82770057D01*
X168749523Y-83674819D02*
X168178095Y-83674819D01*
X168463809Y-83674819D02*
X168463809Y-82674819D01*
X168463809Y-82674819D02*
X168368571Y-82817676D01*
X168368571Y-82817676D02*
X168273333Y-82912914D01*
X168273333Y-82912914D02*
X168178095Y-82960533D01*
X169130476Y-82770057D02*
X169178095Y-82722438D01*
X169178095Y-82722438D02*
X169273333Y-82674819D01*
X169273333Y-82674819D02*
X169511428Y-82674819D01*
X169511428Y-82674819D02*
X169606666Y-82722438D01*
X169606666Y-82722438D02*
X169654285Y-82770057D01*
X169654285Y-82770057D02*
X169701904Y-82865295D01*
X169701904Y-82865295D02*
X169701904Y-82960533D01*
X169701904Y-82960533D02*
X169654285Y-83103390D01*
X169654285Y-83103390D02*
X169082857Y-83674819D01*
X169082857Y-83674819D02*
X169701904Y-83674819D01*
X162766666Y-61599819D02*
X162766666Y-62314104D01*
X162766666Y-62314104D02*
X162719047Y-62456961D01*
X162719047Y-62456961D02*
X162623809Y-62552200D01*
X162623809Y-62552200D02*
X162480952Y-62599819D01*
X162480952Y-62599819D02*
X162385714Y-62599819D01*
X163766666Y-62599819D02*
X163195238Y-62599819D01*
X163480952Y-62599819D02*
X163480952Y-61599819D01*
X163480952Y-61599819D02*
X163385714Y-61742676D01*
X163385714Y-61742676D02*
X163290476Y-61837914D01*
X163290476Y-61837914D02*
X163195238Y-61885533D01*
X156466666Y-55054819D02*
X156466666Y-55769104D01*
X156466666Y-55769104D02*
X156419047Y-55911961D01*
X156419047Y-55911961D02*
X156323809Y-56007200D01*
X156323809Y-56007200D02*
X156180952Y-56054819D01*
X156180952Y-56054819D02*
X156085714Y-56054819D01*
X156895238Y-55150057D02*
X156942857Y-55102438D01*
X156942857Y-55102438D02*
X157038095Y-55054819D01*
X157038095Y-55054819D02*
X157276190Y-55054819D01*
X157276190Y-55054819D02*
X157371428Y-55102438D01*
X157371428Y-55102438D02*
X157419047Y-55150057D01*
X157419047Y-55150057D02*
X157466666Y-55245295D01*
X157466666Y-55245295D02*
X157466666Y-55340533D01*
X157466666Y-55340533D02*
X157419047Y-55483390D01*
X157419047Y-55483390D02*
X156847619Y-56054819D01*
X156847619Y-56054819D02*
X157466666Y-56054819D01*
X165054819Y-76566666D02*
X164578628Y-76899999D01*
X165054819Y-77138094D02*
X164054819Y-77138094D01*
X164054819Y-77138094D02*
X164054819Y-76757142D01*
X164054819Y-76757142D02*
X164102438Y-76661904D01*
X164102438Y-76661904D02*
X164150057Y-76614285D01*
X164150057Y-76614285D02*
X164245295Y-76566666D01*
X164245295Y-76566666D02*
X164388152Y-76566666D01*
X164388152Y-76566666D02*
X164483390Y-76614285D01*
X164483390Y-76614285D02*
X164531009Y-76661904D01*
X164531009Y-76661904D02*
X164578628Y-76757142D01*
X164578628Y-76757142D02*
X164578628Y-77138094D01*
X164054819Y-76233332D02*
X164054819Y-75614285D01*
X164054819Y-75614285D02*
X164435771Y-75947618D01*
X164435771Y-75947618D02*
X164435771Y-75804761D01*
X164435771Y-75804761D02*
X164483390Y-75709523D01*
X164483390Y-75709523D02*
X164531009Y-75661904D01*
X164531009Y-75661904D02*
X164626247Y-75614285D01*
X164626247Y-75614285D02*
X164864342Y-75614285D01*
X164864342Y-75614285D02*
X164959580Y-75661904D01*
X164959580Y-75661904D02*
X165007200Y-75709523D01*
X165007200Y-75709523D02*
X165054819Y-75804761D01*
X165054819Y-75804761D02*
X165054819Y-76090475D01*
X165054819Y-76090475D02*
X165007200Y-76185713D01*
X165007200Y-76185713D02*
X164959580Y-76233332D01*
X166999580Y-78966666D02*
X167047200Y-79014285D01*
X167047200Y-79014285D02*
X167094819Y-79157142D01*
X167094819Y-79157142D02*
X167094819Y-79252380D01*
X167094819Y-79252380D02*
X167047200Y-79395237D01*
X167047200Y-79395237D02*
X166951961Y-79490475D01*
X166951961Y-79490475D02*
X166856723Y-79538094D01*
X166856723Y-79538094D02*
X166666247Y-79585713D01*
X166666247Y-79585713D02*
X166523390Y-79585713D01*
X166523390Y-79585713D02*
X166332914Y-79538094D01*
X166332914Y-79538094D02*
X166237676Y-79490475D01*
X166237676Y-79490475D02*
X166142438Y-79395237D01*
X166142438Y-79395237D02*
X166094819Y-79252380D01*
X166094819Y-79252380D02*
X166094819Y-79157142D01*
X166094819Y-79157142D02*
X166142438Y-79014285D01*
X166142438Y-79014285D02*
X166190057Y-78966666D01*
X166190057Y-78585713D02*
X166142438Y-78538094D01*
X166142438Y-78538094D02*
X166094819Y-78442856D01*
X166094819Y-78442856D02*
X166094819Y-78204761D01*
X166094819Y-78204761D02*
X166142438Y-78109523D01*
X166142438Y-78109523D02*
X166190057Y-78061904D01*
X166190057Y-78061904D02*
X166285295Y-78014285D01*
X166285295Y-78014285D02*
X166380533Y-78014285D01*
X166380533Y-78014285D02*
X166523390Y-78061904D01*
X166523390Y-78061904D02*
X167094819Y-78633332D01*
X167094819Y-78633332D02*
X167094819Y-78014285D01*
X159033333Y-63054819D02*
X158700000Y-62578628D01*
X158461905Y-63054819D02*
X158461905Y-62054819D01*
X158461905Y-62054819D02*
X158842857Y-62054819D01*
X158842857Y-62054819D02*
X158938095Y-62102438D01*
X158938095Y-62102438D02*
X158985714Y-62150057D01*
X158985714Y-62150057D02*
X159033333Y-62245295D01*
X159033333Y-62245295D02*
X159033333Y-62388152D01*
X159033333Y-62388152D02*
X158985714Y-62483390D01*
X158985714Y-62483390D02*
X158938095Y-62531009D01*
X158938095Y-62531009D02*
X158842857Y-62578628D01*
X158842857Y-62578628D02*
X158461905Y-62578628D01*
X159985714Y-63054819D02*
X159414286Y-63054819D01*
X159700000Y-63054819D02*
X159700000Y-62054819D01*
X159700000Y-62054819D02*
X159604762Y-62197676D01*
X159604762Y-62197676D02*
X159509524Y-62292914D01*
X159509524Y-62292914D02*
X159414286Y-62340533D01*
X159838095Y-76454819D02*
X159838095Y-77264342D01*
X159838095Y-77264342D02*
X159885714Y-77359580D01*
X159885714Y-77359580D02*
X159933333Y-77407200D01*
X159933333Y-77407200D02*
X160028571Y-77454819D01*
X160028571Y-77454819D02*
X160219047Y-77454819D01*
X160219047Y-77454819D02*
X160314285Y-77407200D01*
X160314285Y-77407200D02*
X160361904Y-77359580D01*
X160361904Y-77359580D02*
X160409523Y-77264342D01*
X160409523Y-77264342D02*
X160409523Y-76454819D01*
X160790476Y-76454819D02*
X161409523Y-76454819D01*
X161409523Y-76454819D02*
X161076190Y-76835771D01*
X161076190Y-76835771D02*
X161219047Y-76835771D01*
X161219047Y-76835771D02*
X161314285Y-76883390D01*
X161314285Y-76883390D02*
X161361904Y-76931009D01*
X161361904Y-76931009D02*
X161409523Y-77026247D01*
X161409523Y-77026247D02*
X161409523Y-77264342D01*
X161409523Y-77264342D02*
X161361904Y-77359580D01*
X161361904Y-77359580D02*
X161314285Y-77407200D01*
X161314285Y-77407200D02*
X161219047Y-77454819D01*
X161219047Y-77454819D02*
X160933333Y-77454819D01*
X160933333Y-77454819D02*
X160838095Y-77407200D01*
X160838095Y-77407200D02*
X160790476Y-77359580D01*
X167359580Y-76566666D02*
X167407200Y-76614285D01*
X167407200Y-76614285D02*
X167454819Y-76757142D01*
X167454819Y-76757142D02*
X167454819Y-76852380D01*
X167454819Y-76852380D02*
X167407200Y-76995237D01*
X167407200Y-76995237D02*
X167311961Y-77090475D01*
X167311961Y-77090475D02*
X167216723Y-77138094D01*
X167216723Y-77138094D02*
X167026247Y-77185713D01*
X167026247Y-77185713D02*
X166883390Y-77185713D01*
X166883390Y-77185713D02*
X166692914Y-77138094D01*
X166692914Y-77138094D02*
X166597676Y-77090475D01*
X166597676Y-77090475D02*
X166502438Y-76995237D01*
X166502438Y-76995237D02*
X166454819Y-76852380D01*
X166454819Y-76852380D02*
X166454819Y-76757142D01*
X166454819Y-76757142D02*
X166502438Y-76614285D01*
X166502438Y-76614285D02*
X166550057Y-76566666D01*
X167454819Y-75614285D02*
X167454819Y-76185713D01*
X167454819Y-75899999D02*
X166454819Y-75899999D01*
X166454819Y-75899999D02*
X166597676Y-75995237D01*
X166597676Y-75995237D02*
X166692914Y-76090475D01*
X166692914Y-76090475D02*
X166740533Y-76185713D01*
X166559580Y-91566666D02*
X166607200Y-91614285D01*
X166607200Y-91614285D02*
X166654819Y-91757142D01*
X166654819Y-91757142D02*
X166654819Y-91852380D01*
X166654819Y-91852380D02*
X166607200Y-91995237D01*
X166607200Y-91995237D02*
X166511961Y-92090475D01*
X166511961Y-92090475D02*
X166416723Y-92138094D01*
X166416723Y-92138094D02*
X166226247Y-92185713D01*
X166226247Y-92185713D02*
X166083390Y-92185713D01*
X166083390Y-92185713D02*
X165892914Y-92138094D01*
X165892914Y-92138094D02*
X165797676Y-92090475D01*
X165797676Y-92090475D02*
X165702438Y-91995237D01*
X165702438Y-91995237D02*
X165654819Y-91852380D01*
X165654819Y-91852380D02*
X165654819Y-91757142D01*
X165654819Y-91757142D02*
X165702438Y-91614285D01*
X165702438Y-91614285D02*
X165750057Y-91566666D01*
X166654819Y-91090475D02*
X166654819Y-90899999D01*
X166654819Y-90899999D02*
X166607200Y-90804761D01*
X166607200Y-90804761D02*
X166559580Y-90757142D01*
X166559580Y-90757142D02*
X166416723Y-90661904D01*
X166416723Y-90661904D02*
X166226247Y-90614285D01*
X166226247Y-90614285D02*
X165845295Y-90614285D01*
X165845295Y-90614285D02*
X165750057Y-90661904D01*
X165750057Y-90661904D02*
X165702438Y-90709523D01*
X165702438Y-90709523D02*
X165654819Y-90804761D01*
X165654819Y-90804761D02*
X165654819Y-90995237D01*
X165654819Y-90995237D02*
X165702438Y-91090475D01*
X165702438Y-91090475D02*
X165750057Y-91138094D01*
X165750057Y-91138094D02*
X165845295Y-91185713D01*
X165845295Y-91185713D02*
X166083390Y-91185713D01*
X166083390Y-91185713D02*
X166178628Y-91138094D01*
X166178628Y-91138094D02*
X166226247Y-91090475D01*
X166226247Y-91090475D02*
X166273866Y-90995237D01*
X166273866Y-90995237D02*
X166273866Y-90804761D01*
X166273866Y-90804761D02*
X166226247Y-90709523D01*
X166226247Y-90709523D02*
X166178628Y-90661904D01*
X166178628Y-90661904D02*
X166083390Y-90614285D01*
X169066666Y-54854819D02*
X169066666Y-55569104D01*
X169066666Y-55569104D02*
X169019047Y-55711961D01*
X169019047Y-55711961D02*
X168923809Y-55807200D01*
X168923809Y-55807200D02*
X168780952Y-55854819D01*
X168780952Y-55854819D02*
X168685714Y-55854819D01*
X169447619Y-54854819D02*
X170066666Y-54854819D01*
X170066666Y-54854819D02*
X169733333Y-55235771D01*
X169733333Y-55235771D02*
X169876190Y-55235771D01*
X169876190Y-55235771D02*
X169971428Y-55283390D01*
X169971428Y-55283390D02*
X170019047Y-55331009D01*
X170019047Y-55331009D02*
X170066666Y-55426247D01*
X170066666Y-55426247D02*
X170066666Y-55664342D01*
X170066666Y-55664342D02*
X170019047Y-55759580D01*
X170019047Y-55759580D02*
X169971428Y-55807200D01*
X169971428Y-55807200D02*
X169876190Y-55854819D01*
X169876190Y-55854819D02*
X169590476Y-55854819D01*
X169590476Y-55854819D02*
X169495238Y-55807200D01*
X169495238Y-55807200D02*
X169447619Y-55759580D01*
X164359580Y-94642857D02*
X164407200Y-94690476D01*
X164407200Y-94690476D02*
X164454819Y-94833333D01*
X164454819Y-94833333D02*
X164454819Y-94928571D01*
X164454819Y-94928571D02*
X164407200Y-95071428D01*
X164407200Y-95071428D02*
X164311961Y-95166666D01*
X164311961Y-95166666D02*
X164216723Y-95214285D01*
X164216723Y-95214285D02*
X164026247Y-95261904D01*
X164026247Y-95261904D02*
X163883390Y-95261904D01*
X163883390Y-95261904D02*
X163692914Y-95214285D01*
X163692914Y-95214285D02*
X163597676Y-95166666D01*
X163597676Y-95166666D02*
X163502438Y-95071428D01*
X163502438Y-95071428D02*
X163454819Y-94928571D01*
X163454819Y-94928571D02*
X163454819Y-94833333D01*
X163454819Y-94833333D02*
X163502438Y-94690476D01*
X163502438Y-94690476D02*
X163550057Y-94642857D01*
X164454819Y-93690476D02*
X164454819Y-94261904D01*
X164454819Y-93976190D02*
X163454819Y-93976190D01*
X163454819Y-93976190D02*
X163597676Y-94071428D01*
X163597676Y-94071428D02*
X163692914Y-94166666D01*
X163692914Y-94166666D02*
X163740533Y-94261904D01*
X163454819Y-92833333D02*
X163454819Y-93023809D01*
X163454819Y-93023809D02*
X163502438Y-93119047D01*
X163502438Y-93119047D02*
X163550057Y-93166666D01*
X163550057Y-93166666D02*
X163692914Y-93261904D01*
X163692914Y-93261904D02*
X163883390Y-93309523D01*
X163883390Y-93309523D02*
X164264342Y-93309523D01*
X164264342Y-93309523D02*
X164359580Y-93261904D01*
X164359580Y-93261904D02*
X164407200Y-93214285D01*
X164407200Y-93214285D02*
X164454819Y-93119047D01*
X164454819Y-93119047D02*
X164454819Y-92928571D01*
X164454819Y-92928571D02*
X164407200Y-92833333D01*
X164407200Y-92833333D02*
X164359580Y-92785714D01*
X164359580Y-92785714D02*
X164264342Y-92738095D01*
X164264342Y-92738095D02*
X164026247Y-92738095D01*
X164026247Y-92738095D02*
X163931009Y-92785714D01*
X163931009Y-92785714D02*
X163883390Y-92833333D01*
X163883390Y-92833333D02*
X163835771Y-92928571D01*
X163835771Y-92928571D02*
X163835771Y-93119047D01*
X163835771Y-93119047D02*
X163883390Y-93214285D01*
X163883390Y-93214285D02*
X163931009Y-93261904D01*
X163931009Y-93261904D02*
X164026247Y-93309523D01*
X163357142Y-73959580D02*
X163309523Y-74007200D01*
X163309523Y-74007200D02*
X163166666Y-74054819D01*
X163166666Y-74054819D02*
X163071428Y-74054819D01*
X163071428Y-74054819D02*
X162928571Y-74007200D01*
X162928571Y-74007200D02*
X162833333Y-73911961D01*
X162833333Y-73911961D02*
X162785714Y-73816723D01*
X162785714Y-73816723D02*
X162738095Y-73626247D01*
X162738095Y-73626247D02*
X162738095Y-73483390D01*
X162738095Y-73483390D02*
X162785714Y-73292914D01*
X162785714Y-73292914D02*
X162833333Y-73197676D01*
X162833333Y-73197676D02*
X162928571Y-73102438D01*
X162928571Y-73102438D02*
X163071428Y-73054819D01*
X163071428Y-73054819D02*
X163166666Y-73054819D01*
X163166666Y-73054819D02*
X163309523Y-73102438D01*
X163309523Y-73102438D02*
X163357142Y-73150057D01*
X164309523Y-74054819D02*
X163738095Y-74054819D01*
X164023809Y-74054819D02*
X164023809Y-73054819D01*
X164023809Y-73054819D02*
X163928571Y-73197676D01*
X163928571Y-73197676D02*
X163833333Y-73292914D01*
X163833333Y-73292914D02*
X163738095Y-73340533D01*
X164642857Y-73054819D02*
X165309523Y-73054819D01*
X165309523Y-73054819D02*
X164880952Y-74054819D01*
X170224819Y-63166666D02*
X169748628Y-63499999D01*
X170224819Y-63738094D02*
X169224819Y-63738094D01*
X169224819Y-63738094D02*
X169224819Y-63357142D01*
X169224819Y-63357142D02*
X169272438Y-63261904D01*
X169272438Y-63261904D02*
X169320057Y-63214285D01*
X169320057Y-63214285D02*
X169415295Y-63166666D01*
X169415295Y-63166666D02*
X169558152Y-63166666D01*
X169558152Y-63166666D02*
X169653390Y-63214285D01*
X169653390Y-63214285D02*
X169701009Y-63261904D01*
X169701009Y-63261904D02*
X169748628Y-63357142D01*
X169748628Y-63357142D02*
X169748628Y-63738094D01*
X169653390Y-62595237D02*
X169605771Y-62690475D01*
X169605771Y-62690475D02*
X169558152Y-62738094D01*
X169558152Y-62738094D02*
X169462914Y-62785713D01*
X169462914Y-62785713D02*
X169415295Y-62785713D01*
X169415295Y-62785713D02*
X169320057Y-62738094D01*
X169320057Y-62738094D02*
X169272438Y-62690475D01*
X169272438Y-62690475D02*
X169224819Y-62595237D01*
X169224819Y-62595237D02*
X169224819Y-62404761D01*
X169224819Y-62404761D02*
X169272438Y-62309523D01*
X169272438Y-62309523D02*
X169320057Y-62261904D01*
X169320057Y-62261904D02*
X169415295Y-62214285D01*
X169415295Y-62214285D02*
X169462914Y-62214285D01*
X169462914Y-62214285D02*
X169558152Y-62261904D01*
X169558152Y-62261904D02*
X169605771Y-62309523D01*
X169605771Y-62309523D02*
X169653390Y-62404761D01*
X169653390Y-62404761D02*
X169653390Y-62595237D01*
X169653390Y-62595237D02*
X169701009Y-62690475D01*
X169701009Y-62690475D02*
X169748628Y-62738094D01*
X169748628Y-62738094D02*
X169843866Y-62785713D01*
X169843866Y-62785713D02*
X170034342Y-62785713D01*
X170034342Y-62785713D02*
X170129580Y-62738094D01*
X170129580Y-62738094D02*
X170177200Y-62690475D01*
X170177200Y-62690475D02*
X170224819Y-62595237D01*
X170224819Y-62595237D02*
X170224819Y-62404761D01*
X170224819Y-62404761D02*
X170177200Y-62309523D01*
X170177200Y-62309523D02*
X170129580Y-62261904D01*
X170129580Y-62261904D02*
X170034342Y-62214285D01*
X170034342Y-62214285D02*
X169843866Y-62214285D01*
X169843866Y-62214285D02*
X169748628Y-62261904D01*
X169748628Y-62261904D02*
X169701009Y-62309523D01*
X169701009Y-62309523D02*
X169653390Y-62404761D01*
X167969580Y-78926666D02*
X168017200Y-78974285D01*
X168017200Y-78974285D02*
X168064819Y-79117142D01*
X168064819Y-79117142D02*
X168064819Y-79212380D01*
X168064819Y-79212380D02*
X168017200Y-79355237D01*
X168017200Y-79355237D02*
X167921961Y-79450475D01*
X167921961Y-79450475D02*
X167826723Y-79498094D01*
X167826723Y-79498094D02*
X167636247Y-79545713D01*
X167636247Y-79545713D02*
X167493390Y-79545713D01*
X167493390Y-79545713D02*
X167302914Y-79498094D01*
X167302914Y-79498094D02*
X167207676Y-79450475D01*
X167207676Y-79450475D02*
X167112438Y-79355237D01*
X167112438Y-79355237D02*
X167064819Y-79212380D01*
X167064819Y-79212380D02*
X167064819Y-79117142D01*
X167064819Y-79117142D02*
X167112438Y-78974285D01*
X167112438Y-78974285D02*
X167160057Y-78926666D01*
X167398152Y-78069523D02*
X168064819Y-78069523D01*
X167017200Y-78307618D02*
X167731485Y-78545713D01*
X167731485Y-78545713D02*
X167731485Y-77926666D01*
X162957142Y-63959580D02*
X162909523Y-64007200D01*
X162909523Y-64007200D02*
X162766666Y-64054819D01*
X162766666Y-64054819D02*
X162671428Y-64054819D01*
X162671428Y-64054819D02*
X162528571Y-64007200D01*
X162528571Y-64007200D02*
X162433333Y-63911961D01*
X162433333Y-63911961D02*
X162385714Y-63816723D01*
X162385714Y-63816723D02*
X162338095Y-63626247D01*
X162338095Y-63626247D02*
X162338095Y-63483390D01*
X162338095Y-63483390D02*
X162385714Y-63292914D01*
X162385714Y-63292914D02*
X162433333Y-63197676D01*
X162433333Y-63197676D02*
X162528571Y-63102438D01*
X162528571Y-63102438D02*
X162671428Y-63054819D01*
X162671428Y-63054819D02*
X162766666Y-63054819D01*
X162766666Y-63054819D02*
X162909523Y-63102438D01*
X162909523Y-63102438D02*
X162957142Y-63150057D01*
X163909523Y-64054819D02*
X163338095Y-64054819D01*
X163623809Y-64054819D02*
X163623809Y-63054819D01*
X163623809Y-63054819D02*
X163528571Y-63197676D01*
X163528571Y-63197676D02*
X163433333Y-63292914D01*
X163433333Y-63292914D02*
X163338095Y-63340533D01*
X164242857Y-63054819D02*
X164861904Y-63054819D01*
X164861904Y-63054819D02*
X164528571Y-63435771D01*
X164528571Y-63435771D02*
X164671428Y-63435771D01*
X164671428Y-63435771D02*
X164766666Y-63483390D01*
X164766666Y-63483390D02*
X164814285Y-63531009D01*
X164814285Y-63531009D02*
X164861904Y-63626247D01*
X164861904Y-63626247D02*
X164861904Y-63864342D01*
X164861904Y-63864342D02*
X164814285Y-63959580D01*
X164814285Y-63959580D02*
X164766666Y-64007200D01*
X164766666Y-64007200D02*
X164671428Y-64054819D01*
X164671428Y-64054819D02*
X164385714Y-64054819D01*
X164385714Y-64054819D02*
X164290476Y-64007200D01*
X164290476Y-64007200D02*
X164242857Y-63959580D01*
D11*
%TO.C,C10*%
X168292164Y-79840000D02*
X168507836Y-79840000D01*
X168292164Y-80560000D02*
X168507836Y-80560000D01*
%TO.C,C7*%
X167440000Y-89492164D02*
X167440000Y-89707836D01*
X168160000Y-89492164D02*
X168160000Y-89707836D01*
%TO.C,Y1*%
X163260000Y-89890000D02*
X159140000Y-89890000D01*
X163260000Y-93310000D02*
X163260000Y-89890000D01*
%TO.C,R7*%
X156910000Y-73646359D02*
X156910000Y-73953641D01*
X157670000Y-73646359D02*
X157670000Y-73953641D01*
%TO.C,R9*%
X168020000Y-65846359D02*
X168020000Y-66153641D01*
X168780000Y-65846359D02*
X168780000Y-66153641D01*
%TO.C,U1*%
X159490000Y-80090000D02*
X160140000Y-80090000D01*
X159490000Y-80740000D02*
X159490000Y-80090000D01*
X159490000Y-87310000D02*
X159490000Y-86660000D01*
X160140000Y-87310000D02*
X159490000Y-87310000D01*
X166060000Y-80090000D02*
X166710000Y-80090000D01*
X166710000Y-80090000D02*
X166710000Y-80740000D01*
X166710000Y-86660000D02*
X166710000Y-87310000D01*
X166710000Y-87310000D02*
X166060000Y-87310000D01*
X158960000Y-81100000D02*
X158630000Y-81340000D01*
X158630000Y-80860000D01*
X158960000Y-81100000D01*
G36*
X158960000Y-81100000D02*
G01*
X158630000Y-81340000D01*
X158630000Y-80860000D01*
X158960000Y-81100000D01*
G37*
%TO.C,C8*%
X166430000Y-89502164D02*
X166430000Y-89717836D01*
X167150000Y-89502164D02*
X167150000Y-89717836D01*
%TO.C,R4*%
X163420000Y-78046359D02*
X163420000Y-78353641D01*
X164180000Y-78046359D02*
X164180000Y-78353641D01*
%TO.C,SW1*%
X158130000Y-69580000D02*
X162270000Y-69580000D01*
X158130000Y-69880000D02*
X158130000Y-69580000D01*
X158130000Y-72720000D02*
X158130000Y-72420000D01*
X162270000Y-69580000D02*
X162270000Y-69880000D01*
X162270000Y-72420000D02*
X162270000Y-72720000D01*
X162270000Y-72720000D02*
X158130000Y-72720000D01*
%TO.C,C3*%
X163460000Y-89492164D02*
X163460000Y-89707836D01*
X164180000Y-89492164D02*
X164180000Y-89707836D01*
%TO.C,R6*%
X157910000Y-73646359D02*
X157910000Y-73953641D01*
X158670000Y-73646359D02*
X158670000Y-73953641D01*
%TO.C,C15*%
X158220000Y-91472164D02*
X158220000Y-91687836D01*
X158940000Y-91472164D02*
X158940000Y-91687836D01*
%TO.C,R10*%
X169153641Y-76620000D02*
X168846359Y-76620000D01*
X169153641Y-77380000D02*
X168846359Y-77380000D01*
%TO.C,R5*%
X162186359Y-88940000D02*
X162493641Y-88940000D01*
X162186359Y-89700000D02*
X162493641Y-89700000D01*
%TO.C,U2*%
X157440000Y-65440000D02*
X158440000Y-65440000D01*
X157440000Y-66960000D02*
X157440000Y-65440000D01*
X157490000Y-66960000D02*
X157440000Y-66960000D01*
X159390000Y-66960000D02*
X158610000Y-66960000D01*
X159560000Y-65440000D02*
X160560000Y-65440000D01*
X160560000Y-65440000D02*
X160560000Y-66960000D01*
X160560000Y-66960000D02*
X160510000Y-66960000D01*
X158950000Y-67740000D02*
X158620000Y-67500000D01*
X158950000Y-67260000D01*
X158950000Y-67740000D01*
G36*
X158950000Y-67740000D02*
G01*
X158620000Y-67500000D01*
X158950000Y-67260000D01*
X158950000Y-67740000D01*
G37*
%TO.C,J4*%
X159180000Y-104970000D02*
X159180000Y-103590000D01*
X160560000Y-104970000D02*
X159180000Y-104970000D01*
X161830000Y-102210000D02*
X167020000Y-102210000D01*
X161830000Y-104970000D02*
X161830000Y-102210000D01*
X161830000Y-104970000D02*
X167020000Y-104970000D01*
X167020000Y-104970000D02*
X167020000Y-102210000D01*
%TO.C,Q1*%
X167050000Y-63700000D02*
X165750000Y-63700000D01*
X167050000Y-65500000D02*
X165750000Y-65500000D01*
D10*
X165225000Y-64090000D02*
G75*
G02*
X165075000Y-64090000I-75000J0D01*
G01*
X165075000Y-64090000D02*
G75*
G02*
X165225000Y-64090000I75000J0D01*
G01*
D11*
%TO.C,C6*%
X164440000Y-89492164D02*
X164440000Y-89707836D01*
X165160000Y-89492164D02*
X165160000Y-89707836D01*
%TO.C,R2*%
X164846359Y-62020000D02*
X165153641Y-62020000D01*
X164846359Y-62780000D02*
X165153641Y-62780000D01*
%TO.C,D1*%
X167265000Y-72915000D02*
X167265000Y-75200000D01*
X168735000Y-72915000D02*
X167265000Y-72915000D01*
X168735000Y-75200000D02*
X168735000Y-72915000D01*
%TO.C,C18*%
X168892164Y-64240000D02*
X169107836Y-64240000D01*
X168892164Y-64960000D02*
X169107836Y-64960000D01*
%TO.C,C5*%
X165440000Y-78307836D02*
X165440000Y-78092164D01*
X166160000Y-78307836D02*
X166160000Y-78092164D01*
%TO.C,C14*%
X161090000Y-66740580D02*
X161090000Y-66459420D01*
X162110000Y-66740580D02*
X162110000Y-66459420D01*
%TO.C,C11*%
X168292164Y-80760000D02*
X168507836Y-80760000D01*
X168292164Y-81480000D02*
X168507836Y-81480000D01*
%TO.C,C12*%
X168332164Y-84020000D02*
X168547836Y-84020000D01*
X168332164Y-84740000D02*
X168547836Y-84740000D01*
%TO.C,J1*%
X158400000Y-54500000D02*
X158400000Y-52600000D01*
X158400000Y-58400000D02*
X158400000Y-56400000D01*
X167800000Y-52600000D02*
X158400000Y-52600000D01*
X167800000Y-54500000D02*
X167800000Y-52600000D01*
X167800000Y-58400000D02*
X167800000Y-56400000D01*
%TO.C,J2*%
X152830000Y-54190000D02*
X154210000Y-54190000D01*
X152830000Y-55570000D02*
X152830000Y-54190000D01*
X152830000Y-56840000D02*
X152830000Y-105210000D01*
X152830000Y-56840000D02*
X155590000Y-56840000D01*
X152830000Y-105210000D02*
X155590000Y-105210000D01*
X155590000Y-56840000D02*
X155590000Y-105210000D01*
%TO.C,R3*%
X164420000Y-78046359D02*
X164420000Y-78353641D01*
X165180000Y-78046359D02*
X165180000Y-78353641D01*
%TO.C,C2*%
X167440000Y-78907836D02*
X167440000Y-78692164D01*
X168160000Y-78907836D02*
X168160000Y-78692164D01*
%TO.C,R1*%
X160933641Y-61930000D02*
X160626359Y-61930000D01*
X160933641Y-62690000D02*
X160626359Y-62690000D01*
D10*
%TO.C,U3*%
X159020000Y-76230000D02*
X162180000Y-76230000D01*
X162180000Y-74070000D02*
X159020000Y-74070000D01*
D12*
X158670000Y-74390000D02*
G75*
G02*
X158470000Y-74390000I-100000J0D01*
G01*
X158470000Y-74390000D02*
G75*
G02*
X158670000Y-74390000I100000J0D01*
G01*
D13*
X159130000Y-74150000D02*
G75*
G02*
X159070000Y-74150000I-30000J0D01*
G01*
X159070000Y-74150000D02*
G75*
G02*
X159130000Y-74150000I30000J0D01*
G01*
D11*
%TO.C,C1*%
X166440000Y-78307836D02*
X166440000Y-78092164D01*
X167160000Y-78307836D02*
X167160000Y-78092164D01*
%TO.C,C9*%
X165440000Y-89492164D02*
X165440000Y-89707836D01*
X166160000Y-89492164D02*
X166160000Y-89707836D01*
%TO.C,J3*%
X170610000Y-54190000D02*
X171990000Y-54190000D01*
X170610000Y-55570000D02*
X170610000Y-54190000D01*
X170610000Y-56840000D02*
X170610000Y-105210000D01*
X170610000Y-56840000D02*
X173370000Y-56840000D01*
X170610000Y-105210000D02*
X173370000Y-105210000D01*
X173370000Y-56840000D02*
X173370000Y-105210000D01*
%TO.C,C16*%
X163480000Y-91697836D02*
X163480000Y-91482164D01*
X164200000Y-91697836D02*
X164200000Y-91482164D01*
%TO.C,C17*%
X161707836Y-73240000D02*
X161492164Y-73240000D01*
X161707836Y-73960000D02*
X161492164Y-73960000D01*
%TO.C,R8*%
X168220000Y-62846359D02*
X168220000Y-63153641D01*
X168980000Y-62846359D02*
X168980000Y-63153641D01*
%TO.C,C4*%
X168410000Y-78867836D02*
X168410000Y-78652164D01*
X169130000Y-78867836D02*
X169130000Y-78652164D01*
%TO.C,C13*%
X161059420Y-63690000D02*
X161340580Y-63690000D01*
X161059420Y-64710000D02*
X161340580Y-64710000D01*
%TD*%
M02*
