%TF.GenerationSoftware,KiCad,Pcbnew,10.0.3*%
%TF.CreationDate,2026-06-26T08:43:06-05:00*%
%TF.ProjectId,digital-name-tag,64696769-7461-46c2-9d6e-616d652d7461,rev?*%
%TF.SameCoordinates,Original*%
%TF.FileFunction,Soldermask,Bot*%
%TF.FilePolarity,Negative*%
%FSLAX46Y46*%
G04 Gerber Fmt 4.6, Leading zero omitted, Abs format (unit mm)*
G04 Created by KiCad (PCBNEW 10.0.3) date 2026-06-26 08:43:06*
%MOMM*%
%LPD*%
G01*
G04 APERTURE LIST*
%ADD10C,0.650000*%
%ADD11O,1.000000X2.100000*%
%ADD12O,1.000000X1.600000*%
%ADD13R,1.700000X1.700000*%
%ADD14C,1.700000*%
G04 APERTURE END LIST*
D10*
%TO.C,J1*%
X165990000Y-59100000D03*
X160210000Y-59100000D03*
D11*
X167420000Y-59630000D03*
D12*
X167420000Y-55450000D03*
D11*
X158780000Y-59630000D03*
D12*
X158780000Y-55450000D03*
%TD*%
D13*
%TO.C,J4*%
X160560000Y-103590000D03*
D14*
X163100000Y-103590000D03*
X165640000Y-103590000D03*
%TD*%
D13*
%TO.C,J2*%
X154210000Y-55570000D03*
D14*
X154210000Y-58110000D03*
X154210000Y-60650000D03*
X154210000Y-63190000D03*
X154210000Y-65730000D03*
X154210000Y-68270000D03*
X154210000Y-70810000D03*
X154210000Y-73350000D03*
X154210000Y-75890000D03*
X154210000Y-78430000D03*
X154210000Y-80970000D03*
X154210000Y-83510000D03*
X154210000Y-86050000D03*
X154210000Y-88590000D03*
X154210000Y-91130000D03*
X154210000Y-93670000D03*
X154210000Y-96210000D03*
X154210000Y-98750000D03*
X154210000Y-101290000D03*
X154210000Y-103830000D03*
%TD*%
D13*
%TO.C,J3*%
X171990000Y-55570000D03*
D14*
X171990000Y-58110000D03*
X171990000Y-60650000D03*
X171990000Y-63190000D03*
X171990000Y-65730000D03*
X171990000Y-68270000D03*
X171990000Y-70810000D03*
X171990000Y-73350000D03*
X171990000Y-75890000D03*
X171990000Y-78430000D03*
X171990000Y-80970000D03*
X171990000Y-83510000D03*
X171990000Y-86050000D03*
X171990000Y-88590000D03*
X171990000Y-91130000D03*
X171990000Y-93670000D03*
X171990000Y-96210000D03*
X171990000Y-98750000D03*
X171990000Y-101290000D03*
X171990000Y-103830000D03*
%TD*%
M02*
