%TF.GenerationSoftware,KiCad,Pcbnew,10.0.3*%
%TF.CreationDate,2026-06-26T08:43:05-05:00*%
%TF.ProjectId,digital-name-tag,64696769-7461-46c2-9d6e-616d652d7461,rev?*%
%TF.SameCoordinates,Original*%
%TF.FileFunction,Copper,L2,Bot*%
%TF.FilePolarity,Positive*%
%FSLAX46Y46*%
G04 Gerber Fmt 4.6, Leading zero omitted, Abs format (unit mm)*
G04 Created by KiCad (PCBNEW 10.0.3) date 2026-06-26 08:43:05*
%MOMM*%
%LPD*%
G01*
G04 APERTURE LIST*
%TA.AperFunction,HeatsinkPad*%
%ADD10O,1.000000X2.100000*%
%TD*%
%TA.AperFunction,HeatsinkPad*%
%ADD11O,1.000000X1.600000*%
%TD*%
%TA.AperFunction,ComponentPad*%
%ADD12R,1.700000X1.700000*%
%TD*%
%TA.AperFunction,ComponentPad*%
%ADD13C,1.700000*%
%TD*%
%TA.AperFunction,ViaPad*%
%ADD14C,0.600000*%
%TD*%
%TA.AperFunction,ViaPad*%
%ADD15C,0.450000*%
%TD*%
%TA.AperFunction,Conductor*%
%ADD16C,0.200000*%
%TD*%
%TA.AperFunction,Conductor*%
%ADD17C,0.127000*%
%TD*%
G04 APERTURE END LIST*
D10*
%TO.P,J1,S1,SHIELD_S1*%
%TO.N,GND*%
X167420000Y-59630000D03*
D11*
X167420000Y-55450000D03*
D10*
X158780000Y-59630000D03*
D11*
X158780000Y-55450000D03*
%TD*%
D12*
%TO.P,J4,1,Pin_1_1*%
%TO.N,SWCLK*%
X160560000Y-103590000D03*
D13*
%TO.P,J4,2,Pin_2_2*%
%TO.N,GND*%
X163100000Y-103590000D03*
%TO.P,J4,3,Pin_3_3*%
%TO.N,SWDIO*%
X165640000Y-103590000D03*
%TD*%
D12*
%TO.P,J2,1,Pin_1_1*%
%TO.N,GPIO0*%
X154210000Y-55570000D03*
D13*
%TO.P,J2,2,Pin_2_2*%
%TO.N,GPIO1*%
X154210000Y-58110000D03*
%TO.P,J2,3,Pin_3_3*%
%TO.N,GND*%
X154210000Y-60650000D03*
%TO.P,J2,4,Pin_4_4*%
%TO.N,GPIO2*%
X154210000Y-63190000D03*
%TO.P,J2,5,Pin_5_5*%
%TO.N,GPIO3*%
X154210000Y-65730000D03*
%TO.P,J2,6,Pin_6_6*%
%TO.N,GPIO4*%
X154210000Y-68270000D03*
%TO.P,J2,7,Pin_7_7*%
%TO.N,GPIO5*%
X154210000Y-70810000D03*
%TO.P,J2,8,Pin_8_8*%
%TO.N,GND*%
X154210000Y-73350000D03*
%TO.P,J2,9,Pin_9_9*%
%TO.N,GPIO6*%
X154210000Y-75890000D03*
%TO.P,J2,10,Pin_10_10*%
%TO.N,GPIO7*%
X154210000Y-78430000D03*
%TO.P,J2,11,Pin_11_11*%
%TO.N,GPIO8*%
X154210000Y-80970000D03*
%TO.P,J2,12,Pin_12_12*%
%TO.N,GPIO9*%
X154210000Y-83510000D03*
%TO.P,J2,13,Pin_13_13*%
%TO.N,GND*%
X154210000Y-86050000D03*
%TO.P,J2,14,Pin_14_14*%
%TO.N,GPIO10*%
X154210000Y-88590000D03*
%TO.P,J2,15,Pin_15_15*%
%TO.N,GPIO11*%
X154210000Y-91130000D03*
%TO.P,J2,16,Pin_16_16*%
%TO.N,GPIO12*%
X154210000Y-93670000D03*
%TO.P,J2,17,Pin_17_17*%
%TO.N,GPIO13*%
X154210000Y-96210000D03*
%TO.P,J2,18,Pin_18_18*%
%TO.N,GND*%
X154210000Y-98750000D03*
%TO.P,J2,19,Pin_19_19*%
%TO.N,GPIO14*%
X154210000Y-101290000D03*
%TO.P,J2,20,Pin_20_20*%
%TO.N,GPIO15*%
X154210000Y-103830000D03*
%TD*%
D12*
%TO.P,J3,1,Pin_1_1*%
%TO.N,VBUS*%
X171990000Y-55570000D03*
D13*
%TO.P,J3,2,Pin_2_2*%
%TO.N,VSYS*%
X171990000Y-58110000D03*
%TO.P,J3,3,Pin_3_3*%
%TO.N,GND*%
X171990000Y-60650000D03*
%TO.P,J3,4,Pin_4_4*%
%TO.N,GPIO28_ADC2*%
X171990000Y-63190000D03*
%TO.P,J3,5,Pin_5_5*%
%TO.N,+3V3*%
X171990000Y-65730000D03*
%TO.P,J3,6,Pin_6_6*%
%TO.N,GPIO27_ADC1*%
X171990000Y-68270000D03*
%TO.P,J3,7,Pin_7_7*%
%TO.N,GPIO26_ADC0*%
X171990000Y-70810000D03*
%TO.P,J3,8,Pin_8_8*%
%TO.N,GND*%
X171990000Y-73350000D03*
%TO.P,J3,9,Pin_9_9*%
%TO.N,GPIO23*%
X171990000Y-75890000D03*
%TO.P,J3,10,Pin_10_10*%
%TO.N,GPIO24*%
X171990000Y-78430000D03*
%TO.P,J3,11,Pin_11_11*%
%TO.N,RUN*%
X171990000Y-80970000D03*
%TO.P,J3,12,Pin_12_12*%
%TO.N,GPIO22*%
X171990000Y-83510000D03*
%TO.P,J3,13,Pin_13_13*%
%TO.N,GND*%
X171990000Y-86050000D03*
%TO.P,J3,14,Pin_14_14*%
%TO.N,GPIO21*%
X171990000Y-88590000D03*
%TO.P,J3,15,Pin_15_15*%
%TO.N,GPIO20*%
X171990000Y-91130000D03*
%TO.P,J3,16,Pin_16_16*%
%TO.N,GPIO19*%
X171990000Y-93670000D03*
%TO.P,J3,17,Pin_17_17*%
%TO.N,GPIO18*%
X171990000Y-96210000D03*
%TO.P,J3,18,Pin_18_18*%
%TO.N,GND*%
X171990000Y-98750000D03*
%TO.P,J3,19,Pin_19_19*%
%TO.N,GPIO17*%
X171990000Y-101290000D03*
%TO.P,J3,20,Pin_20_20*%
%TO.N,GPIO16*%
X171990000Y-103830000D03*
%TD*%
D14*
%TO.N,+1V1*%
X170030000Y-82910000D03*
X164390000Y-81210000D03*
X162810000Y-77900000D03*
X164370000Y-85890000D03*
X167290000Y-80150000D03*
X168750000Y-85260000D03*
%TO.N,GND*%
X162400000Y-69000000D03*
X168400000Y-94000000D03*
X169800000Y-85000000D03*
X159089000Y-76600000D03*
X166680000Y-76020000D03*
X155997000Y-68800000D03*
X164400000Y-104400000D03*
X169670000Y-61770000D03*
X159600000Y-69000000D03*
X166600000Y-63260000D03*
X169800000Y-97200000D03*
X167230000Y-62450000D03*
X158000000Y-95000000D03*
X160200000Y-73600000D03*
X156600000Y-64400000D03*
X169310000Y-66230000D03*
X159000000Y-89800000D03*
X167000000Y-71000000D03*
X162600000Y-63000000D03*
X169000000Y-57800000D03*
X166000000Y-100800000D03*
X160960634Y-85609163D03*
X155800000Y-71400000D03*
%TO.N,+3V3*%
X162848529Y-85799999D03*
X164649265Y-64800735D03*
X162600000Y-66610000D03*
X168880000Y-68050000D03*
X170730000Y-67070000D03*
X165400000Y-85100000D03*
X161309998Y-75300000D03*
X160770000Y-84670000D03*
X161490678Y-81182195D03*
X166690000Y-79520000D03*
D15*
%TO.N,GPIO0*%
X158000000Y-81200000D03*
%TO.N,GPIO1*%
X158182330Y-82088349D03*
%TO.N,GPIO2*%
X158495509Y-82824503D03*
%TO.N,GPIO3*%
X160600000Y-82800000D03*
%TO.N,GPIO5*%
X160624265Y-83624265D03*
%TO.N,GPIO14*%
X160424265Y-89024265D03*
%TO.N,GPIO15*%
X161500000Y-86200000D03*
D14*
%TO.N,SWCLK*%
X163904322Y-88161892D03*
%TO.N,SWDIO*%
X164700000Y-88290000D03*
D15*
%TO.N,RUN*%
X165254159Y-86275000D03*
%TO.N,GPIO16*%
X165460718Y-88042394D03*
X165840000Y-92040000D03*
%TO.N,GPIO17*%
X166780000Y-91320000D03*
X166650000Y-88170000D03*
%TO.N,GPIO23*%
X165570000Y-84320000D03*
X170630000Y-81340000D03*
%TO.N,GPIO24*%
X165540000Y-83490000D03*
%TO.N,GPIO25*%
X167510000Y-83230000D03*
X169850000Y-81820000D03*
%TO.N,GPIO26_ADC0*%
X167454771Y-82500001D03*
%TO.N,GPIO27_ADC1*%
X165200002Y-82270000D03*
X165510000Y-77018233D03*
X165610000Y-75040000D03*
%TO.N,GPIO28_ADC2*%
X168103782Y-82082617D03*
X170120000Y-71400000D03*
X169661000Y-80530000D03*
X169963000Y-78360000D03*
%TO.N,GPIO29_ADC3*%
X164233526Y-77018233D03*
X163667463Y-81675001D03*
X166260000Y-67370000D03*
X163990000Y-69640000D03*
%TD*%
%TO.N,+1V1*%
D16*
X164390000Y-81694927D02*
X164390000Y-81210000D01*
X164016063Y-76493233D02*
X165843233Y-76493233D01*
X168750000Y-84190000D02*
X170030000Y-82910000D01*
X162810000Y-77900000D02*
X162810000Y-81560001D01*
X163884926Y-82200001D02*
X164390000Y-81694927D01*
X167290000Y-77940000D02*
X167290000Y-80150000D01*
X164370000Y-85890000D02*
X164560000Y-85700000D01*
X164560000Y-85700000D02*
X168310000Y-85700000D01*
X168310000Y-85700000D02*
X168750000Y-85260000D01*
X168750000Y-85260000D02*
X168750000Y-84190000D01*
X165843233Y-76493233D02*
X167290000Y-77940000D01*
X162810000Y-81560001D02*
X163450000Y-82200001D01*
X162810000Y-77900000D02*
X162810000Y-77699296D01*
X162810000Y-77699296D02*
X164016063Y-76493233D01*
X163450000Y-82200001D02*
X163884926Y-82200001D01*
%TO.N,GND*%
X166000000Y-96400000D02*
X166000000Y-100800000D01*
X155997000Y-71203000D02*
X155800000Y-71400000D01*
X160790837Y-85609163D02*
X160350000Y-86050000D01*
X168400000Y-94000000D02*
X166000000Y-96400000D01*
X155361000Y-74501000D02*
X155361000Y-84899000D01*
X160350000Y-86050000D02*
X154210000Y-86050000D01*
X155361000Y-84899000D02*
X154210000Y-86050000D01*
X154210000Y-73350000D02*
X155361000Y-74501000D01*
X160960634Y-85609163D02*
X160790837Y-85609163D01*
X155997000Y-68800000D02*
X155997000Y-71203000D01*
%TO.N,+3V3*%
X162340000Y-82150000D02*
X163316691Y-83126691D01*
X160770000Y-84670000D02*
X161718530Y-84670000D01*
X165400000Y-85100000D02*
X163548528Y-85100000D01*
X163730000Y-84586691D02*
X163730000Y-84450057D01*
X161460000Y-75450002D02*
X161309998Y-75300000D01*
X161922195Y-81182195D02*
X162340000Y-81600000D01*
X163316691Y-85331837D02*
X162848529Y-85799999D01*
X163730000Y-84450057D02*
X165291057Y-82889000D01*
X161718530Y-84670000D02*
X162848529Y-85799999D01*
X162840000Y-66610000D02*
X162600000Y-66610000D01*
X161460000Y-80720000D02*
X161460000Y-75450002D01*
X163548528Y-85100000D02*
X162848529Y-85799999D01*
X165291057Y-82889000D02*
X165430945Y-82889000D01*
X163316691Y-83126691D02*
X163316691Y-85331837D01*
X161490678Y-81182195D02*
X161922195Y-81182195D01*
X162340000Y-81600000D02*
X162340000Y-82150000D01*
X163316691Y-85000000D02*
X163730000Y-84586691D01*
X161490678Y-81182195D02*
X161490678Y-80750678D01*
X170730000Y-67070000D02*
X169860000Y-67070000D01*
X166690000Y-81629945D02*
X166690000Y-79520000D01*
X161490678Y-80750678D02*
X161460000Y-80720000D01*
X165430945Y-82889000D02*
X166690000Y-81629945D01*
X163316691Y-85331837D02*
X163316691Y-85000000D01*
X164649265Y-64800735D02*
X162840000Y-66610000D01*
X169860000Y-67070000D02*
X168880000Y-68050000D01*
%TO.N,GPIO0*%
D17*
X158000000Y-81200000D02*
X157979000Y-81179000D01*
X157979000Y-59339000D02*
X154210000Y-55570000D01*
X157979000Y-81179000D02*
X157979000Y-59339000D01*
%TO.N,GPIO1*%
X158038406Y-82088349D02*
X157399000Y-81448943D01*
X157399000Y-61299000D02*
X154210000Y-58110000D01*
X157399000Y-81448943D02*
X157399000Y-61299000D01*
X158182330Y-82088349D02*
X158038406Y-82088349D01*
%TO.N,GPIO2*%
X158068541Y-82824503D02*
X157000000Y-81755962D01*
X156998000Y-81615043D02*
X156998000Y-65978000D01*
X156998000Y-65978000D02*
X154210000Y-63190000D01*
X158495509Y-82824503D02*
X158068541Y-82824503D01*
X157000000Y-81755962D02*
X157000000Y-81617043D01*
X157000000Y-81617043D02*
X156998000Y-81615043D01*
%TO.N,GPIO3*%
X160600000Y-82800000D02*
X159974497Y-83425503D01*
X158102441Y-83425503D02*
X156599000Y-81922062D01*
X156597000Y-81781143D02*
X156597000Y-68117000D01*
X156599000Y-81783143D02*
X156597000Y-81781143D01*
X156597000Y-68117000D02*
X154210000Y-65730000D01*
X156599000Y-81922062D02*
X156599000Y-81783143D01*
X159974497Y-83425503D02*
X158102441Y-83425503D01*
%TO.N,GPIO5*%
X160422027Y-83826503D02*
X157936341Y-83826503D01*
X157936341Y-83826503D02*
X156000000Y-81890162D01*
X160624265Y-83624265D02*
X160422027Y-83826503D01*
X156000000Y-81890162D02*
X156000000Y-72600000D01*
X156000000Y-72600000D02*
X154210000Y-70810000D01*
%TO.N,GPIO14*%
X160424265Y-89024265D02*
X160424265Y-95075735D01*
X160424265Y-95075735D02*
X154210000Y-101290000D01*
%TO.N,GPIO15*%
X161500000Y-86200000D02*
X161500000Y-96540000D01*
X161500000Y-96540000D02*
X154210000Y-103830000D01*
%TO.N,SWCLK*%
D16*
X163904322Y-88161892D02*
X164100000Y-88357570D01*
X164100000Y-88357570D02*
X164100000Y-100050000D01*
X164100000Y-100050000D02*
X160560000Y-103590000D01*
%TO.N,SWDIO*%
X164700000Y-102650000D02*
X165640000Y-103590000D01*
X164700000Y-88290000D02*
X164700000Y-102650000D01*
%TO.N,RUN*%
X170840000Y-82120000D02*
X171990000Y-80970000D01*
X170840000Y-84808529D02*
X170840000Y-82120000D01*
X165254159Y-86275000D02*
X169373529Y-86275000D01*
X169373529Y-86275000D02*
X170840000Y-84808529D01*
%TO.N,GPIO16*%
D17*
X165840000Y-88421676D02*
X165840000Y-92040000D01*
X165460718Y-88042394D02*
X165840000Y-88421676D01*
%TO.N,GPIO17*%
X166650000Y-91190000D02*
X166780000Y-91320000D01*
X166650000Y-88170000D02*
X166650000Y-91190000D01*
%TO.N,GPIO23*%
X165900000Y-84650000D02*
X167640000Y-84650000D01*
X169943500Y-82346500D02*
X170630000Y-81660000D01*
X165570000Y-84320000D02*
X165900000Y-84650000D01*
X169796590Y-82346500D02*
X169943500Y-82346500D01*
X169466500Y-82823500D02*
X169466500Y-82676590D01*
X169466500Y-82676590D02*
X169796590Y-82346500D01*
X167640000Y-84650000D02*
X169466500Y-82823500D01*
X170630000Y-81660000D02*
X170630000Y-81340000D01*
%TO.N,GPIO24*%
X170540000Y-79880000D02*
X171990000Y-78430000D01*
X165540000Y-83490000D02*
X169150000Y-79880000D01*
X169150000Y-79880000D02*
X170540000Y-79880000D01*
%TO.N,GPIO25*%
X167510000Y-83230000D02*
X168440000Y-83230000D01*
X168440000Y-83230000D02*
X169850000Y-81820000D01*
%TO.N,GPIO26_ADC0*%
X173036500Y-71856500D02*
X171990000Y-70810000D01*
X167895322Y-82610000D02*
X168380000Y-82610000D01*
X170029000Y-81091057D02*
X170381057Y-80739000D01*
X169898943Y-81091057D02*
X170029000Y-81091057D01*
X170876500Y-72888773D02*
X171528773Y-72236500D01*
X172451227Y-74463500D02*
X171528773Y-74463500D01*
X173036500Y-72821773D02*
X173036500Y-71856500D01*
X172451227Y-72236500D02*
X173036500Y-72821773D01*
X168380000Y-82610000D02*
X169898943Y-81091057D01*
X171619000Y-79581000D02*
X172466760Y-79581000D01*
X167454771Y-82500001D02*
X167785323Y-82500001D01*
X171528773Y-72236500D02*
X172451227Y-72236500D01*
X170461000Y-80739000D02*
X171619000Y-79581000D01*
X171528773Y-74463500D02*
X170876500Y-73811227D01*
X170381057Y-80739000D02*
X170461000Y-80739000D01*
X173036500Y-73878227D02*
X172451227Y-74463500D01*
X170876500Y-73811227D02*
X170876500Y-72888773D01*
X167785323Y-82500001D02*
X167895322Y-82610000D01*
X172466760Y-79581000D02*
X173036500Y-79011260D01*
X173036500Y-79011260D02*
X173036500Y-73878227D01*
%TO.N,GPIO27_ADC1*%
X165610000Y-75040000D02*
X165610000Y-74650000D01*
X165200002Y-77328231D02*
X165510000Y-77018233D01*
X165200002Y-82270000D02*
X165120000Y-82189998D01*
X165610000Y-74650000D02*
X171990000Y-68270000D01*
X165200002Y-82270000D02*
X165200002Y-77328231D01*
%TO.N,GPIO28_ADC2*%
X169963000Y-71557000D02*
X170120000Y-71400000D01*
X168103782Y-82082617D02*
X168108383Y-82082617D01*
X168108383Y-82082617D02*
X169661000Y-80530000D01*
X169963000Y-78360000D02*
X169963000Y-71557000D01*
%TO.N,GPIO29_ADC3*%
X163990000Y-69640000D02*
X166260000Y-67370000D01*
X163667463Y-81077463D02*
X164233526Y-80511400D01*
X164233526Y-80511400D02*
X164233526Y-77018233D01*
X163667463Y-81675001D02*
X163667463Y-81077463D01*
%TD*%
%TA.AperFunction,Conductor*%
%TO.N,GND*%
G36*
X170559334Y-86040942D02*
G01*
X170615267Y-86082814D01*
X170639684Y-86148278D01*
X170639942Y-86155519D01*
X170639999Y-86156244D01*
X170673242Y-86366127D01*
X170673242Y-86366130D01*
X170738904Y-86568217D01*
X170835375Y-86757550D01*
X170874728Y-86811716D01*
X171507037Y-86179408D01*
X171524075Y-86242993D01*
X171589901Y-86357007D01*
X171682993Y-86450099D01*
X171797007Y-86515925D01*
X171860590Y-86532962D01*
X171228282Y-87165269D01*
X171228282Y-87165270D01*
X171282452Y-87204626D01*
X171282451Y-87204626D01*
X171291495Y-87209234D01*
X171342292Y-87257208D01*
X171359087Y-87325029D01*
X171336550Y-87391164D01*
X171291499Y-87430202D01*
X171282182Y-87434949D01*
X171110213Y-87559890D01*
X170959890Y-87710213D01*
X170834951Y-87882179D01*
X170738444Y-88071585D01*
X170672753Y-88273760D01*
X170639500Y-88483713D01*
X170639500Y-88696286D01*
X170672753Y-88906239D01*
X170738444Y-89108414D01*
X170834951Y-89297820D01*
X170959890Y-89469786D01*
X171110213Y-89620109D01*
X171282182Y-89745050D01*
X171290946Y-89749516D01*
X171341742Y-89797491D01*
X171358536Y-89865312D01*
X171335998Y-89931447D01*
X171290946Y-89970484D01*
X171282182Y-89974949D01*
X171110213Y-90099890D01*
X170959890Y-90250213D01*
X170834951Y-90422179D01*
X170738444Y-90611585D01*
X170738443Y-90611587D01*
X170738443Y-90611588D01*
X170705598Y-90712672D01*
X170672753Y-90813760D01*
X170665823Y-90857517D01*
X170639500Y-91023713D01*
X170639500Y-91236287D01*
X170649534Y-91299644D01*
X170672753Y-91446239D01*
X170738444Y-91648414D01*
X170834951Y-91837820D01*
X170959890Y-92009786D01*
X171110213Y-92160109D01*
X171282182Y-92285050D01*
X171290946Y-92289516D01*
X171341742Y-92337491D01*
X171358536Y-92405312D01*
X171335998Y-92471447D01*
X171290946Y-92510484D01*
X171282182Y-92514949D01*
X171110213Y-92639890D01*
X170959890Y-92790213D01*
X170834951Y-92962179D01*
X170738444Y-93151585D01*
X170672753Y-93353760D01*
X170639500Y-93563713D01*
X170639500Y-93776286D01*
X170672753Y-93986239D01*
X170738444Y-94188414D01*
X170834951Y-94377820D01*
X170959890Y-94549786D01*
X171110213Y-94700109D01*
X171282182Y-94825050D01*
X171290946Y-94829516D01*
X171341742Y-94877491D01*
X171358536Y-94945312D01*
X171335998Y-95011447D01*
X171290946Y-95050484D01*
X171282182Y-95054949D01*
X171110213Y-95179890D01*
X170959890Y-95330213D01*
X170834951Y-95502179D01*
X170738444Y-95691585D01*
X170672753Y-95893760D01*
X170639500Y-96103713D01*
X170639500Y-96316287D01*
X170672754Y-96526243D01*
X170701349Y-96614250D01*
X170738444Y-96728414D01*
X170834951Y-96917820D01*
X170959890Y-97089786D01*
X171110213Y-97240109D01*
X171282179Y-97365048D01*
X171282181Y-97365049D01*
X171282184Y-97365051D01*
X171291493Y-97369794D01*
X171342290Y-97417766D01*
X171359087Y-97485587D01*
X171336552Y-97551722D01*
X171291505Y-97590760D01*
X171282446Y-97595376D01*
X171282440Y-97595380D01*
X171228282Y-97634727D01*
X171228282Y-97634728D01*
X171860591Y-98267037D01*
X171797007Y-98284075D01*
X171682993Y-98349901D01*
X171589901Y-98442993D01*
X171524075Y-98557007D01*
X171507037Y-98620591D01*
X170874728Y-97988282D01*
X170874727Y-97988282D01*
X170835380Y-98042439D01*
X170738904Y-98231782D01*
X170673242Y-98433869D01*
X170673242Y-98433872D01*
X170640000Y-98643753D01*
X170640000Y-98856246D01*
X170673242Y-99066127D01*
X170673242Y-99066130D01*
X170738904Y-99268217D01*
X170835375Y-99457550D01*
X170874728Y-99511716D01*
X171507037Y-98879408D01*
X171524075Y-98942993D01*
X171589901Y-99057007D01*
X171682993Y-99150099D01*
X171797007Y-99215925D01*
X171860590Y-99232962D01*
X171228282Y-99865269D01*
X171228282Y-99865270D01*
X171282452Y-99904626D01*
X171282451Y-99904626D01*
X171291495Y-99909234D01*
X171342292Y-99957208D01*
X171359087Y-100025029D01*
X171336550Y-100091164D01*
X171291499Y-100130202D01*
X171282182Y-100134949D01*
X171110213Y-100259890D01*
X170959890Y-100410213D01*
X170834951Y-100582179D01*
X170738444Y-100771585D01*
X170672753Y-100973760D01*
X170639500Y-101183713D01*
X170639500Y-101396286D01*
X170672753Y-101606239D01*
X170738444Y-101808414D01*
X170834951Y-101997820D01*
X170959890Y-102169786D01*
X171110213Y-102320109D01*
X171282182Y-102445050D01*
X171290946Y-102449516D01*
X171341742Y-102497491D01*
X171358536Y-102565312D01*
X171335998Y-102631447D01*
X171290946Y-102670484D01*
X171282182Y-102674949D01*
X171110213Y-102799890D01*
X170959890Y-102950213D01*
X170834951Y-103122179D01*
X170738444Y-103311585D01*
X170672753Y-103513760D01*
X170672753Y-103513762D01*
X170639500Y-103723713D01*
X170639500Y-103936287D01*
X170672754Y-104146243D01*
X170722003Y-104297816D01*
X170738444Y-104348414D01*
X170825466Y-104519205D01*
X170838362Y-104587875D01*
X170812086Y-104652615D01*
X170754979Y-104692872D01*
X170714981Y-104699500D01*
X166739758Y-104699500D01*
X166672719Y-104679815D01*
X166626964Y-104627011D01*
X166617020Y-104557853D01*
X166646045Y-104494297D01*
X166652077Y-104487819D01*
X166670104Y-104469792D01*
X166670106Y-104469788D01*
X166670109Y-104469786D01*
X166795048Y-104297820D01*
X166795050Y-104297817D01*
X166795051Y-104297816D01*
X166891557Y-104108412D01*
X166957246Y-103906243D01*
X166990500Y-103696287D01*
X166990500Y-103483713D01*
X166957246Y-103273757D01*
X166891557Y-103071588D01*
X166795051Y-102882184D01*
X166795049Y-102882181D01*
X166795048Y-102882179D01*
X166670109Y-102710213D01*
X166519786Y-102559890D01*
X166347820Y-102434951D01*
X166158414Y-102338444D01*
X166158413Y-102338443D01*
X166158412Y-102338443D01*
X165956243Y-102272754D01*
X165956241Y-102272753D01*
X165956240Y-102272753D01*
X165794957Y-102247208D01*
X165746287Y-102239500D01*
X165533713Y-102239500D01*
X165443897Y-102253725D01*
X165374604Y-102244770D01*
X165321152Y-102199774D01*
X165300513Y-102133022D01*
X165300500Y-102131252D01*
X165300500Y-92784056D01*
X165320185Y-92717017D01*
X165372989Y-92671262D01*
X165442147Y-92661318D01*
X165493395Y-92680957D01*
X165496340Y-92682925D01*
X165496349Y-92682930D01*
X165516817Y-92691408D01*
X165628380Y-92737619D01*
X165628384Y-92737619D01*
X165628385Y-92737620D01*
X165768542Y-92765500D01*
X165768545Y-92765500D01*
X165911457Y-92765500D01*
X166005751Y-92746742D01*
X166051620Y-92737619D01*
X166183653Y-92682929D01*
X166302479Y-92603532D01*
X166403532Y-92502479D01*
X166482929Y-92383653D01*
X166537619Y-92251620D01*
X166559373Y-92142256D01*
X166591758Y-92080346D01*
X166652473Y-92045772D01*
X166705186Y-92044832D01*
X166708545Y-92045500D01*
X166851457Y-92045500D01*
X166945751Y-92026742D01*
X166991620Y-92017619D01*
X167123653Y-91962929D01*
X167242479Y-91883532D01*
X167343532Y-91782479D01*
X167422929Y-91663653D01*
X167477619Y-91531620D01*
X167505500Y-91391455D01*
X167505500Y-91248545D01*
X167505500Y-91248542D01*
X167477620Y-91108385D01*
X167477619Y-91108384D01*
X167477619Y-91108380D01*
X167422929Y-90976347D01*
X167422928Y-90976346D01*
X167422925Y-90976340D01*
X167343532Y-90857521D01*
X167343529Y-90857517D01*
X167250319Y-90764307D01*
X167216834Y-90702984D01*
X167214000Y-90676626D01*
X167214000Y-88669392D01*
X167233685Y-88602353D01*
X167234861Y-88600556D01*
X167292929Y-88513653D01*
X167347619Y-88381620D01*
X167369075Y-88273757D01*
X167375500Y-88241457D01*
X167375500Y-88098542D01*
X167347620Y-87958385D01*
X167347619Y-87958384D01*
X167347619Y-87958380D01*
X167292929Y-87826347D01*
X167292928Y-87826346D01*
X167292925Y-87826340D01*
X167213532Y-87707521D01*
X167213529Y-87707517D01*
X167112482Y-87606470D01*
X167112478Y-87606467D01*
X166993659Y-87527074D01*
X166993650Y-87527069D01*
X166861620Y-87472381D01*
X166861614Y-87472379D01*
X166721457Y-87444500D01*
X166721455Y-87444500D01*
X166578545Y-87444500D01*
X166578543Y-87444500D01*
X166438385Y-87472379D01*
X166438379Y-87472381D01*
X166306349Y-87527069D01*
X166306342Y-87527073D01*
X166189592Y-87605083D01*
X166122915Y-87625960D01*
X166055535Y-87607475D01*
X166028737Y-87584042D01*
X166028558Y-87584222D01*
X166025885Y-87581549D01*
X166024843Y-87580638D01*
X166024243Y-87579907D01*
X165923200Y-87478864D01*
X165923196Y-87478861D01*
X165804377Y-87399468D01*
X165804368Y-87399463D01*
X165672338Y-87344775D01*
X165672332Y-87344773D01*
X165532175Y-87316894D01*
X165532173Y-87316894D01*
X165389263Y-87316894D01*
X165389261Y-87316894D01*
X165249103Y-87344773D01*
X165249097Y-87344775D01*
X165117067Y-87399463D01*
X165117058Y-87399468D01*
X164998242Y-87478859D01*
X164993535Y-87482723D01*
X164992395Y-87481334D01*
X164938487Y-87510758D01*
X164887960Y-87511204D01*
X164778846Y-87489500D01*
X164778842Y-87489500D01*
X164621158Y-87489500D01*
X164621156Y-87489500D01*
X164460530Y-87521451D01*
X164460304Y-87520319D01*
X164396625Y-87520876D01*
X164361628Y-87504700D01*
X164283507Y-87452501D01*
X164283494Y-87452494D01*
X164137823Y-87392156D01*
X164137811Y-87392153D01*
X163983167Y-87361392D01*
X163983164Y-87361392D01*
X163825480Y-87361392D01*
X163825477Y-87361392D01*
X163670832Y-87392153D01*
X163670820Y-87392156D01*
X163525149Y-87452494D01*
X163525136Y-87452501D01*
X163394033Y-87540102D01*
X163394029Y-87540105D01*
X163282535Y-87651599D01*
X163282532Y-87651603D01*
X163194931Y-87782706D01*
X163194924Y-87782719D01*
X163134586Y-87928390D01*
X163134583Y-87928402D01*
X163103822Y-88083045D01*
X163103822Y-88240738D01*
X163134583Y-88395381D01*
X163134586Y-88395393D01*
X163194924Y-88541064D01*
X163194931Y-88541077D01*
X163282532Y-88672180D01*
X163282535Y-88672184D01*
X163394027Y-88783676D01*
X163394030Y-88783678D01*
X163394033Y-88783681D01*
X163444392Y-88817329D01*
X163489195Y-88870939D01*
X163499500Y-88920430D01*
X163499500Y-99749902D01*
X163479815Y-99816941D01*
X163463181Y-99837583D01*
X161097582Y-102203181D01*
X161036259Y-102236666D01*
X161009901Y-102239500D01*
X159662129Y-102239500D01*
X159662123Y-102239501D01*
X159602516Y-102245908D01*
X159467671Y-102296202D01*
X159467664Y-102296206D01*
X159352455Y-102382452D01*
X159352452Y-102382455D01*
X159266206Y-102497664D01*
X159266202Y-102497671D01*
X159215908Y-102632517D01*
X159209501Y-102692116D01*
X159209500Y-102692135D01*
X159209500Y-104487870D01*
X159209501Y-104487876D01*
X159216738Y-104555196D01*
X159215342Y-104555345D01*
X159212050Y-104616756D01*
X159171182Y-104673427D01*
X159106163Y-104699007D01*
X159095114Y-104699500D01*
X155485019Y-104699500D01*
X155417980Y-104679815D01*
X155372225Y-104627011D01*
X155362281Y-104557853D01*
X155374534Y-104519205D01*
X155399714Y-104469786D01*
X155461557Y-104348412D01*
X155527246Y-104146243D01*
X155560500Y-103936287D01*
X155560500Y-103723713D01*
X155527246Y-103513757D01*
X155500847Y-103432513D01*
X155498853Y-103362675D01*
X155531096Y-103306518D01*
X161836094Y-97001521D01*
X161836099Y-97001517D01*
X161846302Y-96991313D01*
X161846304Y-96991313D01*
X161951313Y-96886304D01*
X162025565Y-96757696D01*
X162064000Y-96614252D01*
X162064000Y-86699392D01*
X162067929Y-86684385D01*
X162067171Y-86671529D01*
X162077645Y-86647287D01*
X162079916Y-86638616D01*
X162082250Y-86634464D01*
X162142929Y-86543653D01*
X162169822Y-86478725D01*
X162173458Y-86472261D01*
X162193364Y-86452843D01*
X162210820Y-86431182D01*
X162218033Y-86428781D01*
X162223474Y-86423474D01*
X162250720Y-86417901D01*
X162277114Y-86409116D01*
X162284480Y-86410995D01*
X162291926Y-86409473D01*
X162317860Y-86419515D01*
X162344814Y-86426394D01*
X162350433Y-86429935D01*
X162469343Y-86509389D01*
X162469356Y-86509396D01*
X162611365Y-86568217D01*
X162615032Y-86569736D01*
X162764112Y-86599390D01*
X162769682Y-86600498D01*
X162769685Y-86600499D01*
X162769687Y-86600499D01*
X162927373Y-86600499D01*
X162927374Y-86600498D01*
X163082026Y-86569736D01*
X163227708Y-86509393D01*
X163358818Y-86421788D01*
X163470318Y-86310288D01*
X163476090Y-86301648D01*
X163529699Y-86256842D01*
X163599023Y-86248131D01*
X163662053Y-86278282D01*
X163682297Y-86301643D01*
X163748213Y-86400292D01*
X163859707Y-86511786D01*
X163859711Y-86511789D01*
X163990814Y-86599390D01*
X163990827Y-86599397D01*
X164136498Y-86659735D01*
X164136503Y-86659737D01*
X164260416Y-86684385D01*
X164291153Y-86690499D01*
X164291156Y-86690500D01*
X164291158Y-86690500D01*
X164448844Y-86690500D01*
X164553290Y-86669724D01*
X164622882Y-86675951D01*
X164678059Y-86718814D01*
X164680583Y-86722448D01*
X164690627Y-86737480D01*
X164791676Y-86838529D01*
X164791680Y-86838532D01*
X164910499Y-86917925D01*
X164910505Y-86917928D01*
X164910506Y-86917929D01*
X165042539Y-86972619D01*
X165042543Y-86972619D01*
X165042544Y-86972620D01*
X165182701Y-87000500D01*
X165182704Y-87000500D01*
X165325616Y-87000500D01*
X165419910Y-86981742D01*
X165465779Y-86972619D01*
X165597812Y-86917929D01*
X165630035Y-86896397D01*
X165696713Y-86875520D01*
X165698926Y-86875500D01*
X169286860Y-86875500D01*
X169286876Y-86875501D01*
X169294472Y-86875501D01*
X169452583Y-86875501D01*
X169452586Y-86875501D01*
X169605314Y-86834577D01*
X169655433Y-86805639D01*
X169742245Y-86755520D01*
X169854049Y-86643716D01*
X169854049Y-86643714D01*
X169864257Y-86633507D01*
X169864259Y-86633504D01*
X170428321Y-86069441D01*
X170489642Y-86035958D01*
X170559334Y-86040942D01*
G37*
%TD.AperFunction*%
%TA.AperFunction,Conductor*%
G36*
X164215270Y-104351717D02*
G01*
X164215270Y-104351716D01*
X164254622Y-104297555D01*
X164259232Y-104288507D01*
X164307205Y-104237709D01*
X164375025Y-104220912D01*
X164441161Y-104243447D01*
X164480204Y-104288504D01*
X164484949Y-104297817D01*
X164609890Y-104469786D01*
X164627923Y-104487819D01*
X164661408Y-104549142D01*
X164656424Y-104618834D01*
X164614552Y-104674767D01*
X164549088Y-104699184D01*
X164540242Y-104699500D01*
X163907308Y-104699500D01*
X163840269Y-104679815D01*
X163819627Y-104663181D01*
X163229408Y-104072962D01*
X163292993Y-104055925D01*
X163407007Y-103990099D01*
X163500099Y-103897007D01*
X163565925Y-103782993D01*
X163582962Y-103719409D01*
X164215270Y-104351717D01*
G37*
%TD.AperFunction*%
%TA.AperFunction,Conductor*%
G36*
X173063181Y-99469627D02*
G01*
X173096666Y-99530950D01*
X173099500Y-99557308D01*
X173099500Y-100190242D01*
X173079815Y-100257281D01*
X173027011Y-100303036D01*
X172957853Y-100312980D01*
X172894297Y-100283955D01*
X172887819Y-100277923D01*
X172869786Y-100259890D01*
X172697817Y-100134949D01*
X172688504Y-100130204D01*
X172637707Y-100082230D01*
X172620912Y-100014409D01*
X172643449Y-99948274D01*
X172688507Y-99909232D01*
X172697555Y-99904622D01*
X172751716Y-99865270D01*
X172751717Y-99865270D01*
X172119408Y-99232962D01*
X172182993Y-99215925D01*
X172297007Y-99150099D01*
X172390099Y-99057007D01*
X172455925Y-98942993D01*
X172472962Y-98879408D01*
X173063181Y-99469627D01*
G37*
%TD.AperFunction*%
%TA.AperFunction,Conductor*%
G36*
X153744075Y-98942993D02*
G01*
X153809901Y-99057007D01*
X153902993Y-99150099D01*
X154017007Y-99215925D01*
X154080590Y-99232962D01*
X153448282Y-99865269D01*
X153448282Y-99865270D01*
X153502452Y-99904626D01*
X153502451Y-99904626D01*
X153511495Y-99909234D01*
X153562292Y-99957208D01*
X153579087Y-100025029D01*
X153556550Y-100091164D01*
X153511499Y-100130202D01*
X153502182Y-100134949D01*
X153330213Y-100259890D01*
X153330209Y-100259894D01*
X153312181Y-100277923D01*
X153250858Y-100311408D01*
X153181166Y-100306424D01*
X153125233Y-100264552D01*
X153100816Y-100199088D01*
X153100500Y-100190242D01*
X153100500Y-99557308D01*
X153120185Y-99490269D01*
X153136819Y-99469627D01*
X153727037Y-98879408D01*
X153744075Y-98942993D01*
G37*
%TD.AperFunction*%
%TA.AperFunction,Conductor*%
G36*
X155329393Y-81835220D02*
G01*
X155355334Y-81837076D01*
X155362930Y-81842762D01*
X155372189Y-81844845D01*
X155390449Y-81863363D01*
X155411267Y-81878948D01*
X155414583Y-81887838D01*
X155421246Y-81894596D01*
X155433348Y-81927750D01*
X155436000Y-81940366D01*
X155436000Y-81964415D01*
X155458581Y-82048688D01*
X155459456Y-82051954D01*
X155459458Y-82051963D01*
X155474433Y-82107855D01*
X155474434Y-82107856D01*
X155474435Y-82107858D01*
X155548687Y-82236466D01*
X155548688Y-82236467D01*
X155548689Y-82236468D01*
X155660761Y-82348540D01*
X155660766Y-82348544D01*
X157590037Y-84277816D01*
X157590038Y-84277817D01*
X157590040Y-84277818D01*
X157718641Y-84352066D01*
X157718642Y-84352066D01*
X157718645Y-84352068D01*
X157862089Y-84390504D01*
X157862092Y-84390504D01*
X158018190Y-84390504D01*
X158018206Y-84390503D01*
X159858318Y-84390503D01*
X159925357Y-84410188D01*
X159971112Y-84462992D01*
X159981056Y-84532150D01*
X159979935Y-84538694D01*
X159969500Y-84591153D01*
X159969500Y-84748846D01*
X160000261Y-84903489D01*
X160000264Y-84903501D01*
X160060602Y-85049172D01*
X160060609Y-85049185D01*
X160148210Y-85180288D01*
X160148213Y-85180292D01*
X160259707Y-85291786D01*
X160259711Y-85291789D01*
X160390814Y-85379390D01*
X160390827Y-85379397D01*
X160536498Y-85439735D01*
X160536503Y-85439737D01*
X160680676Y-85468415D01*
X160691153Y-85470499D01*
X160691156Y-85470500D01*
X160691158Y-85470500D01*
X160848843Y-85470500D01*
X160862942Y-85467695D01*
X160890628Y-85462188D01*
X160960219Y-85468415D01*
X161015397Y-85511277D01*
X161038642Y-85577166D01*
X161022575Y-85645163D01*
X161002502Y-85671486D01*
X160936467Y-85737521D01*
X160857074Y-85856340D01*
X160857069Y-85856349D01*
X160802381Y-85988379D01*
X160802379Y-85988385D01*
X160774500Y-86128542D01*
X160774500Y-86128545D01*
X160774500Y-86271455D01*
X160774500Y-86271457D01*
X160774499Y-86271457D01*
X160802379Y-86411614D01*
X160802381Y-86411620D01*
X160857069Y-86543650D01*
X160857070Y-86543652D01*
X160857071Y-86543653D01*
X160915102Y-86630503D01*
X160935980Y-86697178D01*
X160936000Y-86699392D01*
X160936000Y-88265378D01*
X160916315Y-88332417D01*
X160863511Y-88378172D01*
X160794353Y-88388116D01*
X160764548Y-88379939D01*
X160635889Y-88326647D01*
X160635879Y-88326644D01*
X160495722Y-88298765D01*
X160495720Y-88298765D01*
X160352810Y-88298765D01*
X160352808Y-88298765D01*
X160212650Y-88326644D01*
X160212644Y-88326646D01*
X160080614Y-88381334D01*
X160080605Y-88381339D01*
X159961786Y-88460732D01*
X159961782Y-88460735D01*
X159860735Y-88561782D01*
X159860732Y-88561786D01*
X159781339Y-88680605D01*
X159781334Y-88680614D01*
X159726646Y-88812644D01*
X159726644Y-88812650D01*
X159698765Y-88952807D01*
X159698765Y-88952810D01*
X159698765Y-89095720D01*
X159698765Y-89095722D01*
X159698764Y-89095722D01*
X159726644Y-89235879D01*
X159726646Y-89235885D01*
X159781334Y-89367915D01*
X159781335Y-89367917D01*
X159781336Y-89367918D01*
X159839367Y-89454768D01*
X159860245Y-89521443D01*
X159860265Y-89523657D01*
X159860265Y-94790756D01*
X159840580Y-94857795D01*
X159823946Y-94878437D01*
X155771681Y-98930701D01*
X155710358Y-98964186D01*
X155640666Y-98959202D01*
X155584733Y-98917330D01*
X155560316Y-98851866D01*
X155560000Y-98843020D01*
X155560000Y-98643753D01*
X155526757Y-98433872D01*
X155526757Y-98433869D01*
X155461095Y-98231782D01*
X155364624Y-98042449D01*
X155325270Y-97988282D01*
X155325269Y-97988282D01*
X154692962Y-98620590D01*
X154675925Y-98557007D01*
X154610099Y-98442993D01*
X154517007Y-98349901D01*
X154402993Y-98284075D01*
X154339409Y-98267037D01*
X154971716Y-97634728D01*
X154917547Y-97595373D01*
X154917547Y-97595372D01*
X154908500Y-97590763D01*
X154857706Y-97542788D01*
X154840912Y-97474966D01*
X154863451Y-97408832D01*
X154908508Y-97369793D01*
X154917816Y-97365051D01*
X155006096Y-97300912D01*
X155089786Y-97240109D01*
X155089788Y-97240106D01*
X155089792Y-97240104D01*
X155240104Y-97089792D01*
X155240106Y-97089788D01*
X155240109Y-97089786D01*
X155365048Y-96917820D01*
X155365047Y-96917820D01*
X155365051Y-96917816D01*
X155461557Y-96728412D01*
X155527246Y-96526243D01*
X155560500Y-96316287D01*
X155560500Y-96103713D01*
X155527246Y-95893757D01*
X155461557Y-95691588D01*
X155365051Y-95502184D01*
X155365049Y-95502181D01*
X155365048Y-95502179D01*
X155240109Y-95330213D01*
X155089786Y-95179890D01*
X154917820Y-95054951D01*
X154917115Y-95054591D01*
X154909054Y-95050485D01*
X154858259Y-95002512D01*
X154841463Y-94934692D01*
X154863999Y-94868556D01*
X154909054Y-94829515D01*
X154917816Y-94825051D01*
X154993921Y-94769758D01*
X155089786Y-94700109D01*
X155089788Y-94700106D01*
X155089792Y-94700104D01*
X155240104Y-94549792D01*
X155240106Y-94549788D01*
X155240109Y-94549786D01*
X155365048Y-94377820D01*
X155365047Y-94377820D01*
X155365051Y-94377816D01*
X155461557Y-94188412D01*
X155527246Y-93986243D01*
X155560500Y-93776287D01*
X155560500Y-93563713D01*
X155527246Y-93353757D01*
X155461557Y-93151588D01*
X155365051Y-92962184D01*
X155365049Y-92962181D01*
X155365048Y-92962179D01*
X155240109Y-92790213D01*
X155089786Y-92639890D01*
X154917820Y-92514951D01*
X154917115Y-92514591D01*
X154909054Y-92510485D01*
X154858259Y-92462512D01*
X154841463Y-92394692D01*
X154863999Y-92328556D01*
X154909054Y-92289515D01*
X154917816Y-92285051D01*
X154993921Y-92229758D01*
X155089786Y-92160109D01*
X155089788Y-92160106D01*
X155089792Y-92160104D01*
X155240104Y-92009792D01*
X155240106Y-92009788D01*
X155240109Y-92009786D01*
X155365048Y-91837820D01*
X155365047Y-91837820D01*
X155365051Y-91837816D01*
X155461557Y-91648412D01*
X155527246Y-91446243D01*
X155560500Y-91236287D01*
X155560500Y-91023713D01*
X155527246Y-90813757D01*
X155461557Y-90611588D01*
X155365051Y-90422184D01*
X155365049Y-90422181D01*
X155365048Y-90422179D01*
X155240109Y-90250213D01*
X155089786Y-90099890D01*
X154917820Y-89974951D01*
X154917115Y-89974591D01*
X154909054Y-89970485D01*
X154858259Y-89922512D01*
X154841463Y-89854692D01*
X154863999Y-89788556D01*
X154909054Y-89749515D01*
X154917816Y-89745051D01*
X154993921Y-89689758D01*
X155089786Y-89620109D01*
X155089788Y-89620106D01*
X155089792Y-89620104D01*
X155240104Y-89469792D01*
X155240106Y-89469788D01*
X155240109Y-89469786D01*
X155365048Y-89297820D01*
X155365047Y-89297820D01*
X155365051Y-89297816D01*
X155461557Y-89108412D01*
X155527246Y-88906243D01*
X155560500Y-88696287D01*
X155560500Y-88483713D01*
X155527246Y-88273757D01*
X155461557Y-88071588D01*
X155365051Y-87882184D01*
X155365049Y-87882181D01*
X155365048Y-87882179D01*
X155240109Y-87710213D01*
X155089786Y-87559890D01*
X154917817Y-87434949D01*
X154908504Y-87430204D01*
X154857707Y-87382230D01*
X154840912Y-87314409D01*
X154863449Y-87248274D01*
X154908507Y-87209232D01*
X154917555Y-87204622D01*
X154971716Y-87165270D01*
X154971717Y-87165270D01*
X154339408Y-86532962D01*
X154402993Y-86515925D01*
X154517007Y-86450099D01*
X154610099Y-86357007D01*
X154675925Y-86242993D01*
X154692962Y-86179409D01*
X155325270Y-86811717D01*
X155325270Y-86811716D01*
X155364622Y-86757554D01*
X155461095Y-86568217D01*
X155526757Y-86366130D01*
X155526757Y-86366127D01*
X155560000Y-86156246D01*
X155560000Y-85943753D01*
X155526757Y-85733872D01*
X155526757Y-85733869D01*
X155461095Y-85531782D01*
X155364624Y-85342449D01*
X155325270Y-85288282D01*
X155325269Y-85288282D01*
X154692962Y-85920590D01*
X154675925Y-85857007D01*
X154610099Y-85742993D01*
X154517007Y-85649901D01*
X154402993Y-85584075D01*
X154339409Y-85567037D01*
X154971716Y-84934728D01*
X154917547Y-84895373D01*
X154917547Y-84895372D01*
X154908500Y-84890763D01*
X154857706Y-84842788D01*
X154840912Y-84774966D01*
X154863451Y-84708832D01*
X154908508Y-84669793D01*
X154917816Y-84665051D01*
X155019529Y-84591153D01*
X155089786Y-84540109D01*
X155089788Y-84540106D01*
X155089792Y-84540104D01*
X155240104Y-84389792D01*
X155240106Y-84389788D01*
X155240109Y-84389786D01*
X155365048Y-84217820D01*
X155365047Y-84217820D01*
X155365051Y-84217816D01*
X155461557Y-84028412D01*
X155527246Y-83826243D01*
X155560500Y-83616287D01*
X155560500Y-83403713D01*
X155527246Y-83193757D01*
X155461557Y-82991588D01*
X155365051Y-82802184D01*
X155365049Y-82802181D01*
X155365048Y-82802179D01*
X155240109Y-82630213D01*
X155089786Y-82479890D01*
X154917820Y-82354951D01*
X154917115Y-82354591D01*
X154909054Y-82350485D01*
X154858259Y-82302512D01*
X154841463Y-82234692D01*
X154863999Y-82168556D01*
X154909054Y-82129515D01*
X154917816Y-82125051D01*
X154992290Y-82070943D01*
X155089786Y-82000109D01*
X155089788Y-82000106D01*
X155089792Y-82000104D01*
X155224319Y-81865577D01*
X155232646Y-81861030D01*
X155238387Y-81853472D01*
X155262820Y-81844553D01*
X155285642Y-81832092D01*
X155295106Y-81832768D01*
X155304021Y-81829515D01*
X155329393Y-81835220D01*
G37*
%TD.AperFunction*%
%TA.AperFunction,Conductor*%
G36*
X153305703Y-97216045D02*
G01*
X153312181Y-97222077D01*
X153330213Y-97240109D01*
X153502179Y-97365048D01*
X153502181Y-97365049D01*
X153502184Y-97365051D01*
X153511493Y-97369794D01*
X153562290Y-97417766D01*
X153579087Y-97485587D01*
X153556552Y-97551722D01*
X153511505Y-97590760D01*
X153502446Y-97595376D01*
X153502440Y-97595380D01*
X153448282Y-97634727D01*
X153448282Y-97634728D01*
X154080591Y-98267037D01*
X154017007Y-98284075D01*
X153902993Y-98349901D01*
X153809901Y-98442993D01*
X153744075Y-98557007D01*
X153727037Y-98620591D01*
X153136819Y-98030373D01*
X153103334Y-97969050D01*
X153100500Y-97942692D01*
X153100500Y-97309758D01*
X153120185Y-97242719D01*
X153172989Y-97196964D01*
X153242147Y-97187020D01*
X153305703Y-97216045D01*
G37*
%TD.AperFunction*%
%TA.AperFunction,Conductor*%
G36*
X173018834Y-97193576D02*
G01*
X173074767Y-97235448D01*
X173099184Y-97300912D01*
X173099500Y-97309758D01*
X173099500Y-97942692D01*
X173079815Y-98009731D01*
X173063181Y-98030373D01*
X172472962Y-98620591D01*
X172455925Y-98557007D01*
X172390099Y-98442993D01*
X172297007Y-98349901D01*
X172182993Y-98284075D01*
X172119409Y-98267037D01*
X172751716Y-97634728D01*
X172697547Y-97595373D01*
X172697547Y-97595372D01*
X172688500Y-97590763D01*
X172637706Y-97542788D01*
X172620912Y-97474966D01*
X172643451Y-97408832D01*
X172688508Y-97369793D01*
X172697816Y-97365051D01*
X172786096Y-97300912D01*
X172869786Y-97240109D01*
X172869788Y-97240106D01*
X172869792Y-97240104D01*
X172887819Y-97222077D01*
X172949142Y-97188592D01*
X173018834Y-97193576D01*
G37*
%TD.AperFunction*%
%TA.AperFunction,Conductor*%
G36*
X173063181Y-86769627D02*
G01*
X173096666Y-86830950D01*
X173099500Y-86857308D01*
X173099500Y-87490242D01*
X173079815Y-87557281D01*
X173027011Y-87603036D01*
X172957853Y-87612980D01*
X172894297Y-87583955D01*
X172887819Y-87577923D01*
X172869786Y-87559890D01*
X172697817Y-87434949D01*
X172688504Y-87430204D01*
X172637707Y-87382230D01*
X172620912Y-87314409D01*
X172643449Y-87248274D01*
X172688507Y-87209232D01*
X172697555Y-87204622D01*
X172751716Y-87165270D01*
X172751717Y-87165270D01*
X172119408Y-86532962D01*
X172182993Y-86515925D01*
X172297007Y-86450099D01*
X172390099Y-86357007D01*
X172455925Y-86242993D01*
X172472962Y-86179408D01*
X173063181Y-86769627D01*
G37*
%TD.AperFunction*%
%TA.AperFunction,Conductor*%
G36*
X153744075Y-86242993D02*
G01*
X153809901Y-86357007D01*
X153902993Y-86450099D01*
X154017007Y-86515925D01*
X154080590Y-86532962D01*
X153448282Y-87165269D01*
X153448282Y-87165270D01*
X153502452Y-87204626D01*
X153502451Y-87204626D01*
X153511495Y-87209234D01*
X153562292Y-87257208D01*
X153579087Y-87325029D01*
X153556550Y-87391164D01*
X153511499Y-87430202D01*
X153502182Y-87434949D01*
X153330213Y-87559890D01*
X153330209Y-87559894D01*
X153312181Y-87577923D01*
X153250858Y-87611408D01*
X153181166Y-87606424D01*
X153125233Y-87564552D01*
X153100816Y-87499088D01*
X153100500Y-87490242D01*
X153100500Y-86857308D01*
X153120185Y-86790269D01*
X153136819Y-86769627D01*
X153727037Y-86179408D01*
X153744075Y-86242993D01*
G37*
%TD.AperFunction*%
%TA.AperFunction,Conductor*%
G36*
X153305703Y-84516045D02*
G01*
X153312181Y-84522077D01*
X153330213Y-84540109D01*
X153502179Y-84665048D01*
X153502181Y-84665049D01*
X153502184Y-84665051D01*
X153511493Y-84669794D01*
X153562290Y-84717766D01*
X153579087Y-84785587D01*
X153556552Y-84851722D01*
X153511505Y-84890760D01*
X153502446Y-84895376D01*
X153502440Y-84895380D01*
X153448282Y-84934727D01*
X153448282Y-84934728D01*
X154080591Y-85567037D01*
X154017007Y-85584075D01*
X153902993Y-85649901D01*
X153809901Y-85742993D01*
X153744075Y-85857007D01*
X153727037Y-85920591D01*
X153136819Y-85330373D01*
X153103334Y-85269050D01*
X153100500Y-85242692D01*
X153100500Y-84609758D01*
X153120185Y-84542719D01*
X153172989Y-84496964D01*
X153242147Y-84487020D01*
X153305703Y-84516045D01*
G37*
%TD.AperFunction*%
%TA.AperFunction,Conductor*%
G36*
X173018834Y-84493576D02*
G01*
X173074767Y-84535448D01*
X173099184Y-84600912D01*
X173099500Y-84609758D01*
X173099500Y-85242692D01*
X173079815Y-85309731D01*
X173063181Y-85330373D01*
X172472962Y-85920591D01*
X172455925Y-85857007D01*
X172390099Y-85742993D01*
X172297007Y-85649901D01*
X172182993Y-85584075D01*
X172119408Y-85567037D01*
X172751716Y-84934728D01*
X172697547Y-84895373D01*
X172697547Y-84895372D01*
X172688500Y-84890763D01*
X172637706Y-84842788D01*
X172620912Y-84774966D01*
X172643451Y-84708832D01*
X172688508Y-84669793D01*
X172697816Y-84665051D01*
X172799529Y-84591153D01*
X172869786Y-84540109D01*
X172869788Y-84540106D01*
X172869792Y-84540104D01*
X172887819Y-84522077D01*
X172949142Y-84488592D01*
X173018834Y-84493576D01*
G37*
%TD.AperFunction*%
%TA.AperFunction,Conductor*%
G36*
X170158834Y-83732915D02*
G01*
X170214767Y-83774787D01*
X170239184Y-83840251D01*
X170239500Y-83849097D01*
X170239500Y-84508432D01*
X170219815Y-84575471D01*
X170203181Y-84596113D01*
X169724920Y-85074373D01*
X169663597Y-85107858D01*
X169593905Y-85102874D01*
X169537972Y-85061002D01*
X169523140Y-85031685D01*
X169522068Y-85032130D01*
X169459397Y-84880827D01*
X169459390Y-84880814D01*
X169371398Y-84749125D01*
X169365747Y-84731078D01*
X169355523Y-84715169D01*
X169351071Y-84684207D01*
X169350520Y-84682447D01*
X169350500Y-84680234D01*
X169350500Y-84490097D01*
X169370185Y-84423058D01*
X169386819Y-84402416D01*
X170027819Y-83761416D01*
X170089142Y-83727931D01*
X170158834Y-83732915D01*
G37*
%TD.AperFunction*%
%TA.AperFunction,Conductor*%
G36*
X157766145Y-54720185D02*
G01*
X157811900Y-54772989D01*
X157821844Y-54842147D01*
X157819580Y-54852328D01*
X157819617Y-54852336D01*
X157780000Y-55051504D01*
X157780000Y-55200000D01*
X158480000Y-55200000D01*
X158480000Y-55700000D01*
X157780000Y-55700000D01*
X157780000Y-55848495D01*
X157818427Y-56041681D01*
X157818430Y-56041693D01*
X157893807Y-56223671D01*
X157893814Y-56223684D01*
X158003248Y-56387462D01*
X158003251Y-56387466D01*
X158142533Y-56526748D01*
X158142537Y-56526751D01*
X158306315Y-56636185D01*
X158306328Y-56636192D01*
X158488308Y-56711569D01*
X158530000Y-56719862D01*
X158530000Y-55916988D01*
X158539940Y-55934205D01*
X158595795Y-55990060D01*
X158664204Y-56029556D01*
X158740504Y-56050000D01*
X158819496Y-56050000D01*
X158895796Y-56029556D01*
X158964205Y-55990060D01*
X159020060Y-55934205D01*
X159030000Y-55916988D01*
X159030000Y-56719862D01*
X159071690Y-56711569D01*
X159071692Y-56711569D01*
X159253671Y-56636192D01*
X159253684Y-56636185D01*
X159417462Y-56526751D01*
X159417466Y-56526748D01*
X159556748Y-56387466D01*
X159556751Y-56387462D01*
X159666185Y-56223684D01*
X159666192Y-56223671D01*
X159741569Y-56041693D01*
X159741572Y-56041681D01*
X159779999Y-55848495D01*
X159780000Y-55848492D01*
X159780000Y-55700000D01*
X159080000Y-55700000D01*
X159080000Y-55200000D01*
X159780000Y-55200000D01*
X159780000Y-55051508D01*
X159779999Y-55051504D01*
X159740383Y-54852336D01*
X159742159Y-54851982D01*
X159741607Y-54790637D01*
X159778851Y-54731522D01*
X159842143Y-54701926D01*
X159860894Y-54700500D01*
X166339106Y-54700500D01*
X166406145Y-54720185D01*
X166451900Y-54772989D01*
X166461844Y-54842147D01*
X166459580Y-54852328D01*
X166459617Y-54852336D01*
X166420000Y-55051504D01*
X166420000Y-55200000D01*
X167120000Y-55200000D01*
X167120000Y-55700000D01*
X166420000Y-55700000D01*
X166420000Y-55848495D01*
X166458427Y-56041681D01*
X166458430Y-56041693D01*
X166533807Y-56223671D01*
X166533814Y-56223684D01*
X166643248Y-56387462D01*
X166643251Y-56387466D01*
X166782533Y-56526748D01*
X166782537Y-56526751D01*
X166946315Y-56636185D01*
X166946328Y-56636192D01*
X167128308Y-56711569D01*
X167170000Y-56719862D01*
X167170000Y-55916988D01*
X167179940Y-55934205D01*
X167235795Y-55990060D01*
X167304204Y-56029556D01*
X167380504Y-56050000D01*
X167459496Y-56050000D01*
X167535796Y-56029556D01*
X167604205Y-55990060D01*
X167660060Y-55934205D01*
X167670000Y-55916988D01*
X167670000Y-56719862D01*
X167711690Y-56711569D01*
X167711692Y-56711569D01*
X167893671Y-56636192D01*
X167893684Y-56636185D01*
X168057462Y-56526751D01*
X168057466Y-56526748D01*
X168196748Y-56387466D01*
X168196751Y-56387462D01*
X168306185Y-56223684D01*
X168306192Y-56223671D01*
X168381569Y-56041693D01*
X168381572Y-56041681D01*
X168419999Y-55848495D01*
X168420000Y-55848492D01*
X168420000Y-55700000D01*
X167720000Y-55700000D01*
X167720000Y-55200000D01*
X168420000Y-55200000D01*
X168420000Y-55051508D01*
X168419999Y-55051504D01*
X168380383Y-54852336D01*
X168382159Y-54851982D01*
X168381607Y-54790637D01*
X168418851Y-54731522D01*
X168482143Y-54701926D01*
X168500894Y-54700500D01*
X170515500Y-54700500D01*
X170582539Y-54720185D01*
X170628294Y-54772989D01*
X170639500Y-54824500D01*
X170639500Y-56467870D01*
X170639501Y-56467876D01*
X170645908Y-56527483D01*
X170696202Y-56662328D01*
X170696206Y-56662335D01*
X170782452Y-56777544D01*
X170782455Y-56777547D01*
X170897664Y-56863793D01*
X170897671Y-56863797D01*
X171029082Y-56912810D01*
X171085016Y-56954681D01*
X171109433Y-57020145D01*
X171094582Y-57088418D01*
X171073431Y-57116673D01*
X170959889Y-57230215D01*
X170834951Y-57402179D01*
X170738444Y-57591585D01*
X170672753Y-57793760D01*
X170639500Y-58003713D01*
X170639500Y-58216286D01*
X170672752Y-58426235D01*
X170672754Y-58426243D01*
X170732911Y-58611387D01*
X170738444Y-58628414D01*
X170834951Y-58817820D01*
X170959890Y-58989786D01*
X171110211Y-59140107D01*
X171282179Y-59265048D01*
X171282181Y-59265049D01*
X171282184Y-59265051D01*
X171291493Y-59269794D01*
X171342290Y-59317766D01*
X171359087Y-59385587D01*
X171336552Y-59451722D01*
X171291505Y-59490760D01*
X171282446Y-59495376D01*
X171282440Y-59495380D01*
X171228282Y-59534727D01*
X171228282Y-59534728D01*
X171860591Y-60167037D01*
X171797007Y-60184075D01*
X171682993Y-60249901D01*
X171589901Y-60342993D01*
X171524075Y-60457007D01*
X171507037Y-60520591D01*
X170874728Y-59888282D01*
X170874727Y-59888282D01*
X170835380Y-59942439D01*
X170738904Y-60131782D01*
X170673242Y-60333869D01*
X170673242Y-60333872D01*
X170640000Y-60543753D01*
X170640000Y-60756246D01*
X170673242Y-60966127D01*
X170673242Y-60966130D01*
X170738904Y-61168217D01*
X170835375Y-61357550D01*
X170874728Y-61411716D01*
X171507037Y-60779408D01*
X171524075Y-60842993D01*
X171589901Y-60957007D01*
X171682993Y-61050099D01*
X171797007Y-61115925D01*
X171860590Y-61132962D01*
X171228282Y-61765269D01*
X171228282Y-61765270D01*
X171282452Y-61804626D01*
X171282451Y-61804626D01*
X171291495Y-61809234D01*
X171342292Y-61857208D01*
X171359087Y-61925029D01*
X171336550Y-61991164D01*
X171291499Y-62030202D01*
X171282182Y-62034949D01*
X171110213Y-62159890D01*
X170959890Y-62310213D01*
X170834951Y-62482179D01*
X170738444Y-62671585D01*
X170672753Y-62873760D01*
X170639500Y-63083713D01*
X170639500Y-63296286D01*
X170672752Y-63506235D01*
X170672754Y-63506243D01*
X170720165Y-63652159D01*
X170738444Y-63708414D01*
X170834951Y-63897820D01*
X170959890Y-64069786D01*
X171110213Y-64220109D01*
X171282182Y-64345050D01*
X171290946Y-64349516D01*
X171341742Y-64397491D01*
X171358536Y-64465312D01*
X171335998Y-64531447D01*
X171290946Y-64570484D01*
X171282182Y-64574949D01*
X171110213Y-64699890D01*
X170959890Y-64850213D01*
X170834951Y-65022179D01*
X170738444Y-65211585D01*
X170672753Y-65413760D01*
X170647932Y-65570473D01*
X170639500Y-65623713D01*
X170639500Y-65836287D01*
X170640130Y-65840263D01*
X170672753Y-66046240D01*
X170696459Y-66119199D01*
X170698454Y-66189040D01*
X170662373Y-66248873D01*
X170602720Y-66279134D01*
X170496508Y-66300261D01*
X170496498Y-66300264D01*
X170350827Y-66360602D01*
X170350814Y-66360609D01*
X170219125Y-66448602D01*
X170152447Y-66469480D01*
X170150234Y-66469500D01*
X169939057Y-66469500D01*
X169780942Y-66469500D01*
X169628215Y-66510423D01*
X169628214Y-66510423D01*
X169628212Y-66510424D01*
X169628209Y-66510425D01*
X169578096Y-66539359D01*
X169578095Y-66539360D01*
X169534689Y-66564420D01*
X169491285Y-66589479D01*
X169491282Y-66589481D01*
X168865339Y-67215425D01*
X168804016Y-67248910D01*
X168801850Y-67249361D01*
X168646508Y-67280261D01*
X168646498Y-67280264D01*
X168500827Y-67340602D01*
X168500814Y-67340609D01*
X168369711Y-67428210D01*
X168369707Y-67428213D01*
X168258213Y-67539707D01*
X168258210Y-67539711D01*
X168170609Y-67670814D01*
X168170602Y-67670827D01*
X168110264Y-67816498D01*
X168110261Y-67816510D01*
X168079500Y-67971153D01*
X168079500Y-68128846D01*
X168110261Y-68283489D01*
X168110264Y-68283501D01*
X168170602Y-68429172D01*
X168170609Y-68429185D01*
X168258210Y-68560288D01*
X168258213Y-68560292D01*
X168369707Y-68671786D01*
X168369711Y-68671789D01*
X168500814Y-68759390D01*
X168500827Y-68759397D01*
X168583117Y-68793482D01*
X168646503Y-68819737D01*
X168801153Y-68850499D01*
X168801156Y-68850500D01*
X168801158Y-68850500D01*
X168958844Y-68850500D01*
X168958845Y-68850499D01*
X169113497Y-68819737D01*
X169259179Y-68759394D01*
X169390289Y-68671789D01*
X169501789Y-68560289D01*
X169589394Y-68429179D01*
X169649737Y-68283497D01*
X169673564Y-68163713D01*
X169680638Y-68128150D01*
X169713023Y-68066239D01*
X169714518Y-68064716D01*
X170068467Y-67710767D01*
X170129788Y-67677284D01*
X170199480Y-67682268D01*
X170225037Y-67695348D01*
X170350814Y-67779390D01*
X170350827Y-67779397D01*
X170496498Y-67839735D01*
X170496503Y-67839737D01*
X170543302Y-67849046D01*
X170567945Y-67853948D01*
X170629856Y-67886332D01*
X170664430Y-67947048D01*
X170666227Y-67994963D01*
X170639500Y-68163713D01*
X170639500Y-68376286D01*
X170672753Y-68586240D01*
X170672754Y-68586244D01*
X170699150Y-68667484D01*
X170701145Y-68737325D01*
X170668900Y-68793482D01*
X165263698Y-74198685D01*
X165158688Y-74303694D01*
X165110380Y-74387365D01*
X165110378Y-74387368D01*
X165104777Y-74397071D01*
X165084435Y-74432304D01*
X165056181Y-74537753D01*
X165054876Y-74542622D01*
X165054871Y-74542637D01*
X165050191Y-74560105D01*
X165033519Y-74596898D01*
X164967077Y-74696335D01*
X164967069Y-74696349D01*
X164912381Y-74828379D01*
X164912379Y-74828385D01*
X164884500Y-74968542D01*
X164884500Y-74968545D01*
X164884500Y-75111455D01*
X164884500Y-75111457D01*
X164884499Y-75111457D01*
X164912379Y-75251614D01*
X164912381Y-75251620D01*
X164967069Y-75383650D01*
X164967074Y-75383659D01*
X165046467Y-75502478D01*
X165046470Y-75502482D01*
X165147517Y-75603529D01*
X165147521Y-75603532D01*
X165240458Y-75665631D01*
X165285263Y-75719243D01*
X165293970Y-75788568D01*
X165263816Y-75851596D01*
X165204373Y-75888315D01*
X165171567Y-75892733D01*
X164102733Y-75892733D01*
X164102717Y-75892732D01*
X164095121Y-75892732D01*
X163937006Y-75892732D01*
X163885744Y-75906468D01*
X163784277Y-75933656D01*
X163784272Y-75933659D01*
X163647353Y-76012708D01*
X163647345Y-76012714D01*
X162514213Y-77145846D01*
X162473986Y-77172725D01*
X162430829Y-77190601D01*
X162430814Y-77190609D01*
X162299711Y-77278210D01*
X162299707Y-77278213D01*
X162272181Y-77305740D01*
X162210858Y-77339225D01*
X162141166Y-77334241D01*
X162085233Y-77292369D01*
X162060816Y-77226905D01*
X162060500Y-77218059D01*
X162060500Y-75604599D01*
X162069939Y-75557146D01*
X162079735Y-75533497D01*
X162110498Y-75378842D01*
X162110498Y-75221158D01*
X162110498Y-75221155D01*
X162110497Y-75221153D01*
X162079735Y-75066503D01*
X162056417Y-75010208D01*
X162019395Y-74920827D01*
X162019388Y-74920814D01*
X161931787Y-74789711D01*
X161931784Y-74789707D01*
X161820290Y-74678213D01*
X161820286Y-74678210D01*
X161689183Y-74590609D01*
X161689170Y-74590602D01*
X161543499Y-74530264D01*
X161543487Y-74530261D01*
X161388843Y-74499500D01*
X161388840Y-74499500D01*
X161231156Y-74499500D01*
X161231153Y-74499500D01*
X161076508Y-74530261D01*
X161076496Y-74530264D01*
X160930825Y-74590602D01*
X160930812Y-74590609D01*
X160799709Y-74678210D01*
X160799705Y-74678213D01*
X160688211Y-74789707D01*
X160688208Y-74789711D01*
X160600607Y-74920814D01*
X160600600Y-74920827D01*
X160540262Y-75066498D01*
X160540259Y-75066510D01*
X160509498Y-75221153D01*
X160509498Y-75378846D01*
X160540259Y-75533489D01*
X160540262Y-75533501D01*
X160600600Y-75679172D01*
X160600607Y-75679185D01*
X160688208Y-75810288D01*
X160688211Y-75810292D01*
X160799706Y-75921787D01*
X160799709Y-75921789D01*
X160804385Y-75924913D01*
X160849193Y-75978523D01*
X160859500Y-76028019D01*
X160859500Y-80633338D01*
X160859499Y-80648351D01*
X160852732Y-80671390D01*
X160839814Y-80715382D01*
X160839810Y-80715387D01*
X160839810Y-80715389D01*
X160839808Y-80715390D01*
X160838601Y-80717234D01*
X160781287Y-80803009D01*
X160781280Y-80803022D01*
X160720942Y-80948693D01*
X160720939Y-80948705D01*
X160690178Y-81103348D01*
X160690178Y-81261041D01*
X160720939Y-81415684D01*
X160720942Y-81415696D01*
X160781280Y-81561367D01*
X160781287Y-81561380D01*
X160868888Y-81692483D01*
X160868891Y-81692487D01*
X160980385Y-81803981D01*
X160980389Y-81803984D01*
X161111492Y-81891585D01*
X161111505Y-81891592D01*
X161241855Y-81945584D01*
X161257181Y-81951932D01*
X161390048Y-81978361D01*
X161411831Y-81982694D01*
X161411834Y-81982695D01*
X161411836Y-81982695D01*
X161569519Y-81982695D01*
X161569520Y-81982695D01*
X161591306Y-81978361D01*
X161660896Y-81984587D01*
X161716075Y-82027448D01*
X161739321Y-82093338D01*
X161739499Y-82099978D01*
X161739499Y-82229054D01*
X161739498Y-82229054D01*
X161775126Y-82362020D01*
X161780423Y-82381785D01*
X161803032Y-82420944D01*
X161850958Y-82503955D01*
X161859479Y-82518714D01*
X161859481Y-82518717D01*
X161978349Y-82637585D01*
X161978355Y-82637590D01*
X162679872Y-83339107D01*
X162713357Y-83400430D01*
X162716191Y-83426788D01*
X162716191Y-84519064D01*
X162696506Y-84586103D01*
X162643702Y-84631858D01*
X162574544Y-84641802D01*
X162510988Y-84612777D01*
X162504510Y-84606745D01*
X162206120Y-84308355D01*
X162206118Y-84308352D01*
X162087247Y-84189481D01*
X162087239Y-84189475D01*
X161974585Y-84124435D01*
X161974584Y-84124434D01*
X161957525Y-84114586D01*
X161950315Y-84110423D01*
X161797587Y-84069499D01*
X161639473Y-84069499D01*
X161631877Y-84069499D01*
X161631861Y-84069500D01*
X161410697Y-84069500D01*
X161343658Y-84049815D01*
X161297903Y-83997011D01*
X161287959Y-83927853D01*
X161296136Y-83898048D01*
X161316411Y-83849097D01*
X161321884Y-83835885D01*
X161336697Y-83761416D01*
X161349765Y-83695722D01*
X161349765Y-83552807D01*
X161321885Y-83412650D01*
X161321884Y-83412649D01*
X161321884Y-83412645D01*
X161279583Y-83310523D01*
X161267195Y-83280614D01*
X161267194Y-83280612D01*
X161254016Y-83260890D01*
X161233139Y-83194215D01*
X161242558Y-83144548D01*
X161255101Y-83114267D01*
X161297619Y-83011620D01*
X161325500Y-82871455D01*
X161325500Y-82728545D01*
X161325500Y-82728543D01*
X161325500Y-82728542D01*
X161297620Y-82588385D01*
X161297619Y-82588384D01*
X161297619Y-82588380D01*
X161242929Y-82456347D01*
X161242928Y-82456346D01*
X161242925Y-82456340D01*
X161163532Y-82337521D01*
X161163529Y-82337517D01*
X161062482Y-82236470D01*
X161062478Y-82236467D01*
X160943659Y-82157074D01*
X160943650Y-82157069D01*
X160811620Y-82102381D01*
X160811614Y-82102379D01*
X160671457Y-82074500D01*
X160671455Y-82074500D01*
X160528545Y-82074500D01*
X160528543Y-82074500D01*
X160388385Y-82102379D01*
X160388379Y-82102381D01*
X160256349Y-82157069D01*
X160256340Y-82157074D01*
X160137521Y-82236467D01*
X160137517Y-82236470D01*
X160036470Y-82337517D01*
X160036467Y-82337521D01*
X159957074Y-82456340D01*
X159957069Y-82456349D01*
X159902381Y-82588379D01*
X159902379Y-82588385D01*
X159882002Y-82690826D01*
X159873237Y-82707581D01*
X159869218Y-82726059D01*
X159850474Y-82751098D01*
X159849617Y-82752737D01*
X159848067Y-82754314D01*
X159777200Y-82825183D01*
X159715878Y-82858669D01*
X159689518Y-82861503D01*
X159344078Y-82861503D01*
X159277039Y-82841818D01*
X159231284Y-82789014D01*
X159223149Y-82758833D01*
X159222198Y-82759023D01*
X159193129Y-82612888D01*
X159193128Y-82612887D01*
X159193128Y-82612883D01*
X159145510Y-82497923D01*
X159138439Y-82480852D01*
X159138434Y-82480843D01*
X159059041Y-82362024D01*
X159059038Y-82362020D01*
X158957991Y-82260973D01*
X158953280Y-82257107D01*
X158955021Y-82254984D01*
X158917888Y-82210097D01*
X158907830Y-82161176D01*
X158907830Y-82016891D01*
X158879950Y-81876734D01*
X158879949Y-81876733D01*
X158879949Y-81876729D01*
X158825259Y-81744696D01*
X158825258Y-81744695D01*
X158825255Y-81744689D01*
X158745862Y-81625870D01*
X158745859Y-81625866D01*
X158707583Y-81587590D01*
X158674098Y-81526267D01*
X158679082Y-81456575D01*
X158680691Y-81452486D01*
X158697619Y-81411620D01*
X158725500Y-81271455D01*
X158725500Y-81128545D01*
X158725500Y-81128542D01*
X158697620Y-80988385D01*
X158697619Y-80988384D01*
X158697619Y-80988380D01*
X158642929Y-80856347D01*
X158642928Y-80856346D01*
X158642925Y-80856340D01*
X158563898Y-80738068D01*
X158543020Y-80671390D01*
X158543000Y-80669177D01*
X158543000Y-69711457D01*
X163264499Y-69711457D01*
X163292379Y-69851614D01*
X163292381Y-69851620D01*
X163347069Y-69983650D01*
X163347074Y-69983659D01*
X163426467Y-70102478D01*
X163426470Y-70102482D01*
X163527517Y-70203529D01*
X163527521Y-70203532D01*
X163646340Y-70282925D01*
X163646349Y-70282930D01*
X163676258Y-70295318D01*
X163778380Y-70337619D01*
X163778384Y-70337619D01*
X163778385Y-70337620D01*
X163918542Y-70365500D01*
X163918545Y-70365500D01*
X164061457Y-70365500D01*
X164155751Y-70346742D01*
X164201620Y-70337619D01*
X164333653Y-70282929D01*
X164452479Y-70203532D01*
X164553532Y-70102479D01*
X164632929Y-69983653D01*
X164687619Y-69851620D01*
X164707997Y-69749169D01*
X164740379Y-69687262D01*
X164741874Y-69685740D01*
X166305684Y-68121930D01*
X166367005Y-68088447D01*
X166369021Y-68088026D01*
X166471620Y-68067619D01*
X166603653Y-68012929D01*
X166722479Y-67933532D01*
X166823532Y-67832479D01*
X166902929Y-67713653D01*
X166957619Y-67581620D01*
X166985500Y-67441455D01*
X166985500Y-67298545D01*
X166985500Y-67298542D01*
X166957620Y-67158385D01*
X166957619Y-67158384D01*
X166957619Y-67158380D01*
X166902929Y-67026347D01*
X166902928Y-67026346D01*
X166902925Y-67026340D01*
X166823532Y-66907521D01*
X166823529Y-66907517D01*
X166722482Y-66806470D01*
X166722478Y-66806467D01*
X166603659Y-66727074D01*
X166603650Y-66727069D01*
X166471620Y-66672381D01*
X166471614Y-66672379D01*
X166331457Y-66644500D01*
X166331455Y-66644500D01*
X166188545Y-66644500D01*
X166188543Y-66644500D01*
X166048385Y-66672379D01*
X166048379Y-66672381D01*
X165916349Y-66727069D01*
X165916340Y-66727074D01*
X165797521Y-66806467D01*
X165797517Y-66806470D01*
X165696470Y-66907517D01*
X165696467Y-66907521D01*
X165617074Y-67026340D01*
X165617069Y-67026349D01*
X165562381Y-67158379D01*
X165562379Y-67158385D01*
X165542002Y-67260827D01*
X165509617Y-67322738D01*
X165508066Y-67324316D01*
X163944316Y-68888066D01*
X163882993Y-68921551D01*
X163880827Y-68922002D01*
X163778385Y-68942379D01*
X163778379Y-68942381D01*
X163646349Y-68997069D01*
X163646340Y-68997074D01*
X163527521Y-69076467D01*
X163527517Y-69076470D01*
X163426470Y-69177517D01*
X163426467Y-69177521D01*
X163347074Y-69296340D01*
X163347069Y-69296349D01*
X163292381Y-69428379D01*
X163292379Y-69428385D01*
X163264500Y-69568542D01*
X163264500Y-69568545D01*
X163264500Y-69711455D01*
X163264500Y-69711457D01*
X163264499Y-69711457D01*
X158543000Y-69711457D01*
X158543000Y-66531153D01*
X161799500Y-66531153D01*
X161799500Y-66688846D01*
X161830261Y-66843489D01*
X161830264Y-66843501D01*
X161890602Y-66989172D01*
X161890609Y-66989185D01*
X161978210Y-67120288D01*
X161978213Y-67120292D01*
X162089707Y-67231786D01*
X162089711Y-67231789D01*
X162220814Y-67319390D01*
X162220827Y-67319397D01*
X162366498Y-67379735D01*
X162366503Y-67379737D01*
X162521153Y-67410499D01*
X162521156Y-67410500D01*
X162521158Y-67410500D01*
X162678844Y-67410500D01*
X162678845Y-67410499D01*
X162833497Y-67379737D01*
X162979179Y-67319394D01*
X163110289Y-67231789D01*
X163221789Y-67120289D01*
X163284557Y-67026349D01*
X163301272Y-67001334D01*
X163316679Y-66982555D01*
X163320520Y-66978716D01*
X163320521Y-66978713D01*
X164663927Y-65635307D01*
X164725248Y-65601824D01*
X164727415Y-65601373D01*
X164785350Y-65589848D01*
X164882762Y-65570472D01*
X165028444Y-65510129D01*
X165159554Y-65422524D01*
X165271054Y-65311024D01*
X165358659Y-65179914D01*
X165419002Y-65034232D01*
X165449765Y-64879577D01*
X165449765Y-64721893D01*
X165449765Y-64721890D01*
X165449764Y-64721888D01*
X165420536Y-64574951D01*
X165419002Y-64567238D01*
X165400476Y-64522512D01*
X165358662Y-64421562D01*
X165358655Y-64421549D01*
X165271054Y-64290446D01*
X165271051Y-64290442D01*
X165159557Y-64178948D01*
X165159553Y-64178945D01*
X165028450Y-64091344D01*
X165028437Y-64091337D01*
X164882766Y-64030999D01*
X164882754Y-64030996D01*
X164728110Y-64000235D01*
X164728107Y-64000235D01*
X164570423Y-64000235D01*
X164570420Y-64000235D01*
X164415775Y-64030996D01*
X164415763Y-64030999D01*
X164270092Y-64091337D01*
X164270079Y-64091344D01*
X164138976Y-64178945D01*
X164138972Y-64178948D01*
X164027478Y-64290442D01*
X164027475Y-64290446D01*
X163939874Y-64421549D01*
X163939867Y-64421562D01*
X163879529Y-64567233D01*
X163879526Y-64567243D01*
X163848626Y-64722585D01*
X163816241Y-64784496D01*
X163814690Y-64786074D01*
X162819478Y-65781285D01*
X162758155Y-65814770D01*
X162707605Y-65815221D01*
X162678844Y-65809500D01*
X162678842Y-65809500D01*
X162521158Y-65809500D01*
X162521155Y-65809500D01*
X162366510Y-65840261D01*
X162366498Y-65840264D01*
X162220827Y-65900602D01*
X162220814Y-65900609D01*
X162089711Y-65988210D01*
X162089707Y-65988213D01*
X161978213Y-66099707D01*
X161978210Y-66099711D01*
X161890609Y-66230814D01*
X161890602Y-66230827D01*
X161830264Y-66376498D01*
X161830261Y-66376510D01*
X161799500Y-66531153D01*
X158543000Y-66531153D01*
X158543000Y-60367265D01*
X158595795Y-60420060D01*
X158664204Y-60459556D01*
X158740504Y-60480000D01*
X158819496Y-60480000D01*
X158895796Y-60459556D01*
X158964205Y-60420060D01*
X159020060Y-60364205D01*
X159030000Y-60346988D01*
X159030000Y-61149862D01*
X159071690Y-61141569D01*
X159071692Y-61141569D01*
X159253671Y-61066192D01*
X159253684Y-61066185D01*
X159417462Y-60956751D01*
X159417466Y-60956748D01*
X159556748Y-60817466D01*
X159556751Y-60817462D01*
X159666185Y-60653684D01*
X159666192Y-60653671D01*
X159741569Y-60471693D01*
X159741572Y-60471681D01*
X159779999Y-60278495D01*
X159780000Y-60278492D01*
X159780000Y-59880000D01*
X159080000Y-59880000D01*
X159080000Y-59380000D01*
X159635536Y-59380000D01*
X159702575Y-59399685D01*
X159742923Y-59442000D01*
X159749482Y-59453361D01*
X159749484Y-59453364D01*
X159749485Y-59453365D01*
X159856635Y-59560515D01*
X159987865Y-59636281D01*
X160134234Y-59675500D01*
X160134236Y-59675500D01*
X160285764Y-59675500D01*
X160285766Y-59675500D01*
X160432135Y-59636281D01*
X160563365Y-59560515D01*
X160670515Y-59453365D01*
X160746281Y-59322135D01*
X160785500Y-59175766D01*
X160785500Y-59024234D01*
X165414500Y-59024234D01*
X165414500Y-59175765D01*
X165453719Y-59322136D01*
X165490353Y-59385587D01*
X165529485Y-59453365D01*
X165636635Y-59560515D01*
X165767865Y-59636281D01*
X165914234Y-59675500D01*
X165914236Y-59675500D01*
X166065764Y-59675500D01*
X166065766Y-59675500D01*
X166212135Y-59636281D01*
X166343365Y-59560515D01*
X166450515Y-59453365D01*
X166457077Y-59442000D01*
X166507644Y-59393784D01*
X166564464Y-59380000D01*
X167120000Y-59380000D01*
X167120000Y-59880000D01*
X166420000Y-59880000D01*
X166420000Y-60278495D01*
X166458427Y-60471681D01*
X166458430Y-60471693D01*
X166533807Y-60653671D01*
X166533814Y-60653684D01*
X166643248Y-60817462D01*
X166643251Y-60817466D01*
X166782533Y-60956748D01*
X166782537Y-60956751D01*
X166946315Y-61066185D01*
X166946328Y-61066192D01*
X167128308Y-61141569D01*
X167170000Y-61149862D01*
X167170000Y-60346988D01*
X167179940Y-60364205D01*
X167235795Y-60420060D01*
X167304204Y-60459556D01*
X167380504Y-60480000D01*
X167459496Y-60480000D01*
X167535796Y-60459556D01*
X167604205Y-60420060D01*
X167660060Y-60364205D01*
X167670000Y-60346988D01*
X167670000Y-61149862D01*
X167711690Y-61141569D01*
X167711692Y-61141569D01*
X167893671Y-61066192D01*
X167893684Y-61066185D01*
X168057462Y-60956751D01*
X168057466Y-60956748D01*
X168196748Y-60817466D01*
X168196751Y-60817462D01*
X168306185Y-60653684D01*
X168306190Y-60653675D01*
X168373395Y-60491428D01*
X168381570Y-60471688D01*
X168381572Y-60471681D01*
X168419999Y-60278495D01*
X168420000Y-60278492D01*
X168420000Y-59880000D01*
X167720000Y-59880000D01*
X167720000Y-59380000D01*
X168420000Y-59380000D01*
X168420000Y-58981508D01*
X168419999Y-58981504D01*
X168381572Y-58788318D01*
X168381569Y-58788306D01*
X168306192Y-58606328D01*
X168306185Y-58606315D01*
X168196751Y-58442537D01*
X168196748Y-58442533D01*
X168057466Y-58303251D01*
X168057462Y-58303248D01*
X167893684Y-58193814D01*
X167893671Y-58193807D01*
X167711691Y-58118429D01*
X167711683Y-58118427D01*
X167670000Y-58110135D01*
X167670000Y-58913011D01*
X167660060Y-58895795D01*
X167604205Y-58839940D01*
X167535796Y-58800444D01*
X167459496Y-58780000D01*
X167380504Y-58780000D01*
X167304204Y-58800444D01*
X167235795Y-58839940D01*
X167179940Y-58895795D01*
X167170000Y-58913011D01*
X167170000Y-58110136D01*
X167169999Y-58110135D01*
X167128316Y-58118427D01*
X167128308Y-58118429D01*
X166946328Y-58193807D01*
X166946315Y-58193814D01*
X166782537Y-58303248D01*
X166782533Y-58303251D01*
X166643248Y-58442536D01*
X166530427Y-58611387D01*
X166529003Y-58610435D01*
X166485742Y-58654451D01*
X166417600Y-58669892D01*
X166351927Y-58646041D01*
X166349907Y-58644306D01*
X166349811Y-58644432D01*
X166343367Y-58639487D01*
X166343365Y-58639485D01*
X166277750Y-58601602D01*
X166212136Y-58563719D01*
X166138950Y-58544109D01*
X166065766Y-58524500D01*
X165914234Y-58524500D01*
X165767863Y-58563719D01*
X165636635Y-58639485D01*
X165636632Y-58639487D01*
X165529487Y-58746632D01*
X165529485Y-58746635D01*
X165453719Y-58877863D01*
X165414500Y-59024234D01*
X160785500Y-59024234D01*
X160746281Y-58877865D01*
X160670515Y-58746635D01*
X160563365Y-58639485D01*
X160497750Y-58601602D01*
X160432136Y-58563719D01*
X160358950Y-58544109D01*
X160285766Y-58524500D01*
X160134234Y-58524500D01*
X159987863Y-58563719D01*
X159856635Y-58639485D01*
X159850189Y-58644432D01*
X159848099Y-58641709D01*
X159800217Y-58667466D01*
X159730558Y-58662043D01*
X159674888Y-58619821D01*
X159669299Y-58610976D01*
X159556751Y-58442537D01*
X159556748Y-58442533D01*
X159417466Y-58303251D01*
X159417462Y-58303248D01*
X159253684Y-58193814D01*
X159253671Y-58193807D01*
X159071691Y-58118429D01*
X159071683Y-58118427D01*
X159030000Y-58110135D01*
X159030000Y-58913011D01*
X159020060Y-58895795D01*
X158964205Y-58839940D01*
X158895796Y-58800444D01*
X158819496Y-58780000D01*
X158740504Y-58780000D01*
X158664204Y-58800444D01*
X158595795Y-58839940D01*
X158539940Y-58895795D01*
X158530000Y-58913011D01*
X158530000Y-58110136D01*
X158529999Y-58110135D01*
X158488316Y-58118427D01*
X158488308Y-58118429D01*
X158306328Y-58193807D01*
X158306315Y-58193814D01*
X158142537Y-58303248D01*
X158029381Y-58416404D01*
X157968058Y-58449888D01*
X157898366Y-58444904D01*
X157854019Y-58416403D01*
X155596818Y-56159202D01*
X155563333Y-56097879D01*
X155560499Y-56071521D01*
X155560499Y-54824500D01*
X155580184Y-54757461D01*
X155632988Y-54711706D01*
X155684499Y-54700500D01*
X157699106Y-54700500D01*
X157766145Y-54720185D01*
G37*
%TD.AperFunction*%
%TA.AperFunction,Conductor*%
G36*
X155355334Y-79297076D02*
G01*
X155411267Y-79338948D01*
X155435684Y-79404412D01*
X155436000Y-79413258D01*
X155436000Y-79986742D01*
X155416315Y-80053781D01*
X155363511Y-80099536D01*
X155294353Y-80109480D01*
X155230797Y-80080455D01*
X155224319Y-80074423D01*
X155089786Y-79939890D01*
X154917820Y-79814951D01*
X154917115Y-79814591D01*
X154909054Y-79810485D01*
X154858259Y-79762512D01*
X154841463Y-79694692D01*
X154863999Y-79628556D01*
X154909054Y-79589515D01*
X154917816Y-79585051D01*
X154993921Y-79529758D01*
X155089786Y-79460109D01*
X155089788Y-79460106D01*
X155089792Y-79460104D01*
X155224319Y-79325577D01*
X155285642Y-79292092D01*
X155355334Y-79297076D01*
G37*
%TD.AperFunction*%
%TA.AperFunction,Conductor*%
G36*
X169318334Y-71841795D02*
G01*
X169374267Y-71883667D01*
X169398684Y-71949131D01*
X169399000Y-71957977D01*
X169399000Y-77860605D01*
X169379315Y-77927644D01*
X169378102Y-77929495D01*
X169320077Y-78016335D01*
X169320069Y-78016349D01*
X169265381Y-78148379D01*
X169265379Y-78148385D01*
X169237500Y-78288542D01*
X169237500Y-78288545D01*
X169237500Y-78431455D01*
X169237500Y-78431457D01*
X169237499Y-78431457D01*
X169265379Y-78571614D01*
X169265381Y-78571620D01*
X169320069Y-78703650D01*
X169320074Y-78703659D01*
X169399467Y-78822478D01*
X169399470Y-78822482D01*
X169500517Y-78923529D01*
X169500521Y-78923532D01*
X169619340Y-79002925D01*
X169619346Y-79002928D01*
X169619347Y-79002929D01*
X169751380Y-79057619D01*
X169751384Y-79057619D01*
X169751385Y-79057620D01*
X169815546Y-79070383D01*
X169877457Y-79102768D01*
X169912031Y-79163484D01*
X169908291Y-79233253D01*
X169867424Y-79289925D01*
X169802406Y-79315507D01*
X169791354Y-79316000D01*
X169075747Y-79316000D01*
X168950723Y-79349499D01*
X168950722Y-79349500D01*
X168932304Y-79354435D01*
X168932303Y-79354435D01*
X168932301Y-79354436D01*
X168803699Y-79428685D01*
X168803693Y-79428689D01*
X168265640Y-79966743D01*
X168204317Y-80000228D01*
X168134625Y-79995244D01*
X168078692Y-79953372D01*
X168062737Y-79921852D01*
X168062068Y-79922130D01*
X167999397Y-79770827D01*
X167999390Y-79770814D01*
X167911398Y-79639125D01*
X167890520Y-79572447D01*
X167890500Y-79570234D01*
X167890500Y-78029060D01*
X167890501Y-78029047D01*
X167890501Y-77860944D01*
X167863496Y-77760163D01*
X167849577Y-77708216D01*
X167797287Y-77617646D01*
X167770524Y-77571290D01*
X167770518Y-77571282D01*
X166330823Y-76131588D01*
X166330821Y-76131585D01*
X166211950Y-76012714D01*
X166211949Y-76012713D01*
X166104192Y-75950500D01*
X166075018Y-75933656D01*
X165979933Y-75908177D01*
X165975154Y-75906468D01*
X165950844Y-75888775D01*
X165925166Y-75873123D01*
X165922884Y-75868426D01*
X165918662Y-75865353D01*
X165907774Y-75837321D01*
X165894637Y-75810276D01*
X165895256Y-75805091D01*
X165893366Y-75800223D01*
X165899362Y-75770754D01*
X165902932Y-75740901D01*
X165906256Y-75736874D01*
X165907298Y-75731757D01*
X165928274Y-75710207D01*
X165947418Y-75687023D01*
X165948589Y-75686316D01*
X165948588Y-75686314D01*
X166010846Y-75644713D01*
X166072479Y-75603532D01*
X166173532Y-75502479D01*
X166252929Y-75383653D01*
X166307619Y-75251620D01*
X166321432Y-75182180D01*
X166335500Y-75111457D01*
X166335500Y-74968542D01*
X166307545Y-74828006D01*
X166313772Y-74758414D01*
X166341479Y-74716135D01*
X169187321Y-71870294D01*
X169248642Y-71836811D01*
X169318334Y-71841795D01*
G37*
%TD.AperFunction*%
%TA.AperFunction,Conductor*%
G36*
X155355334Y-76757076D02*
G01*
X155411267Y-76798948D01*
X155435684Y-76864412D01*
X155436000Y-76873258D01*
X155436000Y-77446742D01*
X155416315Y-77513781D01*
X155363511Y-77559536D01*
X155294353Y-77569480D01*
X155230797Y-77540455D01*
X155224319Y-77534423D01*
X155089786Y-77399890D01*
X154917820Y-77274951D01*
X154917115Y-77274591D01*
X154909054Y-77270485D01*
X154858259Y-77222512D01*
X154841463Y-77154692D01*
X154863999Y-77088556D01*
X154909054Y-77049515D01*
X154917816Y-77045051D01*
X154993921Y-76989758D01*
X155089786Y-76920109D01*
X155089788Y-76920106D01*
X155089792Y-76920104D01*
X155224319Y-76785577D01*
X155285642Y-76752092D01*
X155355334Y-76757076D01*
G37*
%TD.AperFunction*%
%TA.AperFunction,Conductor*%
G36*
X155333677Y-74120124D02*
G01*
X155370648Y-74127891D01*
X155420405Y-74176943D01*
X155436000Y-74237145D01*
X155436000Y-74906742D01*
X155416315Y-74973781D01*
X155363511Y-75019536D01*
X155294353Y-75029480D01*
X155230797Y-75000455D01*
X155224319Y-74994423D01*
X155089786Y-74859890D01*
X154917817Y-74734949D01*
X154908504Y-74730204D01*
X154857707Y-74682230D01*
X154840912Y-74614409D01*
X154863449Y-74548274D01*
X154908507Y-74509232D01*
X154917555Y-74504622D01*
X154971716Y-74465270D01*
X154971717Y-74465270D01*
X154339408Y-73832962D01*
X154402993Y-73815925D01*
X154517007Y-73750099D01*
X154610099Y-73657007D01*
X154675925Y-73542993D01*
X154692962Y-73479408D01*
X155333677Y-74120124D01*
G37*
%TD.AperFunction*%
%TA.AperFunction,Conductor*%
G36*
X153744075Y-73542993D02*
G01*
X153809901Y-73657007D01*
X153902993Y-73750099D01*
X154017007Y-73815925D01*
X154080590Y-73832962D01*
X153448282Y-74465269D01*
X153448282Y-74465270D01*
X153502452Y-74504626D01*
X153502451Y-74504626D01*
X153511495Y-74509234D01*
X153562292Y-74557208D01*
X153579087Y-74625029D01*
X153556550Y-74691164D01*
X153511499Y-74730202D01*
X153502182Y-74734949D01*
X153330213Y-74859890D01*
X153330209Y-74859894D01*
X153312181Y-74877923D01*
X153250858Y-74911408D01*
X153181166Y-74906424D01*
X153125233Y-74864552D01*
X153100816Y-74799088D01*
X153100500Y-74790242D01*
X153100500Y-74157308D01*
X153120185Y-74090269D01*
X153136819Y-74069627D01*
X153727037Y-73479408D01*
X153744075Y-73542993D01*
G37*
%TD.AperFunction*%
%TA.AperFunction,Conductor*%
G36*
X153305703Y-71816045D02*
G01*
X153312181Y-71822077D01*
X153330213Y-71840109D01*
X153502179Y-71965048D01*
X153502181Y-71965049D01*
X153502184Y-71965051D01*
X153511493Y-71969794D01*
X153562290Y-72017766D01*
X153579087Y-72085587D01*
X153556552Y-72151722D01*
X153511505Y-72190760D01*
X153502446Y-72195376D01*
X153502440Y-72195380D01*
X153448282Y-72234727D01*
X153448282Y-72234728D01*
X154080591Y-72867037D01*
X154017007Y-72884075D01*
X153902993Y-72949901D01*
X153809901Y-73042993D01*
X153744075Y-73157007D01*
X153727037Y-73220591D01*
X153136819Y-72630373D01*
X153103334Y-72569050D01*
X153100500Y-72542692D01*
X153100500Y-71909758D01*
X153120185Y-71842719D01*
X153172989Y-71796964D01*
X153242147Y-71787020D01*
X153305703Y-71816045D01*
G37*
%TD.AperFunction*%
%TA.AperFunction,Conductor*%
G36*
X155765703Y-68083765D02*
G01*
X155772181Y-68089797D01*
X155996681Y-68314297D01*
X156030166Y-68375620D01*
X156033000Y-68401978D01*
X156033000Y-71536022D01*
X156013315Y-71603061D01*
X155960511Y-71648816D01*
X155891353Y-71658760D01*
X155827797Y-71629735D01*
X155821319Y-71623703D01*
X155531098Y-71333482D01*
X155497613Y-71272159D01*
X155500847Y-71207486D01*
X155527246Y-71126243D01*
X155560500Y-70916287D01*
X155560500Y-70703713D01*
X155527246Y-70493757D01*
X155461557Y-70291588D01*
X155365051Y-70102184D01*
X155365049Y-70102181D01*
X155365048Y-70102179D01*
X155240109Y-69930213D01*
X155089786Y-69779890D01*
X154917820Y-69654951D01*
X154917115Y-69654591D01*
X154909054Y-69650485D01*
X154858259Y-69602512D01*
X154841463Y-69534692D01*
X154863999Y-69468556D01*
X154909054Y-69429515D01*
X154917816Y-69425051D01*
X154993921Y-69369758D01*
X155089786Y-69300109D01*
X155089788Y-69300106D01*
X155089792Y-69300104D01*
X155240104Y-69149792D01*
X155240106Y-69149788D01*
X155240109Y-69149786D01*
X155365048Y-68977820D01*
X155365047Y-68977820D01*
X155365051Y-68977816D01*
X155461557Y-68788412D01*
X155527246Y-68586243D01*
X155560500Y-68376287D01*
X155560500Y-68177478D01*
X155580185Y-68110439D01*
X155632989Y-68064684D01*
X155702147Y-68054740D01*
X155765703Y-68083765D01*
G37*
%TD.AperFunction*%
%TA.AperFunction,Conductor*%
G36*
X155765203Y-60463265D02*
G01*
X155771681Y-60469297D01*
X156798681Y-61496297D01*
X156832166Y-61557620D01*
X156835000Y-61583978D01*
X156835000Y-64718022D01*
X156815315Y-64785061D01*
X156762511Y-64830816D01*
X156693353Y-64840760D01*
X156629797Y-64811735D01*
X156623319Y-64805703D01*
X155531098Y-63713482D01*
X155497613Y-63652159D01*
X155500847Y-63587486D01*
X155527246Y-63506243D01*
X155560500Y-63296287D01*
X155560500Y-63083713D01*
X155527246Y-62873757D01*
X155461557Y-62671588D01*
X155365051Y-62482184D01*
X155365049Y-62482181D01*
X155365048Y-62482179D01*
X155240109Y-62310213D01*
X155089786Y-62159890D01*
X154917817Y-62034949D01*
X154908504Y-62030204D01*
X154857707Y-61982230D01*
X154840912Y-61914409D01*
X154863449Y-61848274D01*
X154908507Y-61809232D01*
X154917555Y-61804622D01*
X154971716Y-61765270D01*
X154971717Y-61765270D01*
X154339408Y-61132962D01*
X154402993Y-61115925D01*
X154517007Y-61050099D01*
X154610099Y-60957007D01*
X154675925Y-60842993D01*
X154692962Y-60779408D01*
X155325270Y-61411717D01*
X155325270Y-61411716D01*
X155364622Y-61357554D01*
X155461095Y-61168217D01*
X155526757Y-60966130D01*
X155526757Y-60966127D01*
X155560000Y-60756246D01*
X155560000Y-60556978D01*
X155579685Y-60489939D01*
X155632489Y-60444184D01*
X155701647Y-60434240D01*
X155765203Y-60463265D01*
G37*
%TD.AperFunction*%
%TA.AperFunction,Conductor*%
G36*
X173063181Y-61369627D02*
G01*
X173096666Y-61430950D01*
X173099500Y-61457308D01*
X173099500Y-62090242D01*
X173079815Y-62157281D01*
X173027011Y-62203036D01*
X172957853Y-62212980D01*
X172894297Y-62183955D01*
X172887819Y-62177923D01*
X172869786Y-62159890D01*
X172697817Y-62034949D01*
X172688504Y-62030204D01*
X172637707Y-61982230D01*
X172620912Y-61914409D01*
X172643449Y-61848274D01*
X172688507Y-61809232D01*
X172697555Y-61804622D01*
X172751716Y-61765270D01*
X172751717Y-61765270D01*
X172119408Y-61132962D01*
X172182993Y-61115925D01*
X172297007Y-61050099D01*
X172390099Y-60957007D01*
X172455925Y-60842993D01*
X172472962Y-60779408D01*
X173063181Y-61369627D01*
G37*
%TD.AperFunction*%
%TA.AperFunction,Conductor*%
G36*
X153744075Y-60842993D02*
G01*
X153809901Y-60957007D01*
X153902993Y-61050099D01*
X154017007Y-61115925D01*
X154080590Y-61132962D01*
X153448282Y-61765269D01*
X153448282Y-61765270D01*
X153502452Y-61804626D01*
X153502451Y-61804626D01*
X153511495Y-61809234D01*
X153562292Y-61857208D01*
X153579087Y-61925029D01*
X153556550Y-61991164D01*
X153511499Y-62030202D01*
X153502182Y-62034949D01*
X153330213Y-62159890D01*
X153330209Y-62159894D01*
X153312181Y-62177923D01*
X153250858Y-62211408D01*
X153181166Y-62206424D01*
X153125233Y-62164552D01*
X153100816Y-62099088D01*
X153100500Y-62090242D01*
X153100500Y-61457308D01*
X153120185Y-61390269D01*
X153136819Y-61369627D01*
X153727037Y-60779408D01*
X153744075Y-60842993D01*
G37*
%TD.AperFunction*%
%TA.AperFunction,Conductor*%
G36*
X153228814Y-59088936D02*
G01*
X153242147Y-59087020D01*
X153262290Y-59096219D01*
X153283927Y-59100926D01*
X153301652Y-59114194D01*
X153305703Y-59116045D01*
X153312181Y-59122077D01*
X153330211Y-59140107D01*
X153502179Y-59265048D01*
X153502181Y-59265049D01*
X153502184Y-59265051D01*
X153511493Y-59269794D01*
X153562290Y-59317766D01*
X153579087Y-59385587D01*
X153556552Y-59451722D01*
X153511505Y-59490760D01*
X153502446Y-59495376D01*
X153502440Y-59495380D01*
X153448282Y-59534727D01*
X153448282Y-59534728D01*
X154080591Y-60167037D01*
X154017007Y-60184075D01*
X153902993Y-60249901D01*
X153809901Y-60342993D01*
X153744075Y-60457007D01*
X153727037Y-60520591D01*
X153136819Y-59930373D01*
X153103334Y-59869050D01*
X153100500Y-59842692D01*
X153100500Y-59209758D01*
X153106738Y-59188512D01*
X153108318Y-59166424D01*
X153116390Y-59155640D01*
X153120185Y-59142719D01*
X153136918Y-59128219D01*
X153150190Y-59110491D01*
X153162810Y-59105783D01*
X153172989Y-59096964D01*
X153194906Y-59093812D01*
X153215654Y-59086074D01*
X153228814Y-59088936D01*
G37*
%TD.AperFunction*%
%TA.AperFunction,Conductor*%
G36*
X173018834Y-59093576D02*
G01*
X173074767Y-59135448D01*
X173099184Y-59200912D01*
X173099500Y-59209758D01*
X173099500Y-59842692D01*
X173079815Y-59909731D01*
X173063181Y-59930373D01*
X172472962Y-60520591D01*
X172455925Y-60457007D01*
X172390099Y-60342993D01*
X172297007Y-60249901D01*
X172182993Y-60184075D01*
X172119409Y-60167037D01*
X172751716Y-59534728D01*
X172697547Y-59495373D01*
X172697547Y-59495372D01*
X172688500Y-59490763D01*
X172637706Y-59442788D01*
X172620912Y-59374966D01*
X172643451Y-59308832D01*
X172688508Y-59269793D01*
X172697816Y-59265051D01*
X172773921Y-59209758D01*
X172869789Y-59140107D01*
X172869789Y-59140105D01*
X172869792Y-59140104D01*
X172887819Y-59122077D01*
X172949142Y-59088592D01*
X173018834Y-59093576D01*
G37*
%TD.AperFunction*%
%TD*%
M02*
