%TF.GenerationSoftware,KiCad,Pcbnew,10.0.3*%
%TF.CreationDate,2026-06-26T08:43:05-05:00*%
%TF.ProjectId,digital-name-tag,64696769-7461-46c2-9d6e-616d652d7461,rev?*%
%TF.SameCoordinates,Original*%
%TF.FileFunction,Copper,L1,Top*%
%TF.FilePolarity,Positive*%
%FSLAX46Y46*%
G04 Gerber Fmt 4.6, Leading zero omitted, Abs format (unit mm)*
G04 Created by KiCad (PCBNEW 10.0.3) date 2026-06-26 08:43:05*
%MOMM*%
%LPD*%
G01*
G04 APERTURE LIST*
G04 Aperture macros list*
%AMRoundRect*
0 Rectangle with rounded corners*
0 $1 Rounding radius*
0 $2 $3 $4 $5 $6 $7 $8 $9 X,Y pos of 4 corners*
0 Add a 4 corners polygon primitive as box body*
4,1,4,$2,$3,$4,$5,$6,$7,$8,$9,$2,$3,0*
0 Add four circle primitives for the rounded corners*
1,1,$1+$1,$2,$3*
1,1,$1+$1,$4,$5*
1,1,$1+$1,$6,$7*
1,1,$1+$1,$8,$9*
0 Add four rect primitives between the rounded corners*
20,1,$1+$1,$2,$3,$4,$5,0*
20,1,$1+$1,$4,$5,$6,$7,0*
20,1,$1+$1,$6,$7,$8,$9,0*
20,1,$1+$1,$8,$9,$2,$3,0*%
G04 Aperture macros list end*
%TA.AperFunction,SMDPad,CuDef*%
%ADD10RoundRect,0.140000X-0.140000X-0.170000X0.140000X-0.170000X0.140000X0.170000X-0.140000X0.170000X0*%
%TD*%
%TA.AperFunction,SMDPad,CuDef*%
%ADD11RoundRect,0.140000X-0.170000X0.140000X-0.170000X-0.140000X0.170000X-0.140000X0.170000X0.140000X0*%
%TD*%
%TA.AperFunction,SMDPad,CuDef*%
%ADD12RoundRect,0.250000X0.450000X0.350000X-0.450000X0.350000X-0.450000X-0.350000X0.450000X-0.350000X0*%
%TD*%
%TA.AperFunction,SMDPad,CuDef*%
%ADD13RoundRect,0.135000X-0.185000X0.135000X-0.185000X-0.135000X0.185000X-0.135000X0.185000X0.135000X0*%
%TD*%
%TA.AperFunction,SMDPad,CuDef*%
%ADD14RoundRect,0.050000X-0.387500X-0.050000X0.387500X-0.050000X0.387500X0.050000X-0.387500X0.050000X0*%
%TD*%
%TA.AperFunction,SMDPad,CuDef*%
%ADD15RoundRect,0.050000X-0.050000X-0.387500X0.050000X-0.387500X0.050000X0.387500X-0.050000X0.387500X0*%
%TD*%
%TA.AperFunction,HeatsinkPad*%
%ADD16R,3.200000X3.200000*%
%TD*%
%TA.AperFunction,SMDPad,CuDef*%
%ADD17RoundRect,0.200000X0.200000X0.800000X-0.200000X0.800000X-0.200000X-0.800000X0.200000X-0.800000X0*%
%TD*%
%TA.AperFunction,SMDPad,CuDef*%
%ADD18RoundRect,0.135000X0.135000X0.185000X-0.135000X0.185000X-0.135000X-0.185000X0.135000X-0.185000X0*%
%TD*%
%TA.AperFunction,SMDPad,CuDef*%
%ADD19RoundRect,0.135000X-0.135000X-0.185000X0.135000X-0.185000X0.135000X0.185000X-0.135000X0.185000X0*%
%TD*%
%TA.AperFunction,SMDPad,CuDef*%
%ADD20RoundRect,0.150000X0.150000X-0.587500X0.150000X0.587500X-0.150000X0.587500X-0.150000X-0.587500X0*%
%TD*%
%TA.AperFunction,SMDPad,CuDef*%
%ADD21RoundRect,0.100000X0.155000X0.100000X-0.155000X0.100000X-0.155000X-0.100000X0.155000X-0.100000X0*%
%TD*%
%TA.AperFunction,SMDPad,CuDef*%
%ADD22RoundRect,0.218750X-0.256250X0.218750X-0.256250X-0.218750X0.256250X-0.218750X0.256250X0.218750X0*%
%TD*%
%TA.AperFunction,SMDPad,CuDef*%
%ADD23RoundRect,0.140000X0.170000X-0.140000X0.170000X0.140000X-0.170000X0.140000X-0.170000X-0.140000X0*%
%TD*%
%TA.AperFunction,SMDPad,CuDef*%
%ADD24RoundRect,0.225000X0.250000X-0.225000X0.250000X0.225000X-0.250000X0.225000X-0.250000X-0.225000X0*%
%TD*%
%TA.AperFunction,SMDPad,CuDef*%
%ADD25R,0.600000X1.450000*%
%TD*%
%TA.AperFunction,SMDPad,CuDef*%
%ADD26R,0.300000X1.450000*%
%TD*%
%TA.AperFunction,HeatsinkPad*%
%ADD27O,1.000000X2.100000*%
%TD*%
%TA.AperFunction,HeatsinkPad*%
%ADD28O,1.000000X1.600000*%
%TD*%
%TA.AperFunction,SMDPad,CuDef*%
%ADD29R,0.600000X0.280000*%
%TD*%
%TA.AperFunction,SMDPad,CuDef*%
%ADD30R,0.300000X1.700000*%
%TD*%
%TA.AperFunction,SMDPad,CuDef*%
%ADD31RoundRect,0.140000X0.140000X0.170000X-0.140000X0.170000X-0.140000X-0.170000X0.140000X-0.170000X0*%
%TD*%
%TA.AperFunction,SMDPad,CuDef*%
%ADD32RoundRect,0.225000X-0.225000X-0.250000X0.225000X-0.250000X0.225000X0.250000X-0.225000X0.250000X0*%
%TD*%
%TA.AperFunction,ComponentPad*%
%ADD33R,1.700000X1.700000*%
%TD*%
%TA.AperFunction,ComponentPad*%
%ADD34C,1.700000*%
%TD*%
%TA.AperFunction,ViaPad*%
%ADD35C,0.600000*%
%TD*%
%TA.AperFunction,ViaPad*%
%ADD36C,0.450000*%
%TD*%
%TA.AperFunction,Conductor*%
%ADD37C,0.200000*%
%TD*%
%TA.AperFunction,Conductor*%
%ADD38C,0.150000*%
%TD*%
%TA.AperFunction,Conductor*%
%ADD39C,0.127000*%
%TD*%
G04 APERTURE END LIST*
D10*
%TO.P,C10,1*%
%TO.N,+1V1*%
X167920000Y-80200000D03*
%TO.P,C10,2*%
%TO.N,GND*%
X168880000Y-80200000D03*
%TD*%
D11*
%TO.P,C7,1*%
%TO.N,+3V3*%
X167800000Y-89120000D03*
%TO.P,C7,2*%
%TO.N,GND*%
X167800000Y-90080000D03*
%TD*%
D12*
%TO.P,Y1,1,1_1*%
%TO.N,Net-(C16-Pad2)*%
X162300000Y-90750000D03*
%TO.P,Y1,2,G_2*%
%TO.N,GND*%
X160100000Y-90750000D03*
%TO.P,Y1,3,3_3*%
%TO.N,XIN*%
X160100000Y-92450000D03*
%TO.P,Y1,4,G_4*%
%TO.N,GND*%
X162300000Y-92450000D03*
%TD*%
D13*
%TO.P,R7,1*%
%TO.N,Net-(R7-Pad1)*%
X157290000Y-73290000D03*
%TO.P,R7,2*%
%TO.N,~{QSPI_SS}*%
X157290000Y-74310000D03*
%TD*%
%TO.P,R9,1*%
%TO.N,Net-(Q1-D)*%
X168400000Y-65490000D03*
%TO.P,R9,2*%
%TO.N,GND*%
X168400000Y-66510000D03*
%TD*%
D14*
%TO.P,U1,1,IOVDD_1*%
%TO.N,+3V3*%
X159662500Y-81100000D03*
%TO.P,U1,2,GPIO0_2*%
%TO.N,GPIO0*%
X159662500Y-81500000D03*
%TO.P,U1,3,GPIO1_3*%
%TO.N,GPIO1*%
X159662500Y-81900000D03*
%TO.P,U1,4,GPIO2_4*%
%TO.N,GPIO2*%
X159662500Y-82300000D03*
%TO.P,U1,5,GPIO3_5*%
%TO.N,GPIO3*%
X159662500Y-82700000D03*
%TO.P,U1,6,GPIO4_6*%
%TO.N,GPIO4*%
X159662500Y-83100000D03*
%TO.P,U1,7,GPIO5_7*%
%TO.N,GPIO5*%
X159662500Y-83500000D03*
%TO.P,U1,8,GPIO6_8*%
%TO.N,GPIO6*%
X159662500Y-83900000D03*
%TO.P,U1,9,GPIO7_9*%
%TO.N,GPIO7*%
X159662500Y-84300000D03*
%TO.P,U1,10,IOVDD_10*%
%TO.N,+3V3*%
X159662500Y-84700000D03*
%TO.P,U1,11,GPIO8_11*%
%TO.N,GPIO8*%
X159662500Y-85100000D03*
%TO.P,U1,12,GPIO9_12*%
%TO.N,GPIO9*%
X159662500Y-85500000D03*
%TO.P,U1,13,GPIO10_13*%
%TO.N,GPIO10*%
X159662500Y-85900000D03*
%TO.P,U1,14,GPIO11_14*%
%TO.N,GPIO11*%
X159662500Y-86300000D03*
D15*
%TO.P,U1,15,GPIO12_15*%
%TO.N,GPIO12*%
X160500000Y-87137500D03*
%TO.P,U1,16,GPIO13_16*%
%TO.N,GPIO13*%
X160900000Y-87137500D03*
%TO.P,U1,17,GPIO14_17*%
%TO.N,GPIO14*%
X161300000Y-87137500D03*
%TO.P,U1,18,GPIO15_18*%
%TO.N,GPIO15*%
X161700000Y-87137500D03*
%TO.P,U1,19,TESTEN_19*%
%TO.N,GND*%
X162100000Y-87137500D03*
%TO.P,U1,20,XIN_20*%
%TO.N,XIN*%
X162500000Y-87137500D03*
%TO.P,U1,21,XOUT_21*%
%TO.N,XOUT*%
X162900000Y-87137500D03*
%TO.P,U1,22,IOVDD_22*%
%TO.N,+3V3*%
X163300000Y-87137500D03*
%TO.P,U1,23,DVDD_23*%
%TO.N,+1V1*%
X163700000Y-87137500D03*
%TO.P,U1,24,SWCLK_24*%
%TO.N,SWCLK*%
X164100000Y-87137500D03*
%TO.P,U1,25,SWDIO_25*%
%TO.N,SWDIO*%
X164500000Y-87137500D03*
%TO.P,U1,26,RUN_26*%
%TO.N,RUN*%
X164900000Y-87137500D03*
%TO.P,U1,27,GPIO16_27*%
%TO.N,GPIO16*%
X165300000Y-87137500D03*
%TO.P,U1,28,GPIO17_28*%
%TO.N,GPIO17*%
X165700000Y-87137500D03*
D14*
%TO.P,U1,29,GPIO18_29*%
%TO.N,GPIO18*%
X166537500Y-86300000D03*
%TO.P,U1,30,GPIO19_30*%
%TO.N,GPIO19*%
X166537500Y-85900000D03*
%TO.P,U1,31,GPIO20_31*%
%TO.N,GPIO20*%
X166537500Y-85500000D03*
%TO.P,U1,32,GPIO21_32*%
%TO.N,GPIO21*%
X166537500Y-85100000D03*
%TO.P,U1,33,IOVDD_33*%
%TO.N,+3V3*%
X166537500Y-84700000D03*
%TO.P,U1,34,GPIO22_34*%
%TO.N,GPIO22*%
X166537500Y-84300000D03*
%TO.P,U1,35,GPIO23_35*%
%TO.N,GPIO23*%
X166537500Y-83900000D03*
%TO.P,U1,36,GPIO24_36*%
%TO.N,GPIO24*%
X166537500Y-83500000D03*
%TO.P,U1,37,GPIO25_37*%
%TO.N,GPIO25*%
X166537500Y-83100000D03*
%TO.P,U1,38,GPIO26/ADC0_38*%
%TO.N,GPIO26_ADC0*%
X166537500Y-82700000D03*
%TO.P,U1,39,GPIO27/ADC1_39*%
%TO.N,GPIO27_ADC1*%
X166537500Y-82300000D03*
%TO.P,U1,40,GPIO28/ADC2_40*%
%TO.N,GPIO28_ADC2*%
X166537500Y-81900000D03*
%TO.P,U1,41,GPIO29/ADC3_41*%
%TO.N,GPIO29_ADC3*%
X166537500Y-81500000D03*
%TO.P,U1,42,IOVDD_42*%
%TO.N,+3V3*%
X166537500Y-81100000D03*
D15*
%TO.P,U1,43,ADC_AVDD_43*%
X165700000Y-80262500D03*
%TO.P,U1,44,VREG_VIN_44*%
X165300000Y-80262500D03*
%TO.P,U1,45,VREG_VOUT_45*%
%TO.N,+1V1*%
X164900000Y-80262500D03*
%TO.P,U1,46,USB_DM_46*%
%TO.N,Net-(U1-USB_DM)*%
X164500000Y-80262500D03*
%TO.P,U1,47,USB_DP_47*%
%TO.N,Net-(U1-USB_DP)*%
X164100000Y-80262500D03*
%TO.P,U1,48,USB_VDD_48*%
%TO.N,+3V3*%
X163700000Y-80262500D03*
%TO.P,U1,49,IOVDD_49*%
X163300000Y-80262500D03*
%TO.P,U1,50,DVDD_50*%
%TO.N,+1V1*%
X162900000Y-80262500D03*
%TO.P,U1,51,QSPI_SD3_51*%
%TO.N,QSPI_SD3*%
X162500000Y-80262500D03*
%TO.P,U1,52,QSPI_SCLK_52*%
%TO.N,QSPI_SCLK*%
X162100000Y-80262500D03*
%TO.P,U1,53,QSPI_SD0_53*%
%TO.N,QSPI_SD0*%
X161700000Y-80262500D03*
%TO.P,U1,54,QSPI_SD2_54*%
%TO.N,QSPI_SD2*%
X161300000Y-80262500D03*
%TO.P,U1,55,QSPI_SD1_55*%
%TO.N,QSPI_SD1*%
X160900000Y-80262500D03*
%TO.P,U1,56,~{QSPI_SS}_56*%
%TO.N,~{QSPI_SS}*%
X160500000Y-80262500D03*
D16*
%TO.P,U1,57,GND_57*%
%TO.N,GND*%
X163100000Y-83700000D03*
%TD*%
D11*
%TO.P,C8,1*%
%TO.N,+3V3*%
X166790000Y-89130000D03*
%TO.P,C8,2*%
%TO.N,GND*%
X166790000Y-90090000D03*
%TD*%
D13*
%TO.P,R4,1*%
%TO.N,D+*%
X163800000Y-77690000D03*
%TO.P,R4,2*%
%TO.N,Net-(U1-USB_DP)*%
X163800000Y-78710000D03*
%TD*%
D17*
%TO.P,SW1,1,1_1*%
%TO.N,GND*%
X162300000Y-71150000D03*
%TO.P,SW1,2,2_2*%
%TO.N,Net-(R7-Pad1)*%
X158100000Y-71150000D03*
%TD*%
D11*
%TO.P,C3,1*%
%TO.N,+3V3*%
X163820000Y-89120000D03*
%TO.P,C3,2*%
%TO.N,GND*%
X163820000Y-90080000D03*
%TD*%
D13*
%TO.P,R6,1*%
%TO.N,+3V3*%
X158290000Y-73290000D03*
%TO.P,R6,2*%
%TO.N,~{QSPI_SS}*%
X158290000Y-74310000D03*
%TD*%
D11*
%TO.P,C15,1*%
%TO.N,GND*%
X158580000Y-91100000D03*
%TO.P,C15,2*%
%TO.N,XIN*%
X158580000Y-92060000D03*
%TD*%
D18*
%TO.P,R10,1*%
%TO.N,GPIO25*%
X169510000Y-77000000D03*
%TO.P,R10,2*%
%TO.N,Net-(D1-A)*%
X168490000Y-77000000D03*
%TD*%
D19*
%TO.P,R5,1*%
%TO.N,Net-(C16-Pad2)*%
X161830000Y-89320000D03*
%TO.P,R5,2*%
%TO.N,XOUT*%
X162850000Y-89320000D03*
%TD*%
D20*
%TO.P,U2,1,GND_1*%
%TO.N,GND*%
X158050000Y-67137500D03*
%TO.P,U2,2,VO_2*%
%TO.N,+3V3*%
X159950000Y-67137500D03*
%TO.P,U2,3,VI_3*%
%TO.N,VBUS*%
X159000000Y-65262500D03*
%TD*%
D21*
%TO.P,Q1,1,G_1*%
%TO.N,+3V3*%
X165755000Y-64100000D03*
%TO.P,Q1,2,S_2*%
%TO.N,GPIO29_ADC3*%
X165755000Y-65100000D03*
%TO.P,Q1,3,D_3*%
%TO.N,Net-(Q1-D)*%
X167045000Y-64600000D03*
%TD*%
D11*
%TO.P,C6,1*%
%TO.N,+3V3*%
X164800000Y-89120000D03*
%TO.P,C6,2*%
%TO.N,GND*%
X164800000Y-90080000D03*
%TD*%
D19*
%TO.P,R2,1*%
%TO.N,Net-(J1-CC1)*%
X164490000Y-62400000D03*
%TO.P,R2,2*%
%TO.N,GND*%
X165510000Y-62400000D03*
%TD*%
D22*
%TO.P,D1,1,K_1*%
%TO.N,GND*%
X168000000Y-73612500D03*
%TO.P,D1,2,A_2*%
%TO.N,Net-(D1-A)*%
X168000000Y-75187500D03*
%TD*%
D10*
%TO.P,C18,1*%
%TO.N,Net-(Q1-D)*%
X168520000Y-64600000D03*
%TO.P,C18,2*%
%TO.N,GND*%
X169480000Y-64600000D03*
%TD*%
D23*
%TO.P,C5,1*%
%TO.N,+3V3*%
X165800000Y-78680000D03*
%TO.P,C5,2*%
%TO.N,GND*%
X165800000Y-77720000D03*
%TD*%
D24*
%TO.P,C14,1*%
%TO.N,+3V3*%
X161600000Y-67375000D03*
%TO.P,C14,2*%
%TO.N,GND*%
X161600000Y-65825000D03*
%TD*%
D10*
%TO.P,C11,1*%
%TO.N,+1V1*%
X167920000Y-81120000D03*
%TO.P,C11,2*%
%TO.N,GND*%
X168880000Y-81120000D03*
%TD*%
%TO.P,C12,1*%
%TO.N,+1V1*%
X167960000Y-84380000D03*
%TO.P,C12,2*%
%TO.N,GND*%
X168920000Y-84380000D03*
%TD*%
D25*
%TO.P,J1,A1,GND_A1*%
%TO.N,GND*%
X166350000Y-60545000D03*
%TO.P,J1,A4,VBUS_A4*%
%TO.N,VBUS*%
X165550000Y-60545000D03*
D26*
%TO.P,J1,A5,CC1_A5*%
%TO.N,Net-(J1-CC1)*%
X164350000Y-60545000D03*
%TO.P,J1,A6,D+_A6*%
%TO.N,D+*%
X163350000Y-60545000D03*
%TO.P,J1,A7,D-_A7*%
%TO.N,D-*%
X162850000Y-60545000D03*
%TO.P,J1,A8*%
%TO.N,N/C*%
X161850000Y-60545000D03*
D25*
%TO.P,J1,A9,VBUS_A9*%
%TO.N,VBUS*%
X160650000Y-60545000D03*
%TO.P,J1,A12,GND_A12*%
%TO.N,GND*%
X159850000Y-60545000D03*
%TO.P,J1,B1,GND_B1*%
X159850000Y-60545000D03*
%TO.P,J1,B4,VBUS_B4*%
%TO.N,VBUS*%
X160650000Y-60545000D03*
D26*
%TO.P,J1,B5,CC2_B5*%
%TO.N,Net-(J1-CC2)*%
X161350000Y-60545000D03*
%TO.P,J1,B6,D+_B6*%
%TO.N,D+*%
X162350000Y-60545000D03*
%TO.P,J1,B7,D-_B7*%
%TO.N,D-*%
X163850000Y-60545000D03*
%TO.P,J1,B8*%
%TO.N,N/C*%
X164850000Y-60545000D03*
D25*
%TO.P,J1,B9,VBUS_B9*%
%TO.N,VBUS*%
X165550000Y-60545000D03*
%TO.P,J1,B12,GND_B12*%
%TO.N,GND*%
X166350000Y-60545000D03*
D27*
%TO.P,J1,S1,SHIELD_S1*%
X167420000Y-59630000D03*
D28*
X167420000Y-55450000D03*
D27*
X158780000Y-59630000D03*
D28*
X158780000Y-55450000D03*
%TD*%
D13*
%TO.P,R3,1*%
%TO.N,D-*%
X164800000Y-77690000D03*
%TO.P,R3,2*%
%TO.N,Net-(U1-USB_DM)*%
X164800000Y-78710000D03*
%TD*%
D23*
%TO.P,C2,1*%
%TO.N,+3V3*%
X167800000Y-79280000D03*
%TO.P,C2,2*%
%TO.N,GND*%
X167800000Y-78320000D03*
%TD*%
D18*
%TO.P,R1,1*%
%TO.N,Net-(J1-CC2)*%
X161290000Y-62310000D03*
%TO.P,R1,2*%
%TO.N,GND*%
X160270000Y-62310000D03*
%TD*%
D29*
%TO.P,U3,1,~{CS}_1*%
%TO.N,~{QSPI_SS}*%
X159090000Y-74400000D03*
%TO.P,U3,2,DO(IO1)_2*%
%TO.N,QSPI_SD1*%
X159090000Y-74900000D03*
%TO.P,U3,3,WP#(IO2)_3*%
%TO.N,QSPI_SD2*%
X159090000Y-75400000D03*
%TO.P,U3,4,GND_4*%
%TO.N,GND*%
X159090000Y-75900000D03*
%TO.P,U3,5,DI(IO0)_5*%
%TO.N,QSPI_SD0*%
X162110000Y-75900000D03*
%TO.P,U3,6,CLK_6*%
%TO.N,QSPI_SCLK*%
X162110000Y-75400000D03*
%TO.P,U3,7,HOLD#orRESET#(IO3)_7*%
%TO.N,QSPI_SD3*%
X162110000Y-74900000D03*
%TO.P,U3,8,VCC_8*%
%TO.N,+3V3*%
X162110000Y-74400000D03*
D30*
%TO.P,U3,9,EP_9*%
%TO.N,unconnected-(U3-EP-Pad9)*%
X160600000Y-75150000D03*
%TD*%
D23*
%TO.P,C1,1*%
%TO.N,+3V3*%
X166800000Y-78680000D03*
%TO.P,C1,2*%
%TO.N,GND*%
X166800000Y-77720000D03*
%TD*%
D11*
%TO.P,C9,1*%
%TO.N,+3V3*%
X165800000Y-89120000D03*
%TO.P,C9,2*%
%TO.N,GND*%
X165800000Y-90080000D03*
%TD*%
D23*
%TO.P,C16,1*%
%TO.N,GND*%
X163840000Y-92070000D03*
%TO.P,C16,2*%
%TO.N,Net-(C16-Pad2)*%
X163840000Y-91110000D03*
%TD*%
D31*
%TO.P,C17,1*%
%TO.N,+3V3*%
X162080000Y-73600000D03*
%TO.P,C17,2*%
%TO.N,GND*%
X161120000Y-73600000D03*
%TD*%
D13*
%TO.P,R8,1*%
%TO.N,VSYS*%
X168600000Y-62490000D03*
%TO.P,R8,2*%
%TO.N,Net-(Q1-D)*%
X168600000Y-63510000D03*
%TD*%
D23*
%TO.P,C4,1*%
%TO.N,+3V3*%
X168770000Y-79240000D03*
%TO.P,C4,2*%
%TO.N,GND*%
X168770000Y-78280000D03*
%TD*%
D32*
%TO.P,C13,1*%
%TO.N,VBUS*%
X160425000Y-64200000D03*
%TO.P,C13,2*%
%TO.N,GND*%
X161975000Y-64200000D03*
%TD*%
D33*
%TO.P,J4,1,Pin_1_1*%
%TO.N,SWCLK*%
X160560000Y-103590000D03*
D34*
%TO.P,J4,2,Pin_2_2*%
%TO.N,GND*%
X163100000Y-103590000D03*
%TO.P,J4,3,Pin_3_3*%
%TO.N,SWDIO*%
X165640000Y-103590000D03*
%TD*%
D33*
%TO.P,J2,1,Pin_1_1*%
%TO.N,GPIO0*%
X154210000Y-55570000D03*
D34*
%TO.P,J2,2,Pin_2_2*%
%TO.N,GPIO1*%
X154210000Y-58110000D03*
%TO.P,J2,3,Pin_3_3*%
%TO.N,GND*%
X154210000Y-60650000D03*
%TO.P,J2,4,Pin_4_4*%
%TO.N,GPIO2*%
X154210000Y-63190000D03*
%TO.P,J2,5,Pin_5_5*%
%TO.N,GPIO3*%
X154210000Y-65730000D03*
%TO.P,J2,6,Pin_6_6*%
%TO.N,GPIO4*%
X154210000Y-68270000D03*
%TO.P,J2,7,Pin_7_7*%
%TO.N,GPIO5*%
X154210000Y-70810000D03*
%TO.P,J2,8,Pin_8_8*%
%TO.N,GND*%
X154210000Y-73350000D03*
%TO.P,J2,9,Pin_9_9*%
%TO.N,GPIO6*%
X154210000Y-75890000D03*
%TO.P,J2,10,Pin_10_10*%
%TO.N,GPIO7*%
X154210000Y-78430000D03*
%TO.P,J2,11,Pin_11_11*%
%TO.N,GPIO8*%
X154210000Y-80970000D03*
%TO.P,J2,12,Pin_12_12*%
%TO.N,GPIO9*%
X154210000Y-83510000D03*
%TO.P,J2,13,Pin_13_13*%
%TO.N,GND*%
X154210000Y-86050000D03*
%TO.P,J2,14,Pin_14_14*%
%TO.N,GPIO10*%
X154210000Y-88590000D03*
%TO.P,J2,15,Pin_15_15*%
%TO.N,GPIO11*%
X154210000Y-91130000D03*
%TO.P,J2,16,Pin_16_16*%
%TO.N,GPIO12*%
X154210000Y-93670000D03*
%TO.P,J2,17,Pin_17_17*%
%TO.N,GPIO13*%
X154210000Y-96210000D03*
%TO.P,J2,18,Pin_18_18*%
%TO.N,GND*%
X154210000Y-98750000D03*
%TO.P,J2,19,Pin_19_19*%
%TO.N,GPIO14*%
X154210000Y-101290000D03*
%TO.P,J2,20,Pin_20_20*%
%TO.N,GPIO15*%
X154210000Y-103830000D03*
%TD*%
D33*
%TO.P,J3,1,Pin_1_1*%
%TO.N,VBUS*%
X171990000Y-55570000D03*
D34*
%TO.P,J3,2,Pin_2_2*%
%TO.N,VSYS*%
X171990000Y-58110000D03*
%TO.P,J3,3,Pin_3_3*%
%TO.N,GND*%
X171990000Y-60650000D03*
%TO.P,J3,4,Pin_4_4*%
%TO.N,GPIO28_ADC2*%
X171990000Y-63190000D03*
%TO.P,J3,5,Pin_5_5*%
%TO.N,+3V3*%
X171990000Y-65730000D03*
%TO.P,J3,6,Pin_6_6*%
%TO.N,GPIO27_ADC1*%
X171990000Y-68270000D03*
%TO.P,J3,7,Pin_7_7*%
%TO.N,GPIO26_ADC0*%
X171990000Y-70810000D03*
%TO.P,J3,8,Pin_8_8*%
%TO.N,GND*%
X171990000Y-73350000D03*
%TO.P,J3,9,Pin_9_9*%
%TO.N,GPIO23*%
X171990000Y-75890000D03*
%TO.P,J3,10,Pin_10_10*%
%TO.N,GPIO24*%
X171990000Y-78430000D03*
%TO.P,J3,11,Pin_11_11*%
%TO.N,RUN*%
X171990000Y-80970000D03*
%TO.P,J3,12,Pin_12_12*%
%TO.N,GPIO22*%
X171990000Y-83510000D03*
%TO.P,J3,13,Pin_13_13*%
%TO.N,GND*%
X171990000Y-86050000D03*
%TO.P,J3,14,Pin_14_14*%
%TO.N,GPIO21*%
X171990000Y-88590000D03*
%TO.P,J3,15,Pin_15_15*%
%TO.N,GPIO20*%
X171990000Y-91130000D03*
%TO.P,J3,16,Pin_16_16*%
%TO.N,GPIO19*%
X171990000Y-93670000D03*
%TO.P,J3,17,Pin_17_17*%
%TO.N,GPIO18*%
X171990000Y-96210000D03*
%TO.P,J3,18,Pin_18_18*%
%TO.N,GND*%
X171990000Y-98750000D03*
%TO.P,J3,19,Pin_19_19*%
%TO.N,GPIO17*%
X171990000Y-101290000D03*
%TO.P,J3,20,Pin_20_20*%
%TO.N,GPIO16*%
X171990000Y-103830000D03*
%TD*%
D35*
%TO.N,+1V1*%
X170030000Y-82910000D03*
X164390000Y-81210000D03*
X162810000Y-77900000D03*
X164370000Y-85890000D03*
X167290000Y-80150000D03*
X168750000Y-85260000D03*
%TO.N,GND*%
X162400000Y-69000000D03*
X168400000Y-94000000D03*
X169800000Y-85000000D03*
X159089000Y-76600000D03*
X166680000Y-76020000D03*
X155997000Y-68800000D03*
X164400000Y-104400000D03*
X169670000Y-61770000D03*
X159600000Y-69000000D03*
X166600000Y-63260000D03*
X169800000Y-97200000D03*
X167230000Y-62450000D03*
X158000000Y-95000000D03*
X160200000Y-73600000D03*
X156600000Y-64400000D03*
X169310000Y-66230000D03*
X159000000Y-89800000D03*
X167000000Y-71000000D03*
X162600000Y-63000000D03*
X169000000Y-57800000D03*
X166000000Y-100800000D03*
X160960634Y-85609163D03*
X155800000Y-71400000D03*
%TO.N,+3V3*%
X162848529Y-85799999D03*
X164649265Y-64800735D03*
X162600000Y-66610000D03*
X168880000Y-68050000D03*
X170730000Y-67070000D03*
X165400000Y-85100000D03*
X161309998Y-75300000D03*
X160770000Y-84670000D03*
X161490678Y-81182195D03*
X166690000Y-79520000D03*
D36*
%TO.N,GPIO0*%
X158000000Y-81200000D03*
%TO.N,GPIO1*%
X158182330Y-82088349D03*
%TO.N,GPIO2*%
X158495509Y-82824503D03*
%TO.N,GPIO3*%
X160600000Y-82800000D03*
%TO.N,GPIO5*%
X160624265Y-83624265D03*
%TO.N,GPIO14*%
X160424265Y-89024265D03*
%TO.N,GPIO15*%
X161500000Y-86200000D03*
D35*
%TO.N,SWCLK*%
X163904322Y-88161892D03*
%TO.N,SWDIO*%
X164700000Y-88290000D03*
D36*
%TO.N,RUN*%
X165254159Y-86275000D03*
%TO.N,GPIO16*%
X165460718Y-88042394D03*
X165840000Y-92040000D03*
%TO.N,GPIO17*%
X166780000Y-91320000D03*
X166650000Y-88170000D03*
%TO.N,GPIO23*%
X165570000Y-84320000D03*
X170630000Y-81340000D03*
%TO.N,GPIO24*%
X165540000Y-83490000D03*
%TO.N,GPIO25*%
X167510000Y-83230000D03*
X169850000Y-81820000D03*
%TO.N,GPIO26_ADC0*%
X167454771Y-82500001D03*
%TO.N,GPIO27_ADC1*%
X165200002Y-82270000D03*
X165510000Y-77018233D03*
X165610000Y-75040000D03*
%TO.N,GPIO28_ADC2*%
X168103782Y-82082617D03*
X170120000Y-71400000D03*
X169661000Y-80530000D03*
X169963000Y-78360000D03*
%TO.N,GPIO29_ADC3*%
X164233526Y-77018233D03*
X163667463Y-81675001D03*
X166260000Y-67370000D03*
X163990000Y-69640000D03*
%TD*%
%TO.N,+1V1*%
D37*
X167920000Y-81120000D02*
X167920000Y-80200000D01*
X170030000Y-82910000D02*
X169710000Y-82910000D01*
X163700000Y-86560000D02*
X164370000Y-85890000D01*
X164486360Y-81210000D02*
X164900000Y-80796360D01*
X168750000Y-85260000D02*
X168750000Y-85170000D01*
X164390000Y-81210000D02*
X164486360Y-81210000D01*
X168750000Y-85170000D02*
X167960000Y-84380000D01*
X163700000Y-87137500D02*
X163700000Y-86560000D01*
X167870000Y-80150000D02*
X167920000Y-80200000D01*
X164900000Y-80796360D02*
X164900000Y-80262500D01*
X169710000Y-82910000D02*
X167920000Y-81120000D01*
X162900000Y-77990000D02*
X162810000Y-77900000D01*
X167290000Y-80150000D02*
X167870000Y-80150000D01*
X162900000Y-80262500D02*
X162900000Y-77990000D01*
%TO.N,GND*%
X163820000Y-90080000D02*
X167800000Y-90080000D01*
X161975000Y-64200000D02*
X161975000Y-63625000D01*
X171990000Y-60650000D02*
X170870000Y-61770000D01*
X159850000Y-60545000D02*
X159695000Y-60545000D01*
X167180000Y-62400000D02*
X167230000Y-62450000D01*
X161975000Y-63625000D02*
X162600000Y-63000000D01*
X167900589Y-78420589D02*
X167800000Y-78320000D01*
X168880000Y-81120000D02*
X168880000Y-80200000D01*
X162100000Y-84700000D02*
X162100000Y-87137500D01*
X161975000Y-65450000D02*
X161600000Y-65825000D01*
X170870000Y-61770000D02*
X169670000Y-61770000D01*
X168400000Y-66510000D02*
X169030000Y-66510000D01*
X160270000Y-62310000D02*
X160960000Y-63000000D01*
X163100000Y-83700000D02*
X161190837Y-85609163D01*
X168770000Y-78280000D02*
X167840000Y-78280000D01*
X169800000Y-97200000D02*
X170440000Y-97200000D01*
X165890000Y-100800000D02*
X166000000Y-100800000D01*
X167420000Y-59380000D02*
X169000000Y-57800000D01*
X170940000Y-85000000D02*
X169800000Y-85000000D01*
X156600000Y-63040000D02*
X156600000Y-64400000D01*
X166680000Y-76840000D02*
X166680000Y-76020000D01*
X160960000Y-63000000D02*
X162600000Y-63000000D01*
X167400000Y-78320000D02*
X166800000Y-77720000D01*
X163100000Y-83700000D02*
X162100000Y-84700000D01*
X164400000Y-102400000D02*
X166000000Y-100800000D01*
X169030000Y-66510000D02*
X169310000Y-66230000D01*
X162300000Y-71150000D02*
X162300000Y-69100000D01*
X161975000Y-64200000D02*
X161975000Y-65450000D01*
X155997000Y-65003000D02*
X155997000Y-68800000D01*
X162300000Y-69100000D02*
X162400000Y-69000000D01*
X164400000Y-104400000D02*
X164400000Y-102400000D01*
X170440000Y-97200000D02*
X171990000Y-98750000D01*
X159090000Y-76599000D02*
X159089000Y-76600000D01*
X161190837Y-85609163D02*
X160960634Y-85609163D01*
X166505000Y-60545000D02*
X167420000Y-59630000D01*
X167800000Y-78320000D02*
X167400000Y-78320000D01*
X167840000Y-78280000D02*
X167800000Y-78320000D01*
X157960000Y-95000000D02*
X158000000Y-95000000D01*
X169381000Y-79699000D02*
X169381000Y-78891000D01*
X165800000Y-77720000D02*
X166680000Y-76840000D01*
X154210000Y-98750000D02*
X157960000Y-95000000D01*
X158930000Y-90750000D02*
X158580000Y-91100000D01*
X154210000Y-60650000D02*
X156600000Y-63040000D01*
X168920000Y-84380000D02*
X169180000Y-84380000D01*
X168880000Y-80200000D02*
X169381000Y-79699000D01*
X156600000Y-64400000D02*
X155997000Y-65003000D01*
X160100000Y-90750000D02*
X158930000Y-90750000D01*
X160100000Y-90750000D02*
X159950000Y-90750000D01*
X163100000Y-103590000D02*
X165890000Y-100800000D01*
X163800000Y-92080000D02*
X162670000Y-92080000D01*
X162670000Y-92080000D02*
X162300000Y-92450000D01*
X155800000Y-71760000D02*
X154210000Y-73350000D01*
X169381000Y-78891000D02*
X168770000Y-78280000D01*
X171990000Y-86050000D02*
X170940000Y-85000000D01*
X159090000Y-75900000D02*
X159090000Y-76599000D01*
X166350000Y-60545000D02*
X166505000Y-60545000D01*
X159950000Y-90750000D02*
X159000000Y-89800000D01*
X159695000Y-60545000D02*
X158780000Y-59630000D01*
X167420000Y-59630000D02*
X167420000Y-55450000D01*
X169180000Y-84380000D02*
X169800000Y-85000000D01*
X155800000Y-71400000D02*
X155800000Y-71760000D01*
X165510000Y-62400000D02*
X167180000Y-62400000D01*
X167420000Y-59630000D02*
X167420000Y-59380000D01*
X161120000Y-73600000D02*
X160200000Y-73600000D01*
%TO.N,+3V3*%
X161362500Y-67137500D02*
X161600000Y-67375000D01*
X167800000Y-79280000D02*
X167400000Y-79280000D01*
X162110000Y-74400000D02*
X162110000Y-73630000D01*
X161568000Y-74400000D02*
X161309998Y-74658002D01*
X162080000Y-73600000D02*
X161600000Y-73120000D01*
X165947500Y-80262500D02*
X166690000Y-79520000D01*
X166311000Y-64656000D02*
X165755000Y-64100000D01*
X162080000Y-73600000D02*
X161469000Y-72989000D01*
X166537500Y-84700000D02*
X166003640Y-84700000D01*
X161490678Y-81182195D02*
X161628483Y-81320000D01*
X163300000Y-81300000D02*
X163010000Y-81590000D01*
X163300000Y-87671360D02*
X163300000Y-87137500D01*
X163700000Y-89020000D02*
X163800000Y-89120000D01*
X162110000Y-74400000D02*
X161568000Y-74400000D01*
X162365000Y-66610000D02*
X161600000Y-67375000D01*
X159662500Y-84700000D02*
X160740000Y-84700000D01*
X161408483Y-81100000D02*
X161490678Y-81182195D01*
X161898483Y-81590000D02*
X161490678Y-81182195D01*
X161309998Y-74658002D02*
X161309998Y-75300000D01*
X163300000Y-86251470D02*
X162848529Y-85799999D01*
X165755000Y-64100000D02*
X165350000Y-64100000D01*
X166800000Y-78680000D02*
X166800000Y-79410000D01*
X163290000Y-87681360D02*
X163300000Y-87671360D01*
X161600000Y-73120000D02*
X161600000Y-67375000D01*
X160740000Y-84700000D02*
X160770000Y-84670000D01*
X161469000Y-72989000D02*
X158591000Y-72989000D01*
X168880000Y-68050000D02*
X166311000Y-65481000D01*
X167980589Y-79099411D02*
X167800000Y-79280000D01*
X159950000Y-67137500D02*
X161362500Y-67137500D01*
X162110000Y-73630000D02*
X162080000Y-73600000D01*
X159662500Y-81100000D02*
X161408483Y-81100000D01*
X158591000Y-72989000D02*
X158290000Y-73290000D01*
D38*
X168770000Y-79240000D02*
X167840000Y-79240000D01*
D37*
X165350000Y-64100000D02*
X164649265Y-64800735D01*
X162600000Y-66610000D02*
X162365000Y-66610000D01*
X165700000Y-80262500D02*
X165947500Y-80262500D01*
X166003640Y-84700000D02*
X165603640Y-85100000D01*
X163820000Y-89010000D02*
X163290000Y-88480000D01*
X166800000Y-79410000D02*
X166690000Y-79520000D01*
X163290000Y-88480000D02*
X163290000Y-87681360D01*
X165300000Y-80262500D02*
X165700000Y-80262500D01*
X171990000Y-65810000D02*
X170730000Y-67070000D01*
X166311000Y-65481000D02*
X166311000Y-64656000D01*
X166800000Y-78680000D02*
X165800000Y-78680000D01*
X163300000Y-80262500D02*
X163300000Y-81300000D01*
X165603640Y-85100000D02*
X165400000Y-85100000D01*
X163300000Y-87137500D02*
X163300000Y-86251470D01*
D38*
X167840000Y-79240000D02*
X167800000Y-79280000D01*
D37*
X166537500Y-81100000D02*
X165700000Y-80262500D01*
X167400000Y-79280000D02*
X166800000Y-78680000D01*
X163010000Y-81590000D02*
X161898483Y-81590000D01*
X162770000Y-85878528D02*
X162848529Y-85799999D01*
X163800000Y-89120000D02*
X167800000Y-89120000D01*
X163820000Y-89120000D02*
X163820000Y-89010000D01*
X163700000Y-80262500D02*
X163300000Y-80262500D01*
X171990000Y-65730000D02*
X171990000Y-65810000D01*
%TO.N,Net-(C16-Pad2)*%
X162300000Y-89685000D02*
X162015000Y-89400000D01*
X162300000Y-90750000D02*
X162300000Y-89685000D01*
X162670000Y-91120000D02*
X162300000Y-90750000D01*
X163800000Y-91120000D02*
X162670000Y-91120000D01*
%TO.N,XIN*%
X161299000Y-89729340D02*
X161299000Y-91251000D01*
X158995000Y-92450000D02*
X158600000Y-92055000D01*
X161250000Y-89270000D02*
X161259000Y-89279000D01*
X161299000Y-91251000D02*
X160100000Y-92450000D01*
X161250000Y-88950000D02*
X161250000Y-89270000D01*
X161259000Y-89279000D02*
X161259000Y-89689340D01*
X160100000Y-92450000D02*
X158995000Y-92450000D01*
X162500000Y-87137500D02*
X162500000Y-87700000D01*
X162500000Y-87700000D02*
X161250000Y-88950000D01*
X161259000Y-89689340D02*
X161299000Y-89729340D01*
%TO.N,Net-(R7-Pad1)*%
X157490000Y-73290000D02*
X157340000Y-73140000D01*
X157340000Y-73140000D02*
X157340000Y-71910000D01*
X157340000Y-71910000D02*
X158100000Y-71150000D01*
%TO.N,~{QSPI_SS}*%
X157290000Y-74310000D02*
X159000000Y-74310000D01*
X157290000Y-77052500D02*
X157290000Y-74310000D01*
X160500000Y-80262500D02*
X157290000Y-77052500D01*
X159000000Y-74310000D02*
X159090000Y-74400000D01*
%TO.N,Net-(Q1-D)*%
X168400000Y-65490000D02*
X168400000Y-64720000D01*
X167045000Y-64600000D02*
X168520000Y-64600000D01*
X168400000Y-64720000D02*
X168520000Y-64600000D01*
X168520000Y-64600000D02*
X168520000Y-63590000D01*
X168520000Y-63590000D02*
X168600000Y-63510000D01*
%TO.N,GPIO0*%
D39*
X159662500Y-81500000D02*
X158300000Y-81500000D01*
X158300000Y-81500000D02*
X158000000Y-81200000D01*
%TO.N,GPIO1*%
X158370679Y-81900000D02*
X158182330Y-82088349D01*
X159662500Y-81900000D02*
X158370679Y-81900000D01*
%TO.N,GPIO2*%
X159020012Y-82300000D02*
X158495509Y-82824503D01*
X159662500Y-82300000D02*
X159020012Y-82300000D01*
%TO.N,GPIO3*%
X160500000Y-82700000D02*
X160600000Y-82800000D01*
X159662500Y-82700000D02*
X160500000Y-82700000D01*
%TO.N,GPIO4*%
X156801000Y-81979937D02*
X156801000Y-77913900D01*
X158774497Y-83425503D02*
X158246566Y-83425503D01*
X156640000Y-70700000D02*
X154210000Y-68270000D01*
X159100000Y-83100000D02*
X158774497Y-83425503D01*
X159662500Y-83100000D02*
X159100000Y-83100000D01*
X156640000Y-77752900D02*
X156640000Y-70700000D01*
X158246566Y-83425503D02*
X156801000Y-81979937D01*
X156801000Y-77913900D02*
X156640000Y-77752900D01*
%TO.N,GPIO5*%
X159662500Y-83500000D02*
X160500000Y-83500000D01*
X160500000Y-83500000D02*
X160624265Y-83624265D01*
%TO.N,GPIO6*%
X156400000Y-82146037D02*
X156400000Y-78080000D01*
X156400000Y-78080000D02*
X154210000Y-75890000D01*
X159662500Y-83900000D02*
X158153963Y-83900000D01*
X158153963Y-83900000D02*
X156400000Y-82146037D01*
%TO.N,GPIO7*%
X156000000Y-80220000D02*
X154210000Y-78430000D01*
X159662500Y-84300000D02*
X157986863Y-84300000D01*
X156000000Y-82313137D02*
X156000000Y-80220000D01*
X157986863Y-84300000D02*
X156000000Y-82313137D01*
%TO.N,GPIO8*%
X158219763Y-85100000D02*
X154210000Y-81090237D01*
X154210000Y-81090237D02*
X154210000Y-80970000D01*
X159662500Y-85100000D02*
X158219763Y-85100000D01*
%TO.N,GPIO9*%
X159662500Y-85500000D02*
X156200000Y-85500000D01*
X156200000Y-85500000D02*
X154210000Y-83510000D01*
%TO.N,GPIO10*%
X159662500Y-85900000D02*
X156900000Y-85900000D01*
X156900000Y-85900000D02*
X154210000Y-88590000D01*
%TO.N,GPIO11*%
X159040000Y-86300000D02*
X154210000Y-91130000D01*
X159662500Y-86300000D02*
X159040000Y-86300000D01*
%TO.N,GPIO12*%
X155361000Y-91606760D02*
X154686760Y-92281000D01*
X159462500Y-87137500D02*
X155361000Y-91239000D01*
X160500000Y-87137500D02*
X159462500Y-87137500D01*
X154686760Y-92281000D02*
X154319000Y-92281000D01*
X154210000Y-92390000D02*
X154210000Y-93670000D01*
X154319000Y-92281000D02*
X154210000Y-92390000D01*
X155361000Y-91239000D02*
X155361000Y-91606760D01*
%TO.N,GPIO13*%
X157860000Y-92560000D02*
X154210000Y-96210000D01*
X157860000Y-90090057D02*
X157860000Y-92560000D01*
X158751057Y-89199000D02*
X157860000Y-90090057D01*
X160900000Y-87700000D02*
X159401000Y-89199000D01*
X160900000Y-87137500D02*
X160900000Y-87700000D01*
X159401000Y-89199000D02*
X158751057Y-89199000D01*
%TO.N,GPIO14*%
X161300000Y-87137500D02*
X161300000Y-88148530D01*
X161300000Y-88148530D02*
X160424265Y-89024265D01*
%TO.N,GPIO15*%
X161700000Y-86400000D02*
X161500000Y-86200000D01*
X161700000Y-87137500D02*
X161700000Y-86400000D01*
%TO.N,XOUT*%
D38*
X162876000Y-87161500D02*
X162876000Y-87855744D01*
X162900000Y-87137500D02*
X162876000Y-87161500D01*
X162600000Y-88131744D02*
X162600000Y-88965000D01*
X162876000Y-87855744D02*
X162600000Y-88131744D01*
X162600000Y-88965000D02*
X162900000Y-89265000D01*
D37*
X162900000Y-89265000D02*
X163035000Y-89400000D01*
%TO.N,SWCLK*%
X164100000Y-87137500D02*
X164100000Y-87966214D01*
X164100000Y-87966214D02*
X163904322Y-88161892D01*
%TO.N,SWDIO*%
X164500000Y-88090000D02*
X164700000Y-88290000D01*
X164500000Y-87137500D02*
X164500000Y-88090000D01*
%TO.N,RUN*%
X165103640Y-86400000D02*
X164900000Y-86603640D01*
X165254159Y-86275000D02*
X165129159Y-86400000D01*
X165129159Y-86400000D02*
X165103640Y-86400000D01*
X164900000Y-86603640D02*
X164900000Y-87137500D01*
%TO.N,GPIO16*%
D39*
X165300000Y-87881676D02*
X165460718Y-88042394D01*
X165840000Y-97680000D02*
X171990000Y-103830000D01*
X165300000Y-87137500D02*
X165300000Y-87881676D01*
X165840000Y-92040000D02*
X165840000Y-97680000D01*
%TO.N,GPIO17*%
X166780000Y-91320000D02*
X166780000Y-96080000D01*
X165700000Y-87220000D02*
X166650000Y-88170000D01*
X165700000Y-87137500D02*
X165700000Y-87220000D01*
X166780000Y-96080000D02*
X171990000Y-101290000D01*
%TO.N,GPIO18*%
X166537500Y-86300000D02*
X168610000Y-88372500D01*
X168610000Y-92830000D02*
X171990000Y-96210000D01*
X168610000Y-88372500D02*
X168610000Y-92830000D01*
%TO.N,GPIO19*%
X167130000Y-85900000D02*
X169080000Y-87850000D01*
X166537500Y-85900000D02*
X167130000Y-85900000D01*
X169080000Y-90760000D02*
X171990000Y-93670000D01*
X169080000Y-87850000D02*
X169080000Y-90760000D01*
%TO.N,GPIO20*%
X166537500Y-85500000D02*
X167520000Y-85500000D01*
X169700000Y-88840000D02*
X171990000Y-91130000D01*
X167520000Y-85500000D02*
X169700000Y-87680000D01*
X169700000Y-87680000D02*
X169700000Y-88840000D01*
%TO.N,GPIO21*%
X171150000Y-88590000D02*
X171990000Y-88590000D01*
X166537500Y-85100000D02*
X167685686Y-85100000D01*
X170100000Y-87540000D02*
X171150000Y-88590000D01*
X170100000Y-87514315D02*
X170100000Y-87540000D01*
X167685686Y-85100000D02*
X170100000Y-87514315D01*
%TO.N,GPIO22*%
X167892450Y-83510000D02*
X171990000Y-83510000D01*
X166537500Y-84300000D02*
X167102450Y-84300000D01*
X167102450Y-84300000D02*
X167892450Y-83510000D01*
%TO.N,GPIO23*%
X170930000Y-76950000D02*
X171990000Y-75890000D01*
X165990000Y-83900000D02*
X166537500Y-83900000D01*
X170930000Y-80402240D02*
X170930000Y-78997760D01*
X170630000Y-81340000D02*
X170839000Y-81131000D01*
X170930000Y-77862240D02*
X170930000Y-76950000D01*
X170839000Y-78906760D02*
X170839000Y-77953240D01*
X170839000Y-81131000D02*
X170839000Y-80493240D01*
X170839000Y-77953240D02*
X170930000Y-77862240D01*
X170839000Y-80493240D02*
X170930000Y-80402240D01*
X170930000Y-78997760D02*
X170839000Y-78906760D01*
X165570000Y-84320000D02*
X165990000Y-83900000D01*
%TO.N,GPIO24*%
X166537500Y-83500000D02*
X165550000Y-83500000D01*
X165550000Y-83500000D02*
X165540000Y-83490000D01*
%TO.N,GPIO25*%
X166537500Y-83100000D02*
X167380000Y-83100000D01*
X167380000Y-83100000D02*
X167510000Y-83230000D01*
X170376500Y-77866500D02*
X169510000Y-77000000D01*
X169850000Y-81161214D02*
X170376500Y-80634714D01*
X169850000Y-81820000D02*
X169850000Y-81161214D01*
X170376500Y-80634714D02*
X170376500Y-77866500D01*
%TO.N,GPIO26_ADC0*%
X167254772Y-82700000D02*
X166537500Y-82700000D01*
X167454771Y-82500001D02*
X167254772Y-82700000D01*
%TO.N,GPIO27_ADC1*%
X165510000Y-75140000D02*
X165610000Y-75040000D01*
X165510000Y-77018233D02*
X165510000Y-75140000D01*
X165710000Y-82270000D02*
X165740000Y-82300000D01*
X165200002Y-82270000D02*
X165710000Y-82270000D01*
X165740000Y-82300000D02*
X166537500Y-82300000D01*
%TO.N,GPIO28_ADC2*%
X170040000Y-80151000D02*
X169661000Y-80530000D01*
X170120000Y-71400000D02*
X170120000Y-65060000D01*
X170120000Y-65060000D02*
X171990000Y-63190000D01*
X170040000Y-79387306D02*
X170040000Y-78437000D01*
X166537500Y-81900000D02*
X167921165Y-81900000D01*
X170040000Y-78437000D02*
X169963000Y-78360000D01*
X170040000Y-79387306D02*
X170040000Y-80151000D01*
X167921165Y-81900000D02*
X168103782Y-82082617D01*
%TO.N,GPIO29_ADC3*%
X164896910Y-81500000D02*
X164623410Y-81773500D01*
X165755000Y-66865000D02*
X165755000Y-65100000D01*
X164233526Y-77018233D02*
X163990000Y-76774707D01*
X166260000Y-67370000D02*
X165755000Y-66865000D01*
X163990000Y-76774707D02*
X163990000Y-69640000D01*
X163765962Y-81773500D02*
X163667463Y-81675001D01*
X164623410Y-81773500D02*
X163765962Y-81773500D01*
X166537500Y-81500000D02*
X164896910Y-81500000D01*
%TO.N,Net-(U1-USB_DM)*%
D37*
X164500000Y-80262500D02*
X164500000Y-79010000D01*
X164500000Y-79010000D02*
X164800000Y-78710000D01*
%TO.N,Net-(U1-USB_DP)*%
X164100000Y-79010000D02*
X163800000Y-78710000D01*
X164100000Y-80262500D02*
X164100000Y-79010000D01*
%TO.N,QSPI_SD3*%
X162451000Y-79679640D02*
X162451000Y-78788926D01*
X162451000Y-78788926D02*
X162160000Y-78497926D01*
X162500000Y-80262500D02*
X162500000Y-79728640D01*
X162700000Y-74900000D02*
X162110000Y-74900000D01*
X163200000Y-75400000D02*
X162700000Y-74900000D01*
X162160000Y-77330000D02*
X163200000Y-76290000D01*
X162160000Y-78497926D02*
X162160000Y-77330000D01*
X163200000Y-76290000D02*
X163200000Y-75400000D01*
X162500000Y-79728640D02*
X162451000Y-79679640D01*
%TO.N,QSPI_SCLK*%
D38*
X162520000Y-76430000D02*
X162686000Y-76264000D01*
X162100000Y-80262500D02*
X162076000Y-80238500D01*
X161370000Y-78238256D02*
X161370000Y-76550000D01*
X162076000Y-78944256D02*
X161370000Y-78238256D01*
X161370000Y-76550000D02*
X161490000Y-76430000D01*
X162686000Y-75484000D02*
X162602000Y-75400000D01*
X161490000Y-76430000D02*
X162520000Y-76430000D01*
X162602000Y-75400000D02*
X162110000Y-75400000D01*
X162686000Y-76264000D02*
X162686000Y-75484000D01*
X162076000Y-80238500D02*
X162076000Y-78944256D01*
%TO.N,QSPI_SD0*%
D37*
X161700000Y-79100000D02*
X160600000Y-78000000D01*
X160600000Y-78000000D02*
X160600000Y-76600000D01*
X160600000Y-76600000D02*
X161300000Y-75900000D01*
X161700000Y-80262500D02*
X161700000Y-79100000D01*
X161300000Y-75900000D02*
X162110000Y-75900000D01*
%TO.N,QSPI_SD2*%
X159691000Y-75459000D02*
X159632000Y-75400000D01*
X159632000Y-75400000D02*
X159090000Y-75400000D01*
X159691000Y-77891000D02*
X159691000Y-75459000D01*
X161300000Y-80262500D02*
X161300000Y-79500000D01*
X161300000Y-79500000D02*
X159691000Y-77891000D01*
%TO.N,QSPI_SD1*%
X158548000Y-74900000D02*
X159090000Y-74900000D01*
X160900000Y-80262500D02*
X160900000Y-79700000D01*
X160900000Y-79700000D02*
X158489000Y-77289000D01*
X158489000Y-77289000D02*
X158489000Y-74959000D01*
X158489000Y-74959000D02*
X158548000Y-74900000D01*
%TO.N,D+*%
X163350000Y-60545000D02*
X163350000Y-62222000D01*
X163200000Y-74832900D02*
X163601000Y-75233900D01*
X163601000Y-75233900D02*
X163601000Y-76948550D01*
X162350000Y-60545000D02*
X162350000Y-61522000D01*
X162350000Y-61522000D02*
X163200000Y-62372000D01*
X163200000Y-62372000D02*
X163200000Y-62988437D01*
X163710000Y-77600000D02*
X163800000Y-77690000D01*
X163200000Y-62988437D02*
X163200000Y-63095344D01*
X163710000Y-77057550D02*
X163710000Y-77600000D01*
X163200000Y-63095344D02*
X163200000Y-67086483D01*
X163200000Y-67086483D02*
X163200000Y-74832900D01*
X163601000Y-76948550D02*
X163710000Y-77057550D01*
X163350000Y-62222000D02*
X163200000Y-62372000D01*
%TO.N,Net-(D1-A)*%
X168490000Y-77000000D02*
X168490000Y-75677500D01*
X168490000Y-75677500D02*
X168000000Y-75187500D01*
X168000000Y-75187500D02*
X168000000Y-75490000D01*
%TO.N,VBUS*%
X165550000Y-59768000D02*
X165550000Y-60545000D01*
X160650000Y-61470000D02*
X160650000Y-60545000D01*
X159362500Y-65262500D02*
X160425000Y-64200000D01*
X165550000Y-61372000D02*
X165749000Y-61571000D01*
X159380000Y-62080000D02*
X159889000Y-61571000D01*
X159889000Y-61571000D02*
X160549000Y-61571000D01*
X160549000Y-61571000D02*
X160650000Y-61470000D01*
X167161785Y-61571000D02*
X170839000Y-57893785D01*
X160650000Y-59768000D02*
X161300000Y-59118000D01*
X159380000Y-63155000D02*
X159380000Y-62080000D01*
X165749000Y-61571000D02*
X167161785Y-61571000D01*
X160650000Y-60545000D02*
X160650000Y-59768000D01*
X170839000Y-56721000D02*
X171990000Y-55570000D01*
X170839000Y-57893785D02*
X170839000Y-56721000D01*
X161300000Y-59118000D02*
X164900000Y-59118000D01*
X159000000Y-65262500D02*
X159362500Y-65262500D01*
X164900000Y-59118000D02*
X165550000Y-59768000D01*
X160425000Y-64200000D02*
X159380000Y-63155000D01*
X165550000Y-60545000D02*
X165550000Y-61372000D01*
%TO.N,Net-(J1-CC1)*%
X164350000Y-62260000D02*
X164350000Y-60545000D01*
X164490000Y-62400000D02*
X164350000Y-62260000D01*
%TO.N,D-*%
X163850000Y-59568000D02*
X163850000Y-60545000D01*
X162899000Y-59519000D02*
X163801000Y-59519000D01*
X163850000Y-64850000D02*
X164800000Y-65800000D01*
X162850000Y-59568000D02*
X162899000Y-59519000D01*
X163850000Y-60545000D02*
X163850000Y-62613167D01*
X164800000Y-68064705D02*
X164800000Y-68286483D01*
X164800000Y-68841465D02*
X164800000Y-77690000D01*
X162850000Y-60545000D02*
X162850000Y-59568000D01*
X163850000Y-62613167D02*
X163850000Y-64850000D01*
X163801000Y-59519000D02*
X163850000Y-59568000D01*
X165178222Y-67464705D02*
X165178222Y-67686483D01*
X164800000Y-65800000D02*
X164800000Y-67086483D01*
X164800000Y-68286483D02*
X164800000Y-68841465D01*
X165178222Y-67686483D02*
G75*
G02*
X164989111Y-67875622I-189122J-17D01*
G01*
X164800000Y-67086483D02*
G75*
G03*
X164989111Y-67275600I189100J-17D01*
G01*
X164989111Y-67875594D02*
G75*
G03*
X164799994Y-68064705I-11J-189106D01*
G01*
X164989111Y-67275594D02*
G75*
G02*
X165178206Y-67464705I-11J-189106D01*
G01*
%TO.N,Net-(J1-CC2)*%
X161310000Y-60585000D02*
X161350000Y-60545000D01*
X161310000Y-62200000D02*
X161310000Y-60585000D01*
%TO.N,VSYS*%
X168600000Y-61500000D02*
X168600000Y-62490000D01*
X171990000Y-58110000D02*
X168600000Y-61500000D01*
%TD*%
%TA.AperFunction,Conductor*%
%TO.N,GND*%
G36*
X165364766Y-89847267D02*
G01*
X165373605Y-89852494D01*
X165373608Y-89852494D01*
X165373610Y-89852496D01*
X165529002Y-89897642D01*
X165529005Y-89897642D01*
X165529007Y-89897643D01*
X165565310Y-89900500D01*
X165565318Y-89900500D01*
X166034682Y-89900500D01*
X166034690Y-89900500D01*
X166070993Y-89897643D01*
X166070995Y-89897642D01*
X166070997Y-89897642D01*
X166120403Y-89883288D01*
X166226395Y-89852494D01*
X166226402Y-89852489D01*
X166233551Y-89849397D01*
X166234443Y-89851458D01*
X166291128Y-89837067D01*
X166349666Y-89854250D01*
X166363605Y-89862494D01*
X166373305Y-89865312D01*
X166519002Y-89907642D01*
X166519005Y-89907642D01*
X166519007Y-89907643D01*
X166555310Y-89910500D01*
X166555318Y-89910500D01*
X167024682Y-89910500D01*
X167024690Y-89910500D01*
X167060993Y-89907643D01*
X167060995Y-89907642D01*
X167060997Y-89907642D01*
X167152773Y-89880978D01*
X167216395Y-89862494D01*
X167240334Y-89848336D01*
X167308054Y-89831153D01*
X167366575Y-89848336D01*
X167373605Y-89852494D01*
X167381656Y-89854833D01*
X167529002Y-89897642D01*
X167529005Y-89897642D01*
X167529007Y-89897643D01*
X167565310Y-89900500D01*
X167565318Y-89900500D01*
X167676000Y-89900500D01*
X167743039Y-89920185D01*
X167788794Y-89972989D01*
X167800000Y-90024500D01*
X167800000Y-90080000D01*
X167922000Y-90080000D01*
X167989039Y-90099685D01*
X168034794Y-90152489D01*
X168046000Y-90204000D01*
X168046000Y-92755747D01*
X168046000Y-92904253D01*
X168074221Y-93009576D01*
X168079328Y-93028636D01*
X168084435Y-93047697D01*
X168084436Y-93047698D01*
X168158687Y-93176304D01*
X168158689Y-93176306D01*
X168270761Y-93288378D01*
X168270767Y-93288383D01*
X170668900Y-95686516D01*
X170702385Y-95747839D01*
X170699150Y-95812515D01*
X170672754Y-95893752D01*
X170672754Y-95893755D01*
X170639500Y-96103713D01*
X170639500Y-96316286D01*
X170668853Y-96501617D01*
X170672754Y-96526243D01*
X170674401Y-96531313D01*
X170738444Y-96728414D01*
X170834951Y-96917820D01*
X170959890Y-97089786D01*
X171110213Y-97240109D01*
X171282179Y-97365048D01*
X171282181Y-97365049D01*
X171282184Y-97365051D01*
X171291493Y-97369794D01*
X171342290Y-97417766D01*
X171359087Y-97485587D01*
X171336552Y-97551722D01*
X171291505Y-97590760D01*
X171282446Y-97595376D01*
X171282440Y-97595380D01*
X171228282Y-97634727D01*
X171228282Y-97634728D01*
X171860591Y-98267037D01*
X171797007Y-98284075D01*
X171682993Y-98349901D01*
X171589901Y-98442993D01*
X171524075Y-98557007D01*
X171507037Y-98620591D01*
X170874728Y-97988282D01*
X170874727Y-97988282D01*
X170835380Y-98042439D01*
X170738904Y-98231782D01*
X170673242Y-98433869D01*
X170673242Y-98433872D01*
X170640000Y-98643753D01*
X170640000Y-98843021D01*
X170620315Y-98910060D01*
X170567511Y-98955815D01*
X170498353Y-98965759D01*
X170434797Y-98936734D01*
X170428319Y-98930702D01*
X167380319Y-95882702D01*
X167346834Y-95821379D01*
X167344000Y-95795021D01*
X167344000Y-91819392D01*
X167363685Y-91752353D01*
X167364861Y-91750556D01*
X167422929Y-91663653D01*
X167477619Y-91531620D01*
X167500780Y-91415186D01*
X167505500Y-91391457D01*
X167505500Y-91248542D01*
X167477620Y-91108385D01*
X167477619Y-91108384D01*
X167477619Y-91108380D01*
X167445746Y-91031433D01*
X167438278Y-90961967D01*
X167469553Y-90899488D01*
X167529641Y-90863835D01*
X167546069Y-90862423D01*
X167550000Y-90858790D01*
X167550000Y-90340000D01*
X166050000Y-90340000D01*
X166050000Y-90858789D01*
X166084713Y-90890880D01*
X166092777Y-90904362D01*
X166104677Y-90914619D01*
X166110344Y-90933733D01*
X166120578Y-90950843D01*
X166120333Y-90967422D01*
X166124539Y-90981607D01*
X166119767Y-91005762D01*
X166119608Y-91016555D01*
X166117704Y-91023102D01*
X166082381Y-91108380D01*
X166059580Y-91223005D01*
X166058078Y-91228172D01*
X166042043Y-91253266D01*
X166028241Y-91279654D01*
X166023435Y-91282390D01*
X166020459Y-91287049D01*
X165993407Y-91299489D01*
X165967525Y-91314228D01*
X165961110Y-91314342D01*
X165956980Y-91316242D01*
X165945493Y-91314621D01*
X165914821Y-91315169D01*
X165911457Y-91314500D01*
X165911455Y-91314500D01*
X165768545Y-91314500D01*
X165768543Y-91314500D01*
X165628385Y-91342379D01*
X165628379Y-91342381D01*
X165496349Y-91397069D01*
X165496340Y-91397074D01*
X165377521Y-91476467D01*
X165377517Y-91476470D01*
X165276470Y-91577517D01*
X165276467Y-91577521D01*
X165197074Y-91696340D01*
X165197069Y-91696349D01*
X165142381Y-91828379D01*
X165142379Y-91828385D01*
X165114500Y-91968542D01*
X165114500Y-91968545D01*
X165114500Y-92111455D01*
X165114500Y-92111457D01*
X165114499Y-92111457D01*
X165142379Y-92251614D01*
X165142381Y-92251620D01*
X165197069Y-92383650D01*
X165197070Y-92383652D01*
X165197071Y-92383653D01*
X165255102Y-92470503D01*
X165275980Y-92537178D01*
X165276000Y-92539392D01*
X165276000Y-97754252D01*
X165314435Y-97897696D01*
X165388687Y-98026304D01*
X165388689Y-98026306D01*
X165500761Y-98138378D01*
X165500767Y-98138383D01*
X170668900Y-103306516D01*
X170702385Y-103367839D01*
X170699150Y-103432515D01*
X170672754Y-103513752D01*
X170672754Y-103513755D01*
X170671104Y-103524174D01*
X170639500Y-103723713D01*
X170639500Y-103936287D01*
X170672754Y-104146243D01*
X170722003Y-104297816D01*
X170738444Y-104348414D01*
X170825466Y-104519205D01*
X170838362Y-104587875D01*
X170812086Y-104652615D01*
X170754979Y-104692872D01*
X170714981Y-104699500D01*
X166739758Y-104699500D01*
X166672719Y-104679815D01*
X166626964Y-104627011D01*
X166617020Y-104557853D01*
X166646045Y-104494297D01*
X166652077Y-104487819D01*
X166670104Y-104469792D01*
X166670106Y-104469788D01*
X166670109Y-104469786D01*
X166795048Y-104297820D01*
X166795050Y-104297817D01*
X166795051Y-104297816D01*
X166891557Y-104108412D01*
X166957246Y-103906243D01*
X166990500Y-103696287D01*
X166990500Y-103483713D01*
X166957246Y-103273757D01*
X166891557Y-103071588D01*
X166795051Y-102882184D01*
X166795049Y-102882181D01*
X166795048Y-102882179D01*
X166670109Y-102710213D01*
X166519786Y-102559890D01*
X166347820Y-102434951D01*
X166158414Y-102338444D01*
X166158413Y-102338443D01*
X166158412Y-102338443D01*
X165956243Y-102272754D01*
X165956241Y-102272753D01*
X165956240Y-102272753D01*
X165794957Y-102247208D01*
X165746287Y-102239500D01*
X165533713Y-102239500D01*
X165485042Y-102247208D01*
X165323760Y-102272753D01*
X165121585Y-102338444D01*
X164932179Y-102434951D01*
X164760213Y-102559890D01*
X164609890Y-102710213D01*
X164484949Y-102882182D01*
X164480202Y-102891499D01*
X164432227Y-102942293D01*
X164364405Y-102959087D01*
X164298271Y-102936548D01*
X164259234Y-102891495D01*
X164254626Y-102882452D01*
X164215270Y-102828282D01*
X164215269Y-102828282D01*
X163582962Y-103460590D01*
X163565925Y-103397007D01*
X163500099Y-103282993D01*
X163407007Y-103189901D01*
X163292993Y-103124075D01*
X163229409Y-103107037D01*
X163861716Y-102474728D01*
X163807550Y-102435375D01*
X163618217Y-102338904D01*
X163416129Y-102273242D01*
X163206246Y-102240000D01*
X162993754Y-102240000D01*
X162783872Y-102273242D01*
X162783869Y-102273242D01*
X162581782Y-102338904D01*
X162392439Y-102435380D01*
X162338282Y-102474727D01*
X162338282Y-102474728D01*
X162970591Y-103107037D01*
X162907007Y-103124075D01*
X162792993Y-103189901D01*
X162699901Y-103282993D01*
X162634075Y-103397007D01*
X162617037Y-103460591D01*
X161946818Y-102790372D01*
X161913333Y-102729049D01*
X161913330Y-102729036D01*
X161910499Y-102716015D01*
X161910499Y-102692128D01*
X161904091Y-102632517D01*
X161870165Y-102541557D01*
X161853798Y-102497673D01*
X161853793Y-102497664D01*
X161767547Y-102382455D01*
X161767544Y-102382452D01*
X161652335Y-102296206D01*
X161652328Y-102296202D01*
X161517482Y-102245908D01*
X161517483Y-102245908D01*
X161457883Y-102239501D01*
X161457881Y-102239500D01*
X161457873Y-102239500D01*
X161457864Y-102239500D01*
X159662129Y-102239500D01*
X159662123Y-102239501D01*
X159602516Y-102245908D01*
X159467671Y-102296202D01*
X159467664Y-102296206D01*
X159352455Y-102382452D01*
X159352452Y-102382455D01*
X159266206Y-102497664D01*
X159266202Y-102497671D01*
X159215908Y-102632517D01*
X159209501Y-102692116D01*
X159209500Y-102692135D01*
X159209500Y-104487870D01*
X159209501Y-104487876D01*
X159216738Y-104555196D01*
X159215342Y-104555345D01*
X159212050Y-104616756D01*
X159171182Y-104673427D01*
X159106163Y-104699007D01*
X159095114Y-104699500D01*
X155485019Y-104699500D01*
X155417980Y-104679815D01*
X155372225Y-104627011D01*
X155362281Y-104557853D01*
X155374534Y-104519205D01*
X155399714Y-104469786D01*
X155461557Y-104348412D01*
X155527246Y-104146243D01*
X155560500Y-103936287D01*
X155560500Y-103723713D01*
X155527246Y-103513757D01*
X155461557Y-103311588D01*
X155365051Y-103122184D01*
X155365049Y-103122181D01*
X155365048Y-103122179D01*
X155240109Y-102950213D01*
X155089786Y-102799890D01*
X154917820Y-102674951D01*
X154917115Y-102674591D01*
X154909054Y-102670485D01*
X154858259Y-102622512D01*
X154841463Y-102554692D01*
X154863999Y-102488556D01*
X154909054Y-102449515D01*
X154917816Y-102445051D01*
X155003977Y-102382452D01*
X155089786Y-102320109D01*
X155089788Y-102320106D01*
X155089792Y-102320104D01*
X155240104Y-102169792D01*
X155240106Y-102169788D01*
X155240109Y-102169786D01*
X155365048Y-101997820D01*
X155365047Y-101997820D01*
X155365051Y-101997816D01*
X155461557Y-101808412D01*
X155527246Y-101606243D01*
X155560500Y-101396287D01*
X155560500Y-101183713D01*
X155527246Y-100973757D01*
X155461557Y-100771588D01*
X155365051Y-100582184D01*
X155365049Y-100582181D01*
X155365048Y-100582179D01*
X155240109Y-100410213D01*
X155089786Y-100259890D01*
X154917817Y-100134949D01*
X154908504Y-100130204D01*
X154857707Y-100082230D01*
X154840912Y-100014409D01*
X154863449Y-99948274D01*
X154908507Y-99909232D01*
X154917555Y-99904622D01*
X154971716Y-99865270D01*
X154971717Y-99865270D01*
X154339408Y-99232962D01*
X154402993Y-99215925D01*
X154517007Y-99150099D01*
X154610099Y-99057007D01*
X154675925Y-98942993D01*
X154692962Y-98879409D01*
X155325270Y-99511717D01*
X155325270Y-99511716D01*
X155364622Y-99457554D01*
X155461095Y-99268217D01*
X155526757Y-99066130D01*
X155526757Y-99066127D01*
X155560000Y-98856246D01*
X155560000Y-98643753D01*
X155526757Y-98433872D01*
X155526757Y-98433869D01*
X155461095Y-98231782D01*
X155364624Y-98042449D01*
X155325270Y-97988282D01*
X155325269Y-97988282D01*
X154692962Y-98620590D01*
X154675925Y-98557007D01*
X154610099Y-98442993D01*
X154517007Y-98349901D01*
X154402993Y-98284075D01*
X154339409Y-98267037D01*
X154971716Y-97634728D01*
X154917547Y-97595373D01*
X154917547Y-97595372D01*
X154908500Y-97590763D01*
X154857706Y-97542788D01*
X154840912Y-97474966D01*
X154863451Y-97408832D01*
X154908508Y-97369793D01*
X154917816Y-97365051D01*
X155006096Y-97300912D01*
X155089786Y-97240109D01*
X155089788Y-97240106D01*
X155089792Y-97240104D01*
X155240104Y-97089792D01*
X155240106Y-97089788D01*
X155240109Y-97089786D01*
X155365048Y-96917820D01*
X155365047Y-96917820D01*
X155365051Y-96917816D01*
X155461557Y-96728412D01*
X155527246Y-96526243D01*
X155560500Y-96316287D01*
X155560500Y-96103713D01*
X155527246Y-95893757D01*
X155500847Y-95812513D01*
X155498853Y-95742675D01*
X155531096Y-95686518D01*
X158311313Y-92906304D01*
X158313508Y-92902501D01*
X158316198Y-92899936D01*
X158316261Y-92899855D01*
X158316273Y-92899864D01*
X158322195Y-92894218D01*
X158327183Y-92883297D01*
X158347013Y-92870552D01*
X158364074Y-92854285D01*
X158377331Y-92851068D01*
X158385961Y-92845523D01*
X158420896Y-92840500D01*
X158484902Y-92840500D01*
X158551941Y-92860185D01*
X158572583Y-92876819D01*
X158626284Y-92930520D01*
X158626286Y-92930521D01*
X158626290Y-92930524D01*
X158681128Y-92962184D01*
X158763216Y-93009577D01*
X158847714Y-93032218D01*
X158880373Y-93040969D01*
X158903729Y-93055206D01*
X158940030Y-93077332D01*
X158961051Y-93113296D01*
X158962136Y-93112791D01*
X158965185Y-93119333D01*
X158965186Y-93119334D01*
X159057288Y-93268656D01*
X159181344Y-93392712D01*
X159330666Y-93484814D01*
X159497203Y-93539999D01*
X159599991Y-93550500D01*
X160600008Y-93550499D01*
X160600016Y-93550498D01*
X160600019Y-93550498D01*
X160656302Y-93544748D01*
X160702797Y-93539999D01*
X160869334Y-93484814D01*
X161018656Y-93392712D01*
X161112675Y-93298692D01*
X161173994Y-93265210D01*
X161243686Y-93270194D01*
X161288034Y-93298695D01*
X161381654Y-93392315D01*
X161530875Y-93484356D01*
X161530880Y-93484358D01*
X161697302Y-93539505D01*
X161697309Y-93539506D01*
X161800019Y-93549999D01*
X162049999Y-93549999D01*
X162050000Y-93549998D01*
X162050000Y-92574000D01*
X162069685Y-92506961D01*
X162122489Y-92461206D01*
X162174000Y-92450000D01*
X162426000Y-92450000D01*
X162493039Y-92469685D01*
X162538794Y-92522489D01*
X162550000Y-92574000D01*
X162550000Y-93549999D01*
X162799972Y-93549999D01*
X162799986Y-93549998D01*
X162902697Y-93539505D01*
X163069119Y-93484358D01*
X163069124Y-93484356D01*
X163218345Y-93392315D01*
X163342315Y-93268345D01*
X163434356Y-93119124D01*
X163434358Y-93119119D01*
X163489504Y-92952699D01*
X163490314Y-92948917D01*
X163491457Y-92946806D01*
X163491635Y-92946270D01*
X163491730Y-92946301D01*
X163523594Y-92887482D01*
X163584274Y-92854083D01*
X163590000Y-92848790D01*
X163590000Y-92848789D01*
X164090000Y-92848789D01*
X164110910Y-92847145D01*
X164266195Y-92802031D01*
X164405374Y-92719721D01*
X164405383Y-92719714D01*
X164519714Y-92605383D01*
X164519721Y-92605374D01*
X164602031Y-92466195D01*
X164644504Y-92320000D01*
X164090000Y-92320000D01*
X164090000Y-92848789D01*
X163590000Y-92848789D01*
X163590000Y-92194000D01*
X163609685Y-92126961D01*
X163662489Y-92081206D01*
X163714000Y-92070000D01*
X163840000Y-92070000D01*
X163840000Y-92014500D01*
X163859685Y-91947461D01*
X163912489Y-91901706D01*
X163964000Y-91890500D01*
X164074682Y-91890500D01*
X164074690Y-91890500D01*
X164110993Y-91887643D01*
X164110995Y-91887642D01*
X164110997Y-91887642D01*
X164266389Y-91842496D01*
X164266389Y-91842495D01*
X164266395Y-91842494D01*
X164275233Y-91837267D01*
X164338352Y-91820000D01*
X164644504Y-91820000D01*
X164602031Y-91673803D01*
X164590090Y-91653613D01*
X164572906Y-91585889D01*
X164590089Y-91527369D01*
X164602494Y-91506395D01*
X164647643Y-91350993D01*
X164650500Y-91314690D01*
X164650500Y-90905310D01*
X164647643Y-90869007D01*
X164646140Y-90863835D01*
X164644674Y-90858789D01*
X165050000Y-90858789D01*
X165070910Y-90857145D01*
X165226194Y-90812032D01*
X165236875Y-90805715D01*
X165304598Y-90788530D01*
X165363125Y-90805715D01*
X165373805Y-90812032D01*
X165529089Y-90857145D01*
X165550000Y-90858789D01*
X165550000Y-90330000D01*
X165050000Y-90330000D01*
X165050000Y-90858789D01*
X164644674Y-90858789D01*
X164602495Y-90713609D01*
X164602495Y-90713608D01*
X164602494Y-90713607D01*
X164602494Y-90713605D01*
X164567267Y-90654039D01*
X164550000Y-90590919D01*
X164550000Y-90330000D01*
X164085918Y-90330000D01*
X164085481Y-90329999D01*
X164080822Y-90329982D01*
X164074690Y-90329500D01*
X163943847Y-90329500D01*
X163943563Y-90329499D01*
X163910159Y-90319563D01*
X163876961Y-90309815D01*
X163876813Y-90309644D01*
X163876593Y-90309579D01*
X163853774Y-90283055D01*
X163831206Y-90257011D01*
X163831151Y-90256761D01*
X163831025Y-90256614D01*
X163830853Y-90255390D01*
X163820000Y-90205500D01*
X163820000Y-90024500D01*
X163839685Y-89957461D01*
X163892489Y-89911706D01*
X163944000Y-89900500D01*
X164054682Y-89900500D01*
X164054690Y-89900500D01*
X164090993Y-89897643D01*
X164090995Y-89897642D01*
X164090997Y-89897642D01*
X164238344Y-89854833D01*
X164246395Y-89852494D01*
X164246876Y-89852209D01*
X164247303Y-89852100D01*
X164253551Y-89849397D01*
X164253987Y-89850404D01*
X164314596Y-89835024D01*
X164366121Y-89850153D01*
X164366449Y-89849397D01*
X164372572Y-89852047D01*
X164373122Y-89852208D01*
X164373605Y-89852494D01*
X164373610Y-89852495D01*
X164373611Y-89852496D01*
X164529002Y-89897642D01*
X164529005Y-89897642D01*
X164529007Y-89897643D01*
X164565310Y-89900500D01*
X164565318Y-89900500D01*
X165034682Y-89900500D01*
X165034690Y-89900500D01*
X165070993Y-89897643D01*
X165070995Y-89897642D01*
X165070997Y-89897642D01*
X165226389Y-89852496D01*
X165226389Y-89852495D01*
X165226395Y-89852494D01*
X165235233Y-89847267D01*
X165251132Y-89842917D01*
X165263417Y-89835023D01*
X165298352Y-89830000D01*
X165301648Y-89830000D01*
X165364766Y-89847267D01*
G37*
%TD.AperFunction*%
%TA.AperFunction,Conductor*%
G36*
X164215270Y-104351717D02*
G01*
X164215270Y-104351716D01*
X164254622Y-104297555D01*
X164259232Y-104288507D01*
X164307205Y-104237709D01*
X164375025Y-104220912D01*
X164441161Y-104243447D01*
X164480204Y-104288504D01*
X164484949Y-104297817D01*
X164609890Y-104469786D01*
X164627923Y-104487819D01*
X164661408Y-104549142D01*
X164656424Y-104618834D01*
X164614552Y-104674767D01*
X164549088Y-104699184D01*
X164540242Y-104699500D01*
X163907308Y-104699500D01*
X163840269Y-104679815D01*
X163819627Y-104663181D01*
X163229408Y-104072962D01*
X163292993Y-104055925D01*
X163407007Y-103990099D01*
X163500099Y-103897007D01*
X163565925Y-103782993D01*
X163582962Y-103719408D01*
X164215270Y-104351717D01*
G37*
%TD.AperFunction*%
%TA.AperFunction,Conductor*%
G36*
X173063181Y-99469627D02*
G01*
X173096666Y-99530950D01*
X173099500Y-99557308D01*
X173099500Y-100190242D01*
X173079815Y-100257281D01*
X173027011Y-100303036D01*
X172957853Y-100312980D01*
X172894297Y-100283955D01*
X172887819Y-100277923D01*
X172869786Y-100259890D01*
X172697817Y-100134949D01*
X172688504Y-100130204D01*
X172637707Y-100082230D01*
X172620912Y-100014409D01*
X172643449Y-99948274D01*
X172688507Y-99909232D01*
X172697555Y-99904622D01*
X172751716Y-99865270D01*
X172751717Y-99865270D01*
X172119408Y-99232962D01*
X172182993Y-99215925D01*
X172297007Y-99150099D01*
X172390099Y-99057007D01*
X172455925Y-98942993D01*
X172472962Y-98879408D01*
X173063181Y-99469627D01*
G37*
%TD.AperFunction*%
%TA.AperFunction,Conductor*%
G36*
X153744075Y-98942993D02*
G01*
X153809901Y-99057007D01*
X153902993Y-99150099D01*
X154017007Y-99215925D01*
X154080590Y-99232962D01*
X153448282Y-99865269D01*
X153448282Y-99865270D01*
X153502452Y-99904626D01*
X153502451Y-99904626D01*
X153511495Y-99909234D01*
X153562292Y-99957208D01*
X153579087Y-100025029D01*
X153556550Y-100091164D01*
X153511499Y-100130202D01*
X153502182Y-100134949D01*
X153330213Y-100259890D01*
X153330209Y-100259894D01*
X153312181Y-100277923D01*
X153250858Y-100311408D01*
X153181166Y-100306424D01*
X153125233Y-100264552D01*
X153100816Y-100199088D01*
X153100500Y-100190242D01*
X153100500Y-99557308D01*
X153120185Y-99490269D01*
X153136819Y-99469627D01*
X153727037Y-98879408D01*
X153744075Y-98942993D01*
G37*
%TD.AperFunction*%
%TA.AperFunction,Conductor*%
G36*
X153305703Y-97216045D02*
G01*
X153312181Y-97222077D01*
X153330213Y-97240109D01*
X153502179Y-97365048D01*
X153502181Y-97365049D01*
X153502184Y-97365051D01*
X153511493Y-97369794D01*
X153562290Y-97417766D01*
X153579087Y-97485587D01*
X153556552Y-97551722D01*
X153511505Y-97590760D01*
X153502446Y-97595376D01*
X153502440Y-97595380D01*
X153448282Y-97634727D01*
X153448282Y-97634728D01*
X154080591Y-98267037D01*
X154017007Y-98284075D01*
X153902993Y-98349901D01*
X153809901Y-98442993D01*
X153744075Y-98557007D01*
X153727037Y-98620591D01*
X153136819Y-98030373D01*
X153103334Y-97969050D01*
X153100500Y-97942692D01*
X153100500Y-97309758D01*
X153120185Y-97242719D01*
X153172989Y-97196964D01*
X153242147Y-97187020D01*
X153305703Y-97216045D01*
G37*
%TD.AperFunction*%
%TA.AperFunction,Conductor*%
G36*
X173018834Y-97193576D02*
G01*
X173074767Y-97235448D01*
X173099184Y-97300912D01*
X173099500Y-97309758D01*
X173099500Y-97942692D01*
X173079815Y-98009731D01*
X173063181Y-98030373D01*
X172472962Y-98620591D01*
X172455925Y-98557007D01*
X172390099Y-98442993D01*
X172297007Y-98349901D01*
X172182993Y-98284075D01*
X172119409Y-98267037D01*
X172751716Y-97634728D01*
X172697547Y-97595373D01*
X172697547Y-97595372D01*
X172688500Y-97590763D01*
X172637706Y-97542788D01*
X172620912Y-97474966D01*
X172643451Y-97408832D01*
X172688508Y-97369793D01*
X172697816Y-97365051D01*
X172786096Y-97300912D01*
X172869786Y-97240109D01*
X172869788Y-97240106D01*
X172869792Y-97240104D01*
X172887819Y-97222077D01*
X172949142Y-97188592D01*
X173018834Y-97193576D01*
G37*
%TD.AperFunction*%
%TA.AperFunction,Conductor*%
G36*
X173063181Y-86769627D02*
G01*
X173096666Y-86830950D01*
X173099500Y-86857308D01*
X173099500Y-87490242D01*
X173079815Y-87557281D01*
X173027011Y-87603036D01*
X172957853Y-87612980D01*
X172894297Y-87583955D01*
X172887819Y-87577923D01*
X172869786Y-87559890D01*
X172697817Y-87434949D01*
X172688504Y-87430204D01*
X172637707Y-87382230D01*
X172620912Y-87314409D01*
X172643449Y-87248274D01*
X172688507Y-87209232D01*
X172697555Y-87204622D01*
X172751716Y-87165270D01*
X172751717Y-87165270D01*
X172119408Y-86532962D01*
X172182993Y-86515925D01*
X172297007Y-86450099D01*
X172390099Y-86357007D01*
X172455925Y-86242993D01*
X172472962Y-86179408D01*
X173063181Y-86769627D01*
G37*
%TD.AperFunction*%
%TA.AperFunction,Conductor*%
G36*
X153744075Y-86242993D02*
G01*
X153809901Y-86357007D01*
X153902993Y-86450099D01*
X154017007Y-86515925D01*
X154080589Y-86532962D01*
X153448282Y-87165269D01*
X153448282Y-87165270D01*
X153502452Y-87204626D01*
X153502451Y-87204626D01*
X153511495Y-87209234D01*
X153562292Y-87257208D01*
X153579087Y-87325029D01*
X153556550Y-87391164D01*
X153511499Y-87430202D01*
X153502182Y-87434949D01*
X153330213Y-87559890D01*
X153330209Y-87559894D01*
X153312181Y-87577923D01*
X153250858Y-87611408D01*
X153181166Y-87606424D01*
X153125233Y-87564552D01*
X153100816Y-87499088D01*
X153100500Y-87490242D01*
X153100500Y-86857308D01*
X153120185Y-86790269D01*
X153136819Y-86769627D01*
X153727037Y-86179408D01*
X153744075Y-86242993D01*
G37*
%TD.AperFunction*%
%TA.AperFunction,Conductor*%
G36*
X170752723Y-84093685D02*
G01*
X170796169Y-84141706D01*
X170834949Y-84217817D01*
X170959890Y-84389786D01*
X171110213Y-84540109D01*
X171282179Y-84665048D01*
X171282181Y-84665049D01*
X171282184Y-84665051D01*
X171291493Y-84669794D01*
X171342290Y-84717766D01*
X171359087Y-84785587D01*
X171336552Y-84851722D01*
X171291505Y-84890760D01*
X171282446Y-84895376D01*
X171282440Y-84895380D01*
X171228282Y-84934727D01*
X171228282Y-84934728D01*
X171860591Y-85567037D01*
X171797007Y-85584075D01*
X171682993Y-85649901D01*
X171589901Y-85742993D01*
X171524075Y-85857007D01*
X171507037Y-85920591D01*
X170874728Y-85288282D01*
X170874727Y-85288282D01*
X170835380Y-85342439D01*
X170738904Y-85531782D01*
X170673242Y-85733869D01*
X170673242Y-85733872D01*
X170640000Y-85943753D01*
X170640000Y-86156246D01*
X170673242Y-86366127D01*
X170673242Y-86366130D01*
X170738904Y-86568217D01*
X170835375Y-86757550D01*
X170874728Y-86811716D01*
X171507037Y-86179408D01*
X171524075Y-86242993D01*
X171589901Y-86357007D01*
X171682993Y-86450099D01*
X171797007Y-86515925D01*
X171860590Y-86532962D01*
X171228282Y-87165269D01*
X171228282Y-87165270D01*
X171282452Y-87204626D01*
X171282451Y-87204626D01*
X171291495Y-87209234D01*
X171342292Y-87257208D01*
X171359087Y-87325029D01*
X171336550Y-87391164D01*
X171291499Y-87430202D01*
X171282182Y-87434949D01*
X171110213Y-87559890D01*
X171110209Y-87559894D01*
X171101541Y-87568563D01*
X171040218Y-87602048D01*
X170970526Y-87597064D01*
X170926179Y-87568563D01*
X170597944Y-87240328D01*
X170591546Y-87233425D01*
X170584016Y-87224655D01*
X170551313Y-87168011D01*
X170446304Y-87063002D01*
X170446301Y-87063000D01*
X169350370Y-85967069D01*
X169316885Y-85905746D01*
X169321869Y-85836054D01*
X169350367Y-85791710D01*
X169371789Y-85770289D01*
X169459394Y-85639179D01*
X169519737Y-85493497D01*
X169550500Y-85338842D01*
X169550500Y-85181158D01*
X169550500Y-85181155D01*
X169532487Y-85090601D01*
X169527500Y-85065530D01*
X169533727Y-84995941D01*
X169561442Y-84953652D01*
X169569723Y-84945371D01*
X169652031Y-84806195D01*
X169652033Y-84806190D01*
X169697144Y-84650918D01*
X169697145Y-84650912D01*
X169698790Y-84630000D01*
X169285615Y-84630000D01*
X169218576Y-84610315D01*
X169216724Y-84609102D01*
X169129184Y-84550609D01*
X169129176Y-84550604D01*
X168996547Y-84495668D01*
X168980981Y-84483124D01*
X168962797Y-84474820D01*
X168954332Y-84461649D01*
X168942144Y-84451827D01*
X168935831Y-84432859D01*
X168925023Y-84416042D01*
X168921060Y-84388481D01*
X168920079Y-84385533D01*
X168920000Y-84381107D01*
X168920000Y-84254000D01*
X168939685Y-84186961D01*
X168992489Y-84141206D01*
X169044000Y-84130000D01*
X169698790Y-84130000D01*
X169713741Y-84113827D01*
X169773703Y-84077961D01*
X169804795Y-84074000D01*
X170685684Y-84074000D01*
X170752723Y-84093685D01*
G37*
%TD.AperFunction*%
%TA.AperFunction,Conductor*%
G36*
X160960219Y-85468415D02*
G01*
X161015397Y-85511277D01*
X161038642Y-85577166D01*
X161022575Y-85645163D01*
X161002502Y-85671486D01*
X160936467Y-85737521D01*
X160857074Y-85856340D01*
X160857069Y-85856350D01*
X160839061Y-85899826D01*
X160835051Y-85904801D01*
X160833736Y-85911053D01*
X160813396Y-85931673D01*
X160795220Y-85954229D01*
X160789158Y-85956246D01*
X160784671Y-85960796D01*
X160756404Y-85967147D01*
X160728925Y-85976294D01*
X160722735Y-85974714D01*
X160716501Y-85976115D01*
X160689292Y-85966178D01*
X160661226Y-85959015D01*
X160656872Y-85954338D01*
X160650871Y-85952147D01*
X160633354Y-85929077D01*
X160613616Y-85907877D01*
X160611513Y-85900313D01*
X160608618Y-85896501D01*
X160605029Y-85876993D01*
X160600879Y-85862066D01*
X160600500Y-85857232D01*
X160600500Y-85806898D01*
X160589877Y-85718436D01*
X160589553Y-85717614D01*
X160588932Y-85709693D01*
X160589438Y-85707287D01*
X160589438Y-85685215D01*
X160589876Y-85681566D01*
X160589877Y-85681564D01*
X160600500Y-85593102D01*
X160600500Y-85593100D01*
X160600722Y-85589397D01*
X160601976Y-85589472D01*
X160620185Y-85527461D01*
X160672989Y-85481706D01*
X160724500Y-85470500D01*
X160848843Y-85470500D01*
X160862942Y-85467695D01*
X160890628Y-85462188D01*
X160960219Y-85468415D01*
G37*
%TD.AperFunction*%
%TA.AperFunction,Conductor*%
G36*
X153305703Y-84516045D02*
G01*
X153312181Y-84522077D01*
X153330213Y-84540109D01*
X153502179Y-84665048D01*
X153502181Y-84665049D01*
X153502184Y-84665051D01*
X153511493Y-84669794D01*
X153562290Y-84717766D01*
X153579087Y-84785587D01*
X153556552Y-84851722D01*
X153511505Y-84890760D01*
X153502446Y-84895376D01*
X153502440Y-84895380D01*
X153448282Y-84934727D01*
X153448282Y-84934728D01*
X154080591Y-85567037D01*
X154017007Y-85584075D01*
X153902993Y-85649901D01*
X153809901Y-85742993D01*
X153744075Y-85857007D01*
X153727037Y-85920591D01*
X153136819Y-85330373D01*
X153103334Y-85269050D01*
X153100500Y-85242692D01*
X153100500Y-84609758D01*
X153120185Y-84542719D01*
X153172989Y-84496964D01*
X153242147Y-84487020D01*
X153305703Y-84516045D01*
G37*
%TD.AperFunction*%
%TA.AperFunction,Conductor*%
G36*
X173018834Y-84493576D02*
G01*
X173074767Y-84535448D01*
X173099184Y-84600912D01*
X173099500Y-84609758D01*
X173099500Y-85242692D01*
X173079815Y-85309731D01*
X173063181Y-85330373D01*
X172472962Y-85920591D01*
X172455925Y-85857007D01*
X172390099Y-85742993D01*
X172297007Y-85649901D01*
X172182993Y-85584075D01*
X172119409Y-85567037D01*
X172751716Y-84934728D01*
X172697547Y-84895373D01*
X172697547Y-84895372D01*
X172688500Y-84890763D01*
X172637706Y-84842788D01*
X172620912Y-84774966D01*
X172643451Y-84708832D01*
X172688508Y-84669793D01*
X172697816Y-84665051D01*
X172801509Y-84589714D01*
X172869786Y-84540109D01*
X172869788Y-84540106D01*
X172869792Y-84540104D01*
X172887819Y-84522077D01*
X172949142Y-84488592D01*
X173018834Y-84493576D01*
G37*
%TD.AperFunction*%
%TA.AperFunction,Conductor*%
G36*
X160854980Y-81709144D02*
G01*
X160884971Y-81715668D01*
X160889987Y-81719423D01*
X160892582Y-81720185D01*
X160913219Y-81736814D01*
X160980389Y-81803984D01*
X160980390Y-81803985D01*
X161111492Y-81891585D01*
X161111505Y-81891592D01*
X161245322Y-81947020D01*
X161257181Y-81951932D01*
X161411836Y-81982695D01*
X161412525Y-81982832D01*
X161474436Y-82015217D01*
X161476015Y-82016768D01*
X161529767Y-82070520D01*
X161529769Y-82070521D01*
X161529773Y-82070524D01*
X161631952Y-82129516D01*
X161666699Y-82149577D01*
X161778502Y-82179534D01*
X161819425Y-82190500D01*
X161819426Y-82190500D01*
X162930939Y-82190500D01*
X162930943Y-82190501D01*
X163089057Y-82190501D01*
X163092468Y-82189586D01*
X163103943Y-82189525D01*
X163130326Y-82197117D01*
X163157456Y-82201347D01*
X163166070Y-82207404D01*
X163171087Y-82208848D01*
X163175839Y-82214273D01*
X163192292Y-82225842D01*
X163204980Y-82238530D01*
X163204984Y-82238533D01*
X163323803Y-82317926D01*
X163323809Y-82317929D01*
X163323810Y-82317930D01*
X163455843Y-82372620D01*
X163455847Y-82372620D01*
X163455848Y-82372621D01*
X163596005Y-82400501D01*
X163596008Y-82400501D01*
X163738920Y-82400501D01*
X163833214Y-82381743D01*
X163879083Y-82372620D01*
X163941082Y-82346938D01*
X163988535Y-82337500D01*
X164371951Y-82337500D01*
X164438990Y-82357185D01*
X164484745Y-82409989D01*
X164493568Y-82437308D01*
X164502381Y-82481614D01*
X164502383Y-82481620D01*
X164557071Y-82613650D01*
X164557076Y-82613659D01*
X164636469Y-82732478D01*
X164636472Y-82732482D01*
X164737519Y-82833529D01*
X164737523Y-82833532D01*
X164856342Y-82912925D01*
X164856346Y-82912927D01*
X164856349Y-82912929D01*
X164870803Y-82918916D01*
X164925208Y-82962756D01*
X164947274Y-83029050D01*
X164929996Y-83096749D01*
X164926456Y-83102368D01*
X164897073Y-83146342D01*
X164897069Y-83146349D01*
X164842381Y-83278379D01*
X164842379Y-83278385D01*
X164814500Y-83418542D01*
X164814500Y-83418545D01*
X164814500Y-83561455D01*
X164814500Y-83561457D01*
X164814499Y-83561457D01*
X164842379Y-83701614D01*
X164842381Y-83701620D01*
X164897071Y-83833655D01*
X164915254Y-83860867D01*
X164936132Y-83927544D01*
X164926713Y-83977209D01*
X164872382Y-84108375D01*
X164872379Y-84108385D01*
X164844500Y-84248542D01*
X164844500Y-84391454D01*
X164853464Y-84436522D01*
X164847235Y-84506113D01*
X164819529Y-84548391D01*
X164778212Y-84589708D01*
X164778208Y-84589714D01*
X164690609Y-84720814D01*
X164690602Y-84720827D01*
X164630264Y-84866498D01*
X164630261Y-84866508D01*
X164604879Y-84994109D01*
X164572493Y-85056020D01*
X164511777Y-85090594D01*
X164459072Y-85091534D01*
X164448842Y-85089500D01*
X164291158Y-85089500D01*
X164291155Y-85089500D01*
X164136510Y-85120261D01*
X164136498Y-85120264D01*
X163990827Y-85180602D01*
X163990814Y-85180609D01*
X163859711Y-85268210D01*
X163859707Y-85268213D01*
X163748213Y-85379707D01*
X163748209Y-85379712D01*
X163742433Y-85388357D01*
X163688820Y-85433160D01*
X163619494Y-85441866D01*
X163556468Y-85411709D01*
X163536231Y-85388354D01*
X163470318Y-85289710D01*
X163470315Y-85289706D01*
X163358821Y-85178212D01*
X163358817Y-85178209D01*
X163227714Y-85090608D01*
X163227701Y-85090601D01*
X163082030Y-85030263D01*
X163082018Y-85030260D01*
X162927374Y-84999499D01*
X162927371Y-84999499D01*
X162769687Y-84999499D01*
X162769684Y-84999499D01*
X162615039Y-85030260D01*
X162615027Y-85030263D01*
X162469356Y-85090601D01*
X162469343Y-85090608D01*
X162338240Y-85178209D01*
X162338236Y-85178212D01*
X162226742Y-85289706D01*
X162226739Y-85289710D01*
X162139138Y-85420813D01*
X162139133Y-85420822D01*
X162088701Y-85542578D01*
X162044860Y-85596981D01*
X161978566Y-85619046D01*
X161910867Y-85601767D01*
X161905250Y-85598228D01*
X161843657Y-85557073D01*
X161843650Y-85557069D01*
X161711620Y-85502381D01*
X161711614Y-85502379D01*
X161571457Y-85474500D01*
X161571455Y-85474500D01*
X161428545Y-85474500D01*
X161428542Y-85474500D01*
X161416313Y-85476932D01*
X161346722Y-85470702D01*
X161291546Y-85427838D01*
X161268304Y-85361947D01*
X161284374Y-85293951D01*
X161304441Y-85267636D01*
X161391789Y-85180289D01*
X161479394Y-85049179D01*
X161539737Y-84903497D01*
X161570500Y-84748842D01*
X161570500Y-84591158D01*
X161570500Y-84591155D01*
X161570499Y-84591153D01*
X161560345Y-84540104D01*
X161539737Y-84436503D01*
X161520389Y-84389792D01*
X161479397Y-84290827D01*
X161479390Y-84290814D01*
X161391789Y-84159711D01*
X161391786Y-84159707D01*
X161306099Y-84074020D01*
X161272614Y-84012697D01*
X161277598Y-83943005D01*
X161279219Y-83938886D01*
X161321884Y-83835885D01*
X161331007Y-83790016D01*
X161349765Y-83695722D01*
X161349765Y-83552807D01*
X161321885Y-83412650D01*
X161321884Y-83412649D01*
X161321884Y-83412645D01*
X161267194Y-83280612D01*
X161254016Y-83260890D01*
X161233139Y-83194215D01*
X161242558Y-83144548D01*
X161242929Y-83143653D01*
X161297619Y-83011620D01*
X161325500Y-82871455D01*
X161325500Y-82728545D01*
X161325500Y-82728542D01*
X161297620Y-82588385D01*
X161297619Y-82588384D01*
X161297619Y-82588380D01*
X161242929Y-82456347D01*
X161242928Y-82456346D01*
X161242925Y-82456340D01*
X161163532Y-82337521D01*
X161163529Y-82337517D01*
X161062482Y-82236470D01*
X161062478Y-82236467D01*
X160943659Y-82157074D01*
X160943650Y-82157069D01*
X160811620Y-82102381D01*
X160811615Y-82102380D01*
X160700307Y-82080238D01*
X160638397Y-82047852D01*
X160603823Y-81987136D01*
X160600500Y-81958621D01*
X160600500Y-81824500D01*
X160620185Y-81757461D01*
X160672989Y-81711706D01*
X160724500Y-81700500D01*
X160825543Y-81700500D01*
X160854980Y-81709144D01*
G37*
%TD.AperFunction*%
%TA.AperFunction,Conductor*%
G36*
X168713039Y-78049685D02*
G01*
X168758794Y-78102489D01*
X168770000Y-78154000D01*
X168770000Y-78335500D01*
X168750315Y-78402539D01*
X168697511Y-78448294D01*
X168646000Y-78459500D01*
X168535302Y-78459500D01*
X168499008Y-78462356D01*
X168499002Y-78462357D01*
X168343610Y-78507504D01*
X168343599Y-78507508D01*
X168309928Y-78527421D01*
X168242204Y-78544602D01*
X168214715Y-78540463D01*
X168212374Y-78539835D01*
X168212373Y-78539835D01*
X168059646Y-78498911D01*
X167924000Y-78498911D01*
X167915314Y-78496360D01*
X167906353Y-78497649D01*
X167882312Y-78486670D01*
X167856961Y-78479226D01*
X167851033Y-78472385D01*
X167842797Y-78468624D01*
X167828507Y-78446389D01*
X167811206Y-78426422D01*
X167808918Y-78415907D01*
X167805023Y-78409846D01*
X167800000Y-78374911D01*
X167800000Y-78154000D01*
X167819685Y-78086961D01*
X167872489Y-78041206D01*
X167924000Y-78030000D01*
X168646000Y-78030000D01*
X168713039Y-78049685D01*
G37*
%TD.AperFunction*%
%TA.AperFunction,Conductor*%
G36*
X167190703Y-67210384D02*
G01*
X167197181Y-67216416D01*
X168045425Y-68064660D01*
X168078910Y-68125983D01*
X168079361Y-68128149D01*
X168110261Y-68283491D01*
X168110264Y-68283501D01*
X168170602Y-68429172D01*
X168170609Y-68429185D01*
X168258210Y-68560288D01*
X168258213Y-68560292D01*
X168369707Y-68671786D01*
X168369711Y-68671789D01*
X168500814Y-68759390D01*
X168500827Y-68759397D01*
X168646498Y-68819735D01*
X168646503Y-68819737D01*
X168801153Y-68850499D01*
X168801156Y-68850500D01*
X168801158Y-68850500D01*
X168958844Y-68850500D01*
X168958845Y-68850499D01*
X169113497Y-68819737D01*
X169259179Y-68759394D01*
X169363109Y-68689949D01*
X169429786Y-68669072D01*
X169497166Y-68687556D01*
X169543857Y-68739535D01*
X169556000Y-68793052D01*
X169556000Y-70900605D01*
X169536315Y-70967644D01*
X169535102Y-70969495D01*
X169477077Y-71056335D01*
X169477069Y-71056349D01*
X169422381Y-71188379D01*
X169422379Y-71188385D01*
X169394500Y-71328542D01*
X169394500Y-71328545D01*
X169394500Y-71471455D01*
X169394500Y-71471457D01*
X169394499Y-71471457D01*
X169422379Y-71611614D01*
X169422381Y-71611620D01*
X169477069Y-71743650D01*
X169477074Y-71743659D01*
X169556467Y-71862478D01*
X169556470Y-71862482D01*
X169657517Y-71963529D01*
X169657521Y-71963532D01*
X169776340Y-72042925D01*
X169776346Y-72042928D01*
X169776347Y-72042929D01*
X169908380Y-72097619D01*
X169908384Y-72097619D01*
X169908385Y-72097620D01*
X170048542Y-72125500D01*
X170048545Y-72125500D01*
X170191457Y-72125500D01*
X170285751Y-72106742D01*
X170331620Y-72097619D01*
X170463653Y-72042929D01*
X170582479Y-71963532D01*
X170683532Y-71862479D01*
X170762929Y-71743653D01*
X170765376Y-71737744D01*
X170809217Y-71683341D01*
X170875510Y-71661275D01*
X170943210Y-71678553D01*
X170967619Y-71697515D01*
X171110213Y-71840109D01*
X171282179Y-71965048D01*
X171282181Y-71965049D01*
X171282184Y-71965051D01*
X171291493Y-71969794D01*
X171342290Y-72017766D01*
X171359087Y-72085587D01*
X171336552Y-72151722D01*
X171291505Y-72190760D01*
X171282446Y-72195376D01*
X171282440Y-72195380D01*
X171228282Y-72234727D01*
X171228282Y-72234728D01*
X171860591Y-72867037D01*
X171797007Y-72884075D01*
X171682993Y-72949901D01*
X171589901Y-73042993D01*
X171524075Y-73157007D01*
X171507037Y-73220591D01*
X170874728Y-72588282D01*
X170874727Y-72588282D01*
X170835380Y-72642439D01*
X170738904Y-72831782D01*
X170673242Y-73033869D01*
X170673242Y-73033872D01*
X170640000Y-73243753D01*
X170640000Y-73456246D01*
X170673242Y-73666127D01*
X170673242Y-73666130D01*
X170738904Y-73868217D01*
X170835375Y-74057550D01*
X170874728Y-74111716D01*
X171507037Y-73479408D01*
X171524075Y-73542993D01*
X171589901Y-73657007D01*
X171682993Y-73750099D01*
X171797007Y-73815925D01*
X171860590Y-73832962D01*
X171228282Y-74465269D01*
X171228282Y-74465270D01*
X171282452Y-74504626D01*
X171282451Y-74504626D01*
X171291495Y-74509234D01*
X171342292Y-74557208D01*
X171359087Y-74625029D01*
X171336550Y-74691164D01*
X171291499Y-74730202D01*
X171282182Y-74734949D01*
X171110213Y-74859890D01*
X170959890Y-75010213D01*
X170834951Y-75182179D01*
X170738444Y-75371585D01*
X170672753Y-75573760D01*
X170639500Y-75783713D01*
X170639500Y-75996286D01*
X170672753Y-76206240D01*
X170672754Y-76206244D01*
X170699150Y-76287484D01*
X170699584Y-76302694D01*
X170704903Y-76316954D01*
X170700561Y-76336911D01*
X170701145Y-76357325D01*
X170693057Y-76371410D01*
X170690052Y-76385227D01*
X170668901Y-76413482D01*
X170583698Y-76498685D01*
X170583697Y-76498685D01*
X170583696Y-76498686D01*
X170478689Y-76603693D01*
X170478684Y-76603699D01*
X170468840Y-76620750D01*
X170418271Y-76668964D01*
X170349663Y-76682184D01*
X170284800Y-76656214D01*
X170244273Y-76599298D01*
X170242387Y-76593369D01*
X170232869Y-76560607D01*
X170151135Y-76422402D01*
X170151133Y-76422400D01*
X170151130Y-76422396D01*
X170037603Y-76308869D01*
X170037595Y-76308863D01*
X169899393Y-76227131D01*
X169899388Y-76227129D01*
X169745208Y-76182335D01*
X169745202Y-76182334D01*
X169709181Y-76179500D01*
X169310830Y-76179500D01*
X169310808Y-76179501D01*
X169274796Y-76182335D01*
X169249093Y-76189802D01*
X169179223Y-76189601D01*
X169120554Y-76151658D01*
X169091712Y-76088019D01*
X169090500Y-76070725D01*
X169090500Y-75766560D01*
X169090501Y-75766547D01*
X169090501Y-75598444D01*
X169081725Y-75565691D01*
X169049577Y-75445716D01*
X168992112Y-75346182D01*
X168975500Y-75284183D01*
X168975500Y-74920831D01*
X168975499Y-74920818D01*
X168973682Y-74903036D01*
X168965436Y-74822315D01*
X168912549Y-74662713D01*
X168912545Y-74662707D01*
X168912544Y-74662704D01*
X168824283Y-74519612D01*
X168824280Y-74519608D01*
X168792000Y-74487328D01*
X168758515Y-74426005D01*
X168763499Y-74356313D01*
X168792000Y-74311966D01*
X168823885Y-74280080D01*
X168912091Y-74137077D01*
X168912093Y-74137072D01*
X168964942Y-73977583D01*
X168974999Y-73879150D01*
X168975000Y-73879137D01*
X168975000Y-73862500D01*
X167025001Y-73862500D01*
X167025001Y-73879152D01*
X167035056Y-73977583D01*
X167087906Y-74137072D01*
X167087908Y-74137077D01*
X167176114Y-74280080D01*
X167208000Y-74311967D01*
X167241485Y-74373291D01*
X167236499Y-74442982D01*
X167208000Y-74487327D01*
X167175719Y-74519607D01*
X167175716Y-74519612D01*
X167087455Y-74662704D01*
X167087450Y-74662715D01*
X167078023Y-74691164D01*
X167034564Y-74822315D01*
X167034564Y-74822316D01*
X167034563Y-74822316D01*
X167024500Y-74920818D01*
X167024500Y-75454181D01*
X167034563Y-75552683D01*
X167087450Y-75712284D01*
X167087455Y-75712295D01*
X167175716Y-75855387D01*
X167175719Y-75855391D01*
X167294608Y-75974280D01*
X167294612Y-75974283D01*
X167437704Y-76062544D01*
X167437707Y-76062545D01*
X167437713Y-76062549D01*
X167597315Y-76115436D01*
X167695826Y-76125500D01*
X167765500Y-76125500D01*
X167774185Y-76128050D01*
X167783147Y-76126762D01*
X167807187Y-76137740D01*
X167832539Y-76145185D01*
X167838466Y-76152025D01*
X167846703Y-76155787D01*
X167860992Y-76178021D01*
X167878294Y-76197989D01*
X167880581Y-76208503D01*
X167884477Y-76214565D01*
X167889500Y-76249500D01*
X167889500Y-76330404D01*
X167869815Y-76397443D01*
X167853181Y-76418085D01*
X167848869Y-76422396D01*
X167848863Y-76422404D01*
X167767131Y-76560606D01*
X167767129Y-76560611D01*
X167722335Y-76714791D01*
X167722334Y-76714797D01*
X167719500Y-76750811D01*
X167719500Y-77136802D01*
X167699815Y-77203841D01*
X167647011Y-77249596D01*
X167577853Y-77259540D01*
X167514297Y-77230515D01*
X167488768Y-77199922D01*
X167479723Y-77184627D01*
X167479714Y-77184616D01*
X167365383Y-77070285D01*
X167365374Y-77070278D01*
X167226195Y-76987968D01*
X167226190Y-76987966D01*
X167070918Y-76942855D01*
X167070912Y-76942854D01*
X167050000Y-76941209D01*
X167050000Y-77596000D01*
X167030315Y-77663039D01*
X166977511Y-77708794D01*
X166926000Y-77720000D01*
X166800000Y-77720000D01*
X166800000Y-77775500D01*
X166780315Y-77842539D01*
X166727511Y-77888294D01*
X166676000Y-77899500D01*
X166565302Y-77899500D01*
X166529008Y-77902356D01*
X166529002Y-77902357D01*
X166373608Y-77947504D01*
X166373600Y-77947507D01*
X166364767Y-77952732D01*
X166348865Y-77957082D01*
X166336581Y-77964977D01*
X166301646Y-77970000D01*
X166298354Y-77970000D01*
X166235233Y-77952732D01*
X166226399Y-77947507D01*
X166226391Y-77947504D01*
X166070997Y-77902357D01*
X166070991Y-77902356D01*
X166034697Y-77899500D01*
X166034690Y-77899500D01*
X165924000Y-77899500D01*
X165915314Y-77896949D01*
X165906353Y-77898238D01*
X165882312Y-77887259D01*
X165856961Y-77879815D01*
X165851033Y-77872974D01*
X165842797Y-77869213D01*
X165828507Y-77846978D01*
X165811206Y-77827011D01*
X165808918Y-77816496D01*
X165805023Y-77810435D01*
X165800000Y-77775500D01*
X165800000Y-77763291D01*
X165819685Y-77696252D01*
X165855110Y-77660189D01*
X165951175Y-77596000D01*
X165972479Y-77581765D01*
X166047926Y-77506317D01*
X166109247Y-77472834D01*
X166135606Y-77470000D01*
X166550000Y-77470000D01*
X166550000Y-76941210D01*
X166549999Y-76941209D01*
X166529087Y-76942854D01*
X166380635Y-76985983D01*
X166310766Y-76985783D01*
X166252096Y-76947840D01*
X166224424Y-76891097D01*
X166220939Y-76873576D01*
X166207619Y-76806613D01*
X166152929Y-76674580D01*
X166152928Y-76674578D01*
X166152922Y-76674568D01*
X166094898Y-76587728D01*
X166074020Y-76521051D01*
X166074000Y-76518838D01*
X166074000Y-75653373D01*
X166093685Y-75586334D01*
X166110314Y-75565696D01*
X166173532Y-75502479D01*
X166252929Y-75383653D01*
X166307619Y-75251620D01*
X166321432Y-75182179D01*
X166335500Y-75111457D01*
X166335500Y-74968542D01*
X166307620Y-74828385D01*
X166307619Y-74828384D01*
X166307619Y-74828380D01*
X166252929Y-74696347D01*
X166252928Y-74696346D01*
X166252925Y-74696340D01*
X166173532Y-74577521D01*
X166173529Y-74577517D01*
X166072482Y-74476470D01*
X166072478Y-74476467D01*
X165953659Y-74397074D01*
X165953650Y-74397069D01*
X165821620Y-74342381D01*
X165821614Y-74342379D01*
X165681457Y-74314500D01*
X165681455Y-74314500D01*
X165538545Y-74314500D01*
X165538538Y-74314500D01*
X165536649Y-74314686D01*
X165535668Y-74314500D01*
X165532453Y-74314500D01*
X165532453Y-74313890D01*
X165468004Y-74301665D01*
X165417295Y-74253598D01*
X165400500Y-74191283D01*
X165400500Y-73345849D01*
X167025000Y-73345849D01*
X167025000Y-73362500D01*
X167750000Y-73362500D01*
X168250000Y-73362500D01*
X168974999Y-73362500D01*
X168974999Y-73345864D01*
X168974998Y-73345849D01*
X168965358Y-73251483D01*
X168965358Y-73251478D01*
X168964943Y-73247417D01*
X168912093Y-73087927D01*
X168912091Y-73087922D01*
X168823885Y-72944919D01*
X168705080Y-72826114D01*
X168562077Y-72737908D01*
X168562072Y-72737906D01*
X168402583Y-72685057D01*
X168304150Y-72675000D01*
X168250000Y-72675000D01*
X168250000Y-73362500D01*
X167750000Y-73362500D01*
X167750000Y-72675000D01*
X167749999Y-72674999D01*
X167695864Y-72675000D01*
X167695847Y-72675001D01*
X167597415Y-72685057D01*
X167437927Y-72737906D01*
X167437922Y-72737908D01*
X167294919Y-72826114D01*
X167176114Y-72944919D01*
X167087908Y-73087922D01*
X167087906Y-73087927D01*
X167035057Y-73247416D01*
X167025000Y-73345849D01*
X165400500Y-73345849D01*
X165400500Y-68427538D01*
X165420185Y-68360499D01*
X165455609Y-68324436D01*
X165492459Y-68299815D01*
X165602443Y-68189831D01*
X165688857Y-68060503D01*
X165695783Y-68043779D01*
X165739623Y-67989379D01*
X165805917Y-67967313D01*
X165873616Y-67984592D01*
X165879235Y-67988132D01*
X165916340Y-68012925D01*
X165916346Y-68012928D01*
X165916347Y-68012929D01*
X166048380Y-68067619D01*
X166048384Y-68067619D01*
X166048385Y-68067620D01*
X166188542Y-68095500D01*
X166188545Y-68095500D01*
X166331457Y-68095500D01*
X166425751Y-68076742D01*
X166471620Y-68067619D01*
X166603653Y-68012929D01*
X166722479Y-67933532D01*
X166823532Y-67832479D01*
X166902929Y-67713653D01*
X166957619Y-67581620D01*
X166973957Y-67499487D01*
X166985500Y-67441457D01*
X166985500Y-67304097D01*
X167005185Y-67237058D01*
X167057989Y-67191303D01*
X167127147Y-67181359D01*
X167190703Y-67210384D01*
G37*
%TD.AperFunction*%
%TA.AperFunction,Conductor*%
G36*
X155765703Y-70623765D02*
G01*
X155772181Y-70629797D01*
X156039681Y-70897297D01*
X156073166Y-70958620D01*
X156076000Y-70984978D01*
X156076000Y-76659021D01*
X156056315Y-76726060D01*
X156003511Y-76771815D01*
X155934353Y-76781759D01*
X155870797Y-76752734D01*
X155864319Y-76746702D01*
X155531098Y-76413482D01*
X155497613Y-76352159D01*
X155500847Y-76287486D01*
X155527246Y-76206243D01*
X155560500Y-75996287D01*
X155560500Y-75783713D01*
X155527246Y-75573757D01*
X155461557Y-75371588D01*
X155365051Y-75182184D01*
X155365049Y-75182181D01*
X155365048Y-75182179D01*
X155240109Y-75010213D01*
X155089786Y-74859890D01*
X154917817Y-74734949D01*
X154908504Y-74730204D01*
X154857707Y-74682230D01*
X154840912Y-74614409D01*
X154863449Y-74548274D01*
X154908507Y-74509232D01*
X154917555Y-74504622D01*
X154971716Y-74465270D01*
X154971717Y-74465270D01*
X154339408Y-73832962D01*
X154402993Y-73815925D01*
X154517007Y-73750099D01*
X154610099Y-73657007D01*
X154675925Y-73542993D01*
X154692962Y-73479409D01*
X155325270Y-74111717D01*
X155325270Y-74111716D01*
X155364622Y-74057554D01*
X155461095Y-73868217D01*
X155526757Y-73666130D01*
X155526757Y-73666127D01*
X155560000Y-73456246D01*
X155560000Y-73243753D01*
X155526757Y-73033872D01*
X155526757Y-73033869D01*
X155461095Y-72831782D01*
X155364624Y-72642449D01*
X155325270Y-72588282D01*
X155325269Y-72588282D01*
X154692962Y-73220590D01*
X154675925Y-73157007D01*
X154610099Y-73042993D01*
X154517007Y-72949901D01*
X154402993Y-72884075D01*
X154339409Y-72867037D01*
X154971716Y-72234728D01*
X154917547Y-72195373D01*
X154917547Y-72195372D01*
X154908500Y-72190763D01*
X154857706Y-72142788D01*
X154840912Y-72074966D01*
X154863451Y-72008832D01*
X154908508Y-71969793D01*
X154917816Y-71965051D01*
X155006096Y-71900912D01*
X155089786Y-71840109D01*
X155089788Y-71840106D01*
X155089792Y-71840104D01*
X155240104Y-71689792D01*
X155240106Y-71689788D01*
X155240109Y-71689786D01*
X155365048Y-71517820D01*
X155365047Y-71517820D01*
X155365051Y-71517816D01*
X155461557Y-71328412D01*
X155527246Y-71126243D01*
X155560500Y-70916287D01*
X155560500Y-70717478D01*
X155580185Y-70650439D01*
X155632989Y-70604684D01*
X155702147Y-70594740D01*
X155765703Y-70623765D01*
G37*
%TD.AperFunction*%
%TA.AperFunction,Conductor*%
G36*
X173063181Y-74069627D02*
G01*
X173096666Y-74130950D01*
X173099500Y-74157308D01*
X173099500Y-74790242D01*
X173079815Y-74857281D01*
X173027011Y-74903036D01*
X172957853Y-74912980D01*
X172894297Y-74883955D01*
X172887819Y-74877923D01*
X172869786Y-74859890D01*
X172697817Y-74734949D01*
X172688504Y-74730204D01*
X172637707Y-74682230D01*
X172620912Y-74614409D01*
X172643449Y-74548274D01*
X172688507Y-74509232D01*
X172697555Y-74504622D01*
X172751716Y-74465270D01*
X172751717Y-74465270D01*
X172119408Y-73832962D01*
X172182993Y-73815925D01*
X172297007Y-73750099D01*
X172390099Y-73657007D01*
X172455925Y-73542993D01*
X172472962Y-73479408D01*
X173063181Y-74069627D01*
G37*
%TD.AperFunction*%
%TA.AperFunction,Conductor*%
G36*
X153744075Y-73542993D02*
G01*
X153809901Y-73657007D01*
X153902993Y-73750099D01*
X154017007Y-73815925D01*
X154080590Y-73832962D01*
X153448282Y-74465269D01*
X153448282Y-74465270D01*
X153502452Y-74504626D01*
X153502451Y-74504626D01*
X153511495Y-74509234D01*
X153562292Y-74557208D01*
X153579087Y-74625029D01*
X153556550Y-74691164D01*
X153511499Y-74730202D01*
X153502182Y-74734949D01*
X153330213Y-74859890D01*
X153330209Y-74859894D01*
X153312181Y-74877923D01*
X153250858Y-74911408D01*
X153181166Y-74906424D01*
X153125233Y-74864552D01*
X153100816Y-74799088D01*
X153100500Y-74790242D01*
X153100500Y-74157308D01*
X153120185Y-74090269D01*
X153136819Y-74069627D01*
X153727037Y-73479408D01*
X153744075Y-73542993D01*
G37*
%TD.AperFunction*%
%TA.AperFunction,Conductor*%
G36*
X160248367Y-73593294D02*
G01*
X160261803Y-73592334D01*
X160281239Y-73602947D01*
X160302483Y-73609185D01*
X160311301Y-73619362D01*
X160323126Y-73625819D01*
X160333739Y-73645257D01*
X160348238Y-73661989D01*
X160350154Y-73675319D01*
X160356610Y-73687142D01*
X160355030Y-73709228D01*
X160358182Y-73731147D01*
X160352586Y-73743398D01*
X160351626Y-73756834D01*
X160338355Y-73774560D01*
X160329157Y-73794703D01*
X160316912Y-73803204D01*
X160309754Y-73812767D01*
X160278777Y-73829682D01*
X160207671Y-73856202D01*
X160207664Y-73856206D01*
X160092455Y-73942452D01*
X160034238Y-74020220D01*
X159978304Y-74062090D01*
X159908612Y-74067074D01*
X159847290Y-74033588D01*
X159835706Y-74020219D01*
X159747547Y-73902455D01*
X159747544Y-73902452D01*
X159627740Y-73812766D01*
X159585869Y-73756832D01*
X159580885Y-73687141D01*
X159614371Y-73625818D01*
X159675694Y-73592334D01*
X159702051Y-73589500D01*
X160235444Y-73589500D01*
X160248367Y-73593294D01*
G37*
%TD.AperFunction*%
%TA.AperFunction,Conductor*%
G36*
X153305703Y-71816045D02*
G01*
X153312181Y-71822077D01*
X153330213Y-71840109D01*
X153502179Y-71965048D01*
X153502181Y-71965049D01*
X153502184Y-71965051D01*
X153511493Y-71969794D01*
X153562290Y-72017766D01*
X153579087Y-72085587D01*
X153556552Y-72151722D01*
X153511505Y-72190760D01*
X153502446Y-72195376D01*
X153502440Y-72195380D01*
X153448282Y-72234727D01*
X153448282Y-72234728D01*
X154080591Y-72867037D01*
X154017007Y-72884075D01*
X153902993Y-72949901D01*
X153809901Y-73042993D01*
X153744075Y-73157007D01*
X153727037Y-73220591D01*
X153136819Y-72630373D01*
X153103334Y-72569050D01*
X153100500Y-72542692D01*
X153100500Y-71909758D01*
X153120185Y-71842719D01*
X153172989Y-71796964D01*
X153242147Y-71787020D01*
X153305703Y-71816045D01*
G37*
%TD.AperFunction*%
%TA.AperFunction,Conductor*%
G36*
X173018834Y-71793576D02*
G01*
X173074767Y-71835448D01*
X173099184Y-71900912D01*
X173099500Y-71909758D01*
X173099500Y-72542692D01*
X173079815Y-72609731D01*
X173063181Y-72630373D01*
X172472962Y-73220591D01*
X172455925Y-73157007D01*
X172390099Y-73042993D01*
X172297007Y-72949901D01*
X172182993Y-72884075D01*
X172119409Y-72867037D01*
X172751716Y-72234728D01*
X172697547Y-72195373D01*
X172697547Y-72195372D01*
X172688500Y-72190763D01*
X172637706Y-72142788D01*
X172620912Y-72074966D01*
X172643451Y-72008832D01*
X172688508Y-71969793D01*
X172697816Y-71965051D01*
X172786096Y-71900912D01*
X172869786Y-71840109D01*
X172869788Y-71840106D01*
X172869792Y-71840104D01*
X172887819Y-71822077D01*
X172949142Y-71788592D01*
X173018834Y-71793576D01*
G37*
%TD.AperFunction*%
%TA.AperFunction,Conductor*%
G36*
X157766145Y-54720185D02*
G01*
X157811900Y-54772989D01*
X157821844Y-54842147D01*
X157819580Y-54852328D01*
X157819617Y-54852336D01*
X157780000Y-55051504D01*
X157780000Y-55200000D01*
X158480000Y-55200000D01*
X158480000Y-55700000D01*
X157780000Y-55700000D01*
X157780000Y-55848495D01*
X157818427Y-56041681D01*
X157818430Y-56041693D01*
X157893807Y-56223671D01*
X157893814Y-56223684D01*
X158003248Y-56387462D01*
X158003251Y-56387466D01*
X158142533Y-56526748D01*
X158142537Y-56526751D01*
X158306315Y-56636185D01*
X158306328Y-56636192D01*
X158488308Y-56711569D01*
X158530000Y-56719862D01*
X158530000Y-55916988D01*
X158539940Y-55934205D01*
X158595795Y-55990060D01*
X158664204Y-56029556D01*
X158740504Y-56050000D01*
X158819496Y-56050000D01*
X158895796Y-56029556D01*
X158964205Y-55990060D01*
X159020060Y-55934205D01*
X159030000Y-55916988D01*
X159030000Y-56719862D01*
X159071690Y-56711569D01*
X159071692Y-56711569D01*
X159253671Y-56636192D01*
X159253684Y-56636185D01*
X159417462Y-56526751D01*
X159417466Y-56526748D01*
X159556748Y-56387466D01*
X159556751Y-56387462D01*
X159666185Y-56223684D01*
X159666192Y-56223671D01*
X159741569Y-56041693D01*
X159741572Y-56041681D01*
X159779999Y-55848495D01*
X159780000Y-55848492D01*
X159780000Y-55700000D01*
X159080000Y-55700000D01*
X159080000Y-55200000D01*
X159780000Y-55200000D01*
X159780000Y-55051508D01*
X159779999Y-55051504D01*
X159740383Y-54852336D01*
X159742159Y-54851982D01*
X159741607Y-54790637D01*
X159778851Y-54731522D01*
X159842143Y-54701926D01*
X159860894Y-54700500D01*
X166339106Y-54700500D01*
X166406145Y-54720185D01*
X166451900Y-54772989D01*
X166461844Y-54842147D01*
X166459580Y-54852328D01*
X166459617Y-54852336D01*
X166420000Y-55051504D01*
X166420000Y-55200000D01*
X167120000Y-55200000D01*
X167120000Y-55700000D01*
X166420000Y-55700000D01*
X166420000Y-55848495D01*
X166458427Y-56041681D01*
X166458430Y-56041693D01*
X166533807Y-56223671D01*
X166533814Y-56223684D01*
X166643248Y-56387462D01*
X166643251Y-56387466D01*
X166782533Y-56526748D01*
X166782537Y-56526751D01*
X166946315Y-56636185D01*
X166946328Y-56636192D01*
X167128308Y-56711569D01*
X167170000Y-56719862D01*
X167170000Y-55916988D01*
X167179940Y-55934205D01*
X167235795Y-55990060D01*
X167304204Y-56029556D01*
X167380504Y-56050000D01*
X167459496Y-56050000D01*
X167535796Y-56029556D01*
X167604205Y-55990060D01*
X167660060Y-55934205D01*
X167670000Y-55916988D01*
X167670000Y-56719862D01*
X167711690Y-56711569D01*
X167711692Y-56711569D01*
X167893671Y-56636192D01*
X167893684Y-56636185D01*
X168057462Y-56526751D01*
X168057466Y-56526748D01*
X168196748Y-56387466D01*
X168196751Y-56387462D01*
X168306185Y-56223684D01*
X168306192Y-56223671D01*
X168381569Y-56041693D01*
X168381572Y-56041681D01*
X168419999Y-55848495D01*
X168420000Y-55848492D01*
X168420000Y-55700000D01*
X167720000Y-55700000D01*
X167720000Y-55200000D01*
X168420000Y-55200000D01*
X168420000Y-55051508D01*
X168419999Y-55051504D01*
X168380383Y-54852336D01*
X168382159Y-54851982D01*
X168381607Y-54790637D01*
X168418851Y-54731522D01*
X168482143Y-54701926D01*
X168500894Y-54700500D01*
X170515500Y-54700500D01*
X170582539Y-54720185D01*
X170628294Y-54772989D01*
X170639500Y-54824500D01*
X170639500Y-56019902D01*
X170619815Y-56086941D01*
X170603181Y-56107583D01*
X170358481Y-56352282D01*
X170358479Y-56352285D01*
X170308361Y-56439094D01*
X170308359Y-56439096D01*
X170279425Y-56489209D01*
X170279424Y-56489210D01*
X170279423Y-56489215D01*
X170238499Y-56641943D01*
X170238499Y-56641945D01*
X170238499Y-56810046D01*
X170238500Y-56810059D01*
X170238500Y-57593688D01*
X170218815Y-57660727D01*
X170202181Y-57681369D01*
X168631681Y-59251869D01*
X168570358Y-59285354D01*
X168500666Y-59280370D01*
X168444733Y-59238498D01*
X168420316Y-59173034D01*
X168420000Y-59164188D01*
X168420000Y-58981508D01*
X168419999Y-58981504D01*
X168381572Y-58788318D01*
X168381569Y-58788306D01*
X168306192Y-58606328D01*
X168306185Y-58606315D01*
X168196751Y-58442537D01*
X168196748Y-58442533D01*
X168057466Y-58303251D01*
X168057462Y-58303248D01*
X167893684Y-58193814D01*
X167893671Y-58193807D01*
X167711691Y-58118429D01*
X167711683Y-58118427D01*
X167670000Y-58110135D01*
X167670000Y-58913011D01*
X167660060Y-58895795D01*
X167604205Y-58839940D01*
X167535796Y-58800444D01*
X167459496Y-58780000D01*
X167380504Y-58780000D01*
X167304204Y-58800444D01*
X167235795Y-58839940D01*
X167179940Y-58895795D01*
X167170000Y-58913011D01*
X167170000Y-58110136D01*
X167169999Y-58110135D01*
X167128316Y-58118427D01*
X167128308Y-58118429D01*
X166946328Y-58193807D01*
X166946315Y-58193814D01*
X166782537Y-58303248D01*
X166782533Y-58303251D01*
X166643248Y-58442536D01*
X166530427Y-58611387D01*
X166529003Y-58610435D01*
X166485742Y-58654451D01*
X166417600Y-58669892D01*
X166351927Y-58646041D01*
X166349907Y-58644306D01*
X166349811Y-58644432D01*
X166343367Y-58639487D01*
X166343365Y-58639485D01*
X166277750Y-58601602D01*
X166212136Y-58563719D01*
X166138950Y-58544109D01*
X166065766Y-58524500D01*
X165914234Y-58524500D01*
X165767863Y-58563719D01*
X165636635Y-58639485D01*
X165636631Y-58639488D01*
X165541357Y-58734761D01*
X165480034Y-58768245D01*
X165410342Y-58763260D01*
X165365996Y-58734760D01*
X165268717Y-58637481D01*
X165268716Y-58637480D01*
X165175936Y-58583914D01*
X165131785Y-58558423D01*
X164979057Y-58517499D01*
X164820943Y-58517499D01*
X164813347Y-58517499D01*
X164813331Y-58517500D01*
X161386669Y-58517500D01*
X161386653Y-58517499D01*
X161379057Y-58517499D01*
X161220943Y-58517499D01*
X161106397Y-58548192D01*
X161068214Y-58558423D01*
X161024064Y-58583914D01*
X161024063Y-58583914D01*
X160931287Y-58637477D01*
X160931282Y-58637481D01*
X160834003Y-58734761D01*
X160772680Y-58768246D01*
X160702988Y-58763262D01*
X160658641Y-58734761D01*
X160563367Y-58639487D01*
X160563365Y-58639485D01*
X160497750Y-58601602D01*
X160432136Y-58563719D01*
X160358950Y-58544109D01*
X160285766Y-58524500D01*
X160134234Y-58524500D01*
X159987863Y-58563719D01*
X159856635Y-58639485D01*
X159850189Y-58644432D01*
X159848099Y-58641709D01*
X159800217Y-58667466D01*
X159730558Y-58662043D01*
X159674888Y-58619821D01*
X159669299Y-58610976D01*
X159556751Y-58442537D01*
X159556748Y-58442533D01*
X159417466Y-58303251D01*
X159417462Y-58303248D01*
X159253684Y-58193814D01*
X159253671Y-58193807D01*
X159071691Y-58118429D01*
X159071683Y-58118427D01*
X159030000Y-58110135D01*
X159030000Y-58913011D01*
X159020060Y-58895795D01*
X158964205Y-58839940D01*
X158895796Y-58800444D01*
X158819496Y-58780000D01*
X158740504Y-58780000D01*
X158664204Y-58800444D01*
X158595795Y-58839940D01*
X158539940Y-58895795D01*
X158530000Y-58913011D01*
X158530000Y-58110136D01*
X158529999Y-58110135D01*
X158488316Y-58118427D01*
X158488308Y-58118429D01*
X158306328Y-58193807D01*
X158306315Y-58193814D01*
X158142537Y-58303248D01*
X158142533Y-58303251D01*
X158003251Y-58442533D01*
X158003248Y-58442537D01*
X157893814Y-58606315D01*
X157893807Y-58606328D01*
X157818430Y-58788306D01*
X157818427Y-58788318D01*
X157780000Y-58981504D01*
X157780000Y-59380000D01*
X158480000Y-59380000D01*
X158480000Y-59880000D01*
X157780000Y-59880000D01*
X157780000Y-60278495D01*
X157818427Y-60471681D01*
X157818430Y-60471693D01*
X157893807Y-60653671D01*
X157893814Y-60653684D01*
X158003248Y-60817462D01*
X158003251Y-60817466D01*
X158142533Y-60956748D01*
X158142537Y-60956751D01*
X158306315Y-61066185D01*
X158306328Y-61066192D01*
X158488308Y-61141569D01*
X158530000Y-61149862D01*
X158530000Y-60346988D01*
X158539940Y-60364205D01*
X158595795Y-60420060D01*
X158664204Y-60459556D01*
X158740504Y-60480000D01*
X158819496Y-60480000D01*
X158895796Y-60459556D01*
X158964205Y-60420060D01*
X159020060Y-60364205D01*
X159030000Y-60346988D01*
X159030000Y-61166262D01*
X159043999Y-61186813D01*
X159050000Y-61224923D01*
X159050000Y-61317844D01*
X159056401Y-61377372D01*
X159056403Y-61377382D01*
X159076632Y-61431618D01*
X159077903Y-61449399D01*
X159084134Y-61466103D01*
X159080344Y-61483525D01*
X159081616Y-61501309D01*
X159073072Y-61516955D01*
X159069283Y-61534376D01*
X159048132Y-61562630D01*
X159004218Y-61606545D01*
X159004217Y-61606546D01*
X159004214Y-61606548D01*
X159004215Y-61606549D01*
X158899478Y-61711285D01*
X158886909Y-61733057D01*
X158867237Y-61767131D01*
X158820423Y-61848215D01*
X158779499Y-62000943D01*
X158779499Y-62000945D01*
X158779499Y-62169046D01*
X158779500Y-62169059D01*
X158779500Y-63068330D01*
X158779499Y-63068348D01*
X158779499Y-63234054D01*
X158779498Y-63234054D01*
X158820423Y-63386787D01*
X158827764Y-63399501D01*
X158827766Y-63399503D01*
X158899477Y-63523712D01*
X158899481Y-63523717D01*
X159018349Y-63642585D01*
X159018355Y-63642590D01*
X159188584Y-63812819D01*
X159222069Y-63874142D01*
X159217085Y-63943834D01*
X159175213Y-63999767D01*
X159109749Y-64024184D01*
X159100903Y-64024500D01*
X158784298Y-64024500D01*
X158747432Y-64027401D01*
X158747426Y-64027402D01*
X158589606Y-64073254D01*
X158589603Y-64073255D01*
X158448137Y-64156917D01*
X158448129Y-64156923D01*
X158331923Y-64273129D01*
X158331917Y-64273137D01*
X158248255Y-64414603D01*
X158248254Y-64414606D01*
X158202402Y-64572426D01*
X158202401Y-64572432D01*
X158199500Y-64609298D01*
X158199500Y-65915701D01*
X158202401Y-65952567D01*
X158202402Y-65952573D01*
X158248254Y-66110393D01*
X158248255Y-66110396D01*
X158248256Y-66110398D01*
X158282732Y-66168694D01*
X158300000Y-66231814D01*
X158300000Y-66887500D01*
X158850000Y-66887500D01*
X158850000Y-66624500D01*
X158852550Y-66615814D01*
X158851262Y-66606853D01*
X158862240Y-66582812D01*
X158869685Y-66557461D01*
X158876525Y-66551533D01*
X158880287Y-66543297D01*
X158902521Y-66529007D01*
X158922489Y-66511706D01*
X158933003Y-66509418D01*
X158939065Y-66505523D01*
X158974000Y-66500500D01*
X159025500Y-66500500D01*
X159092539Y-66520185D01*
X159138294Y-66572989D01*
X159149500Y-66624500D01*
X159149500Y-67790701D01*
X159152401Y-67827567D01*
X159152402Y-67827573D01*
X159198254Y-67985393D01*
X159198255Y-67985396D01*
X159198256Y-67985398D01*
X159201554Y-67990974D01*
X159281917Y-68126862D01*
X159281923Y-68126870D01*
X159398129Y-68243076D01*
X159398133Y-68243079D01*
X159398135Y-68243081D01*
X159539602Y-68326744D01*
X159581224Y-68338836D01*
X159697426Y-68372597D01*
X159697429Y-68372597D01*
X159697431Y-68372598D01*
X159734306Y-68375500D01*
X159734314Y-68375500D01*
X160165686Y-68375500D01*
X160165694Y-68375500D01*
X160202569Y-68372598D01*
X160202571Y-68372597D01*
X160202573Y-68372597D01*
X160244214Y-68360499D01*
X160360398Y-68326744D01*
X160501865Y-68243081D01*
X160618081Y-68126865D01*
X160623207Y-68118196D01*
X160637529Y-68104823D01*
X160647992Y-68088253D01*
X160662538Y-68081469D01*
X160674270Y-68070514D01*
X160693552Y-68067005D01*
X160711314Y-68058722D01*
X160727219Y-68060879D01*
X160743011Y-68058006D01*
X160761127Y-68065478D01*
X160780550Y-68068113D01*
X160800035Y-68081527D01*
X160807602Y-68084648D01*
X160810392Y-68086957D01*
X160814144Y-68090156D01*
X160896956Y-68172968D01*
X160948706Y-68204887D01*
X160955952Y-68211066D01*
X160970070Y-68232653D01*
X160987321Y-68251832D01*
X160989827Y-68262863D01*
X160994195Y-68269541D01*
X160994298Y-68282535D01*
X160999500Y-68305424D01*
X160999500Y-72264500D01*
X160979815Y-72331539D01*
X160927011Y-72377294D01*
X160875500Y-72388500D01*
X159065601Y-72388500D01*
X158998562Y-72368815D01*
X158952807Y-72316011D01*
X158942863Y-72246853D01*
X158947212Y-72227622D01*
X158994086Y-72077196D01*
X159000500Y-72006616D01*
X159000500Y-70293384D01*
X158994086Y-70222804D01*
X158943478Y-70060394D01*
X158855472Y-69914815D01*
X158855470Y-69914813D01*
X158855469Y-69914811D01*
X158735188Y-69794530D01*
X158718682Y-69784552D01*
X158589606Y-69706522D01*
X158427196Y-69655914D01*
X158427194Y-69655913D01*
X158427192Y-69655913D01*
X158377778Y-69651423D01*
X158356616Y-69649500D01*
X157843384Y-69649500D01*
X157824145Y-69651248D01*
X157772807Y-69655913D01*
X157610393Y-69706522D01*
X157464811Y-69794530D01*
X157344530Y-69914811D01*
X157256520Y-70060397D01*
X157208613Y-70214139D01*
X157206662Y-70217067D01*
X157206411Y-70220580D01*
X157187430Y-70245935D01*
X157169876Y-70272287D01*
X157166650Y-70273696D01*
X157164541Y-70276514D01*
X157134873Y-70287580D01*
X157105851Y-70300261D01*
X157102375Y-70299702D01*
X157099077Y-70300933D01*
X157068124Y-70294200D01*
X157036865Y-70289179D01*
X157033230Y-70286610D01*
X157030804Y-70286083D01*
X157002572Y-70264948D01*
X157002549Y-70264932D01*
X156986304Y-70248687D01*
X156986301Y-70248685D01*
X155531098Y-68793482D01*
X155497613Y-68732159D01*
X155500847Y-68667486D01*
X155527246Y-68586243D01*
X155560500Y-68376287D01*
X155560500Y-68163713D01*
X155527246Y-67953757D01*
X155474249Y-67790649D01*
X157250000Y-67790649D01*
X157252899Y-67827489D01*
X157252900Y-67827495D01*
X157298716Y-67985193D01*
X157298717Y-67985196D01*
X157382314Y-68126552D01*
X157382321Y-68126561D01*
X157498438Y-68242678D01*
X157498447Y-68242685D01*
X157639801Y-68326281D01*
X157797514Y-68372100D01*
X157797511Y-68372100D01*
X157799998Y-68372295D01*
X157800000Y-68372295D01*
X158300000Y-68372295D01*
X158300001Y-68372295D01*
X158302486Y-68372100D01*
X158460198Y-68326281D01*
X158601552Y-68242685D01*
X158601561Y-68242678D01*
X158717678Y-68126561D01*
X158717685Y-68126552D01*
X158801282Y-67985196D01*
X158801283Y-67985193D01*
X158847099Y-67827495D01*
X158847100Y-67827489D01*
X158849999Y-67790649D01*
X158850000Y-67790634D01*
X158850000Y-67387500D01*
X158300000Y-67387500D01*
X158300000Y-68372295D01*
X157800000Y-68372295D01*
X157800000Y-67387500D01*
X157250000Y-67387500D01*
X157250000Y-67790649D01*
X155474249Y-67790649D01*
X155461557Y-67751588D01*
X155365051Y-67562184D01*
X155365049Y-67562181D01*
X155365048Y-67562179D01*
X155253777Y-67409026D01*
X155253775Y-67409024D01*
X155240105Y-67390209D01*
X155089786Y-67239890D01*
X154917820Y-67114951D01*
X154917115Y-67114591D01*
X154909054Y-67110485D01*
X154858259Y-67062512D01*
X154841463Y-66994692D01*
X154863999Y-66928556D01*
X154909054Y-66889515D01*
X154917816Y-66885051D01*
X154993921Y-66829758D01*
X155089786Y-66760109D01*
X155089788Y-66760106D01*
X155089792Y-66760104D01*
X155240104Y-66609792D01*
X155240106Y-66609788D01*
X155240109Y-66609786D01*
X155319500Y-66500512D01*
X155331242Y-66484350D01*
X157250000Y-66484350D01*
X157250000Y-66887500D01*
X157800000Y-66887500D01*
X157800000Y-65902703D01*
X157797503Y-65902900D01*
X157639806Y-65948716D01*
X157639803Y-65948717D01*
X157498447Y-66032314D01*
X157498438Y-66032321D01*
X157382321Y-66148438D01*
X157382314Y-66148447D01*
X157298717Y-66289803D01*
X157298716Y-66289806D01*
X157252900Y-66447504D01*
X157252899Y-66447510D01*
X157250000Y-66484350D01*
X155331242Y-66484350D01*
X155365051Y-66437816D01*
X155461557Y-66248412D01*
X155527246Y-66046243D01*
X155560500Y-65836287D01*
X155560500Y-65623713D01*
X155527246Y-65413757D01*
X155461557Y-65211588D01*
X155365051Y-65022184D01*
X155365049Y-65022181D01*
X155365048Y-65022179D01*
X155240109Y-64850213D01*
X155089786Y-64699890D01*
X154917820Y-64574951D01*
X154912864Y-64572426D01*
X154909054Y-64570485D01*
X154858259Y-64522512D01*
X154841463Y-64454692D01*
X154863999Y-64388556D01*
X154909054Y-64349515D01*
X154917816Y-64345051D01*
X154993921Y-64289758D01*
X155089786Y-64220109D01*
X155089788Y-64220106D01*
X155089792Y-64220104D01*
X155240104Y-64069792D01*
X155240106Y-64069788D01*
X155240109Y-64069786D01*
X155363827Y-63899501D01*
X155365051Y-63897816D01*
X155461557Y-63708412D01*
X155527246Y-63506243D01*
X155560500Y-63296287D01*
X155560500Y-63083713D01*
X155527246Y-62873757D01*
X155461557Y-62671588D01*
X155365051Y-62482184D01*
X155365049Y-62482181D01*
X155365048Y-62482179D01*
X155240109Y-62310213D01*
X155089786Y-62159890D01*
X154917817Y-62034949D01*
X154908504Y-62030204D01*
X154857707Y-61982230D01*
X154840912Y-61914409D01*
X154863449Y-61848274D01*
X154908507Y-61809232D01*
X154917555Y-61804622D01*
X154971716Y-61765270D01*
X154971717Y-61765270D01*
X154339408Y-61132962D01*
X154402993Y-61115925D01*
X154517007Y-61050099D01*
X154610099Y-60957007D01*
X154675925Y-60842993D01*
X154692962Y-60779408D01*
X155325270Y-61411717D01*
X155325270Y-61411716D01*
X155364622Y-61357554D01*
X155461095Y-61168217D01*
X155526757Y-60966130D01*
X155526757Y-60966127D01*
X155560000Y-60756246D01*
X155560000Y-60543753D01*
X155526757Y-60333872D01*
X155526757Y-60333869D01*
X155461095Y-60131782D01*
X155364623Y-59942447D01*
X155364621Y-59942443D01*
X155334893Y-59901526D01*
X155334890Y-59901523D01*
X155325270Y-59888282D01*
X155325269Y-59888282D01*
X154692962Y-60520590D01*
X154675925Y-60457007D01*
X154610099Y-60342993D01*
X154517007Y-60249901D01*
X154402993Y-60184075D01*
X154339409Y-60167037D01*
X154971716Y-59534728D01*
X154917547Y-59495373D01*
X154917547Y-59495372D01*
X154908500Y-59490763D01*
X154857706Y-59442788D01*
X154840912Y-59374966D01*
X154863451Y-59308832D01*
X154908508Y-59269793D01*
X154917816Y-59265051D01*
X155006096Y-59200912D01*
X155089786Y-59140109D01*
X155089788Y-59140106D01*
X155089792Y-59140104D01*
X155240104Y-58989792D01*
X155258695Y-58964204D01*
X155303500Y-58902535D01*
X155303502Y-58902532D01*
X155323295Y-58875288D01*
X155365051Y-58817816D01*
X155461557Y-58628412D01*
X155527246Y-58426243D01*
X155560500Y-58216287D01*
X155560500Y-58003713D01*
X155527246Y-57793757D01*
X155461557Y-57591588D01*
X155365051Y-57402184D01*
X155365049Y-57402181D01*
X155365048Y-57402179D01*
X155240109Y-57230213D01*
X155126569Y-57116673D01*
X155093084Y-57055350D01*
X155098068Y-56985658D01*
X155139940Y-56929725D01*
X155170915Y-56912810D01*
X155302331Y-56863796D01*
X155417546Y-56777546D01*
X155503796Y-56662331D01*
X155554091Y-56527483D01*
X155560500Y-56467873D01*
X155560499Y-55454734D01*
X155560499Y-54824500D01*
X155580183Y-54757461D01*
X155632987Y-54711706D01*
X155684499Y-54700500D01*
X157699106Y-54700500D01*
X157766145Y-54720185D01*
G37*
%TD.AperFunction*%
%TA.AperFunction,Conductor*%
G36*
X162518834Y-68059692D02*
G01*
X162574767Y-68101564D01*
X162599184Y-68167028D01*
X162599500Y-68175874D01*
X162599500Y-69549138D01*
X162579815Y-69616177D01*
X162563181Y-69636819D01*
X162550000Y-69650000D01*
X162550000Y-71026000D01*
X162547449Y-71034685D01*
X162548738Y-71043647D01*
X162537759Y-71067687D01*
X162530315Y-71093039D01*
X162523474Y-71098966D01*
X162519713Y-71107203D01*
X162497478Y-71121492D01*
X162477511Y-71138794D01*
X162466996Y-71141081D01*
X162460935Y-71144977D01*
X162426000Y-71150000D01*
X162324500Y-71150000D01*
X162257461Y-71130315D01*
X162211706Y-71077511D01*
X162200500Y-71026000D01*
X162200500Y-68305424D01*
X162220185Y-68238385D01*
X162259402Y-68199886D01*
X162303044Y-68172968D01*
X162387819Y-68088193D01*
X162449142Y-68054708D01*
X162518834Y-68059692D01*
G37*
%TD.AperFunction*%
%TA.AperFunction,Conductor*%
G36*
X170559334Y-60492413D02*
G01*
X170615267Y-60534285D01*
X170639684Y-60599749D01*
X170640000Y-60608595D01*
X170640000Y-60756246D01*
X170673242Y-60966127D01*
X170673242Y-60966130D01*
X170738904Y-61168217D01*
X170835375Y-61357550D01*
X170874728Y-61411716D01*
X171507037Y-60779408D01*
X171524075Y-60842993D01*
X171589901Y-60957007D01*
X171682993Y-61050099D01*
X171797007Y-61115925D01*
X171860590Y-61132962D01*
X171228282Y-61765269D01*
X171228282Y-61765270D01*
X171282452Y-61804626D01*
X171282451Y-61804626D01*
X171291495Y-61809234D01*
X171342292Y-61857208D01*
X171359087Y-61925029D01*
X171336550Y-61991164D01*
X171291499Y-62030202D01*
X171282182Y-62034949D01*
X171110213Y-62159890D01*
X170959890Y-62310213D01*
X170834951Y-62482179D01*
X170738444Y-62671585D01*
X170672753Y-62873760D01*
X170650179Y-63016287D01*
X170639500Y-63083713D01*
X170639500Y-63296287D01*
X170642152Y-63313030D01*
X170672753Y-63506240D01*
X170672754Y-63506244D01*
X170699150Y-63587484D01*
X170701145Y-63657325D01*
X170668900Y-63713482D01*
X170323785Y-64058596D01*
X170262462Y-64092081D01*
X170192770Y-64087097D01*
X170136837Y-64045225D01*
X170130041Y-64035038D01*
X170129714Y-64034616D01*
X170015383Y-63920285D01*
X170015374Y-63920278D01*
X169876193Y-63837967D01*
X169876190Y-63837965D01*
X169730001Y-63795493D01*
X169730000Y-63795494D01*
X169730000Y-64601021D01*
X169710315Y-64668060D01*
X169708020Y-64671504D01*
X169701630Y-64680752D01*
X169668687Y-64713696D01*
X169619404Y-64799057D01*
X169616902Y-64803389D01*
X169616896Y-64803399D01*
X169594435Y-64842302D01*
X169560566Y-64968707D01*
X169560564Y-64968716D01*
X169556000Y-64985748D01*
X169556000Y-64985749D01*
X169556000Y-67306947D01*
X169536315Y-67373986D01*
X169483511Y-67419741D01*
X169414353Y-67429685D01*
X169363109Y-67410049D01*
X169259185Y-67340609D01*
X169259172Y-67340602D01*
X169113501Y-67280264D01*
X169107665Y-67278494D01*
X169108435Y-67275955D01*
X169056627Y-67248227D01*
X169022631Y-67187186D01*
X169027032Y-67117455D01*
X169055892Y-67072133D01*
X169090731Y-67037294D01*
X169090738Y-67037285D01*
X169172404Y-66899194D01*
X169212844Y-66760000D01*
X168524000Y-66760000D01*
X168456961Y-66740315D01*
X168411206Y-66687511D01*
X168400000Y-66636000D01*
X168400000Y-66384499D01*
X168402486Y-66376032D01*
X168401198Y-66367301D01*
X168412179Y-66343021D01*
X168419685Y-66317460D01*
X168426354Y-66311681D01*
X168429991Y-66303640D01*
X168452355Y-66289151D01*
X168472489Y-66271705D01*
X168482764Y-66269449D01*
X168488630Y-66265650D01*
X168522664Y-66260693D01*
X168523546Y-66260500D01*
X168523750Y-66260499D01*
X168649180Y-66260499D01*
X168655294Y-66260017D01*
X168659939Y-66260001D01*
X168659990Y-66260015D01*
X168660393Y-66260000D01*
X169212844Y-66260000D01*
X169172404Y-66120805D01*
X169138581Y-66063612D01*
X169121398Y-65995888D01*
X169138582Y-65937369D01*
X169172869Y-65879393D01*
X169217665Y-65725204D01*
X169220500Y-65689181D01*
X169220499Y-65473595D01*
X169230000Y-65441238D01*
X169230000Y-65098352D01*
X169233612Y-65085147D01*
X169232645Y-65072876D01*
X169244738Y-65039719D01*
X169245950Y-65037459D01*
X169252494Y-65026395D01*
X169297643Y-64870993D01*
X169300500Y-64834690D01*
X169300500Y-64365310D01*
X169297643Y-64329007D01*
X169281410Y-64273135D01*
X169251034Y-64168579D01*
X169251233Y-64098710D01*
X169282430Y-64046302D01*
X169291135Y-64037598D01*
X169372869Y-63899393D01*
X169417665Y-63745204D01*
X169420500Y-63709181D01*
X169420499Y-63310820D01*
X169417665Y-63274796D01*
X169372869Y-63120607D01*
X169338869Y-63063117D01*
X169321688Y-62995398D01*
X169338869Y-62936882D01*
X169372869Y-62879393D01*
X169374507Y-62873757D01*
X169417664Y-62725208D01*
X169417664Y-62725206D01*
X169417665Y-62725204D01*
X169420500Y-62689181D01*
X169420499Y-62290820D01*
X169417665Y-62254796D01*
X169372869Y-62100607D01*
X169291135Y-61962402D01*
X169291133Y-61962400D01*
X169291130Y-61962396D01*
X169236819Y-61908085D01*
X169222115Y-61881157D01*
X169205523Y-61855339D01*
X169204631Y-61849138D01*
X169203334Y-61846762D01*
X169200500Y-61820404D01*
X169200500Y-61800096D01*
X169220185Y-61733057D01*
X169236814Y-61712420D01*
X170428322Y-60520912D01*
X170489642Y-60487429D01*
X170559334Y-60492413D01*
G37*
%TD.AperFunction*%
%TA.AperFunction,Conductor*%
G36*
X160622216Y-65195184D02*
G01*
X160667971Y-65247988D01*
X160677915Y-65317146D01*
X160672883Y-65338503D01*
X160635144Y-65452392D01*
X160625000Y-65551677D01*
X160625000Y-65575000D01*
X161476000Y-65575000D01*
X161543039Y-65594685D01*
X161588794Y-65647489D01*
X161600000Y-65699000D01*
X161600000Y-65951000D01*
X161580315Y-66018039D01*
X161527511Y-66063794D01*
X161476000Y-66075000D01*
X160596309Y-66075000D01*
X160529270Y-66055315D01*
X160508628Y-66038681D01*
X160501870Y-66031923D01*
X160501862Y-66031917D01*
X160423681Y-65985681D01*
X160360398Y-65948256D01*
X160360397Y-65948255D01*
X160360396Y-65948255D01*
X160360393Y-65948254D01*
X160202573Y-65902402D01*
X160202567Y-65902401D01*
X160165701Y-65899500D01*
X160165694Y-65899500D01*
X159924500Y-65899500D01*
X159915814Y-65896949D01*
X159906853Y-65898238D01*
X159882812Y-65887259D01*
X159857461Y-65879815D01*
X159851533Y-65872974D01*
X159843297Y-65869213D01*
X159829007Y-65846978D01*
X159811706Y-65827011D01*
X159809418Y-65816496D01*
X159805523Y-65810435D01*
X159800500Y-65775500D01*
X159800500Y-65725098D01*
X159820185Y-65658059D01*
X159836819Y-65637417D01*
X159853224Y-65621011D01*
X159853228Y-65621006D01*
X160262416Y-65211818D01*
X160289343Y-65197114D01*
X160315162Y-65180522D01*
X160321362Y-65179630D01*
X160323739Y-65178333D01*
X160350097Y-65175499D01*
X160555177Y-65175499D01*
X160622216Y-65195184D01*
G37*
%TD.AperFunction*%
%TA.AperFunction,Conductor*%
G36*
X162265701Y-62287383D02*
G01*
X162272180Y-62293415D01*
X162563181Y-62584416D01*
X162596666Y-62645739D01*
X162599500Y-62672097D01*
X162599500Y-63146892D01*
X162579815Y-63213931D01*
X162527011Y-63259686D01*
X162457853Y-63269630D01*
X162436497Y-63264598D01*
X162347608Y-63235144D01*
X162248322Y-63225000D01*
X162225000Y-63225000D01*
X162225000Y-64076000D01*
X162205315Y-64143039D01*
X162152511Y-64188794D01*
X162101000Y-64200000D01*
X161849000Y-64200000D01*
X161781961Y-64180315D01*
X161736206Y-64127511D01*
X161725000Y-64076000D01*
X161725000Y-63219364D01*
X161698293Y-63170458D01*
X161703275Y-63100766D01*
X161745144Y-63044831D01*
X161756325Y-63037371D01*
X161817598Y-63001135D01*
X161931135Y-62887598D01*
X162012869Y-62749393D01*
X162050248Y-62620735D01*
X162057664Y-62595208D01*
X162057665Y-62595202D01*
X162060499Y-62559188D01*
X162060500Y-62559181D01*
X162060499Y-62381094D01*
X162080183Y-62314057D01*
X162132987Y-62268302D01*
X162202145Y-62258358D01*
X162265701Y-62287383D01*
G37*
%TD.AperFunction*%
%TA.AperFunction,Conductor*%
G36*
X167748752Y-61918950D02*
G01*
X167764459Y-61920074D01*
X167780392Y-61932001D01*
X167798788Y-61939589D01*
X167807786Y-61952507D01*
X167820393Y-61961945D01*
X167827348Y-61980592D01*
X167838722Y-61996922D01*
X167839307Y-62012656D01*
X167844810Y-62027409D01*
X167840579Y-62046854D01*
X167841320Y-62066743D01*
X167830599Y-62092735D01*
X167829958Y-62095682D01*
X167827862Y-62099371D01*
X167827131Y-62100605D01*
X167827129Y-62100611D01*
X167782335Y-62254791D01*
X167782334Y-62254797D01*
X167779500Y-62290811D01*
X167779500Y-62689169D01*
X167779501Y-62689191D01*
X167782335Y-62725205D01*
X167827129Y-62879388D01*
X167827132Y-62879395D01*
X167861128Y-62936881D01*
X167878309Y-63004605D01*
X167861128Y-63063119D01*
X167827132Y-63120604D01*
X167827129Y-63120611D01*
X167782335Y-63274791D01*
X167782334Y-63274797D01*
X167779500Y-63310811D01*
X167779500Y-63709169D01*
X167779501Y-63709191D01*
X167782334Y-63745201D01*
X167810139Y-63840906D01*
X167810063Y-63867162D01*
X167813800Y-63893147D01*
X167809965Y-63901543D01*
X167809939Y-63910775D01*
X167795681Y-63932820D01*
X167784775Y-63956703D01*
X167777008Y-63961694D01*
X167771996Y-63969445D01*
X167748083Y-63980282D01*
X167725997Y-63994477D01*
X167712477Y-63996420D01*
X167708358Y-63998288D01*
X167691062Y-63999500D01*
X167576257Y-63999500D01*
X167509218Y-63979815D01*
X167503900Y-63976075D01*
X167502836Y-63975461D01*
X167356765Y-63914957D01*
X167356760Y-63914955D01*
X167239361Y-63899500D01*
X166850636Y-63899500D01*
X166733246Y-63914953D01*
X166733238Y-63914956D01*
X166665612Y-63942967D01*
X166596143Y-63950435D01*
X166533664Y-63919159D01*
X166498012Y-63859069D01*
X166495221Y-63844581D01*
X166495171Y-63844205D01*
X166495044Y-63843238D01*
X166434536Y-63697159D01*
X166338282Y-63571718D01*
X166212841Y-63475464D01*
X166157804Y-63452667D01*
X166066762Y-63414956D01*
X166066760Y-63414955D01*
X165950281Y-63399621D01*
X165886384Y-63371355D01*
X165847913Y-63313030D01*
X165847082Y-63243165D01*
X165884154Y-63183942D01*
X165903345Y-63169950D01*
X166037286Y-63090737D01*
X166037294Y-63090731D01*
X166150731Y-62977294D01*
X166150738Y-62977285D01*
X166232406Y-62839191D01*
X166232407Y-62839188D01*
X166277166Y-62685128D01*
X166277167Y-62685122D01*
X166279931Y-62650000D01*
X165634000Y-62650000D01*
X165625314Y-62647449D01*
X165616353Y-62648738D01*
X165592312Y-62637759D01*
X165566961Y-62630315D01*
X165561033Y-62623474D01*
X165552797Y-62619713D01*
X165538507Y-62597478D01*
X165521206Y-62577511D01*
X165518918Y-62566996D01*
X165515023Y-62560935D01*
X165510000Y-62526000D01*
X165510000Y-62290243D01*
X165529685Y-62223204D01*
X165582489Y-62177449D01*
X165651647Y-62167505D01*
X165666095Y-62170469D01*
X165669942Y-62171500D01*
X165669943Y-62171500D01*
X167075116Y-62171500D01*
X167075132Y-62171501D01*
X167082728Y-62171501D01*
X167240839Y-62171501D01*
X167240842Y-62171501D01*
X167393570Y-62130577D01*
X167478440Y-62081577D01*
X167530501Y-62051520D01*
X167633448Y-61948572D01*
X167650911Y-61939037D01*
X167665456Y-61925455D01*
X167680947Y-61922636D01*
X167694767Y-61915090D01*
X167714617Y-61916509D01*
X167734197Y-61912947D01*
X167748752Y-61918950D01*
G37*
%TD.AperFunction*%
%TA.AperFunction,Conductor*%
G36*
X173063181Y-61369627D02*
G01*
X173096666Y-61430950D01*
X173099500Y-61457308D01*
X173099500Y-62090242D01*
X173079815Y-62157281D01*
X173027011Y-62203036D01*
X172957853Y-62212980D01*
X172894297Y-62183955D01*
X172887819Y-62177923D01*
X172869786Y-62159890D01*
X172697817Y-62034949D01*
X172688504Y-62030204D01*
X172637707Y-61982230D01*
X172620912Y-61914409D01*
X172643449Y-61848274D01*
X172688507Y-61809232D01*
X172697555Y-61804622D01*
X172751716Y-61765270D01*
X172751717Y-61765270D01*
X172119408Y-61132962D01*
X172182993Y-61115925D01*
X172297007Y-61050099D01*
X172390099Y-60957007D01*
X172455925Y-60842993D01*
X172472962Y-60779408D01*
X173063181Y-61369627D01*
G37*
%TD.AperFunction*%
%TA.AperFunction,Conductor*%
G36*
X153744075Y-60842993D02*
G01*
X153809901Y-60957007D01*
X153902993Y-61050099D01*
X154017007Y-61115925D01*
X154080590Y-61132962D01*
X153448282Y-61765269D01*
X153448282Y-61765270D01*
X153502452Y-61804626D01*
X153502451Y-61804626D01*
X153511495Y-61809234D01*
X153562292Y-61857208D01*
X153579087Y-61925029D01*
X153556550Y-61991164D01*
X153511499Y-62030202D01*
X153502182Y-62034949D01*
X153330213Y-62159890D01*
X153330209Y-62159894D01*
X153312181Y-62177923D01*
X153250858Y-62211408D01*
X153181166Y-62206424D01*
X153125233Y-62164552D01*
X153100816Y-62099088D01*
X153100500Y-62090242D01*
X153100500Y-61457308D01*
X153120185Y-61390269D01*
X153136819Y-61369627D01*
X153727037Y-60779408D01*
X153744075Y-60842993D01*
G37*
%TD.AperFunction*%
%TA.AperFunction,Conductor*%
G36*
X153305703Y-59116045D02*
G01*
X153312181Y-59122077D01*
X153330213Y-59140109D01*
X153502179Y-59265048D01*
X153502181Y-59265049D01*
X153502184Y-59265051D01*
X153511493Y-59269794D01*
X153562290Y-59317766D01*
X153579087Y-59385587D01*
X153556552Y-59451722D01*
X153511505Y-59490760D01*
X153502446Y-59495376D01*
X153502440Y-59495380D01*
X153448282Y-59534727D01*
X153448282Y-59534728D01*
X154080591Y-60167037D01*
X154017007Y-60184075D01*
X153902993Y-60249901D01*
X153809901Y-60342993D01*
X153744075Y-60457007D01*
X153727037Y-60520591D01*
X153136819Y-59930373D01*
X153103334Y-59869050D01*
X153100500Y-59842692D01*
X153100500Y-59209758D01*
X153120185Y-59142719D01*
X153172989Y-59096964D01*
X153242147Y-59087020D01*
X153305703Y-59116045D01*
G37*
%TD.AperFunction*%
%TA.AperFunction,Conductor*%
G36*
X173018834Y-59093576D02*
G01*
X173074767Y-59135448D01*
X173099184Y-59200912D01*
X173099500Y-59209758D01*
X173099500Y-59842692D01*
X173079815Y-59909731D01*
X173063181Y-59930373D01*
X172472962Y-60520591D01*
X172455925Y-60457007D01*
X172390099Y-60342993D01*
X172297007Y-60249901D01*
X172182993Y-60184075D01*
X172119408Y-60167037D01*
X172751716Y-59534728D01*
X172697547Y-59495373D01*
X172697547Y-59495372D01*
X172688500Y-59490763D01*
X172637706Y-59442788D01*
X172620912Y-59374966D01*
X172643451Y-59308832D01*
X172688508Y-59269793D01*
X172697816Y-59265051D01*
X172786096Y-59200912D01*
X172869786Y-59140109D01*
X172869788Y-59140106D01*
X172869792Y-59140104D01*
X172887819Y-59122077D01*
X172949142Y-59088592D01*
X173018834Y-59093576D01*
G37*
%TD.AperFunction*%
%TD*%
M02*
