M48
; DRILL file {KiCad 9.0.7} date 2026-05-15T08:56:16-0500
; FORMAT={-:-/ absolute / metric / decimal}
; #@! TF.CreationDate,2026-05-15T08:56:16-05:00
; #@! TF.GenerationSoftware,Kicad,Pcbnew,9.0.7
; #@! TF.FileFunction,Plated,1,2,PTH
FMAT,2
METRIC
; #@! TA.AperFunction,Plated,PTH,ViaDrill
T1C0.200
; #@! TA.AperFunction,Plated,PTH,ViaDrill
T2C0.300
; #@! TA.AperFunction,Plated,PTH,ComponentDrill
T3C0.600
; #@! TA.AperFunction,Plated,PTH,ComponentDrill
T4C1.000
%
G90
G05
T1
X164.1Y-86.11
X164.215Y-81.625
X165.07Y-85.8
X165.57Y-84.32
X168.313Y-81.798
X169.963Y-78.36
T2
X155.8Y-71.4
X155.997Y-68.8
X156.6Y-64.4
X158.0Y-81.2
X158.0Y-95.0
X158.182Y-82.088
X158.496Y-82.825
X159.0Y-89.8
X159.089Y-76.6
X159.6Y-69.0
X160.2Y-73.6
X160.424Y-89.024
X160.6Y-82.8
X160.624Y-83.624
X160.961Y-85.609
X161.0Y-84.8
X161.31Y-75.3
X161.491Y-81.182
X161.5Y-86.2
X162.4Y-69.0
X162.6Y-63.0
X162.6Y-66.61
X162.849Y-85.8
X163.175Y-88.418
X164.4Y-104.4
X164.649Y-64.801
X164.7Y-88.29
X165.2Y-82.27
X165.224Y-85.091
X165.461Y-88.042
X165.54Y-83.49
X165.84Y-92.04
X166.0Y-100.8
X166.26Y-67.37
X166.6Y-63.26
X166.65Y-88.17
X166.69Y-79.52
X166.78Y-91.32
X167.0Y-71.0
X167.23Y-62.45
X167.785Y-82.5
X168.4Y-94.0
X168.88Y-68.05
X169.0Y-57.8
X169.31Y-66.23
X169.661Y-80.53
X169.67Y-61.77
X169.8Y-85.0
X169.8Y-97.2
X170.12Y-71.4
X170.63Y-81.34
X170.73Y-67.07
T4
X154.21Y-55.57
X154.21Y-58.11
X154.21Y-60.65
X154.21Y-63.19
X154.21Y-65.73
X154.21Y-68.27
X154.21Y-70.81
X154.21Y-73.35
X154.21Y-75.89
X154.21Y-78.43
X154.21Y-80.97
X154.21Y-83.51
X154.21Y-86.05
X154.21Y-88.59
X154.21Y-91.13
X154.21Y-93.67
X154.21Y-96.21
X154.21Y-98.75
X154.21Y-101.29
X154.21Y-103.83
X160.56Y-103.59
X163.1Y-103.59
X165.64Y-103.59
X171.99Y-55.57
X171.99Y-58.11
X171.99Y-60.65
X171.99Y-63.19
X171.99Y-65.73
X171.99Y-68.27
X171.99Y-70.81
X171.99Y-73.35
X171.99Y-75.89
X171.99Y-78.43
X171.99Y-80.97
X171.99Y-83.51
X171.99Y-86.05
X171.99Y-88.59
X171.99Y-91.13
X171.99Y-93.67
X171.99Y-96.21
X171.99Y-98.75
X171.99Y-101.29
X171.99Y-103.83
T3
G00X158.78Y-55.75
M15
G01X158.78Y-55.15
M16
G05
G00X158.78Y-60.18
M15
G01X158.78Y-59.08
M16
G05
G00X167.42Y-55.75
M15
G01X167.42Y-55.15
M16
G05
G00X167.42Y-60.18
M15
G01X167.42Y-59.08
M16
G05
M30
